<?xml version="1.0" encoding="UTF-8"?>
<!DOCTYPE svg PUBLIC "-//W3C//DTD SVG 1.1//EN" "http://www.w3.org/Graphics/SVG/1.1/DTD/svg11.dtd">
<svg xmlns="http://www.w3.org/2000/svg" version="1.1" width="20px" height="20px" style="shape-rendering:geometricPrecision; text-rendering:geometricPrecision; image-rendering:optimizeQuality; fill-rule:evenodd; clip-rule:evenodd" xmlns:xlink="http://www.w3.org/1999/xlink">
<g><path style="opacity:0.047" fill="#191002" d="M 6.5,-0.5 C 8.5,-0.5 10.5,-0.5 12.5,-0.5C 14.649,0.73623 16.9823,1.73623 19.5,2.5C 19.5,8.16667 19.5,13.8333 19.5,19.5C 12.8333,19.5 6.16667,19.5 -0.5,19.5C -0.5,14.5 -0.5,9.5 -0.5,4.5C 1.30157,2.0983 3.6349,0.431637 6.5,-0.5 Z"/></g>
<g><path style="opacity:1" fill="#9e6412" d="M 14.5,3.5 C 10.8936,3.21083 7.39364,3.54416 4,4.5C 3.33333,7.5 3.33333,10.5 4,13.5C 5.0391,14.7101 6.20577,15.7101 7.5,16.5C 5.69074,17.2907 3.69074,17.2907 1.5,16.5C 1.17443,12.1161 1.50776,7.7828 2.5,3.5C 6.78748,-0.290418 10.7875,-0.290418 14.5,3.5 Z"/></g>
<g><path style="opacity:1" fill="#c3862f" d="M 14.5,3.5 C 15.1667,3.5 15.8333,3.5 16.5,3.5C 17.0803,7.64903 16.4136,11.3157 14.5,14.5C 15.8333,10.8333 15.8333,7.16667 14.5,3.5 Z"/></g>
<g><path style="opacity:1" fill="#edd7bb" d="M 14.5,3.5 C 15.8333,7.16667 15.8333,10.8333 14.5,14.5C 13.5,15.1667 12.5,15.8333 11.5,16.5C 10.1667,17.8333 8.83333,17.8333 7.5,16.5C 6.20577,15.7101 5.0391,14.7101 4,13.5C 3.33333,10.5 3.33333,7.5 4,4.5C 7.39364,3.54416 10.8936,3.21083 14.5,3.5 Z"/></g>
<g><path style="opacity:1" fill="#e2b67f" d="M 12.5,6.5 C 12.56,5.95691 12.8933,5.62358 13.5,5.5C 15.1859,9.22051 14.5192,12.3872 11.5,15C 10.2506,15.7401 9.25057,15.5735 8.5,14.5C 13.0984,13.2796 14.4317,10.6129 12.5,6.5 Z"/></g>
<g><path style="opacity:1" fill="#dcb27b" d="M 7.5,6.5 C 6.35089,6.79106 5.68423,7.62439 5.5,9C 5.86269,11.1923 6.86269,13.0256 8.5,14.5C 6.98261,14.4894 5.81595,13.8228 5,12.5C 4.50335,10.1902 4.33669,7.85684 4.5,5.5C 5.79105,5.26269 6.79105,5.59603 7.5,6.5 Z"/></g>
<g><path style="opacity:1" fill="#fdf9f5" d="M 7.5,6.5 C 9.16667,6.5 10.8333,6.5 12.5,6.5C 14.4317,10.6129 13.0984,13.2796 8.5,14.5C 6.86269,13.0256 5.86269,11.1923 5.5,9C 5.68423,7.62439 6.35089,6.79106 7.5,6.5 Z"/></g>
<g><path style="opacity:1" fill="#955b09" d="M 16.5,3.5 C 17.4861,7.97005 17.8195,12.6367 17.5,17.5C 15.2646,17.7947 13.2646,17.4614 11.5,16.5C 12.5,15.8333 13.5,15.1667 14.5,14.5C 16.4136,11.3157 17.0803,7.64903 16.5,3.5 Z"/></g>
<g><path style="opacity:1" fill="#744e1a" d="M 1.5,16.5 C 3.69074,17.2907 5.69074,17.2907 7.5,16.5C 8.83333,17.8333 10.1667,17.8333 11.5,16.5C 13.2646,17.4614 15.2646,17.7947 17.5,17.5C 15.0221,18.1641 12.3555,18.4975 9.5,18.5C 6.40984,18.4783 3.74317,17.8117 1.5,16.5 Z"/></g>
</svg>
