<?xml version="1.0" encoding="UTF-8"?>
<!DOCTYPE svg PUBLIC "-//W3C//DTD SVG 1.1//EN" "http://www.w3.org/Graphics/SVG/1.1/DTD/svg11.dtd">
<svg xmlns="http://www.w3.org/2000/svg" version="1.1" width="22px" height="22px" style="shape-rendering:geometricPrecision; text-rendering:geometricPrecision; image-rendering:optimizeQuality; fill-rule:evenodd; clip-rule:evenodd" xmlns:xlink="http://www.w3.org/1999/xlink">
<g><path style="opacity:0.33" fill="#080808" d="M 5.5,0.5 C 5.5,0.166667 5.5,-0.166667 5.5,-0.5C 9.5,-0.5 13.5,-0.5 17.5,-0.5C 19.4634,3.91285 19.9634,8.57952 19,13.5C 17.2636,16.7392 14.7636,19.0726 11.5,20.5C 11.5,20.1667 11.5,19.8333 11.5,19.5C 13.914,18.0892 15.5806,16.0892 16.5,13.5C 18.1628,11.5615 18.8294,9.22817 18.5,6.5C 17.8333,4.5 17.1667,2.5 16.5,0.5C 12.8333,0.5 9.16667,0.5 5.5,0.5 Z"/></g>
<g><path style="opacity:1" fill="#e1dfe1" d="M 6.5,1.5 C 9.1873,1.33591 11.854,1.50258 14.5,2C 13.5842,2.27842 12.9175,2.77842 12.5,3.5C 12.1583,4.33825 11.4916,4.67158 10.5,4.5C 9.83333,4.5 9.5,4.16667 9.5,3.5C 8.5,2.83333 7.5,2.16667 6.5,1.5 Z"/></g>
<g><path style="opacity:1" fill="#b1b0b1" d="M 5.5,1.5 C 5.5,1.16667 5.5,0.833333 5.5,0.5C 9.16667,0.5 12.8333,0.5 16.5,0.5C 17.1667,2.5 17.8333,4.5 18.5,6.5C 17.8333,6.5 17.1667,6.5 16.5,6.5C 14.5695,6.22945 13.2362,5.22945 12.5,3.5C 12.9175,2.77842 13.5842,2.27842 14.5,2C 11.854,1.50258 9.1873,1.33591 6.5,1.5C 6.16667,1.5 5.83333,1.5 5.5,1.5 Z"/></g>
<g><path style="opacity:0.314" fill="#050505" d="M 5.5,0.5 C 5.5,0.833333 5.5,1.16667 5.5,1.5C 2.46495,4.65676 1.79828,8.32342 3.5,12.5C 3.16667,12.5 2.83333,12.5 2.5,12.5C 1.19438,9.31316 1.19438,5.97983 2.5,2.5C 3.51776,1.80749 4.51776,1.14083 5.5,0.5 Z"/></g>
<g><path style="opacity:1" fill="#cacaca" d="M 5.5,1.5 C 5.83333,1.5 6.16667,1.5 6.5,1.5C 7.5,2.16667 8.5,2.83333 9.5,3.5C 8.2823,4.73114 6.94896,5.89781 5.5,7C 6.83333,8.33333 6.83333,9.66667 5.5,11C 6.4158,11.2784 7.08247,11.7784 7.5,12.5C 6.59603,13.209 6.26269,14.209 6.5,15.5C 5.27187,14.6935 4.27187,13.6935 3.5,12.5C 1.79828,8.32342 2.46495,4.65676 5.5,1.5 Z"/></g>
<g><path style="opacity:0.231" fill="#111011" d="M 9.5,3.5 C 9.5,4.16667 9.83333,4.5 10.5,4.5C 10.5,5.16667 10.5,5.83333 10.5,6.5C 7.75433,9.13282 8.42099,10.4662 12.5,10.5C 12.3284,11.4916 12.6618,12.1583 13.5,12.5C 13.631,13.2389 13.4643,13.9056 13,14.5C 11.7083,13.2089 10.5417,13.2089 9.5,14.5C 8.83333,13.8333 8.16667,13.1667 7.5,12.5C 7.08247,11.7784 6.4158,11.2784 5.5,11C 6.83333,9.66667 6.83333,8.33333 5.5,7C 6.94896,5.89781 8.2823,4.73114 9.5,3.5 Z"/></g>
<g><path style="opacity:0.282" fill="#0d0d0d" d="M 12.5,3.5 C 13.2362,5.22945 14.5695,6.22945 16.5,6.5C 15.6986,8.35272 15.3653,10.0194 15.5,11.5C 14.8333,11.8333 14.1667,12.1667 13.5,12.5C 12.6618,12.1583 12.3284,11.4916 12.5,10.5C 12.7709,8.6203 12.1042,7.28696 10.5,6.5C 10.5,5.83333 10.5,5.16667 10.5,4.5C 11.4916,4.67158 12.1583,4.33825 12.5,3.5 Z"/></g>
<g><path style="opacity:1" fill="#bec0be" d="M 16.5,6.5 C 17.1667,6.5 17.8333,6.5 18.5,6.5C 18.8294,9.22817 18.1628,11.5615 16.5,13.5C 16.1667,12.8333 15.8333,12.1667 15.5,11.5C 15.3653,10.0194 15.6986,8.35272 16.5,6.5 Z"/></g>
<g><path style="opacity:1" fill="#dfdcdf" d="M 10.5,6.5 C 12.1042,7.28696 12.7709,8.6203 12.5,10.5C 8.42099,10.4662 7.75433,9.13282 10.5,6.5 Z"/></g>
<g><path style="opacity:1" fill="#e6e6e6" d="M 7.5,12.5 C 8.16667,13.1667 8.83333,13.8333 9.5,14.5C 10.8333,15.8333 10.8333,17.1667 9.5,18.5C 8.16667,17.8333 7.16667,16.8333 6.5,15.5C 6.26269,14.209 6.59603,13.209 7.5,12.5 Z"/></g>
<g><path style="opacity:0.301" fill="#1e1e1e" d="M 2.5,12.5 C 2.83333,12.5 3.16667,12.5 3.5,12.5C 4.27187,13.6935 5.27187,14.6935 6.5,15.5C 7.16667,16.8333 8.16667,17.8333 9.5,18.5C 9.84171,19.3382 10.5084,19.6716 11.5,19.5C 11.5,19.8333 11.5,20.1667 11.5,20.5C 11.5,20.8333 11.5,21.1667 11.5,21.5C 10.8333,21.5 10.1667,21.5 9.5,21.5C 6.76059,18.7673 4.42725,15.7673 2.5,12.5 Z"/></g>
<g><path style="opacity:1" fill="#d2d1d2" d="M 15.5,11.5 C 15.8333,12.1667 16.1667,12.8333 16.5,13.5C 15.5806,16.0892 13.914,18.0892 11.5,19.5C 10.5084,19.6716 9.84171,19.3382 9.5,18.5C 10.8333,17.1667 10.8333,15.8333 9.5,14.5C 10.5417,13.2089 11.7083,13.2089 13,14.5C 13.4643,13.9056 13.631,13.2389 13.5,12.5C 14.1667,12.1667 14.8333,11.8333 15.5,11.5 Z"/></g>
</svg>
