<?xml version="1.0" encoding="UTF-8"?>
<!DOCTYPE svg PUBLIC "-//W3C//DTD SVG 1.1//EN" "http://www.w3.org/Graphics/SVG/1.1/DTD/svg11.dtd">
<svg xmlns="http://www.w3.org/2000/svg" version="1.1" width="20px" height="20px" style="shape-rendering:geometricPrecision; text-rendering:geometricPrecision; image-rendering:optimizeQuality; fill-rule:evenodd; clip-rule:evenodd" xmlns:xlink="http://www.w3.org/1999/xlink">
<g><path style="opacity:0.757" fill="#231608" d="M 6.5,-0.5 C 8.5,-0.5 10.5,-0.5 12.5,-0.5C 12.5,0.166667 12.8333,0.5 13.5,0.5C 13.5,0.833333 13.5,1.16667 13.5,1.5C 11.1256,0.313883 8.79222,0.313883 6.5,1.5C 5.39105,1.55688 4.39105,1.89022 3.5,2.5C 2.83333,2.5 2.16667,2.5 1.5,2.5C 3.07249,1.31271 4.73915,0.312714 6.5,-0.5 Z"/></g>
<g><path style="opacity:1" fill="#a6590b" d="M 13.5,1.5 C 14.1667,1.5 14.5,1.83333 14.5,2.5C 13.5,2.5 12.5,2.5 11.5,2.5C 10.8333,2.5 10.1667,2.5 9.5,2.5C 8.5,2.5 7.5,2.5 6.5,2.5C 6.5,2.16667 6.5,1.83333 6.5,1.5C 8.79222,0.313883 11.1256,0.313883 13.5,1.5 Z"/></g>
<g><path style="opacity:0.004" fill="#251605" d="M 13.5,1.5 C 13.5,1.16667 13.5,0.833333 13.5,0.5C 15.5,1.16667 17.5,1.83333 19.5,2.5C 19.5,2.83333 19.5,3.16667 19.5,3.5C 18.8333,8.16667 18.1667,12.8333 17.5,17.5C 17.5,16.8333 17.5,16.1667 17.5,15.5C 17.5,14.1667 17.5,12.8333 17.5,11.5C 17.8134,8.75312 17.48,6.08645 16.5,3.5C 15.8165,3.13727 15.1499,2.80393 14.5,2.5C 14.5,1.83333 14.1667,1.5 13.5,1.5 Z"/></g>
<g><path style="opacity:1" fill="#a8631b" d="M 6.5,1.5 C 6.5,1.83333 6.5,2.16667 6.5,2.5C 5.83333,3.83333 4.83333,4.83333 3.5,5.5C 3.5,4.5 3.5,3.5 3.5,2.5C 4.39105,1.89022 5.39105,1.55688 6.5,1.5 Z"/></g>
<g><path style="opacity:1" fill="#e8b16f" d="M 9.5,2.5 C 10.1667,2.5 10.8333,2.5 11.5,2.5C 12.6005,3.60486 13.2671,4.93819 13.5,6.5C 12.2652,6.27858 11.2652,5.61191 10.5,4.5C 9.89333,4.62358 9.55999,4.95691 9.5,5.5C 9.16667,5.5 8.83333,5.5 8.5,5.5C 8.5,4.83333 8.16667,4.5 7.5,4.5C 8.16667,3.83333 8.83333,3.16667 9.5,2.5 Z"/></g>
<g><path style="opacity:0.004" fill="#040206" d="M -0.5,2.5 C 0.166667,2.5 0.833333,2.5 1.5,2.5C 1.5,3.5 1.5,4.5 1.5,5.5C 0.202683,10.0665 0.202683,14.7331 1.5,19.5C 0.833333,19.5 0.166667,19.5 -0.5,19.5C -0.5,13.8333 -0.5,8.16667 -0.5,2.5 Z"/></g>
<g><path style="opacity:1" fill="#db9b50" d="M 11.5,2.5 C 12.5,2.5 13.5,2.5 14.5,2.5C 14.7512,4.17028 15.4178,5.67028 16.5,7C 16.2716,7.39877 15.9382,7.56544 15.5,7.5C 14.8333,7.16667 14.1667,6.83333 13.5,6.5C 13.2671,4.93819 12.6005,3.60486 11.5,2.5 Z"/></g>
<g><path style="opacity:0.004" fill="#020109" d="M 19.5,3.5 C 19.5,8.83333 19.5,14.1667 19.5,19.5C 18.8333,19.5 18.1667,19.5 17.5,19.5C 17.5,19.1667 17.5,18.8333 17.5,18.5C 17.5,18.1667 17.5,17.8333 17.5,17.5C 18.1667,12.8333 18.8333,8.16667 19.5,3.5 Z"/></g>
<g><path style="opacity:1" fill="#f6dfbe" d="M 6.5,2.5 C 7.5,2.5 8.5,2.5 9.5,2.5C 8.83333,3.16667 8.16667,3.83333 7.5,4.5C 5.89578,5.28696 5.22911,6.6203 5.5,8.5C 4.83333,8.16667 4.16667,7.83333 3.5,7.5C 3.5,6.83333 3.5,6.16667 3.5,5.5C 4.83333,4.83333 5.83333,3.83333 6.5,2.5 Z"/></g>
<g><path style="opacity:1" fill="#e49839" d="M 13.5,6.5 C 13.8333,7.83333 14.1667,9.16667 14.5,10.5C 13.609,9.89022 12.609,9.55688 11.5,9.5C 10.8333,8.16667 10.1667,6.83333 9.5,5.5C 9.55999,4.95691 9.89333,4.62358 10.5,4.5C 11.2652,5.61191 12.2652,6.27858 13.5,6.5 Z"/></g>
<g><path style="opacity:1" fill="#ac6416" d="M 14.5,2.5 C 15.1499,2.80393 15.8165,3.13727 16.5,3.5C 17.48,6.08645 17.8134,8.75312 17.5,11.5C 16.8333,11.8333 16.1667,12.1667 15.5,12.5C 15.5,10.8333 15.5,9.16667 15.5,7.5C 15.9382,7.56544 16.2716,7.39877 16.5,7C 15.4178,5.67028 14.7512,4.17028 14.5,2.5 Z"/></g>
<g><path style="opacity:1" fill="#e2a556" d="M 7.5,4.5 C 8.16667,4.5 8.5,4.83333 8.5,5.5C 8.5,5.83333 8.5,6.16667 8.5,6.5C 7.76109,6.36899 7.09442,6.53566 6.5,7C 7.59809,7.76971 7.59809,8.60305 6.5,9.5C 6.16667,9.5 5.83333,9.5 5.5,9.5C 5.5,9.16667 5.5,8.83333 5.5,8.5C 5.22911,6.6203 5.89578,5.28696 7.5,4.5 Z"/></g>
<g><path style="opacity:1" fill="#dc8d29" d="M 8.5,6.5 C 9.23411,7.70792 9.56745,9.04125 9.5,10.5C 8.60895,9.89022 7.60895,9.55688 6.5,9.5C 7.59809,8.60305 7.59809,7.76971 6.5,7C 7.09442,6.53566 7.76109,6.36899 8.5,6.5 Z"/></g>
<g><path style="opacity:1" fill="#efc488" d="M 8.5,5.5 C 8.83333,5.5 9.16667,5.5 9.5,5.5C 10.1667,6.83333 10.8333,8.16667 11.5,9.5C 10.8333,11.1667 10.1667,12.8333 9.5,14.5C 8.83333,14.5 8.5,14.1667 8.5,13.5C 8.55688,12.391 8.89022,11.391 9.5,10.5C 9.56745,9.04125 9.23411,7.70792 8.5,6.5C 8.5,6.16667 8.5,5.83333 8.5,5.5 Z"/></g>
<g><path style="opacity:1" fill="#deb279" d="M 13.5,6.5 C 14.1667,6.83333 14.8333,7.16667 15.5,7.5C 15.5,9.16667 15.5,10.8333 15.5,12.5C 15.4431,13.609 15.1098,14.609 14.5,15.5C 13.8333,15.8333 13.1667,16.1667 12.5,16.5C 11.5,15.8333 10.5,15.1667 9.5,14.5C 12.9496,15.2436 14.6162,13.9103 14.5,10.5C 14.1667,9.16667 13.8333,7.83333 13.5,6.5 Z"/></g>
<g><path style="opacity:1" fill="#954f08" d="M 1.5,2.5 C 2.16667,2.5 2.83333,2.5 3.5,2.5C 3.5,3.5 3.5,4.5 3.5,5.5C 3.5,6.16667 3.5,6.83333 3.5,7.5C 2.59603,8.20895 2.26269,9.20895 2.5,10.5C 2.16667,10.5 1.83333,10.5 1.5,10.5C 1.5,8.83333 1.5,7.16667 1.5,5.5C 1.5,4.5 1.5,3.5 1.5,2.5 Z"/></g>
<g><path style="opacity:1" fill="#fdf7e2" d="M 3.5,7.5 C 4.16667,7.83333 4.83333,8.16667 5.5,8.5C 5.5,8.83333 5.5,9.16667 5.5,9.5C 5.73731,10.791 5.40397,11.791 4.5,12.5C 3.69929,10.9582 3.36596,9.29152 3.5,7.5 Z"/></g>
<g><path style="opacity:1" fill="#de9e4e" d="M 6.5,9.5 C 7.60895,9.55688 8.60895,9.89022 9.5,10.5C 8.89022,11.391 8.55688,12.391 8.5,13.5C 6.89578,12.713 6.22911,11.3797 6.5,9.5 Z"/></g>
<g><path style="opacity:1" fill="#d78d33" d="M 11.5,9.5 C 12.609,9.55688 13.609,9.89022 14.5,10.5C 14.6162,13.9103 12.9496,15.2436 9.5,14.5C 10.1667,12.8333 10.8333,11.1667 11.5,9.5 Z"/></g>
<g><path style="opacity:1" fill="#bd8e55" d="M 3.5,7.5 C 3.36596,9.29152 3.69929,10.9582 4.5,12.5C 5.16667,13.5 5.83333,14.5 6.5,15.5C 5.83333,15.8333 5.16667,16.1667 4.5,16.5C 2.69206,15.0821 2.02539,13.0821 2.5,10.5C 2.26269,9.20895 2.59603,8.20895 3.5,7.5 Z"/></g>
<g><path style="opacity:1" fill="#83521d" d="M 1.5,10.5 C 1.83333,10.5 2.16667,10.5 2.5,10.5C 2.02539,13.0821 2.69206,15.0821 4.5,16.5C 4.5,16.8333 4.5,17.1667 4.5,17.5C 3.5,17.5 2.5,17.5 1.5,17.5C 1.5,15.1667 1.5,12.8333 1.5,10.5 Z"/></g>
<g><path style="opacity:1" fill="#f9f0d7" d="M 5.5,9.5 C 5.83333,9.5 6.16667,9.5 6.5,9.5C 6.22911,11.3797 6.89578,12.713 8.5,13.5C 8.5,14.1667 8.83333,14.5 9.5,14.5C 10.5,15.1667 11.5,15.8333 12.5,16.5C 12.1667,16.5 11.8333,16.5 11.5,16.5C 9.70848,16.634 8.04181,16.3007 6.5,15.5C 5.83333,14.5 5.16667,13.5 4.5,12.5C 5.40397,11.791 5.73731,10.791 5.5,9.5 Z"/></g>
<g><path style="opacity:1" fill="#9f550a" d="M 17.5,11.5 C 17.5,12.8333 17.5,14.1667 17.5,15.5C 17.1667,15.5 16.8333,15.5 16.5,15.5C 15.8333,15.5 15.1667,15.5 14.5,15.5C 15.1098,14.609 15.4431,13.609 15.5,12.5C 16.1667,12.1667 16.8333,11.8333 17.5,11.5 Z"/></g>
<g><path style="opacity:1" fill="#a77841" d="M 6.5,15.5 C 8.04181,16.3007 9.70848,16.634 11.5,16.5C 11.5,16.8333 11.5,17.1667 11.5,17.5C 10.8333,17.5 10.1667,17.5 9.5,17.5C 7.83333,17.5 6.16667,17.5 4.5,17.5C 4.5,17.1667 4.5,16.8333 4.5,16.5C 5.16667,16.1667 5.83333,15.8333 6.5,15.5 Z"/></g>
<g><path style="opacity:1" fill="#8c4a05" d="M 14.5,15.5 C 15.1667,15.5 15.8333,15.5 16.5,15.5C 15.4479,17.256 13.7812,17.9227 11.5,17.5C 11.5,17.1667 11.5,16.8333 11.5,16.5C 11.8333,16.5 12.1667,16.5 12.5,16.5C 13.1667,16.1667 13.8333,15.8333 14.5,15.5 Z"/></g>
<g><path style="opacity:1" fill="#4b2d11" d="M 1.5,5.5 C 1.5,7.16667 1.5,8.83333 1.5,10.5C 1.5,12.8333 1.5,15.1667 1.5,17.5C 2.5,17.5 3.5,17.5 4.5,17.5C 6.16667,17.5 7.83333,17.5 9.5,17.5C 11.9479,18.4731 14.6146,18.8064 17.5,18.5C 17.5,18.8333 17.5,19.1667 17.5,19.5C 12.1667,19.5 6.83333,19.5 1.5,19.5C 0.202683,14.7331 0.202683,10.0665 1.5,5.5 Z"/></g>
<g><path style="opacity:1" fill="#693603" d="M 16.5,15.5 C 16.8333,15.5 17.1667,15.5 17.5,15.5C 17.5,16.1667 17.5,16.8333 17.5,17.5C 17.5,17.8333 17.5,18.1667 17.5,18.5C 14.6146,18.8064 11.9479,18.4731 9.5,17.5C 10.1667,17.5 10.8333,17.5 11.5,17.5C 13.7812,17.9227 15.4479,17.256 16.5,15.5 Z"/></g>
</svg>
