<?xml version="1.0" encoding="UTF-8"?>
<!DOCTYPE svg PUBLIC "-//W3C//DTD SVG 1.1//EN" "http://www.w3.org/Graphics/SVG/1.1/DTD/svg11.dtd">
<svg xmlns="http://www.w3.org/2000/svg" version="1.1" width="20px" height="20px" style="shape-rendering:geometricPrecision; text-rendering:geometricPrecision; image-rendering:optimizeQuality; fill-rule:evenodd; clip-rule:evenodd" xmlns:xlink="http://www.w3.org/1999/xlink">
<g><path style="opacity:0.049" fill="#050505" d="M 5.5,0.5 C 5.5,0.166667 5.5,-0.166667 5.5,-0.5C 8.83333,-0.5 12.1667,-0.5 15.5,-0.5C 17.6276,3.76136 17.961,8.09469 16.5,12.5C 16.5,11.8333 16.5,11.1667 16.5,10.5C 16.8685,7.46687 16.2018,4.8002 14.5,2.5C 12.0122,0.612165 9.01215,-0.054502 5.5,0.5 Z"/></g>
<g><path style="opacity:0.573" fill="#535253" d="M 5.5,0.5 C 9.01215,-0.054502 12.0122,0.612165 14.5,2.5C 11.1667,1.16667 7.83333,1.16667 4.5,2.5C 4.5,2.16667 4.5,1.83333 4.5,1.5C 4.5,0.833333 4.83333,0.5 5.5,0.5 Z"/></g>
<g><path style="opacity:1" fill="#b0afb0" d="M 14.5,2.5 C 16.2018,4.8002 16.8685,7.46687 16.5,10.5C 16.1667,10.5 15.8333,10.5 15.5,10.5C 14.8333,9.16667 14.1667,7.83333 13.5,6.5C 13.4413,4.27761 12.2747,3.27761 10,3.5C 8.30085,3.38655 7.13419,4.05322 6.5,5.5C 6.16667,5.5 5.83333,5.5 5.5,5.5C 5.44001,4.95691 5.10667,4.62358 4.5,4.5C 3.54811,6.04533 3.21478,7.71199 3.5,9.5C 2.10237,6.99301 2.4357,4.65968 4.5,2.5C 7.83333,1.16667 11.1667,1.16667 14.5,2.5 Z"/></g>
<g><path style="opacity:0.122" fill="#121212" d="M 4.5,1.5 C 4.5,1.83333 4.5,2.16667 4.5,2.5C 2.4357,4.65968 2.10237,6.99301 3.5,9.5C 3.83333,10.1667 4.16667,10.8333 4.5,11.5C 4.5,11.8333 4.5,12.1667 4.5,12.5C 4.5,13.1667 4.5,13.8333 4.5,14.5C 2.10576,12.6682 1.10576,10.1682 1.5,7C 1.44386,4.42619 2.44386,2.59285 4.5,1.5 Z"/></g>
<g><path style="opacity:0.153" fill="#161516" d="M 13.5,6.5 C 13.6747,8.6208 13.3414,10.6208 12.5,12.5C 11.8826,12.6107 11.3826,12.944 11,13.5C 10.5065,11.8659 10.3398,10.1992 10.5,8.5C 11.3764,8.63088 12.0431,8.29755 12.5,7.5C 10.3691,6.83129 8.3691,6.16462 6.5,5.5C 7.13419,4.05322 8.30085,3.38655 10,3.5C 12.2747,3.27761 13.4413,4.27761 13.5,6.5 Z"/></g>
<g><path style="opacity:0.702" fill="#707170" d="M 5.5,5.5 C 5.83333,5.5 6.16667,5.5 6.5,5.5C 8.3691,6.16462 10.3691,6.83129 12.5,7.5C 12.0431,8.29755 11.3764,8.63088 10.5,8.5C 9.83333,7.16667 9.16667,7.16667 8.5,8.5C 6.95186,8.82124 6.28519,9.82124 6.5,11.5C 6.16667,11.5 5.83333,11.5 5.5,11.5C 5.5,9.5 5.5,7.5 5.5,5.5 Z"/></g>
<g><path style="opacity:0.202" fill="#141414" d="M 8.5,8.5 C 8.76781,10.099 8.43448,11.4324 7.5,12.5C 6.83333,12.5 6.5,12.1667 6.5,11.5C 6.28519,9.82124 6.95186,8.82124 8.5,8.5 Z"/></g>
<g><path style="opacity:0.996" fill="#d1cfd1" d="M 5.5,5.5 C 5.5,7.5 5.5,9.5 5.5,11.5C 5.16667,11.5 4.83333,11.5 4.5,11.5C 4.16667,10.8333 3.83333,10.1667 3.5,9.5C 3.21478,7.71199 3.54811,6.04533 4.5,4.5C 5.10667,4.62358 5.44001,4.95691 5.5,5.5 Z"/></g>
<g><path style="opacity:0.876" fill="#757475" d="M 8.5,8.5 C 9.83333,10.1667 9.83333,11.8333 8.5,13.5C 7.83333,13.5 7.5,13.1667 7.5,12.5C 8.43448,11.4324 8.76781,10.099 8.5,8.5 Z"/></g>
<g><path style="opacity:1" fill="#a4a3a4" d="M 13.5,6.5 C 14.1667,7.83333 14.8333,9.16667 15.5,10.5C 15.573,12.0269 14.9063,13.0269 13.5,13.5C 13.5,12.8333 13.1667,12.5 12.5,12.5C 13.3414,10.6208 13.6747,8.6208 13.5,6.5 Z"/></g>
<g><path style="opacity:1" fill="#bfc0bf" d="M 8.5,8.5 C 9.16667,7.16667 9.83333,7.16667 10.5,8.5C 10.3398,10.1992 10.5065,11.8659 11,13.5C 11.3826,12.944 11.8826,12.6107 12.5,12.5C 13.1667,12.5 13.5,12.8333 13.5,13.5C 13.1667,14.5 12.5,15.1667 11.5,15.5C 10.5,14.8333 9.5,14.1667 8.5,13.5C 9.83333,11.8333 9.83333,10.1667 8.5,8.5 Z"/></g>
<g><path style="opacity:0.09" fill="#191819" d="M 15.5,10.5 C 15.8333,10.5 16.1667,10.5 16.5,10.5C 16.5,11.1667 16.5,11.8333 16.5,12.5C 15.4778,15.5223 13.4778,17.5223 10.5,18.5C 10.5,18.1667 10.5,17.8333 10.5,17.5C 11.3382,17.1583 11.6716,16.4916 11.5,15.5C 12.5,15.1667 13.1667,14.5 13.5,13.5C 14.9063,13.0269 15.573,12.0269 15.5,10.5 Z"/></g>
<g><path style="opacity:1" fill="#c3c3c3" d="M 4.5,12.5 C 4.5,12.1667 4.5,11.8333 4.5,11.5C 4.83333,11.5 5.16667,11.5 5.5,11.5C 5.83333,11.5 6.16667,11.5 6.5,11.5C 6.5,12.1667 6.83333,12.5 7.5,12.5C 7.5,13.1667 7.83333,13.5 8.5,13.5C 9.5,14.1667 10.5,14.8333 11.5,15.5C 11.6716,16.4916 11.3382,17.1583 10.5,17.5C 7.88507,16.5501 5.88507,14.8835 4.5,12.5 Z"/></g>
<g><path style="opacity:0.308" fill="#1d1e1d" d="M 4.5,12.5 C 5.88507,14.8835 7.88507,16.5501 10.5,17.5C 10.5,17.8333 10.5,18.1667 10.5,18.5C 10.5,18.8333 10.5,19.1667 10.5,19.5C 9.83333,19.5 9.16667,19.5 8.5,19.5C 7.16667,17.8333 5.83333,16.1667 4.5,14.5C 4.5,13.8333 4.5,13.1667 4.5,12.5 Z"/></g>
</svg>
