<?xml version="1.0" encoding="UTF-8"?>
<!DOCTYPE svg PUBLIC "-//W3C//DTD SVG 1.1//EN" "http://www.w3.org/Graphics/SVG/1.1/DTD/svg11.dtd">
<svg xmlns="http://www.w3.org/2000/svg" version="1.1" width="20px" height="20px" style="shape-rendering:geometricPrecision; text-rendering:geometricPrecision; image-rendering:optimizeQuality; fill-rule:evenodd; clip-rule:evenodd" xmlns:xlink="http://www.w3.org/1999/xlink">
<g><path style="opacity:0.004" fill="#1f0905" d="M -0.5,-0.5 C 5.5,-0.5 11.5,-0.5 17.5,-0.5C 17.5,-0.166667 17.5,0.166667 17.5,0.5C 12.1667,0.5 6.83333,0.5 1.5,0.5C 1.5,4.5 1.5,8.5 1.5,12.5C 1.43255,13.9587 1.76589,15.2921 2.5,16.5C 2.16667,16.5 1.83333,16.5 1.5,16.5C 0.833333,16.1667 0.166667,15.8333 -0.5,15.5C -0.5,10.1667 -0.5,4.83333 -0.5,-0.5 Z"/></g>
<g><path style="opacity:0.264" fill="#120202" d="M 17.5,-0.5 C 18.1667,-0.5 18.8333,-0.5 19.5,-0.5C 19.5,5.16667 19.5,10.8333 19.5,16.5C 18.8333,16.5 18.1667,16.5 17.5,16.5C 17.5,16.1667 17.5,15.8333 17.5,15.5C 17.5,15.1667 17.5,14.8333 17.5,14.5C 17.5,11.1667 17.5,7.83333 17.5,4.5C 17.5,3.16667 17.5,1.83333 17.5,0.5C 17.5,0.166667 17.5,-0.166667 17.5,-0.5 Z"/></g>
<g><path style="opacity:1" fill="#a62723" d="M 17.5,0.5 C 17.5,1.83333 17.5,3.16667 17.5,4.5C 17.1667,4.5 16.8333,4.5 16.5,4.5C 16.38,3.41383 15.7133,2.74716 14.5,2.5C 12.9458,1.62816 11.6124,1.62816 10.5,2.5C 9.83333,3.5 9.16667,4.5 8.5,5.5C 8.5,5.16667 8.5,4.83333 8.5,4.5C 8.5,3.5 8.5,2.5 8.5,1.5C 7.16667,1.5 5.83333,1.5 4.5,1.5C 2.65649,3.27887 1.98983,5.61221 2.5,8.5C 2.5,9.83333 2.5,11.1667 2.5,12.5C 2.16667,12.5 1.83333,12.5 1.5,12.5C 1.5,8.5 1.5,4.5 1.5,0.5C 6.83333,0.5 12.1667,0.5 17.5,0.5 Z"/></g>
<g><path style="opacity:1" fill="#e0282c" d="M 4.5,1.5 C 5.83333,1.5 7.16667,1.5 8.5,1.5C 8.5,2.5 8.5,3.5 8.5,4.5C 7.16667,4.5 5.83333,4.5 4.5,4.5C 4.5,3.5 4.5,2.5 4.5,1.5 Z"/></g>
<g><path style="opacity:1" fill="#d42f2f" d="M 16.5,4.5 C 14.544,2.82485 13.2107,3.15819 12.5,5.5C 11.5987,4.70951 10.9321,3.70951 10.5,2.5C 11.6124,1.62816 12.9458,1.62816 14.5,2.5C 15.7133,2.74716 16.38,3.41383 16.5,4.5 Z"/></g>
<g><path style="opacity:1" fill="#d03132" d="M 4.5,1.5 C 4.5,2.5 4.5,3.5 4.5,4.5C 5.83333,4.5 7.16667,4.5 8.5,4.5C 8.5,4.83333 8.5,5.16667 8.5,5.5C 9.02831,6.84736 9.19497,8.1807 9,9.5C 7.66512,10.0795 6.49845,10.4128 5.5,10.5C 5.16667,10.5 4.83333,10.5 4.5,10.5C 4.5,9.16667 3.83333,8.5 2.5,8.5C 1.98983,5.61221 2.65649,3.27887 4.5,1.5 Z"/></g>
<g><path style="opacity:1" fill="#e52a2a" d="M 16.5,4.5 C 16.8174,7.57186 16.4841,10.5719 15.5,13.5C 14.8281,12.0508 14.1614,10.7175 13.5,9.5C 13.1667,8.16667 12.8333,6.83333 12.5,5.5C 13.2107,3.15819 14.544,2.82485 16.5,4.5 Z"/></g>
<g><path style="opacity:1" fill="#671513" d="M 10.5,2.5 C 10.9321,3.70951 11.5987,4.70951 12.5,5.5C 12.8333,6.83333 13.1667,8.16667 13.5,9.5C 11.2192,11.4279 8.55255,12.4279 5.5,12.5C 5.5,11.8333 5.5,11.1667 5.5,10.5C 6.49845,10.4128 7.66512,10.0795 9,9.5C 9.19497,8.1807 9.02831,6.84736 8.5,5.5C 9.16667,4.5 9.83333,3.5 10.5,2.5 Z"/></g>
<g><path style="opacity:1" fill="#c72b25" d="M 2.5,8.5 C 3.83333,8.5 4.5,9.16667 4.5,10.5C 4.76202,11.9778 4.42869,13.3112 3.5,14.5C 2.70245,14.0431 2.36912,13.3764 2.5,12.5C 2.5,11.1667 2.5,9.83333 2.5,8.5 Z"/></g>
<g><path style="opacity:1" fill="#450f0f" d="M 13.5,9.5 C 13.5,11.1667 13.5,12.8333 13.5,14.5C 13.1667,14.5 12.8333,14.5 12.5,14.5C 12.631,13.7611 12.4643,13.0944 12,12.5C 9.67424,12.88 7.84091,13.88 6.5,15.5C 5.59603,14.791 5.26269,13.791 5.5,12.5C 8.55255,12.4279 11.2192,11.4279 13.5,9.5 Z"/></g>
<g><path style="opacity:1" fill="#2e0b09" d="M 12.5,14.5 C 12.1667,15.5 11.5,16.1667 10.5,16.5C 9.04125,16.5674 7.70792,16.2341 6.5,15.5C 7.84091,13.88 9.67424,12.88 12,12.5C 12.4643,13.0944 12.631,13.7611 12.5,14.5 Z"/></g>
<g><path style="opacity:1" fill="#871f1f" d="M 4.5,10.5 C 4.83333,10.5 5.16667,10.5 5.5,10.5C 5.5,11.1667 5.5,11.8333 5.5,12.5C 5.26269,13.791 5.59603,14.791 6.5,15.5C 7.70792,16.2341 9.04125,16.5674 10.5,16.5C 10.5,17.1667 10.8333,17.5 11.5,17.5C 11.5,18.1667 11.1667,18.5 10.5,18.5C 7.83333,17.8333 5.16667,17.1667 2.5,16.5C 1.76589,15.2921 1.43255,13.9587 1.5,12.5C 1.83333,12.5 2.16667,12.5 2.5,12.5C 2.36912,13.3764 2.70245,14.0431 3.5,14.5C 4.42869,13.3112 4.76202,11.9778 4.5,10.5 Z"/></g>
<g><path style="opacity:1" fill="#b32625" d="M 16.5,4.5 C 16.8333,4.5 17.1667,4.5 17.5,4.5C 17.5,7.83333 17.5,11.1667 17.5,14.5C 15.8612,14.9258 14.5279,14.9258 13.5,14.5C 13.5,12.8333 13.5,11.1667 13.5,9.5C 14.1614,10.7175 14.8281,12.0508 15.5,13.5C 16.4841,10.5719 16.8174,7.57186 16.5,4.5 Z"/></g>
<g><path style="opacity:1" fill="#972121" d="M 12.5,14.5 C 12.8333,14.5 13.1667,14.5 13.5,14.5C 14.5279,14.9258 15.8612,14.9258 17.5,14.5C 17.5,14.8333 17.5,15.1667 17.5,15.5C 15.5,16.1667 13.5,16.8333 11.5,17.5C 10.8333,17.5 10.5,17.1667 10.5,16.5C 11.5,16.1667 12.1667,15.5 12.5,14.5 Z"/></g>
<g><path style="opacity:0.078" fill="#110402" d="M 1.5,16.5 C 1.83333,16.5 2.16667,16.5 2.5,16.5C 5.16667,17.1667 7.83333,17.8333 10.5,18.5C 10.5,18.8333 10.5,19.1667 10.5,19.5C 9.16667,19.5 7.83333,19.5 6.5,19.5C 4.73915,18.6873 3.07249,17.6873 1.5,16.5 Z"/></g>
<g><path style="opacity:0.243" fill="#0e0301" d="M 17.5,15.5 C 17.5,15.8333 17.5,16.1667 17.5,16.5C 15.9275,17.6873 14.2608,18.6873 12.5,19.5C 11.8333,19.5 11.1667,19.5 10.5,19.5C 10.5,19.1667 10.5,18.8333 10.5,18.5C 11.1667,18.5 11.5,18.1667 11.5,17.5C 13.5,16.8333 15.5,16.1667 17.5,15.5 Z"/></g>
</svg>
