<?xml version="1.0" encoding="UTF-8"?>
<!DOCTYPE svg PUBLIC "-//W3C//DTD SVG 1.1//EN" "http://www.w3.org/Graphics/SVG/1.1/DTD/svg11.dtd">
<svg xmlns="http://www.w3.org/2000/svg" version="1.1" width="20px" height="20px" style="shape-rendering:geometricPrecision; text-rendering:geometricPrecision; image-rendering:optimizeQuality; fill-rule:evenodd; clip-rule:evenodd" xmlns:xlink="http://www.w3.org/1999/xlink">
<g><path style="opacity:0.042" fill="#110302" d="M -0.5,-0.5 C 5.5,-0.5 11.5,-0.5 17.5,-0.5C 17.5,-0.166667 17.5,0.166667 17.5,0.5C 12.1667,0.5 6.83333,0.5 1.5,0.5C 1.5,1.5 1.5,2.5 1.5,3.5C 1.5,5.5 1.5,7.5 1.5,9.5C 1.5,10.5 1.5,11.5 1.5,12.5C 1.5,13.5 1.5,14.5 1.5,15.5C 1.5,15.8333 1.5,16.1667 1.5,16.5C 0.833333,16.1667 0.166667,15.8333 -0.5,15.5C -0.5,10.1667 -0.5,4.83333 -0.5,-0.5 Z"/></g>
<g><path style="opacity:0.295" fill="#030000" d="M 17.5,-0.5 C 18.1667,-0.5 18.8333,-0.5 19.5,-0.5C 19.5,5.16667 19.5,10.8333 19.5,16.5C 18.8333,16.5 18.1667,16.5 17.5,16.5C 17.5,16.1667 17.5,15.8333 17.5,15.5C 17.5,15.1667 17.5,14.8333 17.5,14.5C 18.8333,11.1667 18.8333,7.83333 17.5,4.5C 17.5,4.16667 17.5,3.83333 17.5,3.5C 17.5,2.5 17.5,1.5 17.5,0.5C 17.5,0.166667 17.5,-0.166667 17.5,-0.5 Z"/></g>
<g><path style="opacity:1" fill="#370d0c" d="M 17.5,0.5 C 17.5,1.5 17.5,2.5 17.5,3.5C 17.1667,3.5 16.8333,3.5 16.5,3.5C 14.6028,2.19522 12.2695,1.52856 9.5,1.5C 6.73054,1.52856 4.39721,2.19522 2.5,3.5C 2.16667,3.5 1.83333,3.5 1.5,3.5C 1.5,2.5 1.5,1.5 1.5,0.5C 6.83333,0.5 12.1667,0.5 17.5,0.5 Z"/></g>
<g><path style="opacity:1" fill="#621415" d="M 16.5,3.5 C 11.8333,3.5 7.16667,3.5 2.5,3.5C 4.39721,2.19522 6.73054,1.52856 9.5,1.5C 12.2695,1.52856 14.6028,2.19522 16.5,3.5 Z"/></g>
<g><path style="opacity:1" fill="#ecb9b8" d="M 14.5,7.5 C 14.5,8.16667 14.5,8.83333 14.5,9.5C 13.391,9.55688 12.391,9.89022 11.5,10.5C 9.09709,10.552 6.76375,10.2186 4.5,9.5C 4.5,8.83333 4.5,8.16667 4.5,7.5C 7.81421,6.29258 11.1475,6.29258 14.5,7.5 Z"/></g>
<g><path style="opacity:1" fill="#89201f" d="M 1.5,3.5 C 1.83333,3.5 2.16667,3.5 2.5,3.5C 7.16667,3.5 11.8333,3.5 16.5,3.5C 16.8333,3.5 17.1667,3.5 17.5,3.5C 17.5,3.83333 17.5,4.16667 17.5,4.5C 17.6567,5.87344 17.49,7.20677 17,8.5C 16.3292,7.74756 15.4959,7.41423 14.5,7.5C 11.0855,3.60725 7.75218,3.60725 4.5,7.5C 4.5,8.16667 4.5,8.83333 4.5,9.5C 3.5,9.5 2.5,9.5 1.5,9.5C 1.5,7.5 1.5,5.5 1.5,3.5 Z"/></g>
<g><path style="opacity:1" fill="#6b2f2e" d="M 14.5,7.5 C 11.1475,6.29258 7.81421,6.29258 4.5,7.5C 7.75218,3.60725 11.0855,3.60725 14.5,7.5 Z"/></g>
<g><path style="opacity:0.869" fill="#360e0f" d="M 17.5,4.5 C 18.8333,7.83333 18.8333,11.1667 17.5,14.5C 17.5,12.8333 17.5,11.1667 17.5,9.5C 16.5,9.5 15.5,9.5 14.5,9.5C 14.5,8.83333 14.5,8.16667 14.5,7.5C 15.4959,7.41423 16.3292,7.74756 17,8.5C 17.49,7.20677 17.6567,5.87344 17.5,4.5 Z"/></g>
<g><path style="opacity:1" fill="#7c4747" d="M 4.5,10.5 C 4.5,10.1667 4.5,9.83333 4.5,9.5C 6.76375,10.2186 9.09709,10.552 11.5,10.5C 9.27433,11.7563 6.941,11.7563 4.5,10.5 Z"/></g>
<g><path style="opacity:1" fill="#ab3b3b" d="M 14.5,9.5 C 14.5,10.5 14.5,11.5 14.5,12.5C 13.5,12.5 12.5,12.5 11.5,12.5C 8.61221,13.0102 6.27887,12.3435 4.5,10.5C 6.941,11.7563 9.27433,11.7563 11.5,10.5C 12.391,9.89022 13.391,9.55688 14.5,9.5 Z"/></g>
<g><path style="opacity:1" fill="#cf2c2b" d="M 14.5,9.5 C 15.5,9.5 16.5,9.5 17.5,9.5C 17.5,11.1667 17.5,12.8333 17.5,14.5C 16.5,14.5 15.5,14.5 14.5,14.5C 12.8212,14.7148 11.8212,14.0481 11.5,12.5C 12.5,12.5 13.5,12.5 14.5,12.5C 14.5,11.5 14.5,10.5 14.5,9.5 Z"/></g>
<g><path style="opacity:1" fill="#9e2525" d="M 1.5,12.5 C 2.22158,12.9175 2.72158,13.5842 3,14.5C 6.78867,15.3922 10.622,15.3922 14.5,14.5C 15.5,14.5 16.5,14.5 17.5,14.5C 17.5,14.8333 17.5,15.1667 17.5,15.5C 14.6628,16.1115 11.9962,17.1115 9.5,18.5C 6.81033,17.4933 4.14366,16.4933 1.5,15.5C 1.5,14.5 1.5,13.5 1.5,12.5 Z"/></g>
<g><path style="opacity:1" fill="#c93133" d="M 1.5,9.5 C 2.5,9.5 3.5,9.5 4.5,9.5C 4.5,9.83333 4.5,10.1667 4.5,10.5C 6.27887,12.3435 8.61221,13.0102 11.5,12.5C 11.8212,14.0481 12.8212,14.7148 14.5,14.5C 10.622,15.3922 6.78867,15.3922 3,14.5C 2.72158,13.5842 2.22158,12.9175 1.5,12.5C 1.5,11.5 1.5,10.5 1.5,9.5 Z"/></g>
<g><path style="opacity:0.078" fill="#120402" d="M 1.5,15.5 C 4.14366,16.4933 6.81033,17.4933 9.5,18.5C 11.9962,17.1115 14.6628,16.1115 17.5,15.5C 17.5,15.8333 17.5,16.1667 17.5,16.5C 15.9275,17.6873 14.2608,18.6873 12.5,19.5C 10.5,19.5 8.5,19.5 6.5,19.5C 4.73915,18.6873 3.07249,17.6873 1.5,16.5C 1.5,16.1667 1.5,15.8333 1.5,15.5 Z"/></g>
</svg>
