<?xml version="1.0" encoding="UTF-8"?>
<!DOCTYPE svg PUBLIC "-//W3C//DTD SVG 1.1//EN" "http://www.w3.org/Graphics/SVG/1.1/DTD/svg11.dtd">
<svg xmlns="http://www.w3.org/2000/svg" version="1.1" width="18px" height="18px" style="shape-rendering:geometricPrecision; text-rendering:geometricPrecision; image-rendering:optimizeQuality; fill-rule:evenodd; clip-rule:evenodd" xmlns:xlink="http://www.w3.org/1999/xlink">
<g><path style="opacity:0.966" fill="#5f5f5f" d="M 0.5,0.5 C 5.83333,0.5 11.1667,0.5 16.5,0.5C 16.5,5.83333 16.5,11.1667 16.5,16.5C 11.1667,16.5 5.83333,16.5 0.5,16.5C 0.5,11.1667 0.5,5.83333 0.5,0.5 Z M 7.5,10.5 C 8.99525,10.4148 9.99525,11.0815 10.5,12.5C 9.16667,13.8333 7.83333,13.8333 6.5,12.5C 6.86273,11.8165 7.19607,11.1499 7.5,10.5 Z M 6.5,3.5 C 7.97782,3.23798 9.31116,3.57131 10.5,4.5C 8.53651,7.1939 7.20318,6.86057 6.5,3.5 Z"/></g>
<g><path style="opacity:1" fill="#f1f1f1" d="M 15.5,10.5 C 15.0513,7.3219 14.0513,4.98856 12.5,3.5C 10.2828,2.36175 7.28281,2.19508 3.5,3C 4.97326,3.70956 5.63993,4.87623 5.5,6.5C 4.96528,8.44563 3.63195,9.44563 1.5,9.5C 1.5,6.83333 1.5,4.16667 1.5,1.5C 6.16667,1.5 10.8333,1.5 15.5,1.5C 15.5,4.5 15.5,7.5 15.5,10.5 Z M 6.5,3.5 C 7.20318,6.86057 8.53651,7.1939 10.5,4.5C 9.31116,3.57131 7.97782,3.23798 6.5,3.5 Z"/></g>
<g><path style="opacity:1" fill="#dbdbdb" d="M 12.5,3.5 C 14.0513,4.98856 15.0513,7.3219 15.5,10.5C 15.5,12.1667 15.5,13.8333 15.5,15.5C 10.8333,15.5 6.16667,15.5 1.5,15.5C 1.5,13.5 1.5,11.5 1.5,9.5C 3.63195,9.44563 4.96528,8.44563 5.5,6.5C 6.47784,6.81103 7.14451,7.4777 7.5,8.5C 6.43296,10.5586 5.09963,12.392 3.5,14C 6.83333,14.6667 10.1667,14.6667 13.5,14C 12.0443,12.2552 10.711,10.4219 9.5,8.5C 10.6963,6.85541 11.6963,5.18874 12.5,3.5 Z M 7.5,10.5 C 7.19607,11.1499 6.86273,11.8165 6.5,12.5C 7.83333,13.8333 9.16667,13.8333 10.5,12.5C 9.99525,11.0815 8.99525,10.4148 7.5,10.5 Z"/></g>
<g><path style="opacity:0.833" fill="#606060" d="M 12.5,3.5 C 11.6963,5.18874 10.6963,6.85541 9.5,8.5C 10.711,10.4219 12.0443,12.2552 13.5,14C 10.1667,14.6667 6.83333,14.6667 3.5,14C 5.09963,12.392 6.43296,10.5586 7.5,8.5C 7.14451,7.4777 6.47784,6.81103 5.5,6.5C 5.63993,4.87623 4.97326,3.70956 3.5,3C 7.28281,2.19508 10.2828,2.36175 12.5,3.5 Z M 7.5,10.5 C 7.19607,11.1499 6.86273,11.8165 6.5,12.5C 7.83333,13.8333 9.16667,13.8333 10.5,12.5C 9.99525,11.0815 8.99525,10.4148 7.5,10.5 Z M 6.5,3.5 C 7.20318,6.86057 8.53651,7.1939 10.5,4.5C 9.31116,3.57131 7.97782,3.23798 6.5,3.5 Z"/></g>
</svg>
