<?xml version="1.0" encoding="UTF-8"?>
<!DOCTYPE svg PUBLIC "-//W3C//DTD SVG 1.1//EN" "http://www.w3.org/Graphics/SVG/1.1/DTD/svg11.dtd">
<svg xmlns="http://www.w3.org/2000/svg" version="1.1" width="20px" height="20px" style="shape-rendering:geometricPrecision; text-rendering:geometricPrecision; image-rendering:optimizeQuality; fill-rule:evenodd; clip-rule:evenodd" xmlns:xlink="http://www.w3.org/1999/xlink">
<g><path style="opacity:0.004" fill="#000000" d="M -0.5,-0.5 C 0.166667,-0.5 0.833333,-0.5 1.5,-0.5C 1.5,-0.166667 1.5,0.166667 1.5,0.5C 0.512827,5.30537 0.179494,10.3054 0.5,15.5C 0.166667,15.5 -0.166667,15.5 -0.5,15.5C -0.5,10.1667 -0.5,4.83333 -0.5,-0.5 Z"/></g>
<g><path style="opacity:0.266" fill="#1d0a05" d="M 1.5,0.5 C 1.5,0.166667 1.5,-0.166667 1.5,-0.5C 7.5,-0.5 13.5,-0.5 19.5,-0.5C 19.5,5.16667 19.5,10.8333 19.5,16.5C 19.1667,16.5 18.8333,16.5 18.5,16.5C 18.8214,10.9738 18.4881,5.64045 17.5,0.5C 13.1667,0.5 8.83333,0.5 4.5,0.5C 3.5,0.5 2.5,0.5 1.5,0.5 Z"/></g>
<g><path style="opacity:1" fill="#cb2c2c" d="M 4.5,0.5 C 8.83333,0.5 13.1667,0.5 17.5,0.5C 17.5,3.5 17.5,6.5 17.5,9.5C 16.8333,9.5 16.1667,9.5 15.5,9.5C 17.0195,3.9312 15.0195,1.9312 9.5,3.5C 8.56552,4.56764 8.23219,5.90097 8.5,7.5C 7.53842,9.98555 6.70508,9.98555 6,7.5C 5.72158,8.4158 5.22158,9.08247 4.5,9.5C 3.2521,8.6661 2.58544,7.33277 2.5,5.5C 2.72447,3.54533 3.39114,1.87867 4.5,0.5 Z"/></g>
<g><path style="opacity:1" fill="#e72d30" d="M 15.5,9.5 C 13.4017,10.9143 12.4017,10.2476 12.5,7.5C 11.5,6.16667 10.5,4.83333 9.5,3.5C 15.0195,1.9312 17.0195,3.9312 15.5,9.5 Z"/></g>
<g><path style="opacity:1" fill="#7d1616" d="M 9.5,3.5 C 10.5,4.83333 11.5,6.16667 12.5,7.5C 11.1667,7.5 9.83333,7.5 8.5,7.5C 8.23219,5.90097 8.56552,4.56764 9.5,3.5 Z"/></g>
<g><path style="opacity:1" fill="#9d231c" d="M 1.5,0.5 C 2.5,0.5 3.5,0.5 4.5,0.5C 3.39114,1.87867 2.72447,3.54533 2.5,5.5C 2.58544,7.33277 3.2521,8.6661 4.5,9.5C 4.43728,12.1951 3.43728,13.1951 1.5,12.5C 1.5,8.5 1.5,4.5 1.5,0.5 Z"/></g>
<g><path style="opacity:1" fill="#490d0d" d="M 8.5,7.5 C 9.83333,7.5 11.1667,7.5 12.5,7.5C 12.4017,10.2476 13.4017,10.9143 15.5,9.5C 16.1667,9.5 16.8333,9.5 17.5,9.5C 17.6602,11.1992 17.4935,12.8659 17,14.5C 15.951,12.8934 14.451,12.2267 12.5,12.5C 12.1667,12.5 11.8333,12.5 11.5,12.5C 10.8333,11.1667 10.1667,11.1667 9.5,12.5C 7.04588,12.3205 4.87921,12.9872 3,14.5C 1.97008,14.1639 1.47008,13.4972 1.5,12.5C 3.43728,13.1951 4.43728,12.1951 4.5,9.5C 5.22158,9.08247 5.72158,8.4158 6,7.5C 6.70508,9.98555 7.53842,9.98555 8.5,7.5 Z"/></g>
<g><path style="opacity:0.812" fill="#180403" d="M 1.5,0.5 C 1.5,4.5 1.5,8.5 1.5,12.5C 1.47008,13.4972 1.97008,14.1639 3,14.5C 4.87921,12.9872 7.04588,12.3205 9.5,12.5C 9.57298,14.0269 8.90632,15.0269 7.5,15.5C 5.93819,15.7329 4.60486,16.3995 3.5,17.5C 1.97306,17.573 0.973056,16.9063 0.5,15.5C 0.179494,10.3054 0.512827,5.30537 1.5,0.5 Z"/></g>
<g><path style="opacity:0.469" fill="#1a0903" d="M 17.5,0.5 C 18.4881,5.64045 18.8214,10.9738 18.5,16.5C 16.4261,17.5139 14.4261,18.5139 12.5,19.5C 10.5,19.5 8.5,19.5 6.5,19.5C 5.5,18.8333 4.5,18.1667 3.5,17.5C 4.60486,16.3995 5.93819,15.7329 7.5,15.5C 6.40191,16.397 6.40191,17.2303 7.5,18C 9.06574,18.765 10.3991,18.5983 11.5,17.5C 12.3764,17.6309 13.0431,17.2975 13.5,16.5C 12.7542,15.2638 12.4208,13.9305 12.5,12.5C 14.451,12.2267 15.951,12.8934 17,14.5C 17.4935,12.8659 17.6602,11.1992 17.5,9.5C 17.5,6.5 17.5,3.5 17.5,0.5 Z"/></g>
<g><path style="opacity:1" fill="#cf6111" d="M 11.5,12.5 C 11.5,14.1667 11.5,15.8333 11.5,17.5C 10.3991,18.5983 9.06574,18.765 7.5,18C 6.40191,17.2303 6.40191,16.397 7.5,15.5C 8.90632,15.0269 9.57298,14.0269 9.5,12.5C 10.1667,11.1667 10.8333,11.1667 11.5,12.5 Z"/></g>
<g><path style="opacity:1" fill="#7d380a" d="M 11.5,12.5 C 11.8333,12.5 12.1667,12.5 12.5,12.5C 12.4208,13.9305 12.7542,15.2638 13.5,16.5C 13.0431,17.2975 12.3764,17.6309 11.5,17.5C 11.5,15.8333 11.5,14.1667 11.5,12.5 Z"/></g>
</svg>
