<?xml version="1.0" encoding="UTF-8"?>
<!DOCTYPE svg PUBLIC "-//W3C//DTD SVG 1.1//EN" "http://www.w3.org/Graphics/SVG/1.1/DTD/svg11.dtd">
<svg xmlns="http://www.w3.org/2000/svg" version="1.1" width="20px" height="20px" style="shape-rendering:geometricPrecision; text-rendering:geometricPrecision; image-rendering:optimizeQuality; fill-rule:evenodd; clip-rule:evenodd" xmlns:xlink="http://www.w3.org/1999/xlink">
<g><path style="opacity:0.004" fill="#120302" d="M -0.5,-0.5 C 0.166667,-0.5 0.833333,-0.5 1.5,-0.5C 1.5,-0.166667 1.5,0.166667 1.5,0.5C 1.5,2.5 1.5,4.5 1.5,6.5C 1.5,8.5 1.5,10.5 1.5,12.5C 1.43255,13.9587 1.76589,15.2921 2.5,16.5C 2.16667,16.5 1.83333,16.5 1.5,16.5C 0.833333,16.1667 0.166667,15.8333 -0.5,15.5C -0.5,10.1667 -0.5,4.83333 -0.5,-0.5 Z"/></g>
<g><path style="opacity:0.264" fill="#130202" d="M 17.5,-0.5 C 18.1667,-0.5 18.8333,-0.5 19.5,-0.5C 19.5,5.16667 19.5,10.8333 19.5,16.5C 18.8333,16.5 18.1667,16.5 17.5,16.5C 17.5,16.1667 17.5,15.8333 17.5,15.5C 17.5,12.1667 17.5,8.83333 17.5,5.5C 17.5,3.83333 17.5,2.16667 17.5,0.5C 17.5,0.166667 17.5,-0.166667 17.5,-0.5 Z"/></g>
<g><path style="opacity:1" fill="#671b1b" d="M 1.5,0.5 C 1.5,0.166667 1.5,-0.166667 1.5,-0.5C 6.83333,-0.5 12.1667,-0.5 17.5,-0.5C 17.5,-0.166667 17.5,0.166667 17.5,0.5C 15.8333,0.5 14.1667,0.5 12.5,0.5C 10.9519,0.821236 10.2852,1.82124 10.5,3.5C 9.83333,3.5 9.16667,3.5 8.5,3.5C 8.5,2.5 8.5,1.5 8.5,0.5C 7.16667,0.5 5.83333,0.5 4.5,0.5C 3.5,0.5 2.5,0.5 1.5,0.5 Z"/></g>
<g><path style="opacity:1" fill="#c12629" d="M 4.5,0.5 C 5.83333,0.5 7.16667,0.5 8.5,0.5C 8.5,1.5 8.5,2.5 8.5,3.5C 8.44312,4.60895 8.10978,5.60895 7.5,6.5C 6.16667,6.16667 4.83333,5.83333 3.5,5.5C 3.62867,3.7839 3.962,2.11723 4.5,0.5 Z"/></g>
<g><path style="opacity:1" fill="#c22d2e" d="M 12.5,0.5 C 13.7653,1.47934 15.0986,2.47934 16.5,3.5C 16.1373,4.18346 15.8039,4.85013 15.5,5.5C 14.1667,5.83333 12.8333,6.16667 11.5,6.5C 10.8902,5.60895 10.5569,4.60895 10.5,3.5C 10.2852,1.82124 10.9519,0.821236 12.5,0.5 Z"/></g>
<g><path style="opacity:1" fill="#982923" d="M 12.5,0.5 C 14.1667,0.5 15.8333,0.5 17.5,0.5C 17.5,2.16667 17.5,3.83333 17.5,5.5C 16.8333,5.83333 16.1667,6.16667 15.5,6.5C 15.5,6.16667 15.5,5.83333 15.5,5.5C 15.8039,4.85013 16.1373,4.18346 16.5,3.5C 15.0986,2.47934 13.7653,1.47934 12.5,0.5 Z"/></g>
<g><path style="opacity:1" fill="#972220" d="M 1.5,0.5 C 2.5,0.5 3.5,0.5 4.5,0.5C 3.962,2.11723 3.62867,3.7839 3.5,5.5C 3.5,5.83333 3.5,6.16667 3.5,6.5C 2.83333,6.5 2.16667,6.5 1.5,6.5C 1.5,4.5 1.5,2.5 1.5,0.5 Z"/></g>
<g><path style="opacity:1" fill="#502635" d="M 8.5,3.5 C 9.16667,3.5 9.83333,3.5 10.5,3.5C 10.5569,4.60895 10.8902,5.60895 11.5,6.5C 10.1667,6.5 8.83333,6.5 7.5,6.5C 8.10978,5.60895 8.44312,4.60895 8.5,3.5 Z"/></g>
<g><path style="opacity:1" fill="#b72720" d="M 1.5,6.5 C 2.16667,6.5 2.83333,6.5 3.5,6.5C 4.64536,9.06418 3.97869,11.0642 1.5,12.5C 1.5,10.5 1.5,8.5 1.5,6.5 Z"/></g>
<g><path style="opacity:1" fill="#284c6f" d="M 7.5,6.5 C 8.83333,6.5 10.1667,6.5 11.5,6.5C 11.5,8.16667 11.5,9.83333 11.5,11.5C 10.791,12.404 9.79105,12.7373 8.5,12.5C 7.83333,12.5 7.5,12.1667 7.5,11.5C 7.5,9.83333 7.5,8.16667 7.5,6.5 Z"/></g>
<g><path style="opacity:1" fill="#3e293a" d="M 3.5,6.5 C 3.5,6.16667 3.5,5.83333 3.5,5.5C 4.83333,5.83333 6.16667,6.16667 7.5,6.5C 7.5,8.16667 7.5,9.83333 7.5,11.5C 6.5041,11.4142 5.67076,11.7476 5,12.5C 5.97262,11.0257 6.47262,9.52575 6.5,8C 5.47344,7.48672 4.47344,6.98672 3.5,6.5 Z"/></g>
<g><path style="opacity:1" fill="#442d3d" d="M 15.5,5.5 C 15.5,5.83333 15.5,6.16667 15.5,6.5C 14.5266,6.98672 13.5266,7.48672 12.5,8C 11.9515,9.59607 12.6182,10.7627 14.5,11.5C 13.6522,12.625 12.6522,12.625 11.5,11.5C 11.5,9.83333 11.5,8.16667 11.5,6.5C 12.8333,6.16667 14.1667,5.83333 15.5,5.5 Z"/></g>
<g><path style="opacity:1" fill="#b42626" d="M 17.5,5.5 C 17.5,8.83333 17.5,12.1667 17.5,15.5C 16.8333,15.5 16.1667,15.5 15.5,15.5C 12.075,15.6332 11.7417,14.9665 14.5,13.5C 16.9327,13.2144 16.9327,12.5477 14.5,11.5C 12.6182,10.7627 11.9515,9.59607 12.5,8C 13.5266,7.48672 14.5266,6.98672 15.5,6.5C 16.1667,6.16667 16.8333,5.83333 17.5,5.5 Z"/></g>
<g><path style="opacity:1" fill="#842629" d="M 3.5,6.5 C 4.47344,6.98672 5.47344,7.48672 6.5,8C 6.47262,9.52575 5.97262,11.0257 5,12.5C 5.67076,11.7476 6.5041,11.4142 7.5,11.5C 7.5,12.1667 7.83333,12.5 8.5,12.5C 8.5,12.8333 8.5,13.1667 8.5,13.5C 8.5,14.1667 8.5,14.8333 8.5,15.5C 7.84851,14.9094 7.18185,14.2427 6.5,13.5C 5.57451,14.6405 4.74117,14.6405 4,13.5C 3.53042,14.5768 3.69708,15.5768 4.5,16.5C 3.83333,16.5 3.16667,16.5 2.5,16.5C 1.76589,15.2921 1.43255,13.9587 1.5,12.5C 3.97869,11.0642 4.64536,9.06418 3.5,6.5 Z"/></g>
<g><path style="opacity:1" fill="#822931" d="M 11.5,11.5 C 12.6522,12.625 13.6522,12.625 14.5,11.5C 16.9327,12.5477 16.9327,13.2144 14.5,13.5C 12.8007,13.5271 11.4674,14.1938 10.5,15.5C 10.5,14.1667 9.83333,13.5 8.5,13.5C 8.5,13.1667 8.5,12.8333 8.5,12.5C 9.79105,12.7373 10.791,12.404 11.5,11.5 Z"/></g>
<g><path style="opacity:1" fill="#a12628" d="M 8.5,15.5 C 8.67158,16.4916 8.33825,17.1583 7.5,17.5C 6.39105,17.4431 5.39105,17.1098 4.5,16.5C 3.69708,15.5768 3.53042,14.5768 4,13.5C 4.74117,14.6405 5.57451,14.6405 6.5,13.5C 7.18185,14.2427 7.84851,14.9094 8.5,15.5 Z"/></g>
<g><path style="opacity:1" fill="#a5292b" d="M 14.5,13.5 C 11.7417,14.9665 12.075,15.6332 15.5,15.5C 14.3285,16.3446 12.9952,17.0113 11.5,17.5C 10.6618,17.1583 10.3284,16.4916 10.5,15.5C 11.4674,14.1938 12.8007,13.5271 14.5,13.5 Z"/></g>
<g><path style="opacity:1" fill="#5c1d1e" d="M 8.5,13.5 C 9.83333,13.5 10.5,14.1667 10.5,15.5C 10.3284,16.4916 10.6618,17.1583 11.5,17.5C 11.5,17.8333 11.5,18.1667 11.5,18.5C 9.90097,18.7678 8.56764,18.4345 7.5,17.5C 8.33825,17.1583 8.67158,16.4916 8.5,15.5C 8.5,14.8333 8.5,14.1667 8.5,13.5 Z"/></g>
<g><path style="opacity:0.106" fill="#180503" d="M 15.5,15.5 C 16.1667,15.5 16.8333,15.5 17.5,15.5C 17.5,15.8333 17.5,16.1667 17.5,16.5C 16.2196,17.9313 14.5529,18.5979 12.5,18.5C 12.1667,18.5 11.8333,18.5 11.5,18.5C 11.5,18.1667 11.5,17.8333 11.5,17.5C 12.9952,17.0113 14.3285,16.3446 15.5,15.5 Z"/></g>
<g><path style="opacity:0.078" fill="#0f0301" d="M 1.5,16.5 C 1.83333,16.5 2.16667,16.5 2.5,16.5C 3.16667,16.5 3.83333,16.5 4.5,16.5C 5.39105,17.1098 6.39105,17.4431 7.5,17.5C 8.56764,18.4345 9.90097,18.7678 11.5,18.5C 11.8333,18.5 12.1667,18.5 12.5,18.5C 12.5,18.8333 12.5,19.1667 12.5,19.5C 10.5,19.5 8.5,19.5 6.5,19.5C 4.73915,18.6873 3.07249,17.6873 1.5,16.5 Z"/></g>
</svg>
