<?xml version="1.0" encoding="UTF-8"?>
<!DOCTYPE svg PUBLIC "-//W3C//DTD SVG 1.1//EN" "http://www.w3.org/Graphics/SVG/1.1/DTD/svg11.dtd">
<svg xmlns="http://www.w3.org/2000/svg" version="1.1" width="69px" height="69px" style="shape-rendering:geometricPrecision; text-rendering:geometricPrecision; image-rendering:optimizeQuality; fill-rule:evenodd; clip-rule:evenodd" xmlns:xlink="http://www.w3.org/1999/xlink">
<g><path style="opacity:0.297" fill="#0c0b0a" d="M 32.5,-0.5 C 34.5,-0.5 36.5,-0.5 38.5,-0.5C 40.5418,1.8297 43.2084,2.99637 46.5,3C 48.6166,4.73092 50.1166,6.89759 51,9.5C 55.2228,5.56147 60.0561,3.06147 65.5,2C 66.091,7.86974 64.091,12.8697 59.5,17C 62.5618,19.5161 65.5618,22.0161 68.5,24.5C 68.5,30.5 68.5,36.5 68.5,42.5C 67.5416,42.9528 66.7083,43.6195 66,44.5C 65.6667,44.1667 65.3333,43.8333 65,43.5C 64.6667,45.5 64.3333,47.5 64,49.5C 59.2548,53.643 60.0881,56.3097 66.5,57.5C 66.5,58.5 66.5,59.5 66.5,60.5C 65.8333,60.5 65.1667,60.5 64.5,60.5C 61.8544,58.5211 59.5211,56.1878 57.5,53.5C 58.472,51.6951 59.6387,50.0284 61,48.5C 61.7975,46.7412 61.6309,45.0745 60.5,43.5C 59.6045,49.1348 56.9378,50.4681 52.5,47.5C 48.6443,45.8429 46.811,47.1763 47,51.5C 47.7083,52.3805 48.5416,53.0472 49.5,53.5C 50.5884,56.7702 49.255,58.4369 45.5,58.5C 43.9519,58.8212 43.2852,59.8212 43.5,61.5C 45.7354,61.7947 47.7354,61.4614 49.5,60.5C 55.1568,55.8385 58.8235,57.1718 60.5,64.5C 62.099,64.7678 63.4324,64.4345 64.5,63.5C 65.1667,63.5 65.8333,63.5 66.5,63.5C 66.5,64.5 66.5,65.5 66.5,66.5C 64.1432,66.6633 61.8098,66.4966 59.5,66C 58.0422,63.54 56.2089,61.3734 54,59.5C 51.0313,62.9541 47.198,64.4541 42.5,64C 43.1667,64.3333 43.8333,64.6667 44.5,65C 38.7818,65.2109 33.1152,65.7109 27.5,66.5C 25.7295,65.9646 25.3961,65.1313 26.5,64C 22.0117,64.3483 18.3451,62.8483 15.5,59.5C 13.1097,60.8908 11.4431,62.8908 10.5,65.5C 4.05703,68.2021 1.2237,66.2021 2,59.5C 4.64429,57.69 7.14429,55.69 9.5,53.5C 5.97267,48.1894 2.63934,42.8561 -0.5,37.5C -0.5,34.8333 -0.5,32.1667 -0.5,29.5C 1.09414,24.0591 4.42747,19.8925 9.5,17C 5.86891,12.6057 3.86891,7.77233 3.5,2.5C 9.12254,2.72421 13.9559,5.05754 18,9.5C 18.911,6.42448 20.7443,4.09115 23.5,2.5C 26.6563,1.61621 29.6563,0.61621 32.5,-0.5 Z"/></g>
<g><path style="opacity:1" fill="#e7e7e7" d="M 19.5,14.5 C 19.1667,16.8333 17.8333,18.1667 15.5,18.5C 10.3679,14.8378 7.36788,10.1712 6.5,4.5C 11.8044,6.64313 16.1377,9.97646 19.5,14.5 Z"/></g>
<g><path style="opacity:1" fill="#dedede" d="M 53.5,19.5 C 50.7026,19.0334 49.3692,17.3667 49.5,14.5C 53.307,9.27287 58.307,6.1062 64.5,5C 61.9051,10.7102 58.2385,15.5435 53.5,19.5 Z"/></g>
<g><path style="opacity:1" fill="#b09877" d="M 45.5,18.5 C 45.5394,19.5832 45.8728,20.5832 46.5,21.5C 44.8918,22.2421 43.2251,22.4087 41.5,22C 40.6634,23.0113 40.33,24.1779 40.5,25.5C 38.7655,23.7649 36.7655,22.4316 34.5,21.5C 32.5775,22.0924 30.9108,23.0924 29.5,24.5C 28.735,23.3398 27.735,22.3398 26.5,21.5C 25.2638,22.2458 23.9305,22.5792 22.5,22.5C 22.5,21.5 22.5,20.5 22.5,19.5C 26.1456,15.1877 30.1456,11.1877 34.5,7.5C 38.521,10.8544 42.1877,14.521 45.5,18.5 Z"/></g>
<g><path style="opacity:1" fill="#7b7b7b" d="M 49.5,14.5 C 49.3692,17.3667 50.7026,19.0334 53.5,19.5C 49.6443,21.1571 47.811,19.8237 48,15.5C 48.3826,14.944 48.8826,14.6107 49.5,14.5 Z"/></g>
<g><path style="opacity:1" fill="#838383" d="M 19.5,14.5 C 22.2662,17.0672 21.7662,19.0672 18,20.5C 16.699,20.3613 15.8656,19.6946 15.5,18.5C 17.8333,18.1667 19.1667,16.8333 19.5,14.5 Z"/></g>
<g><path style="opacity:1" fill="#ab8764" d="M 45.5,18.5 C 50.1312,22.6299 54.6312,26.9633 59,31.5C 59.6667,32.5 59.6667,33.5 59,34.5C 57.6244,35.7051 56.4577,37.0384 55.5,38.5C 49.6087,35.2809 44.6087,30.9476 40.5,25.5C 40.33,24.1779 40.6634,23.0113 41.5,22C 43.2251,22.4087 44.8918,22.2421 46.5,21.5C 45.8728,20.5832 45.5394,19.5832 45.5,18.5 Z"/></g>
<g><path style="opacity:1" fill="#221a16" d="M 40.5,25.5 C 44.6087,30.9476 49.6087,35.2809 55.5,38.5C 54.5,39.5 53.5,40.5 52.5,41.5C 52.2882,39.6159 51.2882,38.2826 49.5,37.5C 44.7954,42.2068 39.7954,46.5401 34.5,50.5C 29.3867,46.8897 24.7201,42.723 20.5,38C 18.0658,37.6671 17.0658,38.8338 17.5,41.5C 15.8784,40.8776 14.5451,39.8776 13.5,38.5C 19.6955,34.9811 25.0288,30.3145 29.5,24.5C 30.9108,23.0924 32.5775,22.0924 34.5,21.5C 36.7655,22.4316 38.7655,23.7649 40.5,25.5 Z"/></g>
<g><path style="opacity:1" fill="#ae8c68" d="M 22.5,19.5 C 22.5,20.5 22.5,21.5 22.5,22.5C 23.9305,22.5792 25.2638,22.2458 26.5,21.5C 27.735,22.3398 28.735,23.3398 29.5,24.5C 25.0288,30.3145 19.6955,34.9811 13.5,38.5C 12.5423,37.0384 11.3756,35.7051 10,34.5C 9.33333,33.5 9.33333,32.5 10,31.5C 14.0356,27.2964 18.2022,23.2964 22.5,19.5 Z"/></g>
<g><path style="opacity:1" fill="#178995" d="M 24.5,34.5 C 25.7536,37.0934 27.4202,39.4268 29.5,41.5C 26.9438,40.4566 24.7772,38.7899 23,36.5C 22.4719,35.184 22.9719,34.5173 24.5,34.5 Z"/></g>
<g><path style="opacity:1" fill="#2ccedf" d="M 29.5,41.5 C 27.4202,39.4268 25.7536,37.0934 24.5,34.5C 27.4789,30.8544 30.8123,27.521 34.5,24.5C 38.5,28.1667 42.5,31.8333 46.5,35.5C 42.5259,39.1384 38.5259,42.8051 34.5,46.5C 32.4788,45.1455 30.8121,43.4788 29.5,41.5 Z"/></g>
<g><path style="opacity:1" fill="#d4fefe" d="M 33.5,29.5 C 43.3471,32.8549 43.8471,37.1882 35,42.5C 31.3794,41.3798 28.8794,39.0464 27.5,35.5C 29.5332,33.4934 31.5332,31.4934 33.5,29.5 Z"/></g>
<g><path style="opacity:1" fill="#a78562" d="M 52.5,41.5 C 46.2224,46.4397 40.2224,51.7731 34.5,57.5C 28.7867,52.1171 23.12,46.7838 17.5,41.5C 17.0658,38.8338 18.0658,37.6671 20.5,38C 24.7201,42.723 29.3867,46.8897 34.5,50.5C 39.7954,46.5401 44.7954,42.2068 49.5,37.5C 51.2882,38.2826 52.2882,39.6159 52.5,41.5 Z"/></g>
<g><path style="opacity:1" fill="#cfcfcf" d="M 15.5,48.5 C 17.5311,49.5387 18.8645,51.2054 19.5,53.5C 19.1989,57.6189 21.1989,59.6189 25.5,59.5C 24.5,59.8333 23.5,60.1667 22.5,60.5C 19.6744,59.0153 16.6744,58.0153 13.5,57.5C 14.5676,56.5655 15.901,56.2322 17.5,56.5C 17.6954,51.6694 15.6954,50.0027 11.5,51.5C 7.66125,49.5037 6.66125,46.5037 8.5,42.5C 10.05,44.3328 11.05,46.4994 11.5,49C 13.0657,49.765 14.3991,49.5983 15.5,48.5 Z"/></g>
<g><path style="opacity:1" fill="#969696" d="M 19.5,53.5 C 18.8645,51.2054 17.5311,49.5387 15.5,48.5C 17.54,45.8661 19.7067,45.8661 22,48.5C 22.747,50.9278 21.9137,52.5944 19.5,53.5 Z"/></g>
<g><path style="opacity:1" fill="#e9e9e9" d="M 13.5,57.5 C 11.4014,59.587 9.73474,61.9203 8.5,64.5C 7.16667,64.5 5.83333,64.5 4.5,64.5C 4.5,62.8333 4.5,61.1667 4.5,59.5C 8.98506,58.6834 11.3184,56.0167 11.5,51.5C 15.6954,50.0027 17.6954,51.6694 17.5,56.5C 15.901,56.2322 14.5676,56.5655 13.5,57.5 Z"/></g>
<g><path style="opacity:1" fill="#878787" d="M 52.5,47.5 C 50.0246,48.6874 49.0246,50.6874 49.5,53.5C 48.5416,53.0472 47.7083,52.3805 47,51.5C 46.811,47.1763 48.6443,45.8429 52.5,47.5 Z"/></g>
<g><path style="opacity:1" fill="#e0e0e0" d="M 64.5,60.5 C 64.5,61.5 64.5,62.5 64.5,63.5C 63.4324,64.4345 62.099,64.7678 60.5,64.5C 58.8235,57.1718 55.1568,55.8385 49.5,60.5C 47.8008,60.6602 46.1341,60.4935 44.5,60C 45.056,59.6174 45.3893,59.1174 45.5,58.5C 49.255,58.4369 50.5884,56.7702 49.5,53.5C 49.0246,50.6874 50.0246,48.6874 52.5,47.5C 56.9378,50.4681 59.6045,49.1348 60.5,43.5C 61.6309,45.0745 61.7975,46.7412 61,48.5C 59.6387,50.0284 58.472,51.6951 57.5,53.5C 59.5211,56.1878 61.8544,58.5211 64.5,60.5 Z"/></g>
<g><path style="opacity:1" fill="#737373" d="M 45.5,58.5 C 45.3893,59.1174 45.056,59.6174 44.5,60C 46.1341,60.4935 47.8008,60.6602 49.5,60.5C 47.7354,61.4614 45.7354,61.7947 43.5,61.5C 43.2852,59.8212 43.9519,58.8212 45.5,58.5 Z"/></g>
<g><path style="opacity:0.322" fill="#818181" d="M 64.5,60.5 C 65.1667,60.5 65.8333,60.5 66.5,60.5C 66.5,61.5 66.5,62.5 66.5,63.5C 65.8333,63.5 65.1667,63.5 64.5,63.5C 64.5,62.5 64.5,61.5 64.5,60.5 Z"/></g>
</svg>
