<?xml version="1.0" encoding="UTF-8"?>
<!DOCTYPE svg PUBLIC "-//W3C//DTD SVG 1.1//EN" "http://www.w3.org/Graphics/SVG/1.1/DTD/svg11.dtd">
<svg xmlns="http://www.w3.org/2000/svg" version="1.1" width="18px" height="18px" style="shape-rendering:geometricPrecision; text-rendering:geometricPrecision; image-rendering:optimizeQuality; fill-rule:evenodd; clip-rule:evenodd" xmlns:xlink="http://www.w3.org/1999/xlink">
<g><path style="opacity:0.965" fill="#5e5e5e" d="M 6.5,-0.5 C 7.83333,-0.5 9.16667,-0.5 10.5,-0.5C 11.6005,0.60486 12.2671,1.93819 12.5,3.5C 12.1667,3.5 11.8333,3.5 11.5,3.5C 9.5,-0.5 7.5,-0.5 5.5,3.5C 5.16667,3.5 4.83333,3.5 4.5,3.5C 4.73286,1.93819 5.39952,0.60486 6.5,-0.5 Z"/></g>
<g><path style="opacity:1" fill="#dfdfdf" d="M 11.5,3.5 C 9.5,3.5 7.5,3.5 5.5,3.5C 7.5,-0.5 9.5,-0.5 11.5,3.5 Z"/></g>
<g><path style="opacity:0.779" fill="#727272" d="M 4.5,4.5 C 4.5,4.16667 4.5,3.83333 4.5,3.5C 4.83333,3.5 5.16667,3.5 5.5,3.5C 7.5,3.5 9.5,3.5 11.5,3.5C 11.8333,3.5 12.1667,3.5 12.5,3.5C 12.5,3.83333 12.5,4.16667 12.5,4.5C 11.0687,5.78041 10.4021,7.44708 10.5,9.5C 10.1667,9.5 9.83333,9.5 9.5,9.5C 8.83333,9.5 8.16667,9.5 7.5,9.5C 7.16667,9.5 6.83333,9.5 6.5,9.5C 6.73731,8.20895 6.40397,7.20895 5.5,6.5C 5.67158,5.50838 5.33825,4.84171 4.5,4.5 Z M 7.5,4.5 C 9.46455,4.94835 9.79789,5.94835 8.5,7.5C 7.61432,6.67504 7.28099,5.67504 7.5,4.5 Z"/></g>
<g><path style="opacity:1" fill="#e3e3e3" d="M 12.5,4.5 C 17.8904,7.74954 17.5571,10.4162 11.5,12.5C 11.4431,11.391 11.1098,10.391 10.5,9.5C 10.4021,7.44708 11.0687,5.78041 12.5,4.5 Z"/></g>
<g><path style="opacity:1" fill="#eeeeee" d="M 4.5,4.5 C 5.33825,4.84171 5.67158,5.50838 5.5,6.5C 4.20498,7.48837 2.87165,8.48837 1.5,9.5C 0.913058,7.31517 1.91306,5.6485 4.5,4.5 Z"/></g>
<g><path style="opacity:0.59" fill="#5c5c5c" d="M 4.5,3.5 C 4.5,3.83333 4.5,4.16667 4.5,4.5C 1.91306,5.6485 0.913058,7.31517 1.5,9.5C 2.26231,11.2624 3.59565,12.2624 5.5,12.5C 5.5,12.8333 5.5,13.1667 5.5,13.5C 6.49914,16.1741 8.16581,16.8408 10.5,15.5C 10.8333,15.5 11.1667,15.5 11.5,15.5C 11.1667,16.1667 10.8333,16.8333 10.5,17.5C 9.16667,17.5 7.83333,17.5 6.5,17.5C 4.5,14.8333 2.16667,12.5 -0.5,10.5C -0.5,9.16667 -0.5,7.83333 -0.5,6.5C 0.922032,5.07501 2.5887,4.07501 4.5,3.5 Z"/></g>
<g><path style="opacity:1" fill="#e6e6e6" d="M 5.5,6.5 C 6.40397,7.20895 6.73731,8.20895 6.5,9.5C 5.89022,10.391 5.55688,11.391 5.5,12.5C 3.59565,12.2624 2.26231,11.2624 1.5,9.5C 2.87165,8.48837 4.20498,7.48837 5.5,6.5 Z"/></g>
<g><path style="opacity:0.086" fill="#5d5d5d" d="M 12.5,4.5 C 12.5,4.16667 12.5,3.83333 12.5,3.5C 14.4113,4.07501 16.078,5.07501 17.5,6.5C 17.5,7.83333 17.5,9.16667 17.5,10.5C 15.4602,12.177 13.4602,13.8437 11.5,15.5C 11.1667,15.5 10.8333,15.5 10.5,15.5C 10.8333,14.8333 11.1667,14.1667 11.5,13.5C 11.5,13.1667 11.5,12.8333 11.5,12.5C 17.5571,10.4162 17.8904,7.74954 12.5,4.5 Z"/></g>
<g><path style="opacity:0.941" fill="#616161" d="M 6.5,9.5 C 6.83333,9.5 7.16667,9.5 7.5,9.5C 7.58577,10.4959 7.25244,11.3292 6.5,12C 7.44802,12.4828 8.44802,12.6495 9.5,12.5C 9.5,11.5 9.5,10.5 9.5,9.5C 9.83333,9.5 10.1667,9.5 10.5,9.5C 11.1098,10.391 11.4431,11.391 11.5,12.5C 11.5,12.8333 11.5,13.1667 11.5,13.5C 9.5,13.5 7.5,13.5 5.5,13.5C 5.5,13.1667 5.5,12.8333 5.5,12.5C 5.55688,11.391 5.89022,10.391 6.5,9.5 Z M 7.5,9.5 C 8.16667,9.5 8.83333,9.5 9.5,9.5C 9.5,10.5 9.5,11.5 9.5,12.5C 8.44802,12.6495 7.44802,12.4828 6.5,12C 7.25244,11.3292 7.58577,10.4959 7.5,9.5 Z"/></g>
<g><path style="opacity:1" fill="#dedede" d="M 5.5,13.5 C 7.5,13.5 9.5,13.5 11.5,13.5C 11.1667,14.1667 10.8333,14.8333 10.5,15.5C 8.16581,16.8408 6.49914,16.1741 5.5,13.5 Z"/></g>
</svg>
