<?xml version="1.0" encoding="UTF-8"?>
<!DOCTYPE svg PUBLIC "-//W3C//DTD SVG 1.1//EN" "http://www.w3.org/Graphics/SVG/1.1/DTD/svg11.dtd">
<svg xmlns="http://www.w3.org/2000/svg" version="1.1" width="18px" height="18px" style="shape-rendering:geometricPrecision; text-rendering:geometricPrecision; image-rendering:optimizeQuality; fill-rule:evenodd; clip-rule:evenodd" xmlns:xlink="http://www.w3.org/1999/xlink">
<g><path style="opacity:0.945" fill="#5e5e5e" d="M 7.5,0.5 C 7.5,0.166667 7.5,-0.166667 7.5,-0.5C 8.5,-0.5 9.5,-0.5 10.5,-0.5C 12.5,2.16667 14.8333,4.5 17.5,6.5C 17.5,7.83333 17.5,9.16667 17.5,10.5C 15.9991,11.7515 14.3325,12.7515 12.5,13.5C 10.9689,12.0755 11.3023,11.4088 13.5,11.5C 17.3977,8.8733 17.0643,6.53997 12.5,4.5C 11.4154,2.41311 9.74876,1.07978 7.5,0.5 Z"/></g>
<g><path style="opacity:1" fill="#ededed" d="M 7.5,0.5 C 9.74876,1.07978 11.4154,2.41311 12.5,4.5C 11.391,4.55688 10.391,4.89022 9.5,5.5C 7.7839,5.37133 6.11723,5.038 4.5,4.5C 5.5,3.16667 6.5,1.83333 7.5,0.5 Z"/></g>
<g><path style="opacity:0.965" fill="#5d5d5d" d="M 6.5,-0.5 C 6.83333,-0.5 7.16667,-0.5 7.5,-0.5C 7.5,-0.166667 7.5,0.166667 7.5,0.5C 6.5,1.83333 5.5,3.16667 4.5,4.5C 2.83333,5.5 1.5,6.83333 0.5,8.5C 0.166667,8.5 -0.166667,8.5 -0.5,8.5C -0.5,7.83333 -0.5,7.16667 -0.5,6.5C 2.16667,4.5 4.5,2.16667 6.5,-0.5 Z"/></g>
<g><path style="opacity:1" fill="#eaeaea" d="M 4.5,4.5 C 5.21781,6.13676 5.38447,7.80343 5,9.5C 4.66667,9.16667 4.33333,8.83333 4,8.5C 3.51722,9.44802 3.35055,10.448 3.5,11.5C 2.16667,10.8333 1.16667,9.83333 0.5,8.5C 1.5,6.83333 2.83333,5.5 4.5,4.5 Z"/></g>
<g><path style="opacity:0.125" fill="#666666" d="M 12.5,4.5 C 12.7373,5.79105 12.404,6.79105 11.5,7.5C 10.8333,7.5 10.1667,7.5 9.5,7.5C 8.16667,7.5 7.5,8.16667 7.5,9.5C 6.59603,8.79105 6.26269,7.79105 6.5,6.5C 7.79105,6.73731 8.79105,6.40397 9.5,5.5C 10.391,4.89022 11.391,4.55688 12.5,4.5 Z"/></g>
<g><path style="opacity:1" fill="#e8e8e8" d="M 12.5,4.5 C 17.0643,6.53997 17.3977,8.8733 13.5,11.5C 13.4621,9.36391 12.7954,8.03058 11.5,7.5C 12.404,6.79105 12.7373,5.79105 12.5,4.5 Z"/></g>
<g><path style="opacity:0.558" fill="#5c5c5c" d="M -0.5,8.5 C -0.166667,8.5 0.166667,8.5 0.5,8.5C 1.16667,9.83333 2.16667,10.8333 3.5,11.5C 4.83333,11.5 5.5,12.1667 5.5,13.5C 7.5,17.5 9.5,17.5 11.5,13.5C 11.8333,13.5 12.1667,13.5 12.5,13.5C 12.2671,15.0618 11.6005,16.3951 10.5,17.5C 9.16667,17.5 7.83333,17.5 6.5,17.5C 4.5,14.8333 2.16667,12.5 -0.5,10.5C -0.5,9.83333 -0.5,9.16667 -0.5,8.5 Z"/></g>
<g><path style="opacity:0.678" fill="#727272" d="M 9.5,7.5 C 10.1667,7.5 10.8333,7.5 11.5,7.5C 12.7954,8.03058 13.4621,9.36391 13.5,11.5C 11.3023,11.4088 10.9689,12.0755 12.5,13.5C 12.1667,13.5 11.8333,13.5 11.5,13.5C 10.1667,12.8333 8.83333,12.1667 7.5,11.5C 8.16667,10.8333 8.83333,10.1667 9.5,9.5C 9.5,8.83333 9.5,8.16667 9.5,7.5 Z"/></g>
<g><path style="opacity:0.553" fill="#727272" d="M 4.5,4.5 C 6.11723,5.038 7.7839,5.37133 9.5,5.5C 8.79105,6.40397 7.79105,6.73731 6.5,6.5C 6.26269,7.79105 6.59603,8.79105 7.5,9.5C 8.16667,9.5 8.83333,9.5 9.5,9.5C 8.83333,10.1667 8.16667,10.8333 7.5,11.5C 7.5,12.8333 6.83333,13.5 5.5,13.5C 5.5,12.1667 4.83333,11.5 3.5,11.5C 3.35055,10.448 3.51722,9.44802 4,8.5C 4.33333,8.83333 4.66667,9.16667 5,9.5C 5.38447,7.80343 5.21781,6.13676 4.5,4.5 Z"/></g>
<g><path style="opacity:1" fill="#dadada" d="M 7.5,11.5 C 8.83333,12.1667 10.1667,12.8333 11.5,13.5C 9.5,17.5 7.5,17.5 5.5,13.5C 6.83333,13.5 7.5,12.8333 7.5,11.5 Z"/></g>
</svg>
