<?xml version="1.0" encoding="UTF-8"?>
<!DOCTYPE svg PUBLIC "-//W3C//DTD SVG 1.1//EN" "http://www.w3.org/Graphics/SVG/1.1/DTD/svg11.dtd">
<svg xmlns="http://www.w3.org/2000/svg" version="1.1" width="20px" height="20px" style="shape-rendering:geometricPrecision; text-rendering:geometricPrecision; image-rendering:optimizeQuality; fill-rule:evenodd; clip-rule:evenodd" xmlns:xlink="http://www.w3.org/1999/xlink">
<g><path style="opacity:0.044" fill="#090102" d="M -0.5,-0.5 C 0.166667,-0.5 0.833333,-0.5 1.5,-0.5C 1.5,-0.166667 1.5,0.166667 1.5,0.5C 1.5,2.16667 1.5,3.83333 1.5,5.5C 1.5,8.16667 1.5,10.8333 1.5,13.5C 0.661754,13.8417 0.32842,14.5084 0.5,15.5C 0.166667,15.5 -0.166667,15.5 -0.5,15.5C -0.5,10.1667 -0.5,4.83333 -0.5,-0.5 Z"/></g>
<g><path style="opacity:0.279" fill="#1a0709" d="M 1.5,0.5 C 1.5,0.166667 1.5,-0.166667 1.5,-0.5C 7.5,-0.5 13.5,-0.5 19.5,-0.5C 19.5,5.16667 19.5,10.8333 19.5,16.5C 17.2543,17.4552 14.921,18.1218 12.5,18.5C 13.8484,17.3994 15.3484,16.3994 17,15.5C 17.498,12.5184 17.6646,9.51838 17.5,6.5C 17.5,6.16667 17.5,5.83333 17.5,5.5C 17.5,3.83333 17.5,2.16667 17.5,0.5C 13.1667,0.5 8.83333,0.5 4.5,0.5C 3.5,0.5 2.5,0.5 1.5,0.5 Z"/></g>
<g><path style="opacity:1" fill="#aa2b2c" d="M 4.5,0.5 C 8.83333,0.5 13.1667,0.5 17.5,0.5C 17.5,2.16667 17.5,3.83333 17.5,5.5C 16.0384,4.54227 14.7051,3.37561 13.5,2C 10.9615,1.20419 8.62816,1.37086 6.5,2.5C 5.39105,2.55688 4.39105,2.89022 3.5,3.5C 2.95691,3.44001 2.62358,3.10667 2.5,2.5C 3.24269,1.81815 3.90935,1.15149 4.5,0.5 Z"/></g>
<g><path style="opacity:1" fill="#861d23" d="M 1.5,0.5 C 2.5,0.5 3.5,0.5 4.5,0.5C 3.90935,1.15149 3.24269,1.81815 2.5,2.5C 2.62358,3.10667 2.95691,3.44001 3.5,3.5C 3.16667,4.5 2.5,5.16667 1.5,5.5C 1.5,3.83333 1.5,2.16667 1.5,0.5 Z"/></g>
<g><path style="opacity:1" fill="#5c1233" d="M 6.5,2.5 C 6.5,2.83333 6.5,3.16667 6.5,3.5C 2.83079,5.43802 1.66412,8.43802 3,12.5C 2.76031,8.77964 4.26031,6.11297 7.5,4.5C 7.5,4.83333 7.5,5.16667 7.5,5.5C 7.16667,6.16667 6.83333,6.83333 6.5,7.5C 5.12011,7.96227 4.45344,8.96227 4.5,10.5C 4.84572,11.8492 5.17905,13.1825 5.5,14.5C 6.98417,16.0737 8.65084,17.407 10.5,18.5C 7.38297,18.3577 4.88297,17.0244 3,14.5C 1.89318,15.7119 1.39318,15.3786 1.5,13.5C 1.5,10.8333 1.5,8.16667 1.5,5.5C 2.5,5.16667 3.16667,4.5 3.5,3.5C 4.39105,2.89022 5.39105,2.55688 6.5,2.5 Z"/></g>
<g><path style="opacity:1" fill="#bc263a" d="M 16.5,6.5 C 16.702,8.94965 16.3686,11.283 15.5,13.5C 15.8461,11.2465 15.3461,8.91319 14,6.5C 12.2111,4.77099 10.0444,4.10433 7.5,4.5C 4.26031,6.11297 2.76031,8.77964 3,12.5C 1.66412,8.43802 2.83079,5.43802 6.5,3.5C 10.4578,2.13271 13.7911,3.13271 16.5,6.5 Z"/></g>
<g><path style="opacity:1" fill="#6e1b44" d="M 17.5,5.5 C 17.5,5.83333 17.5,6.16667 17.5,6.5C 17.1667,6.5 16.8333,6.5 16.5,6.5C 13.7911,3.13271 10.4578,2.13271 6.5,3.5C 6.5,3.16667 6.5,2.83333 6.5,2.5C 8.62816,1.37086 10.9615,1.20419 13.5,2C 14.7051,3.37561 16.0384,4.54227 17.5,5.5 Z"/></g>
<g><path style="opacity:1" fill="#a72947" d="M 7.5,5.5 C 9.69798,5.12012 11.3646,5.78679 12.5,7.5C 11.7611,7.36899 11.0944,7.53566 10.5,8C 11.3366,9.01127 11.67,10.1779 11.5,11.5C 10.7777,10.4489 9.77765,9.78219 8.5,9.5C 8.16667,9.5 7.83333,9.5 7.5,9.5C 9.03105,8.07546 8.69772,7.40879 6.5,7.5C 6.83333,6.83333 7.16667,6.16667 7.5,5.5 Z"/></g>
<g><path style="opacity:1" fill="#8f1f3f" d="M 6.5,7.5 C 5.23489,10.0033 5.56822,12.3366 7.5,14.5C 6.83333,14.5 6.16667,14.5 5.5,14.5C 5.17905,13.1825 4.84572,11.8492 4.5,10.5C 4.45344,8.96227 5.12011,7.96227 6.5,7.5 Z"/></g>
<g><path style="opacity:1" fill="#631438" d="M 7.5,5.5 C 7.5,5.16667 7.5,4.83333 7.5,4.5C 10.0444,4.10433 12.2111,4.77099 14,6.5C 15.3461,8.91319 15.8461,11.2465 15.5,13.5C 13.8914,14.7709 12.0581,15.7709 10,16.5C 9.0053,15.9341 8.17197,15.2674 7.5,14.5C 5.56822,12.3366 5.23489,10.0033 6.5,7.5C 8.69772,7.40879 9.03105,8.07546 7.5,9.5C 7.40766,13.0714 9.07432,14.2381 12.5,13C 15.0702,11.0099 15.0702,9.17657 12.5,7.5C 11.3646,5.78679 9.69798,5.12012 7.5,5.5 Z"/></g>
<g><path style="opacity:1" fill="#851d44" d="M 12.5,7.5 C 15.0702,9.17657 15.0702,11.0099 12.5,13C 9.07432,14.2381 7.40766,13.0714 7.5,9.5C 7.83333,9.5 8.16667,9.5 8.5,9.5C 8.66823,12.0514 9.66823,12.7181 11.5,11.5C 11.67,10.1779 11.3366,9.01127 10.5,8C 11.0944,7.53566 11.7611,7.36899 12.5,7.5 Z"/></g>
<g><path style="opacity:1" fill="#42102a" d="M 8.5,9.5 C 9.77765,9.78219 10.7777,10.4489 11.5,11.5C 9.66823,12.7181 8.66823,12.0514 8.5,9.5 Z"/></g>
<g><path style="opacity:0.174" fill="#11020c" d="M 1.5,13.5 C 1.39318,15.3786 1.89318,15.7119 3,14.5C 4.88297,17.0244 7.38297,18.3577 10.5,18.5C 11.1667,18.5 11.8333,18.5 12.5,18.5C 12.5,18.8333 12.5,19.1667 12.5,19.5C 10.5,19.5 8.5,19.5 6.5,19.5C 4.18975,18.675 2.18975,17.3417 0.5,15.5C 0.32842,14.5084 0.661754,13.8417 1.5,13.5 Z"/></g>
<g><path style="opacity:1" fill="#410a28" d="M 16.5,6.5 C 16.8333,6.5 17.1667,6.5 17.5,6.5C 17.6646,9.51838 17.498,12.5184 17,15.5C 15.3484,16.3994 13.8484,17.3994 12.5,18.5C 11.8333,18.5 11.1667,18.5 10.5,18.5C 8.65084,17.407 6.98417,16.0737 5.5,14.5C 6.16667,14.5 6.83333,14.5 7.5,14.5C 8.17197,15.2674 9.0053,15.9341 10,16.5C 12.0581,15.7709 13.8914,14.7709 15.5,13.5C 16.3686,11.283 16.702,8.94965 16.5,6.5 Z"/></g>
</svg>
