<?xml version="1.0" encoding="UTF-8"?>
<!DOCTYPE svg PUBLIC "-//W3C//DTD SVG 1.1//EN" "http://www.w3.org/Graphics/SVG/1.1/DTD/svg11.dtd">
<svg xmlns="http://www.w3.org/2000/svg" version="1.1" width="20px" height="20px" style="shape-rendering:geometricPrecision; text-rendering:geometricPrecision; image-rendering:optimizeQuality; fill-rule:evenodd; clip-rule:evenodd" xmlns:xlink="http://www.w3.org/1999/xlink">
<g><path style="opacity:0.004" fill="#110302" d="M -0.5,-0.5 C 0.166667,-0.5 0.833333,-0.5 1.5,-0.5C 1.5,-0.166667 1.5,0.166667 1.5,0.5C 1.33407,5.51108 1.50074,10.5111 2,15.5C 3.72546,16.464 5.55879,17.1307 7.5,17.5C 9.67997,18.7944 11.68,18.4611 13.5,16.5C 14.8333,16.1667 16.1667,15.8333 17.5,15.5C 17.5,15.8333 17.5,16.1667 17.5,16.5C 15.9275,17.6873 14.2608,18.6873 12.5,19.5C 10.5,19.5 8.5,19.5 6.5,19.5C 4.07131,18.4488 1.73798,17.1155 -0.5,15.5C -0.5,10.1667 -0.5,4.83333 -0.5,-0.5 Z"/></g>
<g><path style="opacity:0.264" fill="#1f0805" d="M 1.5,0.5 C 1.5,0.166667 1.5,-0.166667 1.5,-0.5C 7.5,-0.5 13.5,-0.5 19.5,-0.5C 19.5,5.16667 19.5,10.8333 19.5,16.5C 18.8333,16.5 18.1667,16.5 17.5,16.5C 17.5,16.1667 17.5,15.8333 17.5,15.5C 17.5,10.5 17.5,5.5 17.5,0.5C 14.8333,0.5 12.1667,0.5 9.5,0.5C 7.83333,0.5 6.16667,0.5 4.5,0.5C 3.5,0.5 2.5,0.5 1.5,0.5 Z"/></g>
<g><path style="opacity:1" fill="#261008" d="M 9.5,1.5 C 10.609,1.55688 11.609,1.89022 12.5,2.5C 12.2627,3.79105 12.596,4.79105 13.5,5.5C 12.7261,6.14713 11.7261,6.48046 10.5,6.5C 8.64545,6.65976 7.31212,5.99309 6.5,4.5C 7.30646,3.27187 8.30646,2.27187 9.5,1.5 Z"/></g>
<g><path style="opacity:1" fill="#d52d2c" d="M 15.5,8.5 C 14.8333,8.5 14.5,8.16667 14.5,7.5C 14.6716,6.50838 14.3382,5.84171 13.5,5.5C 12.596,4.79105 12.2627,3.79105 12.5,2.5C 13.3132,1.34732 14.3132,1.34732 15.5,2.5C 16.7928,4.63648 16.7928,6.63648 15.5,8.5 Z"/></g>
<g><path style="opacity:1" fill="#d4452c" d="M 6.5,4.5 C 7.31212,5.99309 8.64545,6.65976 10.5,6.5C 11.7261,6.48046 12.7261,6.14713 13.5,5.5C 14.3382,5.84171 14.6716,6.50838 14.5,7.5C 12.396,7.2011 10.396,7.53443 8.5,8.5C 7.4787,10.188 6.14537,11.5213 4.5,12.5C 3.96438,9.30195 4.63105,6.63528 6.5,4.5 Z"/></g>
<g><path style="opacity:1" fill="#af2724" d="M 9.5,1.5 C 9.5,1.16667 9.5,0.833333 9.5,0.5C 12.1667,0.5 14.8333,0.5 17.5,0.5C 17.5,5.5 17.5,10.5 17.5,15.5C 16.1667,15.8333 14.8333,16.1667 13.5,16.5C 12.2348,14.6431 12.5682,12.9764 14.5,11.5C 15.404,10.791 15.7373,9.79105 15.5,8.5C 16.7928,6.63648 16.7928,4.63648 15.5,2.5C 14.3132,1.34732 13.3132,1.34732 12.5,2.5C 11.609,1.89022 10.609,1.55688 9.5,1.5 Z"/></g>
<g><path style="opacity:1" fill="#c92b26" d="M 4.5,0.5 C 6.16667,0.5 7.83333,0.5 9.5,0.5C 9.5,0.833333 9.5,1.16667 9.5,1.5C 8.30646,2.27187 7.30646,3.27187 6.5,4.5C 4.63105,6.63528 3.96438,9.30195 4.5,12.5C 3.77842,12.9175 3.27842,13.5842 3,14.5C 1.98857,9.52937 2.48857,4.8627 4.5,0.5 Z"/></g>
<g><path style="opacity:1" fill="#1c0904" d="M 14.5,7.5 C 14.5,8.16667 14.8333,8.5 15.5,8.5C 15.7373,9.79105 15.404,10.791 14.5,11.5C 12.1202,12.2534 10.1202,13.5868 8.5,15.5C 7.16667,15.5 5.83333,15.5 4.5,15.5C 4.5,14.5 4.5,13.5 4.5,12.5C 6.14537,11.5213 7.4787,10.188 8.5,8.5C 10.396,7.53443 12.396,7.2011 14.5,7.5 Z"/></g>
<g><path style="opacity:1" fill="#8f2523" d="M 14.5,11.5 C 12.5682,12.9764 12.2348,14.6431 13.5,16.5C 11.68,18.4611 9.67997,18.7944 7.5,17.5C 8.67504,17.719 9.67504,17.3857 10.5,16.5C 10.0431,15.7025 9.37644,15.3691 8.5,15.5C 10.1202,13.5868 12.1202,12.2534 14.5,11.5 Z"/></g>
<g><path style="opacity:1" fill="#962423" d="M 1.5,0.5 C 2.5,0.5 3.5,0.5 4.5,0.5C 2.48857,4.8627 1.98857,9.52937 3,14.5C 3.27842,13.5842 3.77842,12.9175 4.5,12.5C 4.5,13.5 4.5,14.5 4.5,15.5C 5.83333,15.5 7.16667,15.5 8.5,15.5C 9.37644,15.3691 10.0431,15.7025 10.5,16.5C 9.67504,17.3857 8.67504,17.719 7.5,17.5C 5.55879,17.1307 3.72546,16.464 2,15.5C 1.50074,10.5111 1.33407,5.51108 1.5,0.5 Z"/></g>
</svg>
