<?xml version="1.0" encoding="UTF-8"?>
<!DOCTYPE svg PUBLIC "-//W3C//DTD SVG 1.1//EN" "http://www.w3.org/Graphics/SVG/1.1/DTD/svg11.dtd">
<svg xmlns="http://www.w3.org/2000/svg" version="1.1" width="20px" height="20px" style="shape-rendering:geometricPrecision; text-rendering:geometricPrecision; image-rendering:optimizeQuality; fill-rule:evenodd; clip-rule:evenodd" xmlns:xlink="http://www.w3.org/1999/xlink">
<g><path style="opacity:1" fill="#e6e5e6" d="M 12.5,4.5 C 12.5,5.16667 12.5,5.83333 12.5,6.5C 11.5178,7.14083 10.5178,7.80749 9.5,8.5C 8.89333,8.37642 8.55999,8.04309 8.5,7.5C 7.83333,6.5 7.16667,5.5 6.5,4.5C 8.64093,1.98143 10.6409,1.98143 12.5,4.5 Z"/></g>
<g><path style="opacity:0.545" fill="#222222" d="M 15.5,5.5 C 15.5,5.83333 15.5,6.16667 15.5,6.5C 14.5,5.83333 13.5,5.16667 12.5,4.5C 10.6409,1.98143 8.64093,1.98143 6.5,4.5C 4.37955,5.40335 4.04622,6.73668 5.5,8.5C 4.83333,8.5 4.16667,8.5 3.5,8.5C 2.42654,7.74943 2.25988,6.74943 3,5.5C 7.30504,-1.13354 11.4717,-1.13354 15.5,5.5 Z"/></g>
<g><path style="opacity:1" fill="#c0c0c0" d="M 6.5,4.5 C 7.16667,5.5 7.83333,6.5 8.5,7.5C 8.08188,9.60381 7.58188,11.9371 7,14.5C 7.36775,13.09 8.20108,12.09 9.5,11.5C 10.6422,12.8262 11.9755,13.8262 13.5,14.5C 13.5,14.8333 13.5,15.1667 13.5,15.5C 10.8333,15.5 8.16667,15.5 5.5,15.5C 5.5,13.1667 5.5,10.8333 5.5,8.5C 4.04622,6.73668 4.37955,5.40335 6.5,4.5 Z"/></g>
<g><path style="opacity:0.075" fill="#303030" d="M 12.5,6.5 C 12.4894,8.01739 11.8228,9.18405 10.5,10C 12.1412,11.129 13.1412,12.629 13.5,14.5C 11.9755,13.8262 10.6422,12.8262 9.5,11.5C 8.20108,12.09 7.36775,13.09 7,14.5C 7.58188,11.9371 8.08188,9.60381 8.5,7.5C 8.55999,8.04309 8.89333,8.37642 9.5,8.5C 10.5178,7.80749 11.5178,7.14083 12.5,6.5 Z"/></g>
<g><path style="opacity:0.055" fill="#151515" d="M 15.5,5.5 C 16.4972,5.47008 17.1639,5.97008 17.5,7C 16.8333,8.33333 16.1667,9.66667 15.5,11C 16.3862,13.1118 16.3862,15.2784 15.5,17.5C 11.8333,17.5 8.16667,17.5 4.5,17.5C 4.2939,14.5567 3.96056,11.5567 3.5,8.5C 4.16667,8.5 4.83333,8.5 5.5,8.5C 5.5,10.8333 5.5,13.1667 5.5,15.5C 8.16667,15.5 10.8333,15.5 13.5,15.5C 14.2448,12.6104 14.9115,9.61035 15.5,6.5C 15.5,6.16667 15.5,5.83333 15.5,5.5 Z"/></g>
<g><path style="opacity:0.904" fill="#8d8d8d" d="M 12.5,4.5 C 13.5,5.16667 14.5,5.83333 15.5,6.5C 14.9115,9.61035 14.2448,12.6104 13.5,15.5C 13.5,15.1667 13.5,14.8333 13.5,14.5C 13.1412,12.629 12.1412,11.129 10.5,10C 11.8228,9.18405 12.4894,8.01739 12.5,6.5C 12.5,5.83333 12.5,5.16667 12.5,4.5 Z"/></g>
</svg>
