<?xml version="1.0" encoding="UTF-8"?>
<!DOCTYPE svg PUBLIC "-//W3C//DTD SVG 1.1//EN" "http://www.w3.org/Graphics/SVG/1.1/DTD/svg11.dtd">
<svg xmlns="http://www.w3.org/2000/svg" version="1.1" width="20px" height="20px" style="shape-rendering:geometricPrecision; text-rendering:geometricPrecision; image-rendering:optimizeQuality; fill-rule:evenodd; clip-rule:evenodd" xmlns:xlink="http://www.w3.org/1999/xlink">
<g><path style="opacity:0.102" fill="#0e0e0e" d="M 5.5,-0.5 C 8.16667,-0.5 10.8333,-0.5 13.5,-0.5C 16.2898,0.967116 17.9565,3.30045 18.5,6.5C 18.1667,6.5 17.8333,6.5 17.5,6.5C 17.5,5.83333 17.1667,5.5 16.5,5.5C 15.8333,4.16667 14.8333,3.16667 13.5,2.5C 12.6879,1.00691 11.3545,0.340239 9.5,0.5C 8.27388,0.519537 7.27388,0.852871 6.5,1.5C 4.97306,1.42702 3.97306,2.09368 3.5,3.5C 2.09368,3.97306 1.42702,4.97306 1.5,6.5C 0.833333,6.5 0.5,6.16667 0.5,5.5C 1.44988,2.88507 3.11655,0.88507 5.5,-0.5 Z"/></g>
<g><path style="opacity:0.78" fill="#5c5b5c" d="M 6.5,1.5 C 7.27388,0.852871 8.27388,0.519537 9.5,0.5C 11.3545,0.340239 12.6879,1.00691 13.5,2.5C 12.391,2.44312 11.391,2.10978 10.5,1.5C 9.16667,1.5 7.83333,1.5 6.5,1.5 Z"/></g>
<g><path style="opacity:1" fill="#c2c2c2" d="M 6.5,1.5 C 7.83333,1.5 9.16667,1.5 10.5,1.5C 10.5,1.83333 10.5,2.16667 10.5,2.5C 8.51776,3.80749 6.51776,5.14083 4.5,6.5C 3.59603,5.79105 3.26269,4.79105 3.5,3.5C 3.97306,2.09368 4.97306,1.42702 6.5,1.5 Z"/></g>
<g><path style="opacity:1" fill="#cccbcc" d="M 10.5,1.5 C 11.391,2.10978 12.391,2.44312 13.5,2.5C 14.8333,3.16667 15.8333,4.16667 16.5,5.5C 16.7373,6.79105 16.404,7.79105 15.5,8.5C 13.8103,6.48073 12.1436,4.48073 10.5,2.5C 10.5,2.16667 10.5,1.83333 10.5,1.5 Z"/></g>
<g><path style="opacity:1" fill="#242424" d="M 10.5,2.5 C 12.1436,4.48073 13.8103,6.48073 15.5,8.5C 15.1551,11.1979 13.8218,13.1979 11.5,14.5C 11.1667,13.8333 10.8333,13.1667 10.5,12.5C 11.3764,12.6309 12.0431,12.2975 12.5,11.5C 11.1667,10.1667 11.1667,8.83333 12.5,7.5C 10.9018,7.39029 9.23516,7.05696 7.5,6.5C 6.70245,6.95689 6.36912,7.62356 6.5,8.5C 5.83333,8.16667 5.16667,7.83333 4.5,7.5C 4.5,7.16667 4.5,6.83333 4.5,6.5C 6.51776,5.14083 8.51776,3.80749 10.5,2.5 Z"/></g>
<g><path style="opacity:1" fill="#b4b4b4" d="M 16.5,5.5 C 17.1667,5.5 17.5,5.83333 17.5,6.5C 18.4123,12.3606 16.0789,16.0272 10.5,17.5C 10.5,16.8333 10.5,16.1667 10.5,15.5C 10.5,14.8333 10.8333,14.5 11.5,14.5C 13.8218,13.1979 15.1551,11.1979 15.5,8.5C 16.404,7.79105 16.7373,6.79105 16.5,5.5 Z"/></g>
<g><path style="opacity:0.121" fill="#181818" d="M -0.5,5.5 C -0.166667,5.5 0.166667,5.5 0.5,5.5C 0.5,6.16667 0.833333,6.5 1.5,6.5C 0.0617167,14.0019 3.06172,17.6686 10.5,17.5C 16.0789,16.0272 18.4123,12.3606 17.5,6.5C 17.8333,6.5 18.1667,6.5 18.5,6.5C 18.8333,6.5 19.1667,6.5 19.5,6.5C 19.5,8.5 19.5,10.5 19.5,12.5C 18.2003,15.4323 16.2003,17.7656 13.5,19.5C 10.8333,19.5 8.16667,19.5 5.5,19.5C 3.16667,17.8333 1.16667,15.8333 -0.5,13.5C -0.5,10.8333 -0.5,8.16667 -0.5,5.5 Z"/></g>
<g><path style="opacity:1" fill="#1a1a1a" d="M 4.5,7.5 C 5.16667,7.83333 5.83333,8.16667 6.5,8.5C 7.65268,9.31323 7.65268,10.3132 6.5,11.5C 7.90488,11.76 9.23822,12.0934 10.5,12.5C 10.8333,13.1667 11.1667,13.8333 11.5,14.5C 10.8333,14.5 10.5,14.8333 10.5,15.5C 9.88258,15.6107 9.38258,15.944 9,16.5C 6.67776,14.3432 4.51109,12.0099 2.5,9.5C 3.24269,8.81815 3.90935,8.15149 4.5,7.5 Z"/></g>
<g><path style="opacity:1" fill="#d7d8d7" d="M 10.5,12.5 C 9.23822,12.0934 7.90488,11.76 6.5,11.5C 7.65268,10.3132 7.65268,9.31323 6.5,8.5C 6.36912,7.62356 6.70245,6.95689 7.5,6.5C 9.23516,7.05696 10.9018,7.39029 12.5,7.5C 11.1667,8.83333 11.1667,10.1667 12.5,11.5C 12.0431,12.2975 11.3764,12.6309 10.5,12.5 Z"/></g>
<g><path style="opacity:1" fill="#b7b9b7" d="M 3.5,3.5 C 3.26269,4.79105 3.59603,5.79105 4.5,6.5C 4.5,6.83333 4.5,7.16667 4.5,7.5C 3.90935,8.15149 3.24269,8.81815 2.5,9.5C 4.51109,12.0099 6.67776,14.3432 9,16.5C 9.38258,15.944 9.88258,15.6107 10.5,15.5C 10.5,16.1667 10.5,16.8333 10.5,17.5C 3.06172,17.6686 0.0617167,14.0019 1.5,6.5C 1.42702,4.97306 2.09368,3.97306 3.5,3.5 Z"/></g>
</svg>
