<?xml version="1.0" encoding="UTF-8"?>
<!DOCTYPE svg PUBLIC "-//W3C//DTD SVG 1.1//EN" "http://www.w3.org/Graphics/SVG/1.1/DTD/svg11.dtd">
<svg xmlns="http://www.w3.org/2000/svg" version="1.1" width="20px" height="20px" style="shape-rendering:geometricPrecision; text-rendering:geometricPrecision; image-rendering:optimizeQuality; fill-rule:evenodd; clip-rule:evenodd" xmlns:xlink="http://www.w3.org/1999/xlink">
<g><path style="opacity:1" fill="#927e7b" d="M 7.5,1.5 C 7.5,1.16667 7.5,0.833333 7.5,0.5C 9.83333,0.5 12.1667,0.5 14.5,0.5C 14.5,0.833333 14.5,1.16667 14.5,1.5C 14.5,1.83333 14.5,2.16667 14.5,2.5C 12.283,1.63137 9.94965,1.29803 7.5,1.5 Z"/></g>
<g><path style="opacity:1" fill="#4f3b35" d="M 7.5,0.5 C 7.5,0.833333 7.5,1.16667 7.5,1.5C 7.16667,1.5 6.83333,1.5 6.5,1.5C 5.5,1.5 4.5,1.5 3.5,1.5C 1.9724,2.80208 0.9724,4.46875 0.5,6.5C 0.5,4.5 0.5,2.5 0.5,0.5C 2.83333,0.5 5.16667,0.5 7.5,0.5 Z"/></g>
<g><path style="opacity:1" fill="#c1afa4" d="M 7.5,1.5 C 9.94965,1.29803 12.283,1.63137 14.5,2.5C 15.1667,2.5 15.5,2.83333 15.5,3.5C 14.8333,3.5 14.5,3.83333 14.5,4.5C 12.2677,3.13107 9.93442,2.13107 7.5,1.5 Z"/></g>
<g><path style="opacity:1" fill="#897469" d="M 3.5,1.5 C 4.5,1.5 5.5,1.5 6.5,1.5C 6.5,2.16667 6.5,2.83333 6.5,3.5C 5.5,4.16667 4.5,4.83333 3.5,5.5C 3.5,4.16667 3.5,2.83333 3.5,1.5 Z"/></g>
<g><path style="opacity:1" fill="#9a887c" d="M 6.5,1.5 C 6.83333,1.5 7.16667,1.5 7.5,1.5C 9.93442,2.13107 12.2677,3.13107 14.5,4.5C 14.5,4.83333 14.5,5.16667 14.5,5.5C 14.1667,5.5 13.8333,5.5 13.5,5.5C 12.8333,5.16667 12.1667,4.83333 11.5,4.5C 10.4324,3.56552 9.09903,3.23219 7.5,3.5C 7.16667,3.5 6.83333,3.5 6.5,3.5C 6.5,2.83333 6.5,2.16667 6.5,1.5 Z"/></g>
<g><path style="opacity:1" fill="#785f58" d="M 14.5,2.5 C 14.5,2.16667 14.5,1.83333 14.5,1.5C 16.1993,1.52709 17.5326,2.19376 18.5,3.5C 18.5,3.83333 18.5,4.16667 18.5,4.5C 18.5,6.5 18.5,8.5 18.5,10.5C 18.1667,10.5 17.8333,10.5 17.5,10.5C 17.8294,7.77183 17.1628,5.4385 15.5,3.5C 15.5,2.83333 15.1667,2.5 14.5,2.5 Z"/></g>
<g><path style="opacity:1" fill="#513d38" d="M 14.5,1.5 C 14.5,1.16667 14.5,0.833333 14.5,0.5C 15.5,0.5 16.5,0.5 17.5,0.5C 18.404,1.20895 18.7373,2.20895 18.5,3.5C 17.5326,2.19376 16.1993,1.52709 14.5,1.5 Z"/></g>
<g><path style="opacity:0.573" fill="#2c211d" d="M -0.5,-0.5 C 5.5,-0.5 11.5,-0.5 17.5,-0.5C 17.5,-0.166667 17.5,0.166667 17.5,0.5C 16.5,0.5 15.5,0.5 14.5,0.5C 12.1667,0.5 9.83333,0.5 7.5,0.5C 5.16667,0.5 2.83333,0.5 0.5,0.5C 0.5,2.5 0.5,4.5 0.5,6.5C 0.5,8.5 0.5,10.5 0.5,12.5C 0.166667,12.5 -0.166667,12.5 -0.5,12.5C -0.5,8.16667 -0.5,3.83333 -0.5,-0.5 Z"/></g>
<g><path style="opacity:1" fill="#dfd9d6" d="M 7.5,3.5 C 9.09903,3.23219 10.4324,3.56552 11.5,4.5C 10.8333,4.5 10.5,4.83333 10.5,5.5C 10.1667,5.5 9.83333,5.5 9.5,5.5C 8.83333,4.83333 8.16667,4.16667 7.5,3.5 Z"/></g>
<g><path style="opacity:0.643" fill="#261e16" d="M 17.5,0.5 C 17.5,0.166667 17.5,-0.166667 17.5,-0.5C 18.1667,-0.5 18.8333,-0.5 19.5,-0.5C 19.5,1.16667 19.5,2.83333 19.5,4.5C 19.1667,4.5 18.8333,4.5 18.5,4.5C 18.5,4.16667 18.5,3.83333 18.5,3.5C 18.7373,2.20895 18.404,1.20895 17.5,0.5 Z"/></g>
<g><path style="opacity:1" fill="#d6cbc1" d="M 6.5,3.5 C 6.83333,3.5 7.16667,3.5 7.5,3.5C 8.16667,4.16667 8.83333,4.83333 9.5,5.5C 7.90097,5.23219 6.56764,5.56552 5.5,6.5C 4.5,6.83333 3.83333,7.5 3.5,8.5C 2.83333,8.5 2.5,8.16667 2.5,7.5C 2.32842,6.50838 2.66175,5.84171 3.5,5.5C 4.5,4.83333 5.5,4.16667 6.5,3.5 Z"/></g>
<g><path style="opacity:1" fill="#ceb7b0" d="M 15.5,3.5 C 17.1628,5.4385 17.8294,7.77183 17.5,10.5C 17.5,10.8333 17.5,11.1667 17.5,11.5C 16.596,10.791 16.2627,9.79105 16.5,8.5C 16.0679,7.29049 15.4013,6.29049 14.5,5.5C 14.5,5.16667 14.5,4.83333 14.5,4.5C 14.5,3.83333 14.8333,3.5 15.5,3.5 Z"/></g>
<g><path style="opacity:1" fill="#6c5550" d="M 3.5,1.5 C 3.5,2.83333 3.5,4.16667 3.5,5.5C 2.66175,5.84171 2.32842,6.50838 2.5,7.5C 1.56552,8.56764 1.23219,9.90097 1.5,11.5C 1.5,11.8333 1.5,12.1667 1.5,12.5C 1.16667,12.5 0.833333,12.5 0.5,12.5C 0.5,10.5 0.5,8.5 0.5,6.5C 0.9724,4.46875 1.9724,2.80208 3.5,1.5 Z"/></g>
<g><path style="opacity:1" fill="#e7e3e1" d="M 10.5,5.5 C 10.5,4.83333 10.8333,4.5 11.5,4.5C 12.1667,4.83333 12.8333,5.16667 13.5,5.5C 13.8333,6.83333 14.1667,8.16667 14.5,9.5C 14.5,9.83333 14.5,10.1667 14.5,10.5C 13.8333,9.83333 13.1667,9.16667 12.5,8.5C 12.5,8.16667 12.5,7.83333 12.5,7.5C 12.1667,6.5 11.5,5.83333 10.5,5.5 Z"/></g>
<g><path style="opacity:1" fill="#a7998f" d="M 5.5,6.5 C 6.56764,5.56552 7.90097,5.23219 9.5,5.5C 9.83333,5.5 10.1667,5.5 10.5,5.5C 11.5,5.83333 12.1667,6.5 12.5,7.5C 11.8333,7.5 11.1667,7.5 10.5,7.5C 9.16667,7.5 7.83333,7.5 6.5,7.5C 6.5,6.83333 6.16667,6.5 5.5,6.5 Z"/></g>
<g><path style="opacity:1" fill="#a7948e" d="M 13.5,5.5 C 13.8333,5.5 14.1667,5.5 14.5,5.5C 15.4013,6.29049 16.0679,7.29049 16.5,8.5C 15.8333,8.83333 15.1667,9.16667 14.5,9.5C 14.1667,8.16667 13.8333,6.83333 13.5,5.5 Z"/></g>
<g><path style="opacity:1" fill="#d5cbc4" d="M 6.5,7.5 C 7.83333,7.5 9.16667,7.5 10.5,7.5C 11.1098,8.39105 11.4431,9.39105 11.5,10.5C 10.8333,10.1667 10.1667,9.83333 9.5,9.5C 8.5,8.16667 7.5,8.16667 6.5,9.5C 5.56552,10.5676 5.23219,11.901 5.5,13.5C 4.83333,13.5 4.5,13.1667 4.5,12.5C 4.12012,10.302 4.78679,8.63535 6.5,7.5 Z"/></g>
<g><path style="opacity:1" fill="#a39283" d="M 10.5,7.5 C 11.1667,7.5 11.8333,7.5 12.5,7.5C 12.5,7.83333 12.5,8.16667 12.5,8.5C 12.5,9.5 12.5,10.5 12.5,11.5C 12.1667,11.5 11.8333,11.5 11.5,11.5C 11.5,11.1667 11.5,10.8333 11.5,10.5C 11.4431,9.39105 11.1098,8.39105 10.5,7.5 Z"/></g>
<g><path style="opacity:1" fill="#b79d96" d="M 2.5,7.5 C 2.5,8.16667 2.83333,8.5 3.5,8.5C 2.89022,9.39105 2.55688,10.391 2.5,11.5C 2.16667,11.5 1.83333,11.5 1.5,11.5C 1.23219,9.90097 1.56552,8.56764 2.5,7.5 Z"/></g>
<g><path style="opacity:1" fill="#8e7c6e" d="M 5.5,6.5 C 6.16667,6.5 6.5,6.83333 6.5,7.5C 4.78679,8.63535 4.12012,10.302 4.5,12.5C 3.83333,12.1667 3.16667,11.8333 2.5,11.5C 2.55688,10.391 2.89022,9.39105 3.5,8.5C 3.83333,7.5 4.5,6.83333 5.5,6.5 Z"/></g>
<g><path style="opacity:1" fill="#998479" d="M 6.5,9.5 C 7.16667,10.5 7.83333,11.5 8.5,12.5C 9.83333,13.8333 11.1667,13.8333 12.5,12.5C 13.1667,12.1667 13.8333,11.8333 14.5,11.5C 14.5,12.1667 14.8333,12.5 15.5,12.5C 12.6557,16.1627 9.32234,16.4961 5.5,13.5C 5.23219,11.901 5.56552,10.5676 6.5,9.5 Z"/></g>
<g><path style="opacity:1" fill="#a5918a" d="M 6.5,9.5 C 7.5,8.16667 8.5,8.16667 9.5,9.5C 9.5,10.1667 9.5,10.8333 9.5,11.5C 8.83333,11.5 8.5,11.8333 8.5,12.5C 7.83333,11.5 7.16667,10.5 6.5,9.5 Z"/></g>
<g><path style="opacity:1" fill="#d7ceca" d="M 12.5,8.5 C 13.1667,9.16667 13.8333,9.83333 14.5,10.5C 14.5,10.8333 14.5,11.1667 14.5,11.5C 13.8333,11.8333 13.1667,12.1667 12.5,12.5C 12.5,12.1667 12.5,11.8333 12.5,11.5C 12.5,10.5 12.5,9.5 12.5,8.5 Z"/></g>
<g><path style="opacity:1" fill="#9a8278" d="M 16.5,8.5 C 16.2627,9.79105 16.596,10.791 17.5,11.5C 17.5,12.1667 17.5,12.8333 17.5,13.5C 17.1667,13.5 16.8333,13.5 16.5,13.5C 16.5,12.8333 16.1667,12.5 15.5,12.5C 14.8333,12.5 14.5,12.1667 14.5,11.5C 14.5,11.1667 14.5,10.8333 14.5,10.5C 14.5,10.1667 14.5,9.83333 14.5,9.5C 15.1667,9.16667 15.8333,8.83333 16.5,8.5 Z"/></g>
<g><path style="opacity:1" fill="#a59489" d="M 9.5,9.5 C 10.1667,9.83333 10.8333,10.1667 11.5,10.5C 11.5,10.8333 11.5,11.1667 11.5,11.5C 10.8333,12.8333 10.1667,12.8333 9.5,11.5C 9.5,10.8333 9.5,10.1667 9.5,9.5 Z"/></g>
<g><path style="opacity:1" fill="#866e67" d="M 1.5,11.5 C 1.83333,11.5 2.16667,11.5 2.5,11.5C 3.16667,11.8333 3.83333,12.1667 4.5,12.5C 4.5,13.1667 4.83333,13.5 5.5,13.5C 5.5,13.8333 5.5,14.1667 5.5,14.5C 4.50838,14.3284 3.84171,14.6618 3.5,15.5C 2.83333,14.8333 2.16667,14.1667 1.5,13.5C 1.5,13.1667 1.5,12.8333 1.5,12.5C 1.5,12.1667 1.5,11.8333 1.5,11.5 Z"/></g>
<g><path style="opacity:1" fill="#d1c6c4" d="M 9.5,11.5 C 10.1667,12.8333 10.8333,12.8333 11.5,11.5C 11.8333,11.5 12.1667,11.5 12.5,11.5C 12.5,11.8333 12.5,12.1667 12.5,12.5C 11.1667,13.8333 9.83333,13.8333 8.5,12.5C 8.5,11.8333 8.83333,11.5 9.5,11.5 Z"/></g>
<g><path style="opacity:0.573" fill="#281d18" d="M -0.5,12.5 C -0.166667,12.5 0.166667,12.5 0.5,12.5C 0.0253893,15.0821 0.692056,17.0821 2.5,18.5C 2.5,18.8333 2.5,19.1667 2.5,19.5C 1.5,19.5 0.5,19.5 -0.5,19.5C -0.5,17.1667 -0.5,14.8333 -0.5,12.5 Z"/></g>
<g><path style="opacity:1" fill="#4c3834" d="M 0.5,12.5 C 0.833333,12.5 1.16667,12.5 1.5,12.5C 1.5,12.8333 1.5,13.1667 1.5,13.5C 1.23219,15.099 1.56552,16.4324 2.5,17.5C 2.5,17.8333 2.5,18.1667 2.5,18.5C 0.692056,17.0821 0.0253893,15.0821 0.5,12.5 Z"/></g>
<g><path style="opacity:1" fill="#d0aea4" d="M 15.5,12.5 C 16.1667,12.5 16.5,12.8333 16.5,13.5C 15.8333,14.5 15.1667,15.5 14.5,16.5C 13.5084,16.3284 12.8417,16.6618 12.5,17.5C 11.1667,17.5 9.83333,17.5 8.5,17.5C 7.30646,16.7281 6.30646,15.7281 5.5,14.5C 5.5,14.1667 5.5,13.8333 5.5,13.5C 9.32234,16.4961 12.6557,16.1627 15.5,12.5 Z"/></g>
<g><path style="opacity:1" fill="#846d62" d="M 16.5,13.5 C 16.8333,13.5 17.1667,13.5 17.5,13.5C 17.5,14.1667 17.5,14.8333 17.5,15.5C 16.609,16.1098 15.609,16.4431 14.5,16.5C 15.1667,15.5 15.8333,14.5 16.5,13.5 Z"/></g>
<g><path style="opacity:1" fill="#6b524e" d="M 1.5,13.5 C 2.16667,14.1667 2.83333,14.8333 3.5,15.5C 3.5,16.1667 3.5,16.8333 3.5,17.5C 3.16667,17.5 2.83333,17.5 2.5,17.5C 1.56552,16.4324 1.23219,15.099 1.5,13.5 Z"/></g>
<g><path style="opacity:1" fill="#695249" d="M 5.5,14.5 C 6.30646,15.7281 7.30646,16.7281 8.5,17.5C 6.83333,17.5 5.16667,17.5 3.5,17.5C 3.5,16.8333 3.5,16.1667 3.5,15.5C 3.84171,14.6618 4.50838,14.3284 5.5,14.5 Z"/></g>
<g><path style="opacity:1" fill="#715950" d="M 17.5,15.5 C 16.4479,17.256 14.7812,17.9227 12.5,17.5C 12.8417,16.6618 13.5084,16.3284 14.5,16.5C 15.609,16.4431 16.609,16.1098 17.5,15.5 Z"/></g>
<g><path style="opacity:1" fill="#554139" d="M 17.5,10.5 C 17.8333,10.5 18.1667,10.5 18.5,10.5C 18.5,13.1667 18.5,15.8333 18.5,18.5C 13.1667,18.5 7.83333,18.5 2.5,18.5C 2.5,18.1667 2.5,17.8333 2.5,17.5C 2.83333,17.5 3.16667,17.5 3.5,17.5C 5.16667,17.5 6.83333,17.5 8.5,17.5C 9.83333,17.5 11.1667,17.5 12.5,17.5C 14.7812,17.9227 16.4479,17.256 17.5,15.5C 17.5,14.8333 17.5,14.1667 17.5,13.5C 17.5,12.8333 17.5,12.1667 17.5,11.5C 17.5,11.1667 17.5,10.8333 17.5,10.5 Z"/></g>
<g><path style="opacity:0.646" fill="#2d221c" d="M 18.5,4.5 C 18.8333,4.5 19.1667,4.5 19.5,4.5C 19.5,9.5 19.5,14.5 19.5,19.5C 13.8333,19.5 8.16667,19.5 2.5,19.5C 2.5,19.1667 2.5,18.8333 2.5,18.5C 7.83333,18.5 13.1667,18.5 18.5,18.5C 18.5,15.8333 18.5,13.1667 18.5,10.5C 18.5,8.5 18.5,6.5 18.5,4.5 Z"/></g>
</svg>
