<?xml version="1.0" encoding="UTF-8"?>
<!DOCTYPE svg PUBLIC "-//W3C//DTD SVG 1.1//EN" "http://www.w3.org/Graphics/SVG/1.1/DTD/svg11.dtd">
<svg xmlns="http://www.w3.org/2000/svg" version="1.1" width="32px" height="32px" style="shape-rendering:geometricPrecision; text-rendering:geometricPrecision; image-rendering:optimizeQuality; fill-rule:evenodd; clip-rule:evenodd" xmlns:xlink="http://www.w3.org/1999/xlink">
<g><path style="opacity:0.485" fill="#0e0e0c" d="M 28.5,11.5 C 28.1667,11.5 27.8333,11.5 27.5,11.5C 26.8897,9.56594 25.8897,7.89928 24.5,6.5C 22.126,4.22312 19.2927,2.55646 16,1.5C 14.2725,1.89901 12.7725,2.56567 11.5,3.5C 10.8333,3.5 10.1667,3.5 9.5,3.5C 11.9287,0.974323 14.9287,0.14099 18.5,1C 24.0282,2.56182 27.3615,6.06182 28.5,11.5 Z"/></g>
<g><path style="opacity:0.533" fill="#0d0d0c" d="M 9.5,3.5 C 7.44532,5.55492 5.77865,7.88825 4.5,10.5C 3.21543,13.5885 2.54877,16.9219 2.5,20.5C 1.962,22.1172 1.62867,23.7839 1.5,25.5C 3.6208,25.6747 5.6208,25.3414 7.5,24.5C 7.83333,24.5 8.16667,24.5 8.5,24.5C 13.3054,25.4872 18.3054,25.8205 23.5,25.5C 23.5,25.8333 23.5,26.1667 23.5,26.5C 15.4864,26.5676 7.48636,26.901 -0.5,27.5C -0.5,27.1667 -0.5,26.8333 -0.5,26.5C 0.845262,20.9949 2.01193,15.3282 3,9.5C 4.40552,6.59136 6.57219,4.59136 9.5,3.5 Z"/></g>
<g><path style="opacity:1" fill="#a29c98" d="M 24.5,6.5 C 23.8902,7.39105 23.5569,8.39105 23.5,9.5C 21.0034,7.12892 18.0034,6.12892 14.5,6.5C 14.9175,5.77842 15.5842,5.27842 16.5,5C 14.9751,3.99136 13.3084,3.49136 11.5,3.5C 12.7725,2.56567 14.2725,1.89901 16,1.5C 19.2927,2.55646 22.126,4.22312 24.5,6.5 Z"/></g>
<g><path style="opacity:1" fill="#c6beba" d="M 9.5,3.5 C 10.1667,3.5 10.8333,3.5 11.5,3.5C 13.3084,3.49136 14.9751,3.99136 16.5,5C 15.5842,5.27842 14.9175,5.77842 14.5,6.5C 10.9111,7.09221 8.57777,9.09221 7.5,12.5C 7.16667,12.5 6.83333,12.5 6.5,12.5C 5.16667,12.5 4.5,11.8333 4.5,10.5C 5.77865,7.88825 7.44532,5.55492 9.5,3.5 Z"/></g>
<g><path style="opacity:1" fill="#40362c" d="M 23.5,10.5 C 23.6287,12.2161 23.962,13.8828 24.5,15.5C 24.1667,15.5 23.8333,15.5 23.5,15.5C 22.5265,12.865 20.8598,10.865 18.5,9.5C 18.1667,9.5 17.8333,9.5 17.5,9.5C 16.3915,8.71003 15.0581,8.21003 13.5,8C 14.3333,7.83333 15.1667,7.66667 16,7.5C 18.7085,8.10862 21.2085,9.10862 23.5,10.5 Z"/></g>
<g><path style="opacity:1" fill="#605447" d="M 14.5,6.5 C 18.0034,6.12892 21.0034,7.12892 23.5,9.5C 23.5,9.83333 23.5,10.1667 23.5,10.5C 21.2085,9.10862 18.7085,8.10862 16,7.5C 15.1667,7.66667 14.3333,7.83333 13.5,8C 15.0581,8.21003 16.3915,8.71003 17.5,9.5C 16.8333,9.5 16.5,9.83333 16.5,10.5C 15.8333,10.1667 15.1667,9.83333 14.5,9.5C 12.3364,9.72145 10.6697,10.7215 9.5,12.5C 9.06233,11.4937 8.39567,11.4937 7.5,12.5C 8.57777,9.09221 10.9111,7.09221 14.5,6.5 Z"/></g>
<g><path style="opacity:1" fill="#dbac73" d="M 14.5,9.5 C 14.5,10.1667 14.5,10.8333 14.5,11.5C 14.5,12.8333 14.5,14.1667 14.5,15.5C 12.8333,15.5 11.1667,15.5 9.5,15.5C 9.5,15.1667 9.5,14.8333 9.5,14.5C 9.5,13.8333 9.5,13.1667 9.5,12.5C 10.6697,10.7215 12.3364,9.72145 14.5,9.5 Z"/></g>
<g><path style="opacity:1" fill="#8d704a" d="M 18.5,9.5 C 20.8598,10.865 22.5265,12.865 23.5,15.5C 23.5,18.1667 23.5,20.8333 23.5,23.5C 22.6829,21.0314 22.1829,18.3647 22,15.5C 21.2411,17.0629 20.0744,18.0629 18.5,18.5C 18.5,15.5 18.5,12.5 18.5,9.5 Z"/></g>
<g><path style="opacity:1" fill="#7f7977" d="M 24.5,6.5 C 25.8897,7.89928 26.8897,9.56594 27.5,11.5C 27.8134,14.2469 27.48,16.9135 26.5,19.5C 25.8281,18.0508 25.1614,16.7175 24.5,15.5C 23.962,13.8828 23.6287,12.2161 23.5,10.5C 23.5,10.1667 23.5,9.83333 23.5,9.5C 23.5569,8.39105 23.8902,7.39105 24.5,6.5 Z"/></g>
<g><path style="opacity:1" fill="#9f9794" d="M 4.5,10.5 C 4.5,11.8333 5.16667,12.5 6.5,12.5C 6.44106,16.0459 5.60773,19.3792 4,22.5C 3.72158,21.5842 3.22158,20.9175 2.5,20.5C 2.54877,16.9219 3.21543,13.5885 4.5,10.5 Z"/></g>
<g><path style="opacity:1" fill="#b68f62" d="M 14.5,11.5 C 15.6291,13.6282 15.7958,15.9615 15,18.5C 13.3005,19.4061 11.4672,19.7394 9.5,19.5C 9.5,18.1667 9.5,16.8333 9.5,15.5C 11.1667,15.5 12.8333,15.5 14.5,15.5C 14.5,14.1667 14.5,12.8333 14.5,11.5 Z"/></g>
<g><path style="opacity:1" fill="#c99d6a" d="M 17.5,9.5 C 17.8333,9.5 18.1667,9.5 18.5,9.5C 18.5,12.5 18.5,15.5 18.5,18.5C 17.8333,19.1667 17.1667,19.8333 16.5,20.5C 16.5,20.1667 16.5,19.8333 16.5,19.5C 16.5,16.5 16.5,13.5 16.5,10.5C 16.5,9.83333 16.8333,9.5 17.5,9.5 Z"/></g>
<g><path style="opacity:0.405" fill="#191918" d="M 28.5,11.5 C 29.3934,15.1909 30.3934,18.8576 31.5,22.5C 31.5,24.1667 31.5,25.8333 31.5,27.5C 28.6146,27.8064 25.9479,27.4731 23.5,26.5C 23.5,26.1667 23.5,25.8333 23.5,25.5C 23.5,25.1667 23.5,24.8333 23.5,24.5C 23.5,24.1667 23.5,23.8333 23.5,23.5C 23.5,20.8333 23.5,18.1667 23.5,15.5C 23.8333,15.5 24.1667,15.5 24.5,15.5C 24.5,18.8333 24.5,22.1667 24.5,25.5C 26.1667,25.5 27.8333,25.5 29.5,25.5C 28.6864,20.8809 28.3531,16.2142 28.5,11.5 Z"/></g>
<g><path style="opacity:1" fill="#6e6966" d="M 6.5,12.5 C 6.83333,12.5 7.16667,12.5 7.5,12.5C 6.99403,16.6044 6.99403,20.6044 7.5,24.5C 5.6208,25.3414 3.6208,25.6747 1.5,25.5C 1.62867,23.7839 1.962,22.1172 2.5,20.5C 3.22158,20.9175 3.72158,21.5842 4,22.5C 5.60773,19.3792 6.44106,16.0459 6.5,12.5 Z"/></g>
<g><path style="opacity:1" fill="#332c21" d="M 9.5,12.5 C 9.5,13.1667 9.5,13.8333 9.5,14.5C 8.52056,17.6248 8.18723,20.9581 8.5,24.5C 8.16667,24.5 7.83333,24.5 7.5,24.5C 6.99403,20.6044 6.99403,16.6044 7.5,12.5C 8.39567,11.4937 9.06233,11.4937 9.5,12.5 Z"/></g>
<g><path style="opacity:1" fill="#a68158" d="M 14.5,9.5 C 15.1667,9.83333 15.8333,10.1667 16.5,10.5C 16.5,13.5 16.5,16.5 16.5,19.5C 15.8333,19.5 15.5,19.8333 15.5,20.5C 13.5713,21.0063 11.9047,22.0063 10.5,23.5C 9.57131,22.3112 9.23798,20.9778 9.5,19.5C 11.4672,19.7394 13.3005,19.4061 15,18.5C 15.7958,15.9615 15.6291,13.6282 14.5,11.5C 14.5,10.8333 14.5,10.1667 14.5,9.5 Z"/></g>
<g><path style="opacity:1" fill="#a48057" d="M 23.5,23.5 C 23.5,23.8333 23.5,24.1667 23.5,24.5C 21.1667,24.5 18.8333,24.5 16.5,24.5C 16.5,23.1667 16.5,21.8333 16.5,20.5C 17.1667,19.8333 17.8333,19.1667 18.5,18.5C 20.0744,18.0629 21.2411,17.0629 22,15.5C 22.1829,18.3647 22.6829,21.0314 23.5,23.5 Z"/></g>
<g><path style="opacity:1" fill="#706b68" d="M 27.5,11.5 C 27.8333,11.5 28.1667,11.5 28.5,11.5C 28.3531,16.2142 28.6864,20.8809 29.5,25.5C 27.8333,25.5 26.1667,25.5 24.5,25.5C 24.5,22.1667 24.5,18.8333 24.5,15.5C 25.1614,16.7175 25.8281,18.0508 26.5,19.5C 27.48,16.9135 27.8134,14.2469 27.5,11.5 Z"/></g>
<g><path style="opacity:1" fill="#987550" d="M 9.5,14.5 C 9.5,14.8333 9.5,15.1667 9.5,15.5C 9.5,16.8333 9.5,18.1667 9.5,19.5C 9.23798,20.9778 9.57131,22.3112 10.5,23.5C 11.9047,22.0063 13.5713,21.0063 15.5,20.5C 15.5,21.8333 15.5,23.1667 15.5,24.5C 13.1667,24.5 10.8333,24.5 8.5,24.5C 8.18723,20.9581 8.52056,17.6248 9.5,14.5 Z"/></g>
<g><path style="opacity:1" fill="#55422c" d="M 16.5,19.5 C 16.5,19.8333 16.5,20.1667 16.5,20.5C 16.5,21.8333 16.5,23.1667 16.5,24.5C 18.8333,24.5 21.1667,24.5 23.5,24.5C 23.5,24.8333 23.5,25.1667 23.5,25.5C 18.3054,25.8205 13.3054,25.4872 8.5,24.5C 10.8333,24.5 13.1667,24.5 15.5,24.5C 15.5,23.1667 15.5,21.8333 15.5,20.5C 15.5,19.8333 15.8333,19.5 16.5,19.5 Z"/></g>
</svg>
