<?xml version="1.0" standalone="no"?>
<!DOCTYPE svg PUBLIC "-//W3C//DTD SVG 20010904//EN"
 "http://www.w3.org/TR/2001/REC-SVG-20010904/DTD/svg10.dtd">
<svg version="1.0" xmlns="http://www.w3.org/2000/svg"
 width="32.000000pt" height="32.000000pt" viewBox="0 0 32.000000 32.000000"
 preserveAspectRatio="xMidYMid meet">

<g transform="translate(0.000000,32.000000) scale(0.100000,-0.100000)"
fill="#000000" stroke="none">
<path d="M158 280 c-23 -14 -60 -94 -52 -114 4 -12 2 -15 -9 -11 -10 4 -16 -3
-21 -25 -11 -56 26 -100 85 -100 54 0 104 46 90 82 -4 13 -6 28 -4 34 2 6 -7
15 -19 21 -36 16 -54 58 -41 94 12 31 3 37 -29 19z m35 -104 c9 -14 18 -38 18
-53 l1 -28 7 30 7 30 8 -34 c7 -31 5 -38 -18 -58 -51 -44 -126 -17 -126 45 0
19 3 23 9 13 6 -9 13 2 22 38 l13 52 23 -43 c26 -50 28 -71 9 -87 -10 -9 -16
-8 -26 4 -10 12 -10 15 4 15 10 0 14 5 10 11 -10 16 -38 -16 -31 -35 7 -19 38
-21 55 -4 19 19 14 65 -13 115 -20 38 -22 50 -12 67 10 20 12 18 17 -16 4 -20
14 -48 23 -62z"/>
<path d="M132 150 c0 -14 2 -19 5 -12 2 6 2 18 0 25 -3 6 -5 1 -5 -13z"/>
</g>
</svg>
