<?xml version="1.0" encoding="UTF-8"?>
<!DOCTYPE svg PUBLIC "-//W3C//DTD SVG 1.1//EN" "http://www.w3.org/Graphics/SVG/1.1/DTD/svg11.dtd">
<svg xmlns="http://www.w3.org/2000/svg" version="1.1" width="65px" height="65px" style="shape-rendering:geometricPrecision; text-rendering:geometricPrecision; image-rendering:optimizeQuality; fill-rule:evenodd; clip-rule:evenodd" xmlns:xlink="http://www.w3.org/1999/xlink">
<g><path style="opacity:0.221" fill="#060402" d="M 26.5,-0.5 C 28.5,-0.5 30.5,-0.5 32.5,-0.5C 33.1667,0.833333 33.8333,0.833333 34.5,-0.5C 35.1667,-0.5 35.8333,-0.5 36.5,-0.5C 45.8894,9.55229 55.2227,19.5523 64.5,29.5C 64.5,31.8333 64.5,34.1667 64.5,36.5C 63.7321,37.2625 63.2321,38.2625 63,39.5C 55.864,45.6349 49.0307,52.1349 42.5,59C 38.0956,60.9587 33.7622,62.792 29.5,64.5C 28.8333,64.5 28.1667,64.5 27.5,64.5C 17.8397,56.1726 8.50639,47.5059 -0.5,38.5C -0.5,35.1667 -0.5,31.8333 -0.5,28.5C 8.89517,19.1083 17.8952,9.4416 26.5,-0.5 Z"/></g>
<g><path style="opacity:1" fill="#624832" d="M 34.5,9.5 C 33.1667,9.16667 31.8333,8.83333 30.5,8.5C 31.9076,6.14029 33.2409,6.47362 34.5,9.5 Z"/></g>
<g><path style="opacity:1" fill="#a18c70" d="M 30.5,8.5 C 31.8333,8.83333 33.1667,9.16667 34.5,9.5C 36.8333,12.1667 39.1667,14.8333 41.5,17.5C 40.8826,17.6107 40.3826,17.944 40,18.5C 36.9964,16.3256 34.1631,13.9923 31.5,11.5C 29.1789,13.6358 26.8455,15.8025 24.5,18C 23.4232,18.4696 22.4232,18.3029 21.5,17.5C 24.1667,14.1667 27.1667,11.1667 30.5,8.5 Z"/></g>
<g><path style="opacity:1" fill="#b99f7c" d="M 41.5,17.5 C 42.5,17.8333 43.1667,18.5 43.5,19.5C 43.5,20.5 43.5,21.5 43.5,22.5C 42.0695,22.5792 40.7362,22.2458 39.5,21.5C 38.3777,22.6302 37.0443,23.2969 35.5,23.5C 34.1851,22.5244 32.8518,21.5244 31.5,20.5C 29.8144,21.8569 28.1477,23.1902 26.5,24.5C 25.735,23.3398 24.735,22.3398 23.5,21.5C 21.1339,22.9837 19.8005,22.317 19.5,19.5C 19.8333,18.5 20.5,17.8333 21.5,17.5C 22.4232,18.3029 23.4232,18.4696 24.5,18C 26.8455,15.8025 29.1789,13.6358 31.5,11.5C 34.1631,13.9923 36.9964,16.3256 40,18.5C 40.3826,17.944 40.8826,17.6107 41.5,17.5 Z"/></g>
<g><path style="opacity:1" fill="#ad8862" d="M 43.5,19.5 C 47.1667,22.5 50.5,25.8333 53.5,29.5C 51.3523,29.3894 51.019,30.056 52.5,31.5C 52,32.5 51.5,33.5 51,34.5C 49.6284,31.8743 47.795,31.2076 45.5,32.5C 41.5442,30.2119 38.2109,27.2119 35.5,23.5C 37.0443,23.2969 38.3777,22.6302 39.5,21.5C 40.7362,22.2458 42.0695,22.5792 43.5,22.5C 43.5,21.5 43.5,20.5 43.5,19.5 Z"/></g>
<g><path style="opacity:1" fill="#281913" d="M 35.5,23.5 C 38.2109,27.2119 41.5442,30.2119 45.5,32.5C 46.1667,33.5 46.8333,34.5 47.5,35.5C 46.8333,36.1667 46.1667,36.8333 45.5,37.5C 44.8826,37.3893 44.3826,37.056 44,36.5C 40.2782,40.725 36.1115,44.3916 31.5,47.5C 29.1455,45.8122 27.1455,43.8122 25.5,41.5C 26.1667,41.5 26.8333,41.5 27.5,41.5C 28.4787,43.1454 29.812,44.4787 31.5,45.5C 35.4416,43.0617 38.9416,40.0617 42,36.5C 42.314,33.295 40.814,31.295 37.5,30.5C 35.8545,28.1878 33.8545,26.1878 31.5,24.5C 27.8133,27.8554 24.1466,31.1887 20.5,34.5C 19.7777,35.5511 18.7777,36.2178 17.5,36.5C 16.6618,36.1583 16.3284,35.4916 16.5,34.5C 20.1667,31.5 23.5,28.1667 26.5,24.5C 28.1477,23.1902 29.8144,21.8569 31.5,20.5C 32.8518,21.5244 34.1851,22.5244 35.5,23.5 Z"/></g>
<g><path style="opacity:1" fill="#a68360" d="M 19.5,19.5 C 19.8005,22.317 21.1339,22.9837 23.5,21.5C 24.735,22.3398 25.735,23.3398 26.5,24.5C 23.5,28.1667 20.1667,31.5 16.5,34.5C 16.3444,30.8649 15.1777,30.5315 13,33.5C 11.9505,32.4829 10.7839,32.3162 9.5,33C 8.40191,33.7697 8.40191,34.603 9.5,35.5C 6.92357,35.2782 6.09024,33.9449 7,31.5C 11.0356,27.2964 15.2022,23.2964 19.5,19.5 Z"/></g>
<g><path style="opacity:1" fill="#403936" d="M 37.5,30.5 C 35.2888,29.9634 33.2888,28.9634 31.5,27.5C 28.948,29.369 26.448,31.369 24,33.5C 23.3333,34.8333 23.3333,36.1667 24,37.5C 25.3756,38.7051 26.5423,40.0384 27.5,41.5C 26.8333,41.5 26.1667,41.5 25.5,41.5C 23.4202,39.4268 21.7536,37.0934 20.5,34.5C 24.1466,31.1887 27.8133,27.8554 31.5,24.5C 33.8545,26.1878 35.8545,28.1878 37.5,30.5 Z"/></g>
<g><path style="opacity:1" fill="#c09d77" d="M 16.5,34.5 C 14.9468,36.385 12.9468,37.385 10.5,37.5C 10.1667,36.8333 9.83333,36.1667 9.5,35.5C 8.40191,34.603 8.40191,33.7697 9.5,33C 10.7839,32.3162 11.9505,32.4829 13,33.5C 15.1777,30.5315 16.3444,30.8649 16.5,34.5 Z"/></g>
<g><path style="opacity:1" fill="#b69571" d="M 53.5,29.5 C 57.5248,32.4889 57.1914,35.1556 52.5,37.5C 50.4862,37.6085 48.8195,36.9418 47.5,35.5C 46.8333,34.5 46.1667,33.5 45.5,32.5C 47.795,31.2076 49.6284,31.8743 51,34.5C 51.5,33.5 52,32.5 52.5,31.5C 51.019,30.056 51.3523,29.3894 53.5,29.5 Z"/></g>
<g><path style="opacity:1" fill="#5e4530" d="M 47.5,35.5 C 48.8195,36.9418 50.4862,37.6085 52.5,37.5C 51.791,38.404 50.791,38.7373 49.5,38.5C 48.2921,37.7659 46.9587,37.4326 45.5,37.5C 46.1667,36.8333 46.8333,36.1667 47.5,35.5 Z"/></g>
<g><path style="opacity:1" fill="#6b5039" d="M 16.5,34.5 C 16.3284,35.4916 16.6618,36.1583 17.5,36.5C 17.5,36.8333 17.5,37.1667 17.5,37.5C 16.0413,37.4326 14.7079,37.7659 13.5,38.5C 12.209,38.7373 11.209,38.404 10.5,37.5C 12.9468,37.385 14.9468,36.385 16.5,34.5 Z"/></g>
<g><path style="opacity:1" fill="#494544" d="M 37.5,30.5 C 40.814,31.295 42.314,33.295 42,36.5C 38.9416,40.0617 35.4416,43.0617 31.5,45.5C 29.812,44.4787 28.4787,43.1454 27.5,41.5C 26.5423,40.0384 25.3756,38.7051 24,37.5C 23.3333,36.1667 23.3333,34.8333 24,33.5C 26.448,31.369 28.948,29.369 31.5,27.5C 33.2888,28.9634 35.2888,29.9634 37.5,30.5 Z"/></g>
<g><path style="opacity:1" fill="#525252" d="M 29.5,30.5 C 35.1445,30.2971 37.1445,32.7971 35.5,38C 31.265,40.5273 28.265,39.5273 26.5,35C 27.0077,33.1074 28.0077,31.6074 29.5,30.5 Z"/></g>
<g><path style="opacity:1" fill="#493220" d="M 20.5,34.5 C 21.7536,37.0934 23.4202,39.4268 25.5,41.5C 27.1455,43.8122 29.1455,45.8122 31.5,47.5C 36.1115,44.3916 40.2782,40.725 44,36.5C 44.3826,37.056 44.8826,37.3893 45.5,37.5C 41.4814,42.5181 36.8147,46.8515 31.5,50.5C 26.7181,46.141 22.0514,41.8077 17.5,37.5C 17.5,37.1667 17.5,36.8333 17.5,36.5C 18.7777,36.2178 19.7777,35.5511 20.5,34.5 Z"/></g>
<g><path style="opacity:1" fill="#a88663" d="M 17.5,37.5 C 22.0514,41.8077 26.7181,46.141 31.5,50.5C 36.8147,46.8515 41.4814,42.5181 45.5,37.5C 46.9587,37.4326 48.2921,37.7659 49.5,38.5C 44.6229,45.2136 38.7896,51.2136 32,56.5C 24.6586,51.6579 18.4919,45.6579 13.5,38.5C 14.7079,37.7659 16.0413,37.4326 17.5,37.5 Z"/></g>
</svg>
