<?xml version="1.0" encoding="UTF-8"?>
<!DOCTYPE svg PUBLIC "-//W3C//DTD SVG 1.1//EN" "http://www.w3.org/Graphics/SVG/1.1/DTD/svg11.dtd">
<svg xmlns="http://www.w3.org/2000/svg" version="1.1" width="59px" height="51px" style="shape-rendering:geometricPrecision; text-rendering:geometricPrecision; image-rendering:optimizeQuality; fill-rule:evenodd; clip-rule:evenodd" xmlns:xlink="http://www.w3.org/1999/xlink">
<g><path style="opacity:0.299" fill="#0b0702" d="M 11.5,-0.5 C 14.5,-0.5 17.5,-0.5 20.5,-0.5C 23.407,1.05928 26.0736,3.05928 28.5,5.5C 31.6314,3.00802 34.9647,1.00802 38.5,-0.5C 40.8333,-0.5 43.1667,-0.5 45.5,-0.5C 51.8333,1.83333 56.1667,6.16667 58.5,12.5C 58.5,15.1667 58.5,17.8333 58.5,20.5C 57.1595,24.3166 55.3262,27.9833 53,31.5C 45.7071,38.2079 38.2071,44.5412 30.5,50.5C 29.5,50.5 28.5,50.5 27.5,50.5C 19.2704,44.4481 11.4371,37.7814 4,30.5C 2.1702,27.1847 0.670196,23.8514 -0.5,20.5C -0.5,18.1667 -0.5,15.8333 -0.5,13.5C 0.962327,6.70122 4.96233,2.03455 11.5,-0.5 Z"/></g>
<g><path style="opacity:1" fill="#a36f26" d="M 11.5,3.5 C 14.7307,2.21846 18.0641,2.21846 21.5,3.5C 21.5,4.5 21.5,5.5 21.5,6.5C 18.8333,6.5 16.1667,6.5 13.5,6.5C 15.9169,4.50375 15.2502,3.50375 11.5,3.5 Z"/></g>
<g><path style="opacity:1" fill="#f8df84" d="M 11.5,3.5 C 15.2502,3.50375 15.9169,4.50375 13.5,6.5C 10.5726,7.75731 8.23931,9.75731 6.5,12.5C 4.65305,20.0434 3.65305,20.0434 3.5,12.5C 4.73141,8.26621 7.39807,5.26621 11.5,3.5 Z"/></g>
<g><path style="opacity:1" fill="#f2cb7c" d="M 47.5,4.5 C 44.4467,4.11066 41.78,4.77733 39.5,6.5C 35.5,8.5 32.5,11.5 30.5,15.5C 29.8333,15.8333 29.1667,16.1667 28.5,16.5C 28.5,14.8333 28.5,13.1667 28.5,11.5C 30.9734,8.19553 33.9734,5.3622 37.5,3C 41.1476,2.16288 44.481,2.66288 47.5,4.5 Z"/></g>
<g><path style="opacity:1" fill="#c3801d" d="M 47.5,4.5 C 51.2359,5.90467 53.5692,8.57133 54.5,12.5C 54.6633,14.8568 54.4966,17.1902 54,19.5C 52.8779,16.9237 51.8779,14.257 51,11.5C 49.7365,9.39297 47.9032,8.39297 45.5,8.5C 45.5,7.83333 45.1667,7.5 44.5,7.5C 43.0813,6.54885 41.4147,6.21552 39.5,6.5C 41.78,4.77733 44.4467,4.11066 47.5,4.5 Z"/></g>
<g><path style="opacity:1" fill="#5b340c" d="M 39.5,6.5 C 41.4147,6.21552 43.0813,6.54885 44.5,7.5C 42.396,7.2011 40.396,7.53443 38.5,8.5C 35.8136,10.8558 33.147,13.1891 30.5,15.5C 32.5,11.5 35.5,8.5 39.5,6.5 Z"/></g>
<g><path style="opacity:1" fill="#552c06" d="M 21.5,3.5 C 24.5497,5.54906 26.883,8.21573 28.5,11.5C 28.5,13.1667 28.5,14.8333 28.5,16.5C 25.7291,14.233 23.0625,11.733 20.5,9C 15.903,6.45954 12.0696,7.29287 9,11.5C 7.80108,14.7256 7.30108,18.059 7.5,21.5C 6.52333,18.7131 6.19,15.7131 6.5,12.5C 8.23931,9.75731 10.5726,7.75731 13.5,6.5C 16.1667,6.5 18.8333,6.5 21.5,6.5C 21.5,5.5 21.5,4.5 21.5,3.5 Z"/></g>
<g><path style="opacity:0.984" fill="#140d08" d="M 28.5,16.5 C 29.1667,16.1667 29.8333,15.8333 30.5,15.5C 33.147,13.1891 35.8136,10.8558 38.5,8.5C 40.396,7.53443 42.396,7.2011 44.5,7.5C 45.1667,7.5 45.5,7.83333 45.5,8.5C 46.8333,9.9335 48.3333,11.2668 50,12.5C 50.4955,14.4727 50.6621,16.4727 50.5,18.5C 47.7222,26.2841 42.7222,32.2841 35.5,36.5C 35.0618,36.5654 34.7284,36.3988 34.5,36C 41.7073,31.6424 46.374,25.4757 48.5,17.5C 47.9616,11.1373 44.6282,8.97065 38.5,11C 35.6782,13.6561 33.0115,16.4895 30.5,19.5C 29.3112,20.4287 27.9778,20.762 26.5,20.5C 24.6166,12.0798 19.6166,8.91309 11.5,11C 9.12666,15.006 8.95999,19.1726 11,23.5C 15.5579,29.691 21.0579,34.8577 27.5,39C 29.4645,39.624 31.1311,39.124 32.5,37.5C 33.1067,37.6236 33.44,37.9569 33.5,38.5C 31.9468,40.385 29.9468,41.385 27.5,41.5C 25.9731,41.573 24.9731,40.9063 24.5,39.5C 22.7607,36.7573 20.4274,34.7573 17.5,33.5C 14.7852,30.1185 11.7852,27.1185 8.5,24.5C 7.89022,23.609 7.55688,22.609 7.5,21.5C 7.30108,18.059 7.80108,14.7256 9,11.5C 12.0696,7.29287 15.903,6.45954 20.5,9C 23.0625,11.733 25.7291,14.233 28.5,16.5 Z"/></g>
<g><path style="opacity:0.961" fill="#2e2923" d="M 35.5,36.5 C 35.1667,37.5 34.5,38.1667 33.5,38.5C 33.44,37.9569 33.1067,37.6236 32.5,37.5C 31.1311,39.124 29.4645,39.624 27.5,39C 21.0579,34.8577 15.5579,29.691 11,23.5C 8.95999,19.1726 9.12666,15.006 11.5,11C 19.6166,8.91309 24.6166,12.0798 26.5,20.5C 27.9778,20.762 29.3112,20.4287 30.5,19.5C 33.0115,16.4895 35.6782,13.6561 38.5,11C 44.6282,8.97065 47.9616,11.1373 48.5,17.5C 46.374,25.4757 41.7073,31.6424 34.5,36C 34.7284,36.3988 35.0618,36.5654 35.5,36.5 Z"/></g>
<g><path style="opacity:1" fill="#7b480b" d="M 45.5,8.5 C 47.9032,8.39297 49.7365,9.39297 51,11.5C 51.8779,14.257 52.8779,16.9237 54,19.5C 54.4966,17.1902 54.6633,14.8568 54.5,12.5C 56.1995,18.2865 55.0328,23.6198 51,28.5C 44.6346,35.5793 37.4679,41.5793 29.5,46.5C 29.3505,45.448 29.5172,44.448 30,43.5C 36.9291,38.5748 43.2625,32.9081 49,26.5C 51.1586,23.9194 51.6586,21.2527 50.5,18.5C 50.6621,16.4727 50.4955,14.4727 50,12.5C 48.3333,11.2668 46.8333,9.9335 45.5,8.5 Z"/></g>
<g><path style="opacity:1" fill="#e3b255" d="M 3.5,12.5 C 3.65305,20.0434 4.65305,20.0434 6.5,12.5C 6.19,15.7131 6.52333,18.7131 7.5,21.5C 7.55688,22.609 7.89022,23.609 8.5,24.5C 8.5,24.8333 8.5,25.1667 8.5,25.5C 7.16667,25.5 6.5,26.1667 6.5,27.5C 2.81189,22.954 1.81189,17.954 3.5,12.5 Z"/></g>
<g><path style="opacity:1" fill="#542d09" d="M 8.5,25.5 C 8.5,25.1667 8.5,24.8333 8.5,24.5C 11.7852,27.1185 14.7852,30.1185 17.5,33.5C 13.8739,31.5407 10.8739,28.874 8.5,25.5 Z"/></g>
<g><path style="opacity:1" fill="#562f08" d="M 17.5,33.5 C 20.4274,34.7573 22.7607,36.7573 24.5,39.5C 21.5726,38.2427 19.2393,36.2427 17.5,33.5 Z"/></g>
<g><path style="opacity:1" fill="#c79e54" d="M 50.5,18.5 C 51.6586,21.2527 51.1586,23.9194 49,26.5C 43.2625,32.9081 36.9291,38.5748 30,43.5C 29.5172,44.448 29.3505,45.448 29.5,46.5C 28.6726,47.4387 28.0059,47.1054 27.5,45.5C 28.3543,44.3684 28.3543,43.035 27.5,41.5C 29.9468,41.385 31.9468,40.385 33.5,38.5C 34.5,38.1667 35.1667,37.5 35.5,36.5C 42.7222,32.2841 47.7222,26.2841 50.5,18.5 Z"/></g>
<g><path style="opacity:1" fill="#eb9e1f" d="M 8.5,25.5 C 10.8739,28.874 13.8739,31.5407 17.5,33.5C 19.2393,36.2427 21.5726,38.2427 24.5,39.5C 24.9731,40.9063 25.9731,41.573 27.5,41.5C 28.3543,43.035 28.3543,44.3684 27.5,45.5C 19.2662,40.9324 12.2662,34.9324 6.5,27.5C 6.5,26.1667 7.16667,25.5 8.5,25.5 Z"/></g>
</svg>
