<?xml version="1.0" encoding="UTF-8"?>
<!DOCTYPE svg PUBLIC "-//W3C//DTD SVG 1.1//EN" "http://www.w3.org/Graphics/SVG/1.1/DTD/svg11.dtd">
<svg xmlns="http://www.w3.org/2000/svg" version="1.1" width="20px" height="20px" style="shape-rendering:geometricPrecision; text-rendering:geometricPrecision; image-rendering:optimizeQuality; fill-rule:evenodd; clip-rule:evenodd" xmlns:xlink="http://www.w3.org/1999/xlink">
<g><path style="opacity:1" fill="#4b3a61" d="M 4.5,0.5 C 4.5,0.833333 4.5,1.16667 4.5,1.5C 3.5,1.5 2.5,1.5 1.5,1.5C 1.73731,2.79105 1.40397,3.79105 0.5,4.5C 0.5,3.16667 0.5,1.83333 0.5,0.5C 1.83333,0.5 3.16667,0.5 4.5,0.5 Z"/></g>
<g><path style="opacity:1" fill="#896ab4" d="M 4.5,2.5 C 4.5,2.16667 4.5,1.83333 4.5,1.5C 7.7131,1.19 10.7131,1.52333 13.5,2.5C 13.1667,2.5 12.8333,2.5 12.5,2.5C 10.6693,3.05216 9.0026,3.05216 7.5,2.5C 6.70245,2.95689 6.36912,3.62356 6.5,4.5C 5.83333,4.5 5.16667,4.5 4.5,4.5C 5.50633,3.60433 5.50633,2.93767 4.5,2.5 Z"/></g>
<g><path style="opacity:1" fill="#755993" d="M 4.5,1.5 C 4.5,1.16667 4.5,0.833333 4.5,0.5C 8.16667,0.5 11.8333,0.5 15.5,0.5C 16.2341,1.70792 16.5674,3.04125 16.5,4.5C 15.8333,4.16667 15.1667,3.83333 14.5,3.5C 14.5,2.83333 14.1667,2.5 13.5,2.5C 10.7131,1.52333 7.7131,1.19 4.5,1.5 Z"/></g>
<g><path style="opacity:1" fill="#604c75" d="M 15.5,0.5 C 16.1667,0.5 16.8333,0.5 17.5,0.5C 18.4345,1.56764 18.7678,2.90097 18.5,4.5C 18.5,6.5 18.5,8.5 18.5,10.5C 18.1667,10.5 17.8333,10.5 17.5,10.5C 17.5,9.5 17.5,8.5 17.5,7.5C 17.7373,6.20895 17.404,5.20895 16.5,4.5C 16.5674,3.04125 16.2341,1.70792 15.5,0.5 Z"/></g>
<g><path style="opacity:1" fill="#1c1822" d="M -0.5,-0.5 C 5.5,-0.5 11.5,-0.5 17.5,-0.5C 17.5,-0.166667 17.5,0.166667 17.5,0.5C 16.8333,0.5 16.1667,0.5 15.5,0.5C 11.8333,0.5 8.16667,0.5 4.5,0.5C 3.16667,0.5 1.83333,0.5 0.5,0.5C 0.5,1.83333 0.5,3.16667 0.5,4.5C 0.5,7.5 0.5,10.5 0.5,13.5C 0.5,13.8333 0.5,14.1667 0.5,14.5C 0.166667,14.5 -0.166667,14.5 -0.5,14.5C -0.5,9.5 -0.5,4.5 -0.5,-0.5 Z"/></g>
<g><path style="opacity:1" fill="#8364af" d="M 4.5,2.5 C 5.50633,2.93767 5.50633,3.60433 4.5,4.5C 4.5,5.5 4.5,6.5 4.5,7.5C 3.83333,7.5 3.16667,7.5 2.5,7.5C 2.40206,5.44708 3.06873,3.78041 4.5,2.5 Z"/></g>
<g><path style="opacity:1" fill="#9676c4" d="M 12.5,2.5 C 12.1667,3.16667 11.8333,3.83333 11.5,4.5C 9.83333,4.5 8.16667,4.5 6.5,4.5C 6.36912,3.62356 6.70245,2.95689 7.5,2.5C 9.0026,3.05216 10.6693,3.05216 12.5,2.5 Z"/></g>
<g><path style="opacity:1" fill="#19181c" d="M 17.5,0.5 C 17.5,0.166667 17.5,-0.166667 17.5,-0.5C 18.1667,-0.5 18.8333,-0.5 19.5,-0.5C 19.5,1.16667 19.5,2.83333 19.5,4.5C 19.1667,4.5 18.8333,4.5 18.5,4.5C 18.7678,2.90097 18.4345,1.56764 17.5,0.5 Z"/></g>
<g><path style="opacity:1" fill="#684c86" d="M 4.5,1.5 C 4.5,1.83333 4.5,2.16667 4.5,2.5C 3.06873,3.78041 2.40206,5.44708 2.5,7.5C 1.56552,8.56764 1.23219,9.90097 1.5,11.5C 1.5,12.1667 1.5,12.8333 1.5,13.5C 1.16667,13.5 0.833333,13.5 0.5,13.5C 0.5,10.5 0.5,7.5 0.5,4.5C 1.40397,3.79105 1.73731,2.79105 1.5,1.5C 2.5,1.5 3.5,1.5 4.5,1.5 Z"/></g>
<g><path style="opacity:1" fill="#ccbae4" d="M 12.5,2.5 C 12.8333,2.5 13.1667,2.5 13.5,2.5C 14.1667,2.5 14.5,2.83333 14.5,3.5C 13.8333,3.5 13.5,3.83333 13.5,4.5C 12.5987,5.29049 11.9321,6.29049 11.5,7.5C 11.1667,7.5 10.8333,7.5 10.5,7.5C 10.1667,7.5 9.83333,7.5 9.5,7.5C 10.1667,6.5 10.8333,5.5 11.5,4.5C 11.8333,3.83333 12.1667,3.16667 12.5,2.5 Z"/></g>
<g><path style="opacity:1" fill="#9e7bcf" d="M 13.5,4.5 C 14.404,5.20895 14.7373,6.20895 14.5,7.5C 13.8333,7.5 13.5,7.83333 13.5,8.5C 13.1667,8.5 12.8333,8.5 12.5,8.5C 11.8333,8.5 11.5,8.16667 11.5,7.5C 11.9321,6.29049 12.5987,5.29049 13.5,4.5 Z"/></g>
<g><path style="opacity:1" fill="#8c6cb9" d="M 13.5,4.5 C 13.5,3.83333 13.8333,3.5 14.5,3.5C 15.1667,3.83333 15.8333,4.16667 16.5,4.5C 17.404,5.20895 17.7373,6.20895 17.5,7.5C 16.5,7.5 15.5,7.5 14.5,7.5C 14.7373,6.20895 14.404,5.20895 13.5,4.5 Z"/></g>
<g><path style="opacity:1" fill="#a385cd" d="M 6.5,4.5 C 8.16667,4.5 9.83333,4.5 11.5,4.5C 10.8333,5.5 10.1667,6.5 9.5,7.5C 9.01131,8.99522 8.34464,10.3285 7.5,11.5C 7.5,10.8333 7.5,10.1667 7.5,9.5C 7.5,9.16667 7.5,8.83333 7.5,8.5C 7.5,8.16667 7.5,7.83333 7.5,7.5C 6.89022,6.60895 6.55688,5.60895 6.5,4.5 Z"/></g>
<g><path style="opacity:1" fill="#9474be" d="M 4.5,4.5 C 5.16667,4.5 5.83333,4.5 6.5,4.5C 6.55688,5.60895 6.89022,6.60895 7.5,7.5C 6.5,7.5 5.5,7.5 4.5,7.5C 4.5,6.5 4.5,5.5 4.5,4.5 Z"/></g>
<g><path style="opacity:1" fill="#b795d0" d="M 2.5,7.5 C 3.16667,7.5 3.83333,7.5 4.5,7.5C 5.5,7.5 6.5,7.5 7.5,7.5C 7.5,7.83333 7.5,8.16667 7.5,8.5C 5.71199,8.21478 4.04533,8.54811 2.5,9.5C 3.68884,10.4287 5.02218,10.762 6.5,10.5C 5.43236,11.4345 4.09903,11.7678 2.5,11.5C 2.16667,11.5 1.83333,11.5 1.5,11.5C 1.23219,9.90097 1.56552,8.56764 2.5,7.5 Z"/></g>
<g><path style="opacity:1" fill="#d2aee5" d="M 13.5,8.5 C 13.5,7.83333 13.8333,7.5 14.5,7.5C 15.5,7.5 16.5,7.5 17.5,7.5C 17.5,8.5 17.5,9.5 17.5,10.5C 16.5,10.5 15.5,10.5 14.5,10.5C 14.6716,9.50838 14.3382,8.84171 13.5,8.5 Z"/></g>
<g><path style="opacity:1" fill="#e7e1f3" d="M 9.5,7.5 C 9.83333,7.5 10.1667,7.5 10.5,7.5C 10.5674,8.95875 10.2341,10.2921 9.5,11.5C 9.5,11.8333 9.5,12.1667 9.5,12.5C 8.83333,12.5 8.5,12.8333 8.5,13.5C 7.83333,13.5 7.5,13.1667 7.5,12.5C 7.5,12.1667 7.5,11.8333 7.5,11.5C 8.34464,10.3285 9.01131,8.99522 9.5,7.5 Z"/></g>
<g><path style="opacity:1" fill="#b195d2" d="M 10.5,7.5 C 10.8333,7.5 11.1667,7.5 11.5,7.5C 11.5,8.16667 11.8333,8.5 12.5,8.5C 11.3398,10.2027 12.0065,10.8693 14.5,10.5C 15.5,10.5 16.5,10.5 17.5,10.5C 17.5,10.8333 17.5,11.1667 17.5,11.5C 17.1667,11.5 16.8333,11.5 16.5,11.5C 14.1667,11.5 11.8333,11.5 9.5,11.5C 10.2341,10.2921 10.5674,8.95875 10.5,7.5 Z"/></g>
<g><path style="opacity:1" fill="#f4dbfb" d="M 7.5,8.5 C 7.5,8.83333 7.5,9.16667 7.5,9.5C 6.83333,9.5 6.5,9.83333 6.5,10.5C 5.02218,10.762 3.68884,10.4287 2.5,9.5C 4.04533,8.54811 5.71199,8.21478 7.5,8.5 Z"/></g>
<g><path style="opacity:1" fill="#f9f0fc" d="M 12.5,8.5 C 12.8333,8.5 13.1667,8.5 13.5,8.5C 14.3382,8.84171 14.6716,9.50838 14.5,10.5C 12.0065,10.8693 11.3398,10.2027 12.5,8.5 Z"/></g>
<g><path style="opacity:1" fill="#8e6eba" d="M 9.5,12.5 C 9.5,12.1667 9.5,11.8333 9.5,11.5C 11.8333,11.5 14.1667,11.5 16.5,11.5C 16.5,12.1667 16.5,12.8333 16.5,13.5C 14.8828,14.038 13.2161,14.3713 11.5,14.5C 11.9175,13.7784 12.5842,13.2784 13.5,13C 12.2068,12.51 10.8734,12.3433 9.5,12.5 Z"/></g>
<g><path style="opacity:1" fill="#775a97" d="M 1.5,11.5 C 1.83333,11.5 2.16667,11.5 2.5,11.5C 3.69354,12.2719 4.69354,13.2719 5.5,14.5C 5.5,15.1667 5.5,15.8333 5.5,16.5C 5.16667,16.5 4.83333,16.5 4.5,16.5C 4.5,16.1667 4.5,15.8333 4.5,15.5C 3.70951,14.5987 2.70951,13.9321 1.5,13.5C 1.5,12.8333 1.5,12.1667 1.5,11.5 Z"/></g>
<g><path style="opacity:1" fill="#9579bb" d="M 9.5,12.5 C 10.8734,12.3433 12.2068,12.51 13.5,13C 12.5842,13.2784 11.9175,13.7784 11.5,14.5C 10.5,14.5 9.5,14.5 8.5,14.5C 8.5,14.1667 8.5,13.8333 8.5,13.5C 8.5,12.8333 8.83333,12.5 9.5,12.5 Z"/></g>
<g><path style="opacity:1" fill="#8568aa" d="M 7.5,9.5 C 7.5,10.1667 7.5,10.8333 7.5,11.5C 7.5,11.8333 7.5,12.1667 7.5,12.5C 6.83333,13.1667 6.16667,13.8333 5.5,14.5C 4.69354,13.2719 3.69354,12.2719 2.5,11.5C 4.09903,11.7678 5.43236,11.4345 6.5,10.5C 6.5,9.83333 6.83333,9.5 7.5,9.5 Z"/></g>
<g><path style="opacity:1" fill="#4d3d5f" d="M 0.5,13.5 C 0.833333,13.5 1.16667,13.5 1.5,13.5C 1.5,14.5 1.5,15.5 1.5,16.5C 1.83333,17.1667 2.16667,17.8333 2.5,18.5C 2.16667,18.5 1.83333,18.5 1.5,18.5C 0.565525,17.4324 0.232191,16.099 0.5,14.5C 0.5,14.1667 0.5,13.8333 0.5,13.5 Z"/></g>
<g><path style="opacity:1" fill="#7e61a2" d="M 16.5,13.5 C 16.7148,15.1788 16.0481,16.1788 14.5,16.5C 14.5,15.8333 14.1667,15.5 13.5,15.5C 11.5853,15.7845 9.91866,15.4511 8.5,14.5C 9.5,14.5 10.5,14.5 11.5,14.5C 13.2161,14.3713 14.8828,14.038 16.5,13.5 Z"/></g>
<g><path style="opacity:1" fill="#664f84" d="M 1.5,13.5 C 2.70951,13.9321 3.70951,14.5987 4.5,15.5C 3.60895,16.1098 2.60895,16.4431 1.5,16.5C 1.5,15.5 1.5,14.5 1.5,13.5 Z"/></g>
<g><path style="opacity:1" fill="#ab8cc4" d="M 7.5,12.5 C 7.5,13.1667 7.83333,13.5 8.5,13.5C 8.5,13.8333 8.5,14.1667 8.5,14.5C 7.5,14.8333 6.83333,15.5 6.5,16.5C 6.16667,16.5 5.83333,16.5 5.5,16.5C 5.5,15.8333 5.5,15.1667 5.5,14.5C 6.16667,13.8333 6.83333,13.1667 7.5,12.5 Z"/></g>
<g><path style="opacity:1" fill="#765d99" d="M 8.5,14.5 C 9.91866,15.4511 11.5853,15.7845 13.5,15.5C 11.3926,16.4682 9.0593,16.8016 6.5,16.5C 6.83333,15.5 7.5,14.8333 8.5,14.5 Z"/></g>
<g><path style="opacity:1" fill="#664d81" d="M 13.5,15.5 C 14.1667,15.5 14.5,15.8333 14.5,16.5C 14.5,16.8333 14.5,17.1667 14.5,17.5C 11.8333,17.5 9.16667,17.5 6.5,17.5C 5.50838,17.6716 4.84171,17.3382 4.5,16.5C 4.83333,16.5 5.16667,16.5 5.5,16.5C 5.83333,16.5 6.16667,16.5 6.5,16.5C 9.0593,16.8016 11.3926,16.4682 13.5,15.5 Z"/></g>
<g><path style="opacity:1" fill="#695086" d="M 16.5,11.5 C 16.8333,11.5 17.1667,11.5 17.5,11.5C 17.5,13.5 17.5,15.5 17.5,17.5C 16.5,17.5 15.5,17.5 14.5,17.5C 14.5,17.1667 14.5,16.8333 14.5,16.5C 16.0481,16.1788 16.7148,15.1788 16.5,13.5C 16.5,12.8333 16.5,12.1667 16.5,11.5 Z"/></g>
<g><path style="opacity:1" fill="#53436b" d="M 4.5,15.5 C 4.5,15.8333 4.5,16.1667 4.5,16.5C 4.84171,17.3382 5.50838,17.6716 6.5,17.5C 6.5,17.8333 6.5,18.1667 6.5,18.5C 5.16667,18.5 3.83333,18.5 2.5,18.5C 2.16667,17.8333 1.83333,17.1667 1.5,16.5C 2.60895,16.4431 3.60895,16.1098 4.5,15.5 Z"/></g>
<g><path style="opacity:1" fill="#554069" d="M 17.5,10.5 C 17.8333,10.5 18.1667,10.5 18.5,10.5C 18.5,13.1667 18.5,15.8333 18.5,18.5C 14.5,18.5 10.5,18.5 6.5,18.5C 6.5,18.1667 6.5,17.8333 6.5,17.5C 9.16667,17.5 11.8333,17.5 14.5,17.5C 15.5,17.5 16.5,17.5 17.5,17.5C 17.5,15.5 17.5,13.5 17.5,11.5C 17.5,11.1667 17.5,10.8333 17.5,10.5 Z"/></g>
<g><path style="opacity:1" fill="#18181b" d="M -0.5,14.5 C -0.166667,14.5 0.166667,14.5 0.5,14.5C 0.232191,16.099 0.565525,17.4324 1.5,18.5C 1.5,18.8333 1.5,19.1667 1.5,19.5C 0.833333,19.5 0.166667,19.5 -0.5,19.5C -0.5,17.8333 -0.5,16.1667 -0.5,14.5 Z"/></g>
<g><path style="opacity:1" fill="#1f1a25" d="M 18.5,4.5 C 18.8333,4.5 19.1667,4.5 19.5,4.5C 19.5,9.5 19.5,14.5 19.5,19.5C 13.5,19.5 7.5,19.5 1.5,19.5C 1.5,19.1667 1.5,18.8333 1.5,18.5C 1.83333,18.5 2.16667,18.5 2.5,18.5C 3.83333,18.5 5.16667,18.5 6.5,18.5C 10.5,18.5 14.5,18.5 18.5,18.5C 18.5,15.8333 18.5,13.1667 18.5,10.5C 18.5,8.5 18.5,6.5 18.5,4.5 Z"/></g>
</svg>
