<?xml version="1.0" encoding="UTF-8"?>
<!DOCTYPE svg PUBLIC "-//W3C//DTD SVG 1.1//EN" "http://www.w3.org/Graphics/SVG/1.1/DTD/svg11.dtd">
<svg xmlns="http://www.w3.org/2000/svg" version="1.1" width="20px" height="20px" style="shape-rendering:geometricPrecision; text-rendering:geometricPrecision; image-rendering:optimizeQuality; fill-rule:evenodd; clip-rule:evenodd" xmlns:xlink="http://www.w3.org/1999/xlink">
<g><path style="opacity:0.004" fill="#1c0a07" d="M -0.5,-0.5 C 5.5,-0.5 11.5,-0.5 17.5,-0.5C 17.5,-0.166667 17.5,0.166667 17.5,0.5C 16.1667,0.5 14.8333,0.5 13.5,0.5C 10.5,0.5 7.5,0.5 4.5,0.5C 3.5,0.5 2.5,0.5 1.5,0.5C 1.5,5.16667 1.5,9.83333 1.5,14.5C 1.5,14.8333 1.5,15.1667 1.5,15.5C 1.5,15.8333 1.5,16.1667 1.5,16.5C 0.833333,16.1667 0.166667,15.8333 -0.5,15.5C -0.5,10.1667 -0.5,4.83333 -0.5,-0.5 Z"/></g>
<g><path style="opacity:0.264" fill="#110303" d="M 17.5,-0.5 C 18.1667,-0.5 18.8333,-0.5 19.5,-0.5C 19.5,5.16667 19.5,10.8333 19.5,16.5C 18.8333,16.5 18.1667,16.5 17.5,16.5C 17.5,16.1667 17.5,15.8333 17.5,15.5C 17.5,15.1667 17.5,14.8333 17.5,14.5C 17.5,9.83333 17.5,5.16667 17.5,0.5C 17.5,0.166667 17.5,-0.166667 17.5,-0.5 Z"/></g>
<g><path style="opacity:1" fill="#a33030" d="M 4.5,0.5 C 7.5,0.5 10.5,0.5 13.5,0.5C 13.9528,1.45837 14.6195,2.2917 15.5,3C 14.9056,3.46434 14.2389,3.63101 13.5,3.5C 10.263,1.98537 7.26298,2.31871 4.5,4.5C 3.31434,3.2946 3.31434,1.96126 4.5,0.5 Z"/></g>
<g><path style="opacity:1" fill="#0d0404" d="M 13.5,3.5 C 13.8333,4.16667 14.1667,4.83333 14.5,5.5C 13.5084,5.32842 12.8417,5.66175 12.5,6.5C 11.8333,6.5 11.5,6.83333 11.5,7.5C 10.0413,7.56745 8.70792,7.23411 7.5,6.5C 6.3774,5.24258 5.71073,5.57591 5.5,7.5C 6.16667,8.16667 6.83333,8.83333 7.5,9.5C 7.5,9.83333 7.5,10.1667 7.5,10.5C 6.29208,11.2341 4.95875,11.5674 3.5,11.5C 3.5,10.1667 3.5,8.83333 3.5,7.5C 3.55688,6.39105 3.89022,5.39105 4.5,4.5C 7.26298,2.31871 10.263,1.98537 13.5,3.5 Z"/></g>
<g><path style="opacity:1" fill="#8c2e2c" d="M 13.5,0.5 C 14.8333,0.5 16.1667,0.5 17.5,0.5C 17.5,5.16667 17.5,9.83333 17.5,14.5C 16.6618,14.1583 16.3284,13.4916 16.5,12.5C 16.6621,10.4727 16.4955,8.4727 16,6.5C 15.6174,5.94404 15.1174,5.61071 14.5,5.5C 14.1667,4.83333 13.8333,4.16667 13.5,3.5C 14.2389,3.63101 14.9056,3.46434 15.5,3C 14.6195,2.2917 13.9528,1.45837 13.5,0.5 Z"/></g>
<g><path style="opacity:1" fill="#824445" d="M 7.5,6.5 C 7.15829,7.33825 6.49162,7.67158 5.5,7.5C 5.71073,5.57591 6.3774,5.24258 7.5,6.5 Z"/></g>
<g><path style="opacity:1" fill="#8e2b27" d="M 4.5,0.5 C 3.31434,1.96126 3.31434,3.2946 4.5,4.5C 3.89022,5.39105 3.55688,6.39105 3.5,7.5C 2.83333,9.83333 2.16667,12.1667 1.5,14.5C 1.5,9.83333 1.5,5.16667 1.5,0.5C 2.5,0.5 3.5,0.5 4.5,0.5 Z"/></g>
<g><path style="opacity:1" fill="#201010" d="M 12.5,6.5 C 12.8417,5.66175 13.5084,5.32842 14.5,5.5C 15.1174,5.61071 15.6174,5.94404 16,6.5C 16.4955,8.4727 16.6621,10.4727 16.5,12.5C 15.7784,12.9175 15.2784,13.5842 15,14.5C 13.5952,13.2695 12.4286,11.9361 11.5,10.5C 10.4324,9.56552 9.09903,9.23219 7.5,9.5C 6.83333,8.83333 6.16667,8.16667 5.5,7.5C 6.49162,7.67158 7.15829,7.33825 7.5,6.5C 8.70792,7.23411 10.0413,7.56745 11.5,7.5C 11.56,8.04309 11.8933,8.37642 12.5,8.5C 13.7733,7.7435 13.7733,7.07683 12.5,6.5 Z"/></g>
<g><path style="opacity:1" fill="#703537" d="M 12.5,6.5 C 13.7733,7.07683 13.7733,7.7435 12.5,8.5C 11.8933,8.37642 11.56,8.04309 11.5,7.5C 11.5,6.83333 11.8333,6.5 12.5,6.5 Z"/></g>
<g><path style="opacity:1" fill="#a94f4e" d="M 7.5,9.5 C 9.09903,9.23219 10.4324,9.56552 11.5,10.5C 11.5,12.5 11.5,14.5 11.5,16.5C 9.51676,16.8432 8.18342,16.1765 7.5,14.5C 7.5,13.1667 7.5,11.8333 7.5,10.5C 7.5,10.1667 7.5,9.83333 7.5,9.5 Z"/></g>
<g><path style="opacity:1" fill="#491919" d="M 3.5,7.5 C 3.5,8.83333 3.5,10.1667 3.5,11.5C 4.95875,11.5674 6.29208,11.2341 7.5,10.5C 7.5,11.8333 7.5,13.1667 7.5,14.5C 6.16667,14.5 5.5,15.1667 5.5,16.5C 4.04125,16.5674 2.70792,16.2341 1.5,15.5C 1.5,15.1667 1.5,14.8333 1.5,14.5C 2.16667,12.1667 2.83333,9.83333 3.5,7.5 Z"/></g>
<g><path style="opacity:1" fill="#5f2121" d="M 11.5,10.5 C 12.4286,11.9361 13.5952,13.2695 15,14.5C 15.2784,13.5842 15.7784,12.9175 16.5,12.5C 16.3284,13.4916 16.6618,14.1583 17.5,14.5C 17.5,14.8333 17.5,15.1667 17.5,15.5C 14.8495,16.4897 12.1828,17.4897 9.5,18.5C 7.82946,18.3318 6.49612,17.6651 5.5,16.5C 5.5,15.1667 6.16667,14.5 7.5,14.5C 8.18342,16.1765 9.51676,16.8432 11.5,16.5C 11.5,14.5 11.5,12.5 11.5,10.5 Z"/></g>
<g><path style="opacity:0.078" fill="#0c0202" d="M 1.5,15.5 C 2.70792,16.2341 4.04125,16.5674 5.5,16.5C 6.49612,17.6651 7.82946,18.3318 9.5,18.5C 12.1828,17.4897 14.8495,16.4897 17.5,15.5C 17.5,15.8333 17.5,16.1667 17.5,16.5C 15.9275,17.6873 14.2608,18.6873 12.5,19.5C 10.5,19.5 8.5,19.5 6.5,19.5C 4.73915,18.6873 3.07249,17.6873 1.5,16.5C 1.5,16.1667 1.5,15.8333 1.5,15.5 Z"/></g>
</svg>
