<?xml version="1.0" encoding="UTF-8"?>
<!DOCTYPE svg PUBLIC "-//W3C//DTD SVG 1.1//EN" "http://www.w3.org/Graphics/SVG/1.1/DTD/svg11.dtd">
<svg xmlns="http://www.w3.org/2000/svg" version="1.1" width="18px" height="18px" style="shape-rendering:geometricPrecision; text-rendering:geometricPrecision; image-rendering:optimizeQuality; fill-rule:evenodd; clip-rule:evenodd" xmlns:xlink="http://www.w3.org/1999/xlink">
<g><path style="opacity:0.853" fill="#666666" d="M 5.5,-0.5 C 7.5,-0.5 9.5,-0.5 11.5,-0.5C 13.8835,0.88507 15.5501,2.88507 16.5,5.5C 16.7845,7.41467 16.4511,9.08134 15.5,10.5C 15.8294,7.77183 15.1628,5.4385 13.5,3.5C 10.1667,-0.5 6.83333,-0.5 3.5,3.5C 0.64028,5.60552 -0.0263868,8.27219 1.5,11.5C 2.20895,12.404 3.20895,12.7373 4.5,12.5C 4.26269,13.791 4.59603,14.791 5.5,15.5C 7.16667,15.5 8.83333,15.5 10.5,15.5C 9.08134,16.4511 7.41467,16.7845 5.5,16.5C 3.0815,15.2969 1.0815,13.6303 -0.5,11.5C -0.5,9.5 -0.5,7.5 -0.5,5.5C 1.16667,3.16667 3.16667,1.16667 5.5,-0.5 Z M 9.5,9.5 C 8.83333,9.5 8.16667,9.5 7.5,9.5C 8.16667,6.83333 8.83333,6.83333 9.5,9.5 Z"/></g>
<g><path style="opacity:1" fill="#e6e6e6" d="M 13.5,3.5 C 12.5084,3.32842 11.8417,3.66175 11.5,4.5C 10.3052,4.67754 9.13849,5.01087 8,5.5C 6.59362,4.58618 5.09362,3.91951 3.5,3.5C 6.83333,-0.5 10.1667,-0.5 13.5,3.5 Z"/></g>
<g><path style="opacity:1" fill="#e2e2e2" d="M 3.5,3.5 C 3.91951,5.09362 4.58618,6.59362 5.5,8C 5.25675,8.90211 4.92342,9.73544 4.5,10.5C 3.88258,10.3893 3.38258,10.056 3,9.5C 2.72158,10.4158 2.22158,11.0825 1.5,11.5C -0.0263868,8.27219 0.64028,5.60552 3.5,3.5 Z"/></g>
<g><path style="opacity:1" fill="#ececec" d="M 13.5,3.5 C 15.1628,5.4385 15.8294,7.77183 15.5,10.5C 15.5,10.8333 15.5,11.1667 15.5,11.5C 14.7784,11.0825 14.2784,10.4158 14,9.5C 13.2303,10.5981 12.397,10.5981 11.5,9.5C 12.6298,7.68545 13.2964,5.68545 13.5,3.5 Z"/></g>
<g><path style="opacity:0.765" fill="#7b7b7b" d="M 3.5,3.5 C 5.09362,3.91951 6.59362,4.58618 8,5.5C 9.13849,5.01087 10.3052,4.67754 11.5,4.5C 10.3646,6.21321 8.69798,6.87988 6.5,6.5C 6.5,7.5 6.5,8.5 6.5,9.5C 6.15829,10.3382 5.49162,10.6716 4.5,10.5C 4.92342,9.73544 5.25675,8.90211 5.5,8C 4.58618,6.59362 3.91951,5.09362 3.5,3.5 Z"/></g>
<g><path style="opacity:0.714" fill="#6d6d6d" d="M 13.5,3.5 C 13.2964,5.68545 12.6298,7.68545 11.5,9.5C 10.8333,9.5 10.1667,9.5 9.5,9.5C 8.83333,6.83333 8.16667,6.83333 7.5,9.5C 7.16667,9.5 6.83333,9.5 6.5,9.5C 6.5,8.5 6.5,7.5 6.5,6.5C 8.69798,6.87988 10.3646,6.21321 11.5,4.5C 11.8417,3.66175 12.5084,3.32842 13.5,3.5 Z M 9.5,9.5 C 8.83333,9.5 8.16667,9.5 7.5,9.5C 8.16667,6.83333 8.83333,6.83333 9.5,9.5 Z"/></g>
<g><path style="opacity:0.761" fill="#747474" d="M 4.5,10.5 C 5.49162,10.6716 6.15829,10.3382 6.5,9.5C 6.83333,9.5 7.16667,9.5 7.5,9.5C 8.16667,9.5 8.83333,9.5 9.5,9.5C 10.1667,9.5 10.8333,9.5 11.5,9.5C 12.397,10.5981 13.2303,10.5981 14,9.5C 14.2784,10.4158 14.7784,11.0825 15.5,11.5C 14.6868,12.6527 13.6868,12.6527 12.5,11.5C 12.24,12.9049 11.9066,14.2382 11.5,15.5C 10.3982,14.2551 9.39816,12.9217 8.5,11.5C 7.60184,12.9217 6.60184,14.2551 5.5,15.5C 4.59603,14.791 4.26269,13.791 4.5,12.5C 3.20895,12.7373 2.20895,12.404 1.5,11.5C 2.22158,11.0825 2.72158,10.4158 3,9.5C 3.38258,10.056 3.88258,10.3893 4.5,10.5 Z"/></g>
<g><path style="opacity:1" fill="#eaeaea" d="M 11.5,15.5 C 11.1667,15.5 10.8333,15.5 10.5,15.5C 8.83333,15.5 7.16667,15.5 5.5,15.5C 6.60184,14.2551 7.60184,12.9217 8.5,11.5C 9.39816,12.9217 10.3982,14.2551 11.5,15.5 Z"/></g>
<g><path style="opacity:0.527" fill="#5d5d5d" d="M 16.5,5.5 C 16.8333,5.5 17.1667,5.5 17.5,5.5C 17.5,7.5 17.5,9.5 17.5,11.5C 15.5428,13.4914 13.5428,15.4914 11.5,17.5C 9.5,17.5 7.5,17.5 5.5,17.5C 5.5,17.1667 5.5,16.8333 5.5,16.5C 7.41467,16.7845 9.08134,16.4511 10.5,15.5C 10.8333,15.5 11.1667,15.5 11.5,15.5C 11.9066,14.2382 12.24,12.9049 12.5,11.5C 13.6868,12.6527 14.6868,12.6527 15.5,11.5C 15.5,11.1667 15.5,10.8333 15.5,10.5C 16.4511,9.08134 16.7845,7.41467 16.5,5.5 Z"/></g>
</svg>
