<?xml version="1.0" encoding="UTF-8"?>
<!DOCTYPE svg PUBLIC "-//W3C//DTD SVG 1.1//EN" "http://www.w3.org/Graphics/SVG/1.1/DTD/svg11.dtd">
<svg xmlns="http://www.w3.org/2000/svg" version="1.1" width="20px" height="20px" style="shape-rendering:geometricPrecision; text-rendering:geometricPrecision; image-rendering:optimizeQuality; fill-rule:evenodd; clip-rule:evenodd" xmlns:xlink="http://www.w3.org/1999/xlink">
<g><path style="opacity:0.644" fill="#2d221c" d="M -0.5,-0.5 C 6.16667,-0.5 12.8333,-0.5 19.5,-0.5C 19.5,6.16667 19.5,12.8333 19.5,19.5C 12.8333,19.5 6.16667,19.5 -0.5,19.5C -0.5,12.8333 -0.5,6.16667 -0.5,-0.5 Z"/></g>
<g><path style="opacity:1" fill="#56433c" d="M 0.5,0.5 C 6.5,0.5 12.5,0.5 18.5,0.5C 18.5,6.5 18.5,12.5 18.5,18.5C 12.5,18.5 6.5,18.5 0.5,18.5C 0.5,12.5 0.5,6.5 0.5,0.5 Z"/></g>
<g><path style="opacity:1" fill="#6b544c" d="M 17.5,11.5 C 17.5,13.5 17.5,15.5 17.5,17.5C 12.1667,17.5 6.83333,17.5 1.5,17.5C 1.5,16.1667 1.5,14.8333 1.5,13.5C 3.18396,14.5272 4.85062,15.5272 6.5,16.5C 8.83333,16.5 11.1667,16.5 13.5,16.5C 14.5,16.5 15.5,16.5 16.5,16.5C 16.2155,14.5853 16.5489,12.9187 17.5,11.5 Z"/></g>
<g><path style="opacity:1" fill="#8c776f" d="M 17.5,11.5 C 16.5489,12.9187 16.2155,14.5853 16.5,16.5C 15.5,16.5 14.5,16.5 13.5,16.5C 12.6661,15.2521 11.3328,14.5854 9.5,14.5C 8.16667,14.6667 6.83333,14.8333 5.5,15C 6.05596,15.3826 6.38929,15.8826 6.5,16.5C 4.85062,15.5272 3.18396,14.5272 1.5,13.5C 1.24079,9.76043 1.57412,6.09377 2.5,2.5C 6.83333,1.16667 11.1667,1.16667 15.5,2.5C 17.2702,5.19338 17.9368,8.19338 17.5,11.5 Z"/></g>
<g><path style="opacity:1" fill="#d0b7ac" d="M 13.5,16.5 C 11.1667,16.5 8.83333,16.5 6.5,16.5C 6.38929,15.8826 6.05596,15.3826 5.5,15C 6.83333,14.8333 8.16667,14.6667 9.5,14.5C 11.3328,14.5854 12.6661,15.2521 13.5,16.5 Z"/></g>
<g><path style="opacity:1" fill="#b2a49d" d="M 7.5,3.5 C 9.28841,2.37753 11.2884,2.21086 13.5,3C 14.2524,3.67076 14.5858,4.5041 14.5,5.5C 12.5214,3.83247 10.188,3.1658 7.5,3.5 Z"/></g>
<g><path style="opacity:1" fill="#f7f5f4" d="M 7.5,3.5 C 10.188,3.1658 12.5214,3.83247 14.5,5.5C 14.9478,11.5548 12.2811,13.7214 6.5,12C 3.55318,8.65694 3.88651,5.82361 7.5,3.5 Z"/></g>
</svg>
