<?xml version="1.0" encoding="UTF-8"?>
<!DOCTYPE svg PUBLIC "-//W3C//DTD SVG 1.1//EN" "http://www.w3.org/Graphics/SVG/1.1/DTD/svg11.dtd">
<svg xmlns="http://www.w3.org/2000/svg" version="1.1" width="20px" height="20px" style="shape-rendering:geometricPrecision; text-rendering:geometricPrecision; image-rendering:optimizeQuality; fill-rule:evenodd; clip-rule:evenodd" xmlns:xlink="http://www.w3.org/1999/xlink">
<g><path style="opacity:0.047" fill="#1e1001" d="M 6.5,-0.5 C 8.5,-0.5 10.5,-0.5 12.5,-0.5C 14.649,0.73623 16.9823,1.73623 19.5,2.5C 19.5,8.16667 19.5,13.8333 19.5,19.5C 13.5,19.5 7.5,19.5 1.5,19.5C 1.5,19.1667 1.5,18.8333 1.5,18.5C 6.83333,18.5 12.1667,18.5 17.5,18.5C 17.5,17.1667 17.5,15.8333 17.5,14.5C 17.8226,10.774 17.4892,7.10728 16.5,3.5C 15.5832,2.87277 14.5832,2.53944 13.5,2.5C 12.5039,1.33487 11.1705,0.668206 9.5,0.5C 2.57863,1.51402 -0.088037,5.51402 1.5,12.5C 1.5,14.1667 1.5,15.8333 1.5,17.5C 0.515112,13.3656 0.181778,9.03225 0.5,4.5C 0.414228,3.5041 0.747561,2.67076 1.5,2C 3.31456,1.24316 4.98123,0.409824 6.5,-0.5 Z"/></g>
<g><path style="opacity:0.004" fill="#010000" d="M -0.5,4.5 C -0.166667,4.5 0.166667,4.5 0.5,4.5C 0.181778,9.03225 0.515112,13.3656 1.5,17.5C 1.5,17.8333 1.5,18.1667 1.5,18.5C 1.5,18.8333 1.5,19.1667 1.5,19.5C 0.833333,19.5 0.166667,19.5 -0.5,19.5C -0.5,14.5 -0.5,9.5 -0.5,4.5 Z"/></g>
<g><path style="opacity:1" fill="#cb7a16" d="M 13.5,2.5 C 14.5832,2.53944 15.5832,2.87277 16.5,3.5C 17.4892,7.10728 17.8226,10.774 17.5,14.5C 16.8333,14.5 16.1667,14.5 15.5,14.5C 15.6716,13.5084 15.3382,12.8417 14.5,12.5C 14.0618,12.5654 13.7284,12.3988 13.5,12C 17.2364,10.4934 17.2364,9.6601 13.5,9.5C 13.5,8.5 13.5,7.5 13.5,6.5C 11.8212,6.71481 10.8212,6.04814 10.5,4.5C 10.8212,2.95186 11.8212,2.28519 13.5,2.5 Z"/></g>
<g><path style="opacity:1" fill="#fbf1e9" d="M 10.5,4.5 C 10.8212,6.04814 11.8212,6.71481 13.5,6.5C 13.5,7.5 13.5,8.5 13.5,9.5C 17.2364,9.6601 17.2364,10.4934 13.5,12C 13.7284,12.3988 14.0618,12.5654 14.5,12.5C 12.9275,13.6873 11.2608,14.6873 9.5,15.5C 9.2648,16.0967 8.7648,16.4301 8,16.5C 6.69981,15.2927 5.19981,14.6261 3.5,14.5C 6.01762,12.6434 6.01762,10.8101 3.5,9C 4.79323,8.50999 6.12656,8.34332 7.5,8.5C 7.49136,6.69161 7.99136,5.02494 9,3.5C 9.38258,4.05596 9.88258,4.38929 10.5,4.5 Z"/></g>
<g><path style="opacity:1" fill="#bc7317" d="M 13.5,2.5 C 11.8212,2.28519 10.8212,2.95186 10.5,4.5C 9.88258,4.38929 9.38258,4.05596 9,3.5C 7.99136,5.02494 7.49136,6.69161 7.5,8.5C 6.12656,8.34332 4.79323,8.50999 3.5,9C 6.01762,10.8101 6.01762,12.6434 3.5,14.5C 2.83333,13.8333 2.16667,13.1667 1.5,12.5C -0.088037,5.51402 2.57863,1.51402 9.5,0.5C 11.1705,0.668206 12.5039,1.33487 13.5,2.5 Z"/></g>
<g><path style="opacity:1" fill="#dba177" d="M 14.5,12.5 C 15.3382,12.8417 15.6716,13.5084 15.5,14.5C 14.2502,14.5774 13.4169,15.244 13,16.5C 11.9887,15.6634 10.8221,15.33 9.5,15.5C 11.2608,14.6873 12.9275,13.6873 14.5,12.5 Z"/></g>
<g><path style="opacity:1" fill="#a14916" d="M 1.5,12.5 C 2.16667,13.1667 2.83333,13.8333 3.5,14.5C 5.19981,14.6261 6.69981,15.2927 8,16.5C 8.7648,16.4301 9.2648,16.0967 9.5,15.5C 10.8221,15.33 11.9887,15.6634 13,16.5C 13.4169,15.244 14.2502,14.5774 15.5,14.5C 16.1667,14.5 16.8333,14.5 17.5,14.5C 17.5,15.8333 17.5,17.1667 17.5,18.5C 12.1667,18.5 6.83333,18.5 1.5,18.5C 1.5,18.1667 1.5,17.8333 1.5,17.5C 1.5,15.8333 1.5,14.1667 1.5,12.5 Z"/></g>
</svg>
