<?xml version="1.0" encoding="UTF-8"?>
<!DOCTYPE svg PUBLIC "-//W3C//DTD SVG 1.1//EN" "http://www.w3.org/Graphics/SVG/1.1/DTD/svg11.dtd">
<svg xmlns="http://www.w3.org/2000/svg" version="1.1" width="20px" height="17px" style="shape-rendering:geometricPrecision; text-rendering:geometricPrecision; image-rendering:optimizeQuality; fill-rule:evenodd; clip-rule:evenodd" xmlns:xlink="http://www.w3.org/1999/xlink">
<g><path style="opacity:0.301" fill="#131413" d="M 15.5,2.5 C 15.5,3.16667 15.5,3.83333 15.5,4.5C 13.412,3.06054 11.0786,2.39387 8.5,2.5C 7.31271,4.07249 6.31271,5.73915 5.5,7.5C 4.83333,7.5 4.16667,7.5 3.5,7.5C 2.56552,8.56764 2.23219,9.90097 2.5,11.5C 1.56552,10.4324 1.23219,9.09903 1.5,7.5C 3.27221,5.22358 5.27221,3.05691 7.5,1C 10.538,0.115011 13.2046,0.615011 15.5,2.5 Z"/></g>
<g><path style="opacity:1" fill="#f1f1f1" d="M 8.5,2.5 C 11.0786,2.39387 13.412,3.06054 15.5,4.5C 15.5,4.83333 15.5,5.16667 15.5,5.5C 15.38,6.58617 14.7133,7.25284 13.5,7.5C 11.6998,7.09756 10.0332,6.43089 8.5,5.5C 8.5,4.5 8.5,3.5 8.5,2.5 Z"/></g>
<g><path style="opacity:1" fill="#292829" d="M 8.5,2.5 C 8.5,3.5 8.5,4.5 8.5,5.5C 7.34999,7.26673 8.01665,8.43339 10.5,9C 12.265,9.63974 13.9317,9.47308 15.5,8.5C 14.7886,10.2014 13.4553,11.2014 11.5,11.5C 10.4863,10.3263 9.15298,9.6596 7.5,9.5C 6.5,9.16667 5.83333,8.5 5.5,7.5C 6.31271,5.73915 7.31271,4.07249 8.5,2.5 Z"/></g>
<g><path style="opacity:1" fill="#8c8b8c" d="M 8.5,5.5 C 10.0332,6.43089 11.6998,7.09756 13.5,7.5C 14.7133,7.25284 15.38,6.58617 15.5,5.5C 16.8333,6.5 16.8333,7.5 15.5,8.5C 13.9317,9.47308 12.265,9.63974 10.5,9C 8.01665,8.43339 7.34999,7.26673 8.5,5.5 Z"/></g>
<g><path style="opacity:1" fill="#f3f2f3" d="M 3.5,7.5 C 4.16667,7.5 4.83333,7.5 5.5,7.5C 5.83333,8.5 6.5,9.16667 7.5,9.5C 6.43236,10.4345 5.09903,10.7678 3.5,10.5C 3.5,9.5 3.5,8.5 3.5,7.5 Z"/></g>
<g><path style="opacity:0.36" fill="#060706" d="M 15.5,2.5 C 18.814,4.44643 19.314,7.11309 17,10.5C 14.5719,11.63 12.4053,13.13 10.5,15C 7.96149,15.7958 5.62816,15.6291 3.5,14.5C 4.49162,14.6716 5.15829,14.3382 5.5,13.5C 7.85834,13.7475 9.85834,13.0808 11.5,11.5C 13.4553,11.2014 14.7886,10.2014 15.5,8.5C 16.8333,7.5 16.8333,6.5 15.5,5.5C 15.5,5.16667 15.5,4.83333 15.5,4.5C 15.5,3.83333 15.5,3.16667 15.5,2.5 Z"/></g>
<g><path style="opacity:0.386" fill="#0c0c0c" d="M 1.5,7.5 C 1.23219,9.09903 1.56552,10.4324 2.5,11.5C 3.70951,11.9321 4.70951,12.5987 5.5,13.5C 5.15829,14.3382 4.49162,14.6716 3.5,14.5C 0.551217,12.735 -0.11545,10.4017 1.5,7.5 Z"/></g>
<g><path style="opacity:1" fill="#7a7c7a" d="M 3.5,7.5 C 3.5,8.5 3.5,9.5 3.5,10.5C 5.09903,10.7678 6.43236,10.4345 7.5,9.5C 9.15298,9.6596 10.4863,10.3263 11.5,11.5C 9.85834,13.0808 7.85834,13.7475 5.5,13.5C 4.70951,12.5987 3.70951,11.9321 2.5,11.5C 2.23219,9.90097 2.56552,8.56764 3.5,7.5 Z"/></g>
</svg>
