<?xml version="1.0" encoding="UTF-8"?>
<!DOCTYPE svg PUBLIC "-//W3C//DTD SVG 1.1//EN" "http://www.w3.org/Graphics/SVG/1.1/DTD/svg11.dtd">
<svg xmlns="http://www.w3.org/2000/svg" version="1.1" width="18px" height="18px" style="shape-rendering:geometricPrecision; text-rendering:geometricPrecision; image-rendering:optimizeQuality; fill-rule:evenodd; clip-rule:evenodd" xmlns:xlink="http://www.w3.org/1999/xlink">
<g><path style="opacity:0.949" fill="#5a5b5a" d="M 5.5,-0.5 C 7.83333,-0.5 10.1667,-0.5 12.5,-0.5C 12.5,1.16667 12.5,2.83333 12.5,4.5C 14.1667,4.5 15.8333,4.5 17.5,4.5C 17.5,6.83333 17.5,9.16667 17.5,11.5C 15.8333,11.5 14.1667,11.5 12.5,11.5C 12.5,13.1667 12.5,14.8333 12.5,16.5C 10.1667,16.5 7.83333,16.5 5.5,16.5C 5.5,14.8333 5.5,13.1667 5.5,11.5C 3.83333,11.5 2.16667,11.5 0.5,11.5C 0.5,9.16667 0.5,6.83333 0.5,4.5C 2.16667,4.5 3.83333,4.5 5.5,4.5C 5.5,2.83333 5.5,1.16667 5.5,-0.5 Z"/></g>
<g><path style="opacity:1" fill="#efefef" d="M 6.5,0.5 C 8.16667,0.5 9.83333,0.5 11.5,0.5C 11.5,2.16667 11.5,3.83333 11.5,5.5C 13.1667,5.5 14.8333,5.5 16.5,5.5C 16.5,7.16667 16.5,8.83333 16.5,10.5C 14.8333,10.5 13.1667,10.5 11.5,10.5C 11.5,12.1667 11.5,13.8333 11.5,15.5C 9.83333,15.5 8.16667,15.5 6.5,15.5C 6.5,13.8333 6.5,12.1667 6.5,10.5C 4.83333,10.5 3.16667,10.5 1.5,10.5C 1.5,8.83333 1.5,7.16667 1.5,5.5C 3.16667,5.5 4.83333,5.5 6.5,5.5C 6.5,3.83333 6.5,2.16667 6.5,0.5 Z"/></g>
<g><path style="opacity:1" fill="#c3c3c3" d="M 9.5,6.5 C 11.5,6.5 13.5,6.5 15.5,6.5C 15.5,7.5 15.5,8.5 15.5,9.5C 13.8333,9.5 12.1667,9.5 10.5,9.5C 10.5,11.1667 10.5,12.8333 10.5,14.5C 9.5,14.5 8.5,14.5 7.5,14.5C 7.5,12.8333 7.5,11.1667 7.5,9.5C 6.44802,9.64945 5.44802,9.48278 4.5,9C 6.31456,8.24316 7.98123,7.40982 9.5,6.5 Z"/></g>
</svg>
