<?xml version="1.0" encoding="UTF-8"?>
<!DOCTYPE svg PUBLIC "-//W3C//DTD SVG 1.1//EN" "http://www.w3.org/Graphics/SVG/1.1/DTD/svg11.dtd">
<svg xmlns="http://www.w3.org/2000/svg" version="1.1" width="20px" height="20px" style="shape-rendering:geometricPrecision; text-rendering:geometricPrecision; image-rendering:optimizeQuality; fill-rule:evenodd; clip-rule:evenodd" xmlns:xlink="http://www.w3.org/1999/xlink">
<g><path style="opacity:0.192" fill="#080808" d="M 7.5,-0.5 C 8.16667,-0.5 8.83333,-0.5 9.5,-0.5C 8.07501,0.922032 7.07501,2.5887 6.5,4.5C 5.42708,6.3469 5.42708,8.3469 6.5,10.5C 5.59603,11.209 5.26269,12.209 5.5,13.5C 4.52216,13.189 3.85549,12.5223 3.5,11.5C 3.83169,7.09452 5.16502,3.09452 7.5,-0.5 Z"/></g>
<g><path style="opacity:1" fill="#bfbdbf" d="M 9.5,-0.5 C 9.83333,-0.5 10.1667,-0.5 10.5,-0.5C 10.5,0.166667 10.5,0.833333 10.5,1.5C 9.37505,2.34775 9.37505,3.34775 10.5,4.5C 9.39105,4.55688 8.39105,4.89022 7.5,5.5C 7.5,4.83333 7.16667,4.5 6.5,4.5C 7.07501,2.5887 8.07501,0.922032 9.5,-0.5 Z"/></g>
<g><path style="opacity:1" fill="#cdcacd" d="M 10.5,1.5 C 11.9744,2.43634 12.9744,3.76967 13.5,5.5C 12.8333,6.5 12.1667,7.5 11.5,8.5C 11.7678,6.90097 11.4345,5.56764 10.5,4.5C 9.37505,3.34775 9.37505,2.34775 10.5,1.5 Z"/></g>
<g><path style="opacity:0.525" fill="#181818" d="M 10.5,-0.5 C 10.8333,-0.5 11.1667,-0.5 11.5,-0.5C 14.7591,2.60289 15.7591,6.26956 14.5,10.5C 14.1667,10.5 13.8333,10.5 13.5,10.5C 13.1778,9.14185 13.1778,7.47518 13.5,5.5C 12.9744,3.76967 11.9744,2.43634 10.5,1.5C 10.5,0.833333 10.5,0.166667 10.5,-0.5 Z"/></g>
<g><path style="opacity:1" fill="#c4c3c4" d="M 6.5,4.5 C 7.16667,4.5 7.5,4.83333 7.5,5.5C 7.43255,6.95875 7.76589,8.29208 8.5,9.5C 7.83333,9.83333 7.16667,10.1667 6.5,10.5C 5.42708,8.3469 5.42708,6.3469 6.5,4.5 Z"/></g>
<g><path style="opacity:0.402" fill="#151515" d="M 10.5,4.5 C 11.4345,5.56764 11.7678,6.90097 11.5,8.5C 11.1667,8.5 10.8333,8.5 10.5,8.5C 10.6461,13.1366 9.97939,13.4699 8.5,9.5C 7.76589,8.29208 7.43255,6.95875 7.5,5.5C 8.39105,4.89022 9.39105,4.55688 10.5,4.5 Z"/></g>
<g><path style="opacity:1" fill="#d9dcd9" d="M 13.5,5.5 C 13.1778,7.47518 13.1778,9.14185 13.5,10.5C 12.4489,11.2223 11.7822,12.2223 11.5,13.5C 11.0113,14.9952 10.3446,16.3285 9.5,17.5C 8.94882,14.9439 7.94882,12.6106 6.5,10.5C 7.16667,10.1667 7.83333,9.83333 8.5,9.5C 9.97939,13.4699 10.6461,13.1366 10.5,8.5C 10.8333,8.5 11.1667,8.5 11.5,8.5C 12.1667,7.5 12.8333,6.5 13.5,5.5 Z"/></g>
<g><path style="opacity:0.725" fill="#424342" d="M 13.5,10.5 C 13.8333,10.5 14.1667,10.5 14.5,10.5C 15.404,11.209 15.7373,12.209 15.5,13.5C 14.5,13.5 13.5,13.5 12.5,13.5C 12.1667,13.5 11.8333,13.5 11.5,13.5C 11.7822,12.2223 12.4489,11.2223 13.5,10.5 Z"/></g>
<g><path style="opacity:0.299" fill="#1b1d1b" d="M 6.5,10.5 C 7.94882,12.6106 8.94882,14.9439 9.5,17.5C 9.5,18.1667 9.5,18.8333 9.5,19.5C 9.16667,19.5 8.83333,19.5 8.5,19.5C 8.0879,17.1133 7.0879,15.1133 5.5,13.5C 5.26269,12.209 5.59603,11.209 6.5,10.5 Z"/></g>
<g><path style="opacity:0.927" fill="#2d2e2d" d="M 11.5,13.5 C 11.8333,13.5 12.1667,13.5 12.5,13.5C 12.1667,15.5 11.8333,17.5 11.5,19.5C 10.8333,19.5 10.1667,19.5 9.5,19.5C 9.5,18.8333 9.5,18.1667 9.5,17.5C 10.3446,16.3285 11.0113,14.9952 11.5,13.5 Z"/></g>
</svg>
