<?xml version="1.0" encoding="UTF-8"?>
<!DOCTYPE svg PUBLIC "-//W3C//DTD SVG 1.1//EN" "http://www.w3.org/Graphics/SVG/1.1/DTD/svg11.dtd">
<svg xmlns="http://www.w3.org/2000/svg" version="1.1" width="59px" height="51px" style="shape-rendering:geometricPrecision; text-rendering:geometricPrecision; image-rendering:optimizeQuality; fill-rule:evenodd; clip-rule:evenodd" xmlns:xlink="http://www.w3.org/1999/xlink">
<g><path style="opacity:0.327" fill="#0c0702" d="M 11.5,-0.5 C 14.1667,-0.5 16.8333,-0.5 19.5,-0.5C 23.3044,0.78177 26.471,3.1151 29,6.5C 31.529,3.1151 34.6956,0.78177 38.5,-0.5C 40.8333,-0.5 43.1667,-0.5 45.5,-0.5C 52.3373,2.33684 56.6706,7.33684 58.5,14.5C 58.5,16.1667 58.5,17.8333 58.5,19.5C 56.9119,24.0096 54.7452,28.343 52,32.5C 44.7041,38.8797 37.2041,44.8797 29.5,50.5C 28.8333,50.5 28.1667,50.5 27.5,50.5C 19.7929,44.5412 12.2929,38.2079 5,31.5C 2.6738,27.9833 0.840466,24.3166 -0.5,20.5C -0.5,18.1667 -0.5,15.8333 -0.5,13.5C 1.63824,7.21489 5.63824,2.54822 11.5,-0.5 Z"/></g>
<g><path style="opacity:1" fill="#f0cb7b" d="M 47.5,4.5 C 45.1432,4.33669 42.8098,4.50335 40.5,5C 36.3319,8.00203 32.6652,11.502 29.5,15.5C 28.2801,13.9504 28.2801,12.2837 29.5,10.5C 33.7558,2.68481 39.7558,0.684813 47.5,4.5 Z"/></g>
<g><path style="opacity:1" fill="#f4db84" d="M 17.5,2.5 C 18.5981,3.39695 18.5981,4.23029 17.5,5C 12.6072,5.72992 8.94049,8.22992 6.5,12.5C 4.65305,20.0434 3.65305,20.0434 3.5,12.5C 5.64133,5.69914 10.308,2.36581 17.5,2.5 Z"/></g>
<g><path style="opacity:1" fill="#be8020" d="M 47.5,4.5 C 50.5,5.5 52.5,7.5 53.5,10.5C 53.6567,11.8734 53.49,13.2068 53,14.5C 51.5945,11.5914 49.4278,9.59136 46.5,8.5C 43.6926,7.34333 41.0259,7.34333 38.5,8.5C 36.8333,9.5 35.5,10.8333 34.5,12.5C 33.1667,13.5 31.8333,14.5 30.5,15.5C 30.1667,15.5 29.8333,15.5 29.5,15.5C 32.6652,11.502 36.3319,8.00203 40.5,5C 42.8098,4.50335 45.1432,4.33669 47.5,4.5 Z"/></g>
<g><path style="opacity:1" fill="#643a0b" d="M 17.5,2.5 C 19.3084,2.49136 20.9751,2.99136 22.5,4C 24.7496,6.42219 27.0829,8.58886 29.5,10.5C 28.2801,12.2837 28.2801,13.9504 29.5,15.5C 29.8333,15.5 30.1667,15.5 30.5,15.5C 30.4827,17.0281 29.816,17.5281 28.5,17C 26.0343,14.5214 23.701,12.0214 21.5,9.5C 14.3642,5.8969 9.69755,8.06357 7.5,16C 8,18.5 8.5,21 9,23.5C 9.65999,25.3237 10.8267,26.657 12.5,27.5C 12.5,28.1667 12.5,28.8333 12.5,29.5C 10.4727,28.1394 8.806,26.4727 7.5,24.5C 6.64032,20.5662 6.30698,16.5662 6.5,12.5C 8.94049,8.22992 12.6072,5.72992 17.5,5C 18.5981,4.23029 18.5981,3.39695 17.5,2.5 Z"/></g>
<g><path style="opacity:1" fill="#fbac21" d="M 21.5,9.5 C 19.8995,11.2978 19.5662,13.2978 20.5,15.5C 18.458,16.5032 18.1246,17.8366 19.5,19.5C 17.5,20.5 15.5,21.5 13.5,22.5C 14.376,23.2508 15.376,23.7508 16.5,24C 15.2642,25.3875 13.9308,26.5542 12.5,27.5C 10.8267,26.657 9.65999,25.3237 9,23.5C 8.5,21 8,18.5 7.5,16C 9.69755,8.06357 14.3642,5.8969 21.5,9.5 Z"/></g>
<g><path style="opacity:1" fill="#804c0c" d="M 46.5,8.5 C 49.4278,9.59136 51.5945,11.5914 53,14.5C 53.49,13.2068 53.6567,11.8734 53.5,10.5C 54.2216,10.9175 54.7216,11.5842 55,12.5C 56.1264,18.4531 54.7931,23.7864 51,28.5C 44.6346,35.5793 37.4679,41.5793 29.5,46.5C 29.4326,45.0413 29.7659,43.7079 30.5,42.5C 37.4356,38.0651 43.6022,32.7317 49,26.5C 51.9985,22.4544 52.1652,18.4544 49.5,14.5C 49.0248,12.2163 48.0248,10.2163 46.5,8.5 Z"/></g>
<g><path style="opacity:1" fill="#e1b155" d="M 3.5,12.5 C 3.65305,20.0434 4.65305,20.0434 6.5,12.5C 6.30698,16.5662 6.64032,20.5662 7.5,24.5C 6.89022,25.391 6.55688,26.391 6.5,27.5C 2.67141,22.9996 1.67141,17.9996 3.5,12.5 Z"/></g>
<g><path style="opacity:0.933" fill="#febe23" d="M 38.5,8.5 C 39.3764,8.36912 40.0431,8.70245 40.5,9.5C 41.1228,11.7105 42.1228,13.7105 43.5,15.5C 44.086,15.2907 44.586,14.9574 45,14.5C 45.7453,16.2029 46.5786,17.8695 47.5,19.5C 43.7616,24.2261 39.095,27.8927 33.5,30.5C 35.6172,32.6267 34.9506,32.96 31.5,31.5C 29.7567,33.0383 27.7567,34.0383 25.5,34.5C 25.8212,32.9519 26.8212,32.2852 28.5,32.5C 29.204,30.3222 29.5374,28.3222 29.5,26.5C 33.6621,24.9639 37.6621,23.1306 41.5,21C 40.5,20.6667 39.5,20.3333 38.5,20C 40.0368,18.8904 40.7035,17.3904 40.5,15.5C 37.784,15.6138 35.784,14.6138 34.5,12.5C 35.5,10.8333 36.8333,9.5 38.5,8.5 Z"/></g>
<g><path style="opacity:1" fill="#fdcb28" d="M 21.5,9.5 C 23.701,12.0214 26.0343,14.5214 28.5,17C 29.816,17.5281 30.4827,17.0281 30.5,15.5C 31.8333,14.5 33.1667,13.5 34.5,12.5C 35.784,14.6138 37.784,15.6138 40.5,15.5C 40.7035,17.3904 40.0368,18.8904 38.5,20C 39.5,20.3333 40.5,20.6667 41.5,21C 37.6621,23.1306 33.6621,24.9639 29.5,26.5C 29.5374,28.3222 29.204,30.3222 28.5,32.5C 26.8212,32.2852 25.8212,32.9519 25.5,34.5C 25.573,36.0269 24.9063,37.0269 23.5,37.5C 19.8151,34.8086 16.1484,32.1419 12.5,29.5C 12.5,28.8333 12.5,28.1667 12.5,27.5C 13.9308,26.5542 15.2642,25.3875 16.5,24C 15.376,23.7508 14.376,23.2508 13.5,22.5C 15.5,21.5 17.5,20.5 19.5,19.5C 18.1246,17.8366 18.458,16.5032 20.5,15.5C 19.5662,13.2978 19.8995,11.2978 21.5,9.5 Z"/></g>
<g><path style="opacity:0.94" fill="#faa91d" d="M 38.5,8.5 C 41.0259,7.34333 43.6926,7.34333 46.5,8.5C 48.0248,10.2163 49.0248,12.2163 49.5,14.5C 49.9111,18.4629 49.0778,22.1295 47,25.5C 41.567,31.4332 35.7337,36.7666 29.5,41.5C 27.1475,40.6597 25.1475,39.3264 23.5,37.5C 24.9063,37.0269 25.573,36.0269 25.5,34.5C 27.7567,34.0383 29.7567,33.0383 31.5,31.5C 34.9506,32.96 35.6172,32.6267 33.5,30.5C 39.095,27.8927 43.7616,24.2261 47.5,19.5C 46.5786,17.8695 45.7453,16.2029 45,14.5C 44.586,14.9574 44.086,15.2907 43.5,15.5C 42.1228,13.7105 41.1228,11.7105 40.5,9.5C 40.0431,8.70245 39.3764,8.36912 38.5,8.5 Z"/></g>
<g><path style="opacity:1" fill="#946112" d="M 12.5,29.5 C 16.1484,32.1419 19.8151,34.8086 23.5,37.5C 25.1475,39.3264 27.1475,40.6597 29.5,41.5C 29.5,42.1667 29.8333,42.5 30.5,42.5C 29.7659,43.7079 29.4326,45.0413 29.5,46.5C 28.6726,47.4387 28.0059,47.1054 27.5,45.5C 28.525,45.1034 28.6917,44.4368 28,43.5C 22.0991,39.6351 16.9325,34.9684 12.5,29.5 Z"/></g>
<g><path style="opacity:0.996" fill="#aa8748" d="M 49.5,14.5 C 52.1652,18.4544 51.9985,22.4544 49,26.5C 43.6022,32.7317 37.4356,38.0651 30.5,42.5C 29.8333,42.5 29.5,42.1667 29.5,41.5C 35.7337,36.7666 41.567,31.4332 47,25.5C 49.0778,22.1295 49.9111,18.4629 49.5,14.5 Z"/></g>
<g><path style="opacity:0.996" fill="#e99e20" d="M 7.5,24.5 C 8.806,26.4727 10.4727,28.1394 12.5,29.5C 16.9325,34.9684 22.0991,39.6351 28,43.5C 28.6917,44.4368 28.525,45.1034 27.5,45.5C 19.2662,40.9324 12.2662,34.9324 6.5,27.5C 6.55688,26.391 6.89022,25.391 7.5,24.5 Z"/></g>
</svg>
