<?xml version="1.0" encoding="UTF-8"?>
<!DOCTYPE svg PUBLIC "-//W3C//DTD SVG 1.1//EN" "http://www.w3.org/Graphics/SVG/1.1/DTD/svg11.dtd">
<svg xmlns="http://www.w3.org/2000/svg" version="1.1" width="59px" height="63px" style="shape-rendering:geometricPrecision; text-rendering:geometricPrecision; image-rendering:optimizeQuality; fill-rule:evenodd; clip-rule:evenodd" xmlns:xlink="http://www.w3.org/1999/xlink">
<g><path style="opacity:1" fill="#ded79f" d="M 32.5,3.5 C 33.1667,3.5 33.5,3.83333 33.5,4.5C 40.4094,11.9114 47.5761,19.2448 55,26.5C 55.6917,27.4368 55.525,28.1034 54.5,28.5C 50.3224,27.4285 45.9891,27.4285 41.5,28.5C 41.6107,27.8826 41.944,27.3826 42.5,27C 45.2263,26.8184 47.8929,26.3184 50.5,25.5C 43.7989,17.798 36.4656,10.798 28.5,4.5C 27.016,5.46689 26.016,6.80022 25.5,8.5C 18.8167,13.5187 12.8167,19.1854 7.5,25.5C 6.29049,25.9321 5.29049,26.5987 4.5,27.5C 3.83333,27.5 3.5,27.8333 3.5,28.5C 2.47498,28.1034 2.30831,27.4368 3,26.5C 11.1667,18.3333 19.3333,10.1667 27.5,2C 29.4952,1.38715 31.1619,1.88715 32.5,3.5 Z"/></g>
<g><path style="opacity:0.186" fill="#050404" d="M 27.5,-0.5 C 28.5,-0.5 29.5,-0.5 30.5,-0.5C 31.6005,0.60486 32.2671,1.93819 32.5,3.5C 31.1619,1.88715 29.4952,1.38715 27.5,2C 19.3333,10.1667 11.1667,18.3333 3,26.5C 2.30831,27.4368 2.47498,28.1034 3.5,28.5C 7.11188,29.4222 10.7785,30.0889 14.5,30.5C 14.3347,34.1817 14.5014,37.8484 15,41.5C 18.8666,45.7016 23.0332,49.5349 27.5,53C 29.2816,53.1218 30.9482,52.6218 32.5,51.5C 35.8297,48.0672 39.3297,44.7339 43,41.5C 43.4986,37.8484 43.6653,34.1817 43.5,30.5C 47.1667,29.8333 50.8333,29.1667 54.5,28.5C 55.525,28.1034 55.6917,27.4368 55,26.5C 47.5761,19.2448 40.4094,11.9114 33.5,4.5C 42.1133,11.7765 50.4466,19.4432 58.5,27.5C 58.5,28.1667 58.5,28.8333 58.5,29.5C 53.6635,29.7339 48.9969,30.7339 44.5,32.5C 47.2299,34.2821 47.8966,36.6154 46.5,39.5C 49.833,41.4684 50.833,44.1351 49.5,47.5C 48.325,47.281 47.325,47.6143 46.5,48.5C 46.8457,49.6956 47.3457,49.6956 48,48.5C 48.9228,51.2778 48.0894,53.2778 45.5,54.5C 44.2011,53.91 43.3678,52.91 43,51.5C 41.6861,52.3128 40.5195,53.3128 39.5,54.5C 38.914,54.2907 38.414,53.9574 38,53.5C 37.51,54.7932 37.3433,56.1266 37.5,57.5C 35.0005,60.1905 32.8338,59.8571 31,56.5C 26.6102,58.5256 22.2769,59.8589 18,60.5C 15.5215,58.7487 14.6882,56.582 15.5,54C 12.7003,52.5153 10.0336,50.8486 7.5,49C 7.73745,46.7116 7.73745,44.2116 7.5,41.5C 8.3635,42.463 9.03017,42.463 9.5,41.5C 9.05758,40.2613 8.39092,39.2613 7.5,38.5C 7.5,37.8333 7.5,37.1667 7.5,36.5C 8.83333,36.1667 8.83333,35.8333 7.5,35.5C 8.47374,33.9147 9.97374,32.9147 12,32.5C 13.0875,34.9316 13.5875,34.5983 13.5,31.5C 8.85299,30.704 4.18633,30.0373 -0.5,29.5C -0.5,28.8333 -0.5,28.1667 -0.5,27.5C 9.16667,18.5 18.5,9.16667 27.5,-0.5 Z"/></g>
<g><path style="opacity:1" fill="#e3c047" d="M 32.5,15.5 C 33.388,18.0545 33.7214,20.7212 33.5,23.5C 32.448,23.3505 31.448,23.5172 30.5,24C 32.7148,25.0438 35.0481,25.7105 37.5,26C 38.6023,28.4009 38.769,30.9009 38,33.5C 35.6278,35.7032 33.4611,38.0365 31.5,40.5C 30.5041,40.4142 29.6708,40.7476 29,41.5C 26.7953,38.9598 24.2953,36.7932 21.5,35C 19.3504,32.4449 19.0171,29.6116 20.5,26.5C 22.8889,25.8195 25.2222,24.9862 27.5,24C 25.5135,21.5301 25.0135,18.6967 26,15.5C 28.1632,14.232 30.3298,14.232 32.5,15.5 Z"/></g>
<g><path style="opacity:1" fill="#655f34" d="M 32.5,15.5 C 30.3298,14.232 28.1632,14.232 26,15.5C 25.0135,18.6967 25.5135,21.5301 27.5,24C 25.2222,24.9862 22.8889,25.8195 20.5,26.5C 19.0171,29.6116 19.3504,32.4449 21.5,35C 24.2953,36.7932 26.7953,38.9598 29,41.5C 29.6708,40.7476 30.5041,40.4142 31.5,40.5C 31.8333,40.5 32.1667,40.5 32.5,40.5C 31.2015,42.0986 29.5348,42.5986 27.5,42C 24.7047,40.2068 22.2047,38.0402 20,35.5C 19.3333,36.5 19.3333,37.5 20,38.5C 23.011,40.8473 26.011,43.1807 29,45.5C 31.989,43.1807 34.989,40.8473 38,38.5C 38.4828,37.552 38.6495,36.552 38.5,35.5C 39.3019,36.9516 39.8019,38.6183 40,40.5C 40.1762,36.3123 40.6762,32.3123 41.5,28.5C 41.8256,32.8839 41.4922,37.2172 40.5,41.5C 37.3489,44.1504 34.3489,46.9838 31.5,50C 30.2411,50.9819 28.9078,51.3152 27.5,51C 24.6286,48.2972 21.9619,45.4639 19.5,42.5C 19.2172,41.7109 18.7172,41.0442 18,40.5C 17.8275,36.1289 17.3275,31.7956 16.5,27.5C 13.3596,26.9106 10.3596,26.2439 7.5,25.5C 12.8167,19.1854 18.8167,13.5187 25.5,8.5C 27.1368,7.78219 28.8034,7.61553 30.5,8C 32.5491,11.0497 35.2157,13.383 38.5,15C 36.2913,16.6907 34.4579,16.524 33,14.5C 32.6012,14.7284 32.4346,15.0618 32.5,15.5 Z"/></g>
<g><path style="opacity:1" fill="#4e5539" d="M 41.5,28.5 C 40.6762,32.3123 40.1762,36.3123 40,40.5C 39.8019,38.6183 39.3019,36.9516 38.5,35.5C 36.5,37.1667 34.5,38.8333 32.5,40.5C 32.1667,40.5 31.8333,40.5 31.5,40.5C 33.4611,38.0365 35.6278,35.7032 38,33.5C 38.769,30.9009 38.6023,28.4009 37.5,26C 35.0481,25.7105 32.7148,25.0438 30.5,24C 31.448,23.5172 32.448,23.3505 33.5,23.5C 33.7214,20.7212 33.388,18.0545 32.5,15.5C 32.4346,15.0618 32.6012,14.7284 33,14.5C 34.4579,16.524 36.2913,16.6907 38.5,15C 35.2157,13.383 32.5491,11.0497 30.5,8C 28.8034,7.61553 27.1368,7.78219 25.5,8.5C 26.016,6.80022 27.016,5.46689 28.5,4.5C 36.4656,10.798 43.7989,17.798 50.5,25.5C 47.8929,26.3184 45.2263,26.8184 42.5,27C 41.944,27.3826 41.6107,27.8826 41.5,28.5 Z"/></g>
<g><path style="opacity:1" fill="#958852" d="M 7.5,25.5 C 10.3596,26.2439 13.3596,26.9106 16.5,27.5C 17.3275,31.7956 17.8275,36.1289 18,40.5C 18.7172,41.0442 19.2172,41.7109 19.5,42.5C 18.5041,42.5858 17.6708,42.2524 17,41.5C 16.501,37.1794 16.3343,32.8461 16.5,28.5C 12.5191,27.9791 8.51914,27.6458 4.5,27.5C 5.29049,26.5987 6.29049,25.9321 7.5,25.5 Z"/></g>
<g><path style="opacity:0.022" fill="#000000" d="M 7.5,35.5 C 7.5,35.8333 7.5,36.1667 7.5,36.5C 6.57683,37.3029 5.57683,37.4696 4.5,37C 5.24382,35.9614 6.24382,35.4614 7.5,35.5 Z"/></g>
<g><path style="opacity:0.227" fill="#000102" d="M 7.5,38.5 C 7.5,39.5 7.5,40.5 7.5,41.5C 6.5,41.5 5.5,41.5 4.5,41.5C 4.5,40.5 4.5,39.5 4.5,38.5C 5.5,38.5 6.5,38.5 7.5,38.5 Z"/></g>
<g><path style="opacity:0.02" fill="#000000" d="M 49.5,39.5 C 49.8966,38.475 50.5632,38.3083 51.5,39C 50.9056,39.4643 50.2389,39.631 49.5,39.5 Z"/></g>
<g><path style="opacity:1" fill="#ae882a" d="M 3.5,28.5 C 3.5,27.8333 3.83333,27.5 4.5,27.5C 8.51914,27.6458 12.5191,27.9791 16.5,28.5C 16.3343,32.8461 16.501,37.1794 17,41.5C 17.6708,42.2524 18.5041,42.5858 19.5,42.5C 21.9619,45.4639 24.6286,48.2972 27.5,51C 28.9078,51.3152 30.2411,50.9819 31.5,50C 34.3489,46.9838 37.3489,44.1504 40.5,41.5C 41.4922,37.2172 41.8256,32.8839 41.5,28.5C 45.9891,27.4285 50.3224,27.4285 54.5,28.5C 50.8333,29.1667 47.1667,29.8333 43.5,30.5C 43.6653,34.1817 43.4986,37.8484 43,41.5C 39.3297,44.7339 35.8297,48.0672 32.5,51.5C 30.9482,52.6218 29.2816,53.1218 27.5,53C 23.0332,49.5349 18.8666,45.7016 15,41.5C 14.5014,37.8484 14.3347,34.1817 14.5,30.5C 10.7785,30.0889 7.11188,29.4222 3.5,28.5 Z"/></g>
<g><path style="opacity:1" fill="#e3c94e" d="M 32.5,40.5 C 34.5,38.8333 36.5,37.1667 38.5,35.5C 38.6495,36.552 38.4828,37.552 38,38.5C 34.989,40.8473 31.989,43.1807 29,45.5C 26.011,43.1807 23.011,40.8473 20,38.5C 19.3333,37.5 19.3333,36.5 20,35.5C 22.2047,38.0402 24.7047,40.2068 27.5,42C 29.5348,42.5986 31.2015,42.0986 32.5,40.5 Z"/></g>
<g><path style="opacity:0.02" fill="#000000" d="M 9.5,52.5 C 10.8333,53.1667 10.8333,53.1667 9.5,52.5 Z"/></g>
<g><path style="opacity:0.02" fill="#000000" d="M 10.5,55.5 C 11.8333,56.1667 11.8333,56.1667 10.5,55.5 Z"/></g>
<g><path style="opacity:0.02" fill="#000000" d="M 37.5,57.5 C 38.8333,58.1667 38.8333,58.1667 37.5,57.5 Z"/></g>
</svg>
