<?xml version="1.0" encoding="UTF-8"?>
<!DOCTYPE svg PUBLIC "-//W3C//DTD SVG 1.1//EN" "http://www.w3.org/Graphics/SVG/1.1/DTD/svg11.dtd">
<svg xmlns="http://www.w3.org/2000/svg" version="1.1" width="59px" height="63px" style="shape-rendering:geometricPrecision; text-rendering:geometricPrecision; image-rendering:optimizeQuality; fill-rule:evenodd; clip-rule:evenodd" xmlns:xlink="http://www.w3.org/1999/xlink">
<g><path style="opacity:0.839" fill="#2a261a" d="M 34.5,4.5 C 37.8333,7.16667 40.8333,10.1667 43.5,13.5C 39.5,11.5 36.5,8.5 34.5,4.5 Z"/></g>
<g><path style="opacity:1" fill="#faefb0" d="M 32.5,3.5 C 33.1667,3.83333 33.8333,4.16667 34.5,4.5C 36.5,8.5 39.5,11.5 43.5,13.5C 45.5,17.5 48.5,20.5 52.5,22.5C 53.2026,24.7157 54.5359,26.549 56.5,28C 55.9056,28.4643 55.2389,28.631 54.5,28.5C 53.2196,27.0687 51.5529,26.4021 49.5,26.5C 43.1709,19.3379 36.3376,12.6712 29,6.5C 21.6624,12.6712 14.8291,19.3379 8.5,26.5C 6.30202,26.1201 4.63535,26.7868 3.5,28.5C 2.76109,28.631 2.09442,28.4643 1.5,28C 10.6667,18.8333 19.8333,9.66667 29,0.5C 30.0391,1.7101 31.2058,2.7101 32.5,3.5 Z"/></g>
<g><path style="opacity:0.749" fill="#403820" d="M 27.5,-0.5 C 28.5,-0.5 29.5,-0.5 30.5,-0.5C 31.6005,0.60486 32.2671,1.93819 32.5,3.5C 31.2058,2.7101 30.0391,1.7101 29,0.5C 19.8333,9.66667 10.6667,18.8333 1.5,28C 2.09442,28.4643 2.76109,28.631 3.5,28.5C 5.69764,28.8751 7.69764,29.5418 9.5,30.5C 6.16667,30.1667 2.83333,29.8333 -0.5,29.5C -0.5,28.8333 -0.5,28.1667 -0.5,27.5C 9.16667,18.5 18.5,9.16667 27.5,-0.5 Z"/></g>
<g><path style="opacity:0.784" fill="#332d1d" d="M 43.5,13.5 C 46.8333,16.1667 49.8333,19.1667 52.5,22.5C 48.5,20.5 45.5,17.5 43.5,13.5 Z"/></g>
<g><path style="opacity:1" fill="#f2cf53" d="M 49.5,26.5 C 46.2869,26.19 43.2869,26.5233 40.5,27.5C 40.5,29.8333 40.5,32.1667 40.5,34.5C 39.5,34.5 38.5,34.5 37.5,34.5C 38.5552,31.9272 38.7218,29.2605 38,26.5C 35.8252,25.7454 33.6585,24.912 31.5,24C 34.1667,21 34.1667,18 31.5,15C 27.098,13.431 25.098,14.931 25.5,19.5C 25.6493,21.3197 26.3159,22.8197 27.5,24C 24.4278,24.5784 21.7612,25.745 19.5,27.5C 18.6981,28.9516 18.1981,30.6183 18,32.5C 17.5065,30.8659 17.3398,29.1992 17.5,27.5C 14.7131,26.5233 11.7131,26.19 8.5,26.5C 14.8291,19.3379 21.6624,12.6712 29,6.5C 36.3376,12.6712 43.1709,19.3379 49.5,26.5 Z"/></g>
<g><path style="opacity:1" fill="#a88a31" d="M 8.5,26.5 C 11.7131,26.19 14.7131,26.5233 17.5,27.5C 16.1667,28.1667 15.1667,29.1667 14.5,30.5C 12.8333,30.5 11.1667,30.5 9.5,30.5C 7.69764,29.5418 5.69764,28.8751 3.5,28.5C 4.63535,26.7868 6.30202,26.1201 8.5,26.5 Z"/></g>
<g><path style="opacity:1" fill="#3f3312" d="M 37.5,34.5 C 34.7746,35.713 32.4412,37.5464 30.5,40C 29.5,40.6667 28.5,40.6667 27.5,40C 25,37.5 22.5,35 20,32.5C 19.5065,30.8659 19.3398,29.1992 19.5,27.5C 21.7612,25.745 24.4278,24.5784 27.5,24C 26.3159,22.8197 25.6493,21.3197 25.5,19.5C 25.098,14.931 27.098,13.431 31.5,15C 34.1667,18 34.1667,21 31.5,24C 33.6585,24.912 35.8252,25.7454 38,26.5C 38.7218,29.2605 38.5552,31.9272 37.5,34.5 Z"/></g>
<g><path style="opacity:1" fill="#9c802f" d="M 40.5,27.5 C 43.2869,26.5233 46.2869,26.19 49.5,26.5C 51.5529,26.4021 53.2196,27.0687 54.5,28.5C 52.3024,28.8751 50.3024,29.5418 48.5,30.5C 47.4324,31.4345 46.099,31.7678 44.5,31.5C 44.1667,31.5 43.8333,31.5 43.5,31.5C 42.9744,29.7697 41.9744,28.4363 40.5,27.5 Z"/></g>
<g><path style="opacity:0.231" fill="#50421e" d="M 52.5,22.5 C 54.5,24.1667 56.5,25.8333 58.5,27.5C 58.5,28.1667 58.5,28.8333 58.5,29.5C 55.1667,29.8333 51.8333,30.1667 48.5,30.5C 50.3024,29.5418 52.3024,28.8751 54.5,28.5C 55.2389,28.631 55.9056,28.4643 56.5,28C 54.5359,26.549 53.2026,24.7157 52.5,22.5 Z"/></g>
<g><path style="opacity:0.174" fill="#070503" d="M 9.5,30.5 C 11.1667,30.5 12.8333,30.5 14.5,30.5C 14.5,33.1667 14.5,35.8333 14.5,38.5C 14.3433,39.8734 14.51,41.2068 15,42.5C 19.6667,46.5 24.3333,50.5 29,54.5C 30.0391,53.2899 31.2058,52.2899 32.5,51.5C 36.1667,48.1667 39.8333,44.8333 43.5,41.5C 43.5,38.1667 43.5,34.8333 43.5,31.5C 43.8333,31.5 44.1667,31.5 44.5,31.5C 45.1603,33.3437 46.1603,35.0104 47.5,36.5C 47.3201,37.5539 46.9867,38.5539 46.5,39.5C 49.833,41.4684 50.833,44.1351 49.5,47.5C 48.325,47.281 47.325,47.6143 46.5,48.5C 46.8457,49.6956 47.3457,49.6956 48,48.5C 48.9228,51.2778 48.0894,53.2778 45.5,54.5C 44.2011,53.91 43.3678,52.91 43,51.5C 41.6861,52.3128 40.5195,53.3128 39.5,54.5C 38.914,54.2907 38.414,53.9574 38,53.5C 37.51,54.7932 37.3433,56.1266 37.5,57.5C 35.0005,60.1905 32.8338,59.8571 31,56.5C 26.6102,58.5256 22.2769,59.8589 18,60.5C 15.5215,58.7487 14.6882,56.582 15.5,54C 12.7003,52.5153 10.0336,50.8486 7.5,49C 7.73745,46.7116 7.73745,44.2116 7.5,41.5C 8.3635,42.463 9.03017,42.463 9.5,41.5C 9.05758,40.2613 8.39092,39.2613 7.5,38.5C 7.5,37.8333 7.5,37.1667 7.5,36.5C 8.83333,36.1667 8.83333,35.8333 7.5,35.5C 8.47374,33.9147 9.97374,32.9147 12,32.5C 13.0875,34.9316 13.5875,34.5983 13.5,31.5C 11.901,31.7678 10.5676,31.4345 9.5,30.5 Z"/></g>
<g><path style="opacity:0.022" fill="#010100" d="M 7.5,35.5 C 7.5,35.8333 7.5,36.1667 7.5,36.5C 6.57683,37.3029 5.57683,37.4696 4.5,37C 5.24382,35.9614 6.24382,35.4614 7.5,35.5 Z"/></g>
<g><path style="opacity:0.227" fill="#010100" d="M 7.5,38.5 C 7.5,39.5 7.5,40.5 7.5,41.5C 6.5,41.5 5.5,41.5 4.5,41.5C 4.5,40.5 4.5,39.5 4.5,38.5C 5.5,38.5 6.5,38.5 7.5,38.5 Z"/></g>
<g><path style="opacity:0.02" fill="#000000" d="M 49.5,39.5 C 49.8966,38.475 50.5632,38.3083 51.5,39C 50.9056,39.4643 50.2389,39.631 49.5,39.5 Z"/></g>
<g><path style="opacity:1" fill="#e6b435" d="M 17.5,27.5 C 17.3398,29.1992 17.5065,30.8659 18,32.5C 18.1981,30.6183 18.6981,28.9516 19.5,27.5C 19.3398,29.1992 19.5065,30.8659 20,32.5C 22.5,35 25,37.5 27.5,40C 28.5,40.6667 29.5,40.6667 30.5,40C 32.4412,37.5464 34.7746,35.713 37.5,34.5C 38.5,34.5 39.5,34.5 40.5,34.5C 40.5,32.1667 40.5,29.8333 40.5,27.5C 41.9744,28.4363 42.9744,29.7697 43.5,31.5C 43.5,34.8333 43.5,38.1667 43.5,41.5C 41.8008,41.3398 40.1341,41.5065 38.5,42C 35.6312,45.2041 32.4646,48.0374 29,50.5C 25.8333,47.3333 22.6667,44.1667 19.5,41C 18.2161,40.3162 17.0495,40.4829 16,41.5C 15.7679,40.2625 15.2679,39.2625 14.5,38.5C 14.5,35.8333 14.5,33.1667 14.5,30.5C 15.1667,29.1667 16.1667,28.1667 17.5,27.5 Z"/></g>
<g><path style="opacity:1" fill="#28200d" d="M 19.5,35.5 C 22.7997,37.6302 25.9664,39.9635 29,42.5C 32.5609,40.9452 35.5609,38.6118 38,35.5C 36.2046,39.6441 33.2046,42.9774 29,45.5C 26,42.8333 23,40.1667 20,37.5C 19.5357,36.9056 19.369,36.2389 19.5,35.5 Z"/></g>
<g><path style="opacity:1" fill="#9d761e" d="M 14.5,38.5 C 15.2679,39.2625 15.7679,40.2625 16,41.5C 17.0495,40.4829 18.2161,40.3162 19.5,41C 22.6667,44.1667 25.8333,47.3333 29,50.5C 32.4646,48.0374 35.6312,45.2041 38.5,42C 40.1341,41.5065 41.8008,41.3398 43.5,41.5C 39.8333,44.8333 36.1667,48.1667 32.5,51.5C 31.2058,52.2899 30.0391,53.2899 29,54.5C 24.3333,50.5 19.6667,46.5 15,42.5C 14.51,41.2068 14.3433,39.8734 14.5,38.5 Z"/></g>
<g><path style="opacity:0.02" fill="#000000" d="M 9.5,52.5 C 10.8333,53.1667 10.8333,53.1667 9.5,52.5 Z"/></g>
<g><path style="opacity:0.02" fill="#000000" d="M 10.5,55.5 C 11.8333,56.1667 11.8333,56.1667 10.5,55.5 Z"/></g>
<g><path style="opacity:0.02" fill="#000000" d="M 37.5,57.5 C 38.8333,58.1667 38.8333,58.1667 37.5,57.5 Z"/></g>
</svg>
