<?xml version="1.0" encoding="UTF-8"?>
<!DOCTYPE svg PUBLIC "-//W3C//DTD SVG 1.1//EN" "http://www.w3.org/Graphics/SVG/1.1/DTD/svg11.dtd">
<svg xmlns="http://www.w3.org/2000/svg" version="1.1" width="20px" height="20px" style="shape-rendering:geometricPrecision; text-rendering:geometricPrecision; image-rendering:optimizeQuality; fill-rule:evenodd; clip-rule:evenodd" xmlns:xlink="http://www.w3.org/1999/xlink">
<g><path style="opacity:0.083" fill="#180503" d="M -0.5,-0.5 C 1.16667,-0.5 2.83333,-0.5 4.5,-0.5C 4.5,-0.166667 4.5,0.166667 4.5,0.5C 3.24258,1.6226 3.57591,2.28927 5.5,2.5C 4.76589,3.70792 4.43255,5.04125 4.5,6.5C 3.54163,6.0472 2.7083,5.38053 2,4.5C 1.50204,7.48162 1.33537,10.4816 1.5,13.5C 1.5,14.5 1.5,15.5 1.5,16.5C 0.833333,16.1667 0.166667,15.8333 -0.5,15.5C -0.5,10.1667 -0.5,4.83333 -0.5,-0.5 Z"/></g>
<g><path style="opacity:0.295" fill="#100202" d="M 17.5,-0.5 C 18.1667,-0.5 18.8333,-0.5 19.5,-0.5C 19.5,5.16667 19.5,10.8333 19.5,16.5C 18.8333,16.5 18.1667,16.5 17.5,16.5C 17.5,15.5 17.5,14.5 17.5,13.5C 17.5,10.1667 17.5,6.83333 17.5,3.5C 17.5,2.16667 17.5,0.833333 17.5,-0.5 Z"/></g>
<g><path style="opacity:1" fill="#b22924" d="M 4.5,0.5 C 7.8499,0.334989 11.1832,0.501655 14.5,1C 13.9558,1.71719 13.2891,2.21719 12.5,2.5C 10.5,1.16667 8.5,1.16667 6.5,2.5C 6.16667,2.5 5.83333,2.5 5.5,2.5C 3.57591,2.28927 3.24258,1.6226 4.5,0.5 Z"/></g>
<g><path style="opacity:1" fill="#db4729" d="M 12.5,2.5 C 11.8902,3.39105 11.5569,4.39105 11.5,5.5C 10.391,5.55688 9.39105,5.89022 8.5,6.5C 8.16667,6.5 7.83333,6.5 7.5,6.5C 7.56745,5.04125 7.23411,3.70792 6.5,2.5C 8.5,1.16667 10.5,1.16667 12.5,2.5 Z"/></g>
<g><path style="opacity:1" fill="#37100b" d="M 4.5,0.5 C 4.5,0.166667 4.5,-0.166667 4.5,-0.5C 8.83333,-0.5 13.1667,-0.5 17.5,-0.5C 17.5,0.833333 17.5,2.16667 17.5,3.5C 16.5987,4.29049 15.9321,5.29049 15.5,6.5C 15.1667,6.5 14.8333,6.5 14.5,6.5C 13.1667,6.5 12.5,7.16667 12.5,8.5C 10.5188,7.89459 10.1854,6.89459 11.5,5.5C 11.5569,4.39105 11.8902,3.39105 12.5,2.5C 13.2891,2.21719 13.9558,1.71719 14.5,1C 11.1832,0.501655 7.8499,0.334989 4.5,0.5 Z"/></g>
<g><path style="opacity:1" fill="#6a2211" d="M 5.5,2.5 C 5.83333,2.5 6.16667,2.5 6.5,2.5C 7.23411,3.70792 7.56745,5.04125 7.5,6.5C 6.5,6.5 5.5,6.5 4.5,6.5C 4.43255,5.04125 4.76589,3.70792 5.5,2.5 Z"/></g>
<g><path style="opacity:1" fill="#b72b20" d="M 17.5,3.5 C 17.5,6.83333 17.5,10.1667 17.5,13.5C 15.8212,13.7148 14.8212,13.0481 14.5,11.5C 15.1174,11.6107 15.6174,11.944 16,12.5C 16.7891,10.2884 16.6225,8.28841 15.5,6.5C 15.9321,5.29049 16.5987,4.29049 17.5,3.5 Z"/></g>
<g><path style="opacity:1" fill="#e63e20" d="M 14.5,6.5 C 14.8333,6.5 15.1667,6.5 15.5,6.5C 16.6225,8.28841 16.7891,10.2884 16,12.5C 15.6174,11.944 15.1174,11.6107 14.5,11.5C 13.438,9.76589 13.438,8.09922 14.5,6.5 Z"/></g>
<g><path style="opacity:1" fill="#431e09" d="M 11.5,5.5 C 10.1854,6.89459 10.5188,7.89459 12.5,8.5C 10.9586,9.66676 9.62524,11.0001 8.5,12.5C 8.02694,13.9063 7.02694,14.573 5.5,14.5C 5.5,13.1667 5.5,11.8333 5.5,10.5C 6.85298,9.47387 7.85298,8.14054 8.5,6.5C 9.39105,5.89022 10.391,5.55688 11.5,5.5 Z"/></g>
<g><path style="opacity:1" fill="#bf3b1b" d="M 4.5,6.5 C 5.5,6.5 6.5,6.5 7.5,6.5C 7.83333,6.5 8.16667,6.5 8.5,6.5C 7.85298,8.14054 6.85298,9.47387 5.5,10.5C 4.59603,11.209 4.26269,12.209 4.5,13.5C 3.5,13.5 2.5,13.5 1.5,13.5C 1.33537,10.4816 1.50204,7.48162 2,4.5C 2.7083,5.38053 3.54163,6.0472 4.5,6.5 Z"/></g>
<g><path style="opacity:1" fill="#aa481a" d="M 14.5,6.5 C 13.438,8.09922 13.438,9.76589 14.5,11.5C 13.5,12.1667 12.5,12.8333 11.5,13.5C 10.7784,13.0825 10.2784,12.4158 10,11.5C 9.61742,12.056 9.11742,12.3893 8.5,12.5C 9.62524,11.0001 10.9586,9.66676 12.5,8.5C 12.5,7.16667 13.1667,6.5 14.5,6.5 Z"/></g>
<g><path style="opacity:0.174" fill="#1c0805" d="M 5.5,10.5 C 5.5,11.8333 5.5,13.1667 5.5,14.5C 5.5,15.1667 5.5,15.8333 5.5,16.5C 8.16667,19.1667 10.8333,19.1667 13.5,16.5C 13.2178,15.2223 12.5511,14.2223 11.5,13.5C 12.5,12.8333 13.5,12.1667 14.5,11.5C 14.8212,13.0481 15.8212,13.7148 17.5,13.5C 17.5,14.5 17.5,15.5 17.5,16.5C 15.9275,17.6873 14.2608,18.6873 12.5,19.5C 10.5,19.5 8.5,19.5 6.5,19.5C 4.73915,18.6873 3.07249,17.6873 1.5,16.5C 1.5,15.5 1.5,14.5 1.5,13.5C 2.5,13.5 3.5,13.5 4.5,13.5C 4.26269,12.209 4.59603,11.209 5.5,10.5 Z"/></g>
<g><path style="opacity:1" fill="#c03d2b" d="M 11.5,13.5 C 12.5511,14.2223 13.2178,15.2223 13.5,16.5C 10.8333,16.5 8.16667,16.5 5.5,16.5C 5.5,15.8333 5.5,15.1667 5.5,14.5C 7.02694,14.573 8.02694,13.9063 8.5,12.5C 9.11742,12.3893 9.61742,12.056 10,11.5C 10.2784,12.4158 10.7784,13.0825 11.5,13.5 Z"/></g>
<g><path style="opacity:1" fill="#89241f" d="M 5.5,16.5 C 8.16667,16.5 10.8333,16.5 13.5,16.5C 10.8333,19.1667 8.16667,19.1667 5.5,16.5 Z"/></g>
</svg>
