<?xml version="1.0" encoding="UTF-8"?>
<!DOCTYPE svg PUBLIC "-//W3C//DTD SVG 1.1//EN" "http://www.w3.org/Graphics/SVG/1.1/DTD/svg11.dtd">
<svg xmlns="http://www.w3.org/2000/svg" version="1.1" width="20px" height="17px" style="shape-rendering:geometricPrecision; text-rendering:geometricPrecision; image-rendering:optimizeQuality; fill-rule:evenodd; clip-rule:evenodd" xmlns:xlink="http://www.w3.org/1999/xlink">
<g><path style="opacity:0.366" fill="#0a0a0a" d="M 8.5,0.5 C 10.3904,0.2965 11.8904,0.963167 13,2.5C 14.5795,5.9939 16.4128,9.32724 18.5,12.5C 18.1667,13.1667 17.8333,13.8333 17.5,14.5C -1.04194,18.7208 -4.04194,14.0541 8.5,0.5 Z"/></g>
<g><path style="opacity:1" fill="#e2e1e2" d="M 15.5,11.5 C 13.0336,12.6341 10.367,12.8007 7.5,12C 9.32925,10.8867 10.1626,9.38673 10,7.5C 8.29267,9.03748 6.79267,10.7041 5.5,12.5C 4.50838,12.6716 3.84171,12.3382 3.5,11.5C 5.24167,8.35661 7.24167,5.35661 9.5,2.5C 12.2411,4.97537 14.2411,7.97537 15.5,11.5 Z"/></g>
<g><path style="opacity:0.996" fill="#5f5f5f" d="M 3.5,11.5 C 3.84171,12.3382 4.50838,12.6716 5.5,12.5C 4.6136,13.7759 3.6136,13.7759 2.5,12.5C 2.62358,11.8933 2.95691,11.56 3.5,11.5 Z"/></g>
<g><path style="opacity:1" fill="#696969" d="M 15.5,11.5 C 16.0431,11.56 16.3764,11.8933 16.5,12.5C 12.7897,13.7582 9.12298,13.7582 5.5,12.5C 6.79267,10.7041 8.29267,9.03748 10,7.5C 10.1626,9.38673 9.32925,10.8867 7.5,12C 10.367,12.8007 13.0336,12.6341 15.5,11.5 Z"/></g>
</svg>
