<?xml version="1.0" encoding="UTF-8"?>
<!DOCTYPE svg PUBLIC "-//W3C//DTD SVG 1.1//EN" "http://www.w3.org/Graphics/SVG/1.1/DTD/svg11.dtd">
<svg xmlns="http://www.w3.org/2000/svg" version="1.1" width="20px" height="20px" style="shape-rendering:geometricPrecision; text-rendering:geometricPrecision; image-rendering:optimizeQuality; fill-rule:evenodd; clip-rule:evenodd" xmlns:xlink="http://www.w3.org/1999/xlink">
<g><path style="opacity:0.644" fill="#2c221b" d="M -0.5,-0.5 C 1.83333,-0.5 4.16667,-0.5 6.5,-0.5C 6.5,-0.166667 6.5,0.166667 6.5,0.5C 4.5,0.5 2.5,0.5 0.5,0.5C 0.5,6.5 0.5,12.5 0.5,18.5C 6.5,18.5 12.5,18.5 18.5,18.5C 18.7912,12.077 18.4578,5.74365 17.5,-0.5C 18.1667,-0.5 18.8333,-0.5 19.5,-0.5C 19.5,6.16667 19.5,12.8333 19.5,19.5C 12.8333,19.5 6.16667,19.5 -0.5,19.5C -0.5,12.8333 -0.5,6.16667 -0.5,-0.5 Z"/></g>
<g><path style="opacity:1" fill="#513f38" d="M 6.5,-0.5 C 10.1667,-0.5 13.8333,-0.5 17.5,-0.5C 18.4578,5.74365 18.7912,12.077 18.5,18.5C 12.5,18.5 6.5,18.5 0.5,18.5C 0.5,12.5 0.5,6.5 0.5,0.5C 2.5,0.5 4.5,0.5 6.5,0.5C 6.5,0.166667 6.5,-0.166667 6.5,-0.5 Z"/></g>
<g><path style="opacity:1" fill="#766059" d="M 12.5,0.5 C 14.1172,1.038 15.7839,1.37133 17.5,1.5C 17.5,6.83333 17.5,12.1667 17.5,17.5C 12.1667,17.5 6.83333,17.5 1.5,17.5C 1.5,16.1667 1.5,14.8333 1.5,13.5C 4.49401,14.1542 7.49401,14.8208 10.5,15.5C 12.0451,15.4892 13.3784,15.1558 14.5,14.5C 15.5114,10.8878 15.6781,7.22112 15,3.5C 14.3292,2.74756 13.4959,2.41423 12.5,2.5C 12.5,1.83333 12.5,1.16667 12.5,0.5 Z"/></g>
<g><path style="opacity:1" fill="#97847d" d="M 12.5,2.5 C 13.4959,2.41423 14.3292,2.74756 15,3.5C 15.6781,7.22112 15.5114,10.8878 14.5,14.5C 13.1667,14.5 11.8333,14.5 10.5,14.5C 11.0476,12.6064 12.0476,10.9397 13.5,9.5C 13.3764,8.89333 13.0431,8.55999 12.5,8.5C 12.5,6.5 12.5,4.5 12.5,2.5 Z"/></g>
<g><path style="opacity:1" fill="#826c65" d="M 6.5,1.5 C 6.5,2.5 6.5,3.5 6.5,4.5C 5.5,4.5 4.5,4.5 3.5,4.5C 4.13586,7.10619 4.13586,9.60619 3.5,12C 5.15448,12.6077 6.82115,13.1077 8.5,13.5C 8.84171,14.3382 9.50838,14.6716 10.5,14.5C 11.8333,14.5 13.1667,14.5 14.5,14.5C 13.3784,15.1558 12.0451,15.4892 10.5,15.5C 7.49401,14.8208 4.49401,14.1542 1.5,13.5C 1.33499,10.1501 1.50166,6.81677 2,3.5C 3.04899,1.89339 4.54899,1.22672 6.5,1.5 Z"/></g>
<g><path style="opacity:1" fill="#978279" d="M 6.5,4.5 C 6.5,5.83333 6.5,7.16667 6.5,8.5C 5.95691,8.55999 5.62358,8.89333 5.5,9.5C 6.52435,10.8518 7.52435,12.1851 8.5,13.5C 6.82115,13.1077 5.15448,12.6077 3.5,12C 4.13586,9.60619 4.13586,7.10619 3.5,4.5C 4.5,4.5 5.5,4.5 6.5,4.5 Z"/></g>
<g><path style="opacity:1" fill="#faf7f6" d="M 12.5,8.5 C 13.0431,8.55999 13.3764,8.89333 13.5,9.5C 12.0476,10.9397 11.0476,12.6064 10.5,14.5C 9.50838,14.6716 8.84171,14.3382 8.5,13.5C 7.52435,12.1851 6.52435,10.8518 5.5,9.5C 5.62358,8.89333 5.95691,8.55999 6.5,8.5C 7.46822,6.39263 7.80155,4.0593 7.5,1.5C 8.83333,1.5 10.1667,1.5 11.5,1.5C 11.1984,4.0593 11.5318,6.39263 12.5,8.5 Z"/></g>
<g><path style="opacity:1" fill="#cdbbb5" d="M 6.5,0.5 C 8.5,0.5 10.5,0.5 12.5,0.5C 12.5,1.16667 12.5,1.83333 12.5,2.5C 12.5,4.5 12.5,6.5 12.5,8.5C 11.5318,6.39263 11.1984,4.0593 11.5,1.5C 10.1667,1.5 8.83333,1.5 7.5,1.5C 7.80155,4.0593 7.46822,6.39263 6.5,8.5C 6.5,7.16667 6.5,5.83333 6.5,4.5C 6.5,3.5 6.5,2.5 6.5,1.5C 6.5,1.16667 6.5,0.833333 6.5,0.5 Z"/></g>
</svg>
