<?xml version="1.0" encoding="UTF-8"?>
<!DOCTYPE svg PUBLIC "-//W3C//DTD SVG 1.1//EN" "http://www.w3.org/Graphics/SVG/1.1/DTD/svg11.dtd">
<svg xmlns="http://www.w3.org/2000/svg" version="1.1" width="20px" height="20px" style="shape-rendering:geometricPrecision; text-rendering:geometricPrecision; image-rendering:optimizeQuality; fill-rule:evenodd; clip-rule:evenodd" xmlns:xlink="http://www.w3.org/1999/xlink">
<g><path style="opacity:1" fill="#f8f3f0" d="M 8.5,3.5 C 11.0667,4.71686 13.4,6.38353 15.5,8.5C 16.1098,9.39105 16.4431,10.391 16.5,11.5C 15.5539,14.3126 13.5539,15.646 10.5,15.5C 10.1075,13.7162 9.4408,12.0495 8.5,10.5C 8.02484,8.21632 7.02484,6.21632 5.5,4.5C 6.20895,3.59603 7.20895,3.26269 8.5,3.5 Z"/></g>
<g><path style="opacity:1" fill="#735d53" d="M 3.5,1.5 C 3.16667,3.5 2.83333,5.5 2.5,7.5C 2.32526,9.6208 2.65859,11.6208 3.5,13.5C 5.51451,14.9238 7.84784,15.5905 10.5,15.5C 10.5,16.1667 10.5,16.8333 10.5,17.5C 7.5,17.5 4.5,17.5 1.5,17.5C 1.33418,12.8215 1.50085,8.1548 2,3.5C 2.27842,2.5842 2.77842,1.91753 3.5,1.5 Z"/></g>
<g><path style="opacity:0.573" fill="#2b211b" d="M -0.5,-0.5 C 6.16667,-0.5 12.8333,-0.5 19.5,-0.5C 19.5,4.16667 19.5,8.83333 19.5,13.5C 19.1667,13.5 18.8333,13.5 18.5,13.5C 18.5,13.1667 18.5,12.8333 18.5,12.5C 18.5,8.5 18.5,4.5 18.5,0.5C 13.8333,0.5 9.16667,0.5 4.5,0.5C 3.16667,0.5 1.83333,0.5 0.5,0.5C 0.5,6.5 0.5,12.5 0.5,18.5C 3.83333,18.5 7.16667,18.5 10.5,18.5C 10.5,18.8333 10.5,19.1667 10.5,19.5C 6.83333,19.5 3.16667,19.5 -0.5,19.5C -0.5,12.8333 -0.5,6.16667 -0.5,-0.5 Z"/></g>
<g><path style="opacity:1" fill="#decdc1" d="M 4.5,6.5 C 4.2858,7.93594 4.61913,9.60261 5.5,11.5C 4.83333,12.1667 4.16667,12.8333 3.5,13.5C 2.65859,11.6208 2.32526,9.6208 2.5,7.5C 3.16667,7.16667 3.83333,6.83333 4.5,6.5 Z"/></g>
<g><path style="opacity:1" fill="#ab9a8d" d="M 5.5,4.5 C 7.02484,6.21632 8.02484,8.21632 8.5,10.5C 7.88258,10.3893 7.38258,10.056 7,9.5C 6.72158,10.4158 6.22158,11.0825 5.5,11.5C 4.61913,9.60261 4.2858,7.93594 4.5,6.5C 4.32842,5.50838 4.66175,4.84171 5.5,4.5 Z"/></g>
<g><path style="opacity:1" fill="#624e48" d="M 4.5,1.5 C 4.5,1.16667 4.5,0.833333 4.5,0.5C 9.16667,0.5 13.8333,0.5 18.5,0.5C 18.5,4.5 18.5,8.5 18.5,12.5C 18.1667,12.5 17.8333,12.5 17.5,12.5C 17.5,12.1667 17.5,11.8333 17.5,11.5C 17.9368,8.19338 17.2702,5.19338 15.5,2.5C 11.8927,1.51078 8.22605,1.17744 4.5,1.5 Z"/></g>
<g><path style="opacity:1" fill="#9f8c84" d="M 15.5,8.5 C 13.4,6.38353 11.0667,4.71686 8.5,3.5C 10.5,3.16667 12.5,2.83333 14.5,2.5C 14.5172,4.56475 14.8505,6.56475 15.5,8.5 Z"/></g>
<g><path style="opacity:1" fill="#89746a" d="M 3.5,1.5 C 3.83333,1.5 4.16667,1.5 4.5,1.5C 8.22605,1.17744 11.8927,1.51078 15.5,2.5C 17.2702,5.19338 17.9368,8.19338 17.5,11.5C 17.1667,11.5 16.8333,11.5 16.5,11.5C 16.4431,10.391 16.1098,9.39105 15.5,8.5C 14.8505,6.56475 14.5172,4.56475 14.5,2.5C 12.5,2.83333 10.5,3.16667 8.5,3.5C 7.20895,3.26269 6.20895,3.59603 5.5,4.5C 4.66175,4.84171 4.32842,5.50838 4.5,6.5C 3.83333,6.83333 3.16667,7.16667 2.5,7.5C 2.83333,5.5 3.16667,3.5 3.5,1.5 Z"/></g>
<g><path style="opacity:1" fill="#95817a" d="M 8.5,10.5 C 9.4408,12.0495 10.1075,13.7162 10.5,15.5C 7.84784,15.5905 5.51451,14.9238 3.5,13.5C 4.16667,12.8333 4.83333,12.1667 5.5,11.5C 6.22158,11.0825 6.72158,10.4158 7,9.5C 7.38258,10.056 7.88258,10.3893 8.5,10.5 Z"/></g>
<g><path style="opacity:1" fill="#e4b9ab" d="M 16.5,11.5 C 16.8333,11.5 17.1667,11.5 17.5,11.5C 17.5,11.8333 17.5,12.1667 17.5,12.5C 17.5,14.1667 17.5,15.8333 17.5,17.5C 15.1667,17.5 12.8333,17.5 10.5,17.5C 10.5,16.8333 10.5,16.1667 10.5,15.5C 13.5539,15.646 15.5539,14.3126 16.5,11.5 Z"/></g>
<g><path style="opacity:1" fill="#503e38" d="M 4.5,0.5 C 4.5,0.833333 4.5,1.16667 4.5,1.5C 4.16667,1.5 3.83333,1.5 3.5,1.5C 2.77842,1.91753 2.27842,2.5842 2,3.5C 1.50085,8.1548 1.33418,12.8215 1.5,17.5C 4.5,17.5 7.5,17.5 10.5,17.5C 10.5,17.8333 10.5,18.1667 10.5,18.5C 7.16667,18.5 3.83333,18.5 0.5,18.5C 0.5,12.5 0.5,6.5 0.5,0.5C 1.83333,0.5 3.16667,0.5 4.5,0.5 Z"/></g>
<g><path style="opacity:1" fill="#9b7566" d="M 17.5,12.5 C 17.8333,12.5 18.1667,12.5 18.5,12.5C 18.5,12.8333 18.5,13.1667 18.5,13.5C 18.5,15.1667 18.5,16.8333 18.5,18.5C 15.8333,18.5 13.1667,18.5 10.5,18.5C 10.5,18.1667 10.5,17.8333 10.5,17.5C 12.8333,17.5 15.1667,17.5 17.5,17.5C 17.5,15.8333 17.5,14.1667 17.5,12.5 Z"/></g>
<g><path style="opacity:0.643" fill="#4b3829" d="M 18.5,13.5 C 18.8333,13.5 19.1667,13.5 19.5,13.5C 19.5,15.5 19.5,17.5 19.5,19.5C 16.5,19.5 13.5,19.5 10.5,19.5C 10.5,19.1667 10.5,18.8333 10.5,18.5C 13.1667,18.5 15.8333,18.5 18.5,18.5C 18.5,16.8333 18.5,15.1667 18.5,13.5 Z"/></g>
</svg>
