<?xml version="1.0" encoding="UTF-8"?>
<!DOCTYPE svg PUBLIC "-//W3C//DTD SVG 1.1//EN" "http://www.w3.org/Graphics/SVG/1.1/DTD/svg11.dtd">
<svg xmlns="http://www.w3.org/2000/svg" version="1.1" width="20px" height="20px" style="shape-rendering:geometricPrecision; text-rendering:geometricPrecision; image-rendering:optimizeQuality; fill-rule:evenodd; clip-rule:evenodd" xmlns:xlink="http://www.w3.org/1999/xlink">
<g><path style="opacity:1" fill="#8a746d" d="M 3.5,1.5 C 3.83333,1.5 4.16667,1.5 4.5,1.5C 8.16667,1.5 11.8333,1.5 15.5,1.5C 15.5,2.83333 15.5,4.16667 15.5,5.5C 11.5,1.5 7.5,1.5 3.5,5.5C 3.5,4.16667 3.5,2.83333 3.5,1.5 Z"/></g>
<g><path style="opacity:1" fill="#ebe6e1" d="M 15.5,5.5 C 17.1554,9.22394 16.4887,12.5573 13.5,15.5C 12.5386,13.7354 12.2053,11.7354 12.5,9.5C 11.8333,8.16667 10.8333,7.16667 9.5,6.5C 7.5328,6.26057 5.69946,6.59391 4,7.5C 3.53566,6.90558 3.36899,6.23891 3.5,5.5C 7.5,1.5 11.5,1.5 15.5,5.5 Z"/></g>
<g><path style="opacity:1" fill="#7c645b" d="M 15.5,1.5 C 17.369,3.63528 18.0356,6.30195 17.5,9.5C 17.5,11.1667 17.5,12.8333 17.5,14.5C 16.5284,16.4931 15.1951,16.8264 13.5,15.5C 16.4887,12.5573 17.1554,9.22394 15.5,5.5C 15.5,4.16667 15.5,2.83333 15.5,1.5 Z"/></g>
<g><path style="opacity:1" fill="#614d47" d="M 4.5,1.5 C 4.5,1.16667 4.5,0.833333 4.5,0.5C 6.16667,0.5 7.83333,0.5 9.5,0.5C 12.5,0.5 15.5,0.5 18.5,0.5C 18.5,3.5 18.5,6.5 18.5,9.5C 18.1667,9.5 17.8333,9.5 17.5,9.5C 18.0356,6.30195 17.369,3.63528 15.5,1.5C 11.8333,1.5 8.16667,1.5 4.5,1.5 Z"/></g>
<g><path style="opacity:0.643" fill="#312720" d="M 9.5,0.5 C 9.5,0.166667 9.5,-0.166667 9.5,-0.5C 12.8333,-0.5 16.1667,-0.5 19.5,-0.5C 19.5,4.83333 19.5,10.1667 19.5,15.5C 19.1667,15.5 18.8333,15.5 18.5,15.5C 18.5,13.5 18.5,11.5 18.5,9.5C 18.5,6.5 18.5,3.5 18.5,0.5C 15.5,0.5 12.5,0.5 9.5,0.5 Z"/></g>
<g><path style="opacity:0.573" fill="#2a201b" d="M -0.5,-0.5 C 2.83333,-0.5 6.16667,-0.5 9.5,-0.5C 9.5,-0.166667 9.5,0.166667 9.5,0.5C 7.83333,0.5 6.16667,0.5 4.5,0.5C 3.16667,0.5 1.83333,0.5 0.5,0.5C 0.5,4.83333 0.5,9.16667 0.5,13.5C 0.5,15.1667 0.5,16.8333 0.5,18.5C 1.5,18.5 2.5,18.5 3.5,18.5C 3.5,18.8333 3.5,19.1667 3.5,19.5C 2.16667,19.5 0.833333,19.5 -0.5,19.5C -0.5,12.8333 -0.5,6.16667 -0.5,-0.5 Z"/></g>
<g><path style="opacity:1" fill="#beb0a7" d="M 9.5,6.5 C 10.8333,7.16667 11.8333,8.16667 12.5,9.5C 12.1667,9.5 11.8333,9.5 11.5,9.5C 9.6208,8.65859 7.6208,8.32526 5.5,8.5C 6.83333,7.83333 8.16667,7.16667 9.5,6.5 Z"/></g>
<g><path style="opacity:1" fill="#86716a" d="M 3.5,1.5 C 3.5,2.83333 3.5,4.16667 3.5,5.5C 3.36899,6.23891 3.53566,6.90558 4,7.5C 5.69946,6.59391 7.5328,6.26057 9.5,6.5C 8.16667,7.16667 6.83333,7.83333 5.5,8.5C 4.56552,9.56764 4.23219,10.901 4.5,12.5C 3.83333,12.1667 3.16667,11.8333 2.5,11.5C 2.16667,11.5 1.83333,11.5 1.5,11.5C 1.33591,8.8127 1.50258,6.14603 2,3.5C 2.27842,2.5842 2.77842,1.91753 3.5,1.5 Z"/></g>
<g><path style="opacity:1" fill="#f1eeed" d="M 5.5,8.5 C 7.6208,8.32526 9.6208,8.65859 11.5,9.5C 11.7692,11.4286 11.2692,13.0953 10,14.5C 9.51722,13.552 9.35055,12.552 9.5,11.5C 8.16667,10.5 6.83333,9.5 5.5,8.5 Z"/></g>
<g><path style="opacity:1" fill="#52413a" d="M 4.5,0.5 C 4.5,0.833333 4.5,1.16667 4.5,1.5C 4.16667,1.5 3.83333,1.5 3.5,1.5C 2.77842,1.91753 2.27842,2.5842 2,3.5C 1.50258,6.14603 1.33591,8.8127 1.5,11.5C 1.5,12.1667 1.5,12.8333 1.5,13.5C 1.16667,13.5 0.833333,13.5 0.5,13.5C 0.5,9.16667 0.5,4.83333 0.5,0.5C 1.83333,0.5 3.16667,0.5 4.5,0.5 Z"/></g>
<g><path style="opacity:1" fill="#c1b5ae" d="M 5.5,8.5 C 6.83333,9.5 8.16667,10.5 9.5,11.5C 8.77842,11.9175 8.27842,12.5842 8,13.5C 7.61742,12.944 7.11742,12.6107 6.5,12.5C 5.83333,12.5 5.16667,12.5 4.5,12.5C 4.23219,10.901 4.56552,9.56764 5.5,8.5 Z"/></g>
<g><path style="opacity:1" fill="#7f6961" d="M 2.5,11.5 C 3.16667,11.8333 3.83333,12.1667 4.5,12.5C 5.16667,12.5 5.83333,12.5 6.5,12.5C 7.59074,14.5342 9.25741,15.8676 11.5,16.5C 9.43525,16.4828 7.43525,16.1495 5.5,15.5C 4.79105,14.596 3.79105,14.2627 2.5,14.5C 2.5,13.5 2.5,12.5 2.5,11.5 Z"/></g>
<g><path style="opacity:1" fill="#68514a" d="M 1.5,11.5 C 1.83333,11.5 2.16667,11.5 2.5,11.5C 2.5,12.5 2.5,13.5 2.5,14.5C 3.79105,14.2627 4.79105,14.596 5.5,15.5C 5.83333,16.1667 6.16667,16.8333 6.5,17.5C 4.83333,17.5 3.16667,17.5 1.5,17.5C 1.5,16.1667 1.5,14.8333 1.5,13.5C 1.5,12.8333 1.5,12.1667 1.5,11.5 Z"/></g>
<g><path style="opacity:1" fill="#9c887e" d="M 11.5,9.5 C 11.8333,9.5 12.1667,9.5 12.5,9.5C 12.2053,11.7354 12.5386,13.7354 13.5,15.5C 13.1583,16.3382 12.4916,16.6716 11.5,16.5C 9.25741,15.8676 7.59074,14.5342 6.5,12.5C 7.11742,12.6107 7.61742,12.944 8,13.5C 8.27842,12.5842 8.77842,11.9175 9.5,11.5C 9.35055,12.552 9.51722,13.552 10,14.5C 11.2692,13.0953 11.7692,11.4286 11.5,9.5 Z"/></g>
<g><path style="opacity:1" fill="#513f38" d="M 17.5,9.5 C 17.8333,9.5 18.1667,9.5 18.5,9.5C 18.5,11.5 18.5,13.5 18.5,15.5C 18.5,16.5 18.5,17.5 18.5,18.5C 13.5,18.5 8.5,18.5 3.5,18.5C 2.5,18.5 1.5,18.5 0.5,18.5C 0.5,16.8333 0.5,15.1667 0.5,13.5C 0.833333,13.5 1.16667,13.5 1.5,13.5C 1.5,14.8333 1.5,16.1667 1.5,17.5C 3.16667,17.5 4.83333,17.5 6.5,17.5C 10.1667,17.5 13.8333,17.5 17.5,17.5C 17.5,16.5 17.5,15.5 17.5,14.5C 17.5,12.8333 17.5,11.1667 17.5,9.5 Z"/></g>
<g><path style="opacity:1" fill="#6a554d" d="M 17.5,14.5 C 17.5,15.5 17.5,16.5 17.5,17.5C 13.8333,17.5 10.1667,17.5 6.5,17.5C 6.16667,16.8333 5.83333,16.1667 5.5,15.5C 7.43525,16.1495 9.43525,16.4828 11.5,16.5C 12.4916,16.6716 13.1583,16.3382 13.5,15.5C 15.1951,16.8264 16.5284,16.4931 17.5,14.5 Z"/></g>
<g><path style="opacity:0.644" fill="#2c221a" d="M 18.5,15.5 C 18.8333,15.5 19.1667,15.5 19.5,15.5C 19.5,16.8333 19.5,18.1667 19.5,19.5C 14.1667,19.5 8.83333,19.5 3.5,19.5C 3.5,19.1667 3.5,18.8333 3.5,18.5C 8.5,18.5 13.5,18.5 18.5,18.5C 18.5,17.5 18.5,16.5 18.5,15.5 Z"/></g>
</svg>
