<?xml version="1.0" encoding="UTF-8"?>
<!DOCTYPE svg PUBLIC "-//W3C//DTD SVG 1.1//EN" "http://www.w3.org/Graphics/SVG/1.1/DTD/svg11.dtd">
<svg xmlns="http://www.w3.org/2000/svg" version="1.1" width="20px" height="20px" style="shape-rendering:geometricPrecision; text-rendering:geometricPrecision; image-rendering:optimizeQuality; fill-rule:evenodd; clip-rule:evenodd" xmlns:xlink="http://www.w3.org/1999/xlink">
<g><path style="opacity:0.024" fill="#161616" d="M 2.5,-0.5 C 4.5,-0.5 6.5,-0.5 8.5,-0.5C 8.83333,0.833333 9.16667,0.833333 9.5,-0.5C 10.1667,-0.5 10.8333,-0.5 11.5,-0.5C 11.5,-0.166667 11.5,0.166667 11.5,0.5C 11.5,1.16667 11.1667,1.5 10.5,1.5C 9.83333,1.83333 9.16667,2.16667 8.5,2.5C 8.5,1.83333 8.16667,1.5 7.5,1.5C 6.29177,0.217975 4.95844,0.217975 3.5,1.5C 2.04756,2.93972 1.04756,4.60638 0.5,6.5C 0.166667,6.5 -0.166667,6.5 -0.5,6.5C -0.5,5.16667 -0.5,3.83333 -0.5,2.5C 1.5,2.5 2.5,1.5 2.5,-0.5 Z"/></g>
<g><path style="opacity:0.325" fill="#1b1b1b" d="M 11.5,0.5 C 11.5,0.166667 11.5,-0.166667 11.5,-0.5C 12.8333,-0.5 14.1667,-0.5 15.5,-0.5C 16.1667,0.5 16.8333,1.5 17.5,2.5C 17.5,3.16667 17.5,3.83333 17.5,4.5C 16.8333,4.16667 16.1667,3.83333 15.5,3.5C 15.3059,1.08824 13.9726,0.0882357 11.5,0.5 Z"/></g>
<g><path style="opacity:1" fill="#acabac" d="M 11.5,0.5 C 13.9726,0.0882357 15.3059,1.08824 15.5,3.5C 14.609,2.89022 13.609,2.55688 12.5,2.5C 11.8333,2.5 11.1667,2.5 10.5,2.5C 10.5,2.16667 10.5,1.83333 10.5,1.5C 11.1667,1.5 11.5,1.16667 11.5,0.5 Z"/></g>
<g><path style="opacity:1" fill="#eeeeee" d="M 7.5,1.5 C 7.94649,4.01011 7.27983,6.01011 5.5,7.5C 4.5,7.5 3.5,7.5 2.5,7.5C 2.76373,4.24286 4.43039,2.24286 7.5,1.5 Z"/></g>
<g><path style="opacity:1" fill="#d9d9d9" d="M 12.5,2.5 C 13.609,2.55688 14.609,2.89022 15.5,3.5C 15.634,5.29152 15.3007,6.95819 14.5,8.5C 13.8333,8.5 13.1667,8.5 12.5,8.5C 13.2751,6.61186 13.2751,4.61186 12.5,2.5 Z"/></g>
<g><path style="opacity:0.037" fill="#010101" d="M 17.5,2.5 C 18.1667,2.5 18.8333,2.5 19.5,2.5C 19.5,4.5 19.5,6.5 19.5,8.5C 19.1667,8.5 18.8333,8.5 18.5,8.5C 18.7678,6.90097 18.4345,5.56764 17.5,4.5C 17.5,3.83333 17.5,3.16667 17.5,2.5 Z"/></g>
<g><path style="opacity:1" fill="#a7a8a7" d="M 7.5,1.5 C 4.43039,2.24286 2.76373,4.24286 2.5,7.5C 3.5,7.5 4.5,7.5 5.5,7.5C 5.5,7.83333 5.5,8.16667 5.5,8.5C 4.5,8.5 3.5,8.5 2.5,8.5C 1.5,8.16667 0.833333,7.5 0.5,6.5C 1.04756,4.60638 2.04756,2.93972 3.5,1.5C 4.95844,0.217975 6.29177,0.217975 7.5,1.5 Z"/></g>
<g><path style="opacity:1" fill="#e2e4e2" d="M 10.5,2.5 C 11.1667,2.5 11.8333,2.5 12.5,2.5C 13.2751,4.61186 13.2751,6.61186 12.5,8.5C 11.8333,8.5 11.1667,8.5 10.5,8.5C 10.5,8.16667 10.5,7.83333 10.5,7.5C 10.5,5.83333 10.5,4.16667 10.5,2.5 Z"/></g>
<g><path style="opacity:1" fill="#b5b6b5" d="M 15.5,3.5 C 16.1667,3.83333 16.8333,4.16667 17.5,4.5C 17.5674,5.95875 17.2341,7.29208 16.5,8.5C 15.8333,8.5 15.1667,8.5 14.5,8.5C 15.3007,6.95819 15.634,5.29152 15.5,3.5 Z"/></g>
<g><path style="opacity:0.631" fill="#2b2b2b" d="M 10.5,1.5 C 10.5,1.83333 10.5,2.16667 10.5,2.5C 10.5,4.16667 10.5,5.83333 10.5,7.5C 9.83333,7.83333 9.16667,8.16667 8.5,8.5C 8.5,6.5 8.5,4.5 8.5,2.5C 9.16667,2.16667 9.83333,1.83333 10.5,1.5 Z"/></g>
<g><path style="opacity:0.027" fill="#0a0b0a" d="M -0.5,6.5 C -0.166667,6.5 0.166667,6.5 0.5,6.5C 0.833333,7.5 1.5,8.16667 2.5,8.5C 2.16667,9.16667 1.83333,9.83333 1.5,10.5C 0.833333,11.1667 0.166667,11.8333 -0.5,12.5C -0.5,11.5 -0.5,10.5 -0.5,9.5C 0.833333,9.16667 0.833333,8.83333 -0.5,8.5C -0.5,7.83333 -0.5,7.16667 -0.5,6.5 Z"/></g>
<g><path style="opacity:0.996" fill="#c8c8c8" d="M 7.5,1.5 C 8.16667,1.5 8.5,1.83333 8.5,2.5C 8.5,4.5 8.5,6.5 8.5,8.5C 7.5,8.5 6.5,8.5 5.5,8.5C 5.5,8.16667 5.5,7.83333 5.5,7.5C 7.27983,6.01011 7.94649,4.01011 7.5,1.5 Z"/></g>
<g><path style="opacity:0.044" fill="#1d1d1d" d="M 17.5,4.5 C 18.4345,5.56764 18.7678,6.90097 18.5,8.5C 18.5,9.16667 18.5,9.83333 18.5,10.5C 18.7678,12.099 18.4345,13.4324 17.5,14.5C 17.5674,13.0413 17.2341,11.7079 16.5,10.5C 16.5,9.83333 16.5,9.16667 16.5,8.5C 17.2341,7.29208 17.5674,5.95875 17.5,4.5 Z"/></g>
<g><path style="opacity:0.804" fill="#3b3d3b" d="M 2.5,8.5 C 3.5,8.5 4.5,8.5 5.5,8.5C 6.5,8.5 7.5,8.5 8.5,8.5C 7.83333,9.16667 7.16667,9.83333 6.5,10.5C 6.16667,10.5 5.83333,10.5 5.5,10.5C 4.16667,10.5 2.83333,10.5 1.5,10.5C 1.83333,9.83333 2.16667,9.16667 2.5,8.5 Z"/></g>
<g><path style="opacity:0.998" fill="#b9bab9" d="M 10.5,7.5 C 10.5,7.83333 10.5,8.16667 10.5,8.5C 10.8333,9.16667 11.1667,9.83333 11.5,10.5C 10.8333,10.5 10.5,10.8333 10.5,11.5C 9.83333,11.1667 9.16667,10.8333 8.5,10.5C 7.83333,10.5 7.16667,10.5 6.5,10.5C 7.16667,9.83333 7.83333,9.16667 8.5,8.5C 9.16667,8.16667 9.83333,7.83333 10.5,7.5 Z"/></g>
<g><path style="opacity:0.467" fill="#353635" d="M 10.5,8.5 C 11.1667,8.5 11.8333,8.5 12.5,8.5C 13.1667,8.5 13.8333,8.5 14.5,8.5C 15.1667,8.5 15.8333,8.5 16.5,8.5C 16.5,9.16667 16.5,9.83333 16.5,10.5C 15.5,10.5 14.5,10.5 13.5,10.5C 12.8333,10.5 12.1667,10.5 11.5,10.5C 11.1667,9.83333 10.8333,9.16667 10.5,8.5 Z"/></g>
<g><path style="opacity:0.996" fill="#d2d2d2" d="M 5.5,10.5 C 5.83333,10.5 6.16667,10.5 6.5,10.5C 7.16667,10.5 7.83333,10.5 8.5,10.5C 8.5,12.5 8.5,14.5 8.5,16.5C 8.16667,16.5 7.83333,16.5 7.5,16.5C 7.7475,14.1417 7.08083,12.1417 5.5,10.5 Z"/></g>
<g><path style="opacity:1" fill="#e8ece8" d="M 11.5,10.5 C 12.1667,10.5 12.8333,10.5 13.5,10.5C 13.5,11.1667 13.5,11.8333 13.5,12.5C 12.8333,12.5 12.5,12.8333 12.5,13.5C 11.8333,13.5 11.1667,13.5 10.5,13.5C 10.5,12.8333 10.5,12.1667 10.5,11.5C 10.5,10.8333 10.8333,10.5 11.5,10.5 Z"/></g>
<g><path style="opacity:0.995" fill="#c2c5c2" d="M 13.5,10.5 C 14.5,10.5 15.5,10.5 16.5,10.5C 17.2341,11.7079 17.5674,13.0413 17.5,14.5C 16.8333,14.5 16.1667,14.5 15.5,14.5C 15.5,13.1667 14.8333,12.5 13.5,12.5C 13.5,11.8333 13.5,11.1667 13.5,10.5 Z"/></g>
<g><path style="opacity:1" fill="#dedfde" d="M 1.5,10.5 C 2.83333,10.5 4.16667,10.5 5.5,10.5C 7.08083,12.1417 7.7475,14.1417 7.5,16.5C 3.14366,17.4862 1.14366,15.4862 1.5,10.5 Z"/></g>
<g><path style="opacity:1" fill="#dedfde" d="M 13.5,12.5 C 14.8333,12.5 15.5,13.1667 15.5,14.5C 15.1667,15.5 14.5,16.1667 13.5,16.5C 12.596,15.791 12.2627,14.791 12.5,13.5C 12.5,12.8333 12.8333,12.5 13.5,12.5 Z"/></g>
<g><path style="opacity:0.997" fill="#d5d5d5" d="M 10.5,13.5 C 11.1667,13.5 11.8333,13.5 12.5,13.5C 12.2627,14.791 12.596,15.791 13.5,16.5C 13.1583,17.3382 12.4916,17.6716 11.5,17.5C 10.7659,16.2921 10.4326,14.9587 10.5,13.5 Z"/></g>
<g><path style="opacity:0.314" fill="#242324" d="M 1.5,10.5 C 1.14366,15.4862 3.14366,17.4862 7.5,16.5C 7.83333,16.5 8.16667,16.5 8.5,16.5C 8.5,17.1667 8.5,17.8333 8.5,18.5C 8.5,18.8333 8.5,19.1667 8.5,19.5C 6.5,19.5 4.5,19.5 2.5,19.5C 2.53235,17.3812 1.53235,16.0478 -0.5,15.5C -0.5,14.5 -0.5,13.5 -0.5,12.5C 0.166667,11.8333 0.833333,11.1667 1.5,10.5 Z"/></g>
<g><path style="opacity:0.639" fill="#3a3a3a" d="M 8.5,10.5 C 9.16667,10.8333 9.83333,11.1667 10.5,11.5C 10.5,12.1667 10.5,12.8333 10.5,13.5C 10.4326,14.9587 10.7659,16.2921 11.5,17.5C 10.391,17.4431 9.39105,17.1098 8.5,16.5C 8.5,14.5 8.5,12.5 8.5,10.5 Z"/></g>
<g><path style="opacity:0.046" fill="#161616" d="M 18.5,10.5 C 18.8333,10.5 19.1667,10.5 19.5,10.5C 19.5,12.1667 19.5,13.8333 19.5,15.5C 17.2901,15.894 15.9568,17.2273 15.5,19.5C 13.8333,19.5 12.1667,19.5 10.5,19.5C 10.1583,18.6618 9.49162,18.3284 8.5,18.5C 8.5,17.8333 8.5,17.1667 8.5,16.5C 9.39105,17.1098 10.391,17.4431 11.5,17.5C 12.4916,17.6716 13.1583,17.3382 13.5,16.5C 14.5,16.1667 15.1667,15.5 15.5,14.5C 16.1667,14.5 16.8333,14.5 17.5,14.5C 18.4345,13.4324 18.7678,12.099 18.5,10.5 Z"/></g>
</svg>
