<?xml version="1.0" encoding="UTF-8"?>
<!DOCTYPE svg PUBLIC "-//W3C//DTD SVG 1.1//EN" "http://www.w3.org/Graphics/SVG/1.1/DTD/svg11.dtd">
<svg xmlns="http://www.w3.org/2000/svg" version="1.1" width="20px" height="20px" style="shape-rendering:geometricPrecision; text-rendering:geometricPrecision; image-rendering:optimizeQuality; fill-rule:evenodd; clip-rule:evenodd" xmlns:xlink="http://www.w3.org/1999/xlink">
<g><path style="opacity:0.047" fill="#150c01" d="M 6.5,-0.5 C 8.5,-0.5 10.5,-0.5 12.5,-0.5C 14.2608,0.312714 15.9275,1.31271 17.5,2.5C 17.5,2.83333 17.5,3.16667 17.5,3.5C 16.391,3.44312 15.391,3.10978 14.5,2.5C 14.1667,2.5 13.8333,2.5 13.5,2.5C 10.8333,-0.166667 8.16667,-0.166667 5.5,2.5C 4.39105,2.55688 3.39105,2.89022 2.5,3.5C 1.52333,6.2869 1.19,9.2869 1.5,12.5C 1.5,14.5 1.5,16.5 1.5,18.5C 1.5,18.8333 1.5,19.1667 1.5,19.5C 0.833333,19.5 0.166667,19.5 -0.5,19.5C -0.5,14.5 -0.5,9.5 -0.5,4.5C 1.30157,2.0983 3.6349,0.431637 6.5,-0.5 Z"/></g>
<g><path style="opacity:1" fill="#a56d26" d="M 13.5,2.5 C 12.5084,2.32842 11.8417,2.66175 11.5,3.5C 10.1667,2.16667 8.83333,2.16667 7.5,3.5C 7.15829,2.66175 6.49162,2.32842 5.5,2.5C 8.16667,-0.166667 10.8333,-0.166667 13.5,2.5 Z"/></g>
<g><path style="opacity:1" fill="#be7109" d="M 5.5,2.5 C 6.49162,2.32842 7.15829,2.66175 7.5,3.5C 7.5,3.83333 7.5,4.16667 7.5,4.5C 6.83333,6.83333 6.16667,9.16667 5.5,11.5C 4.90451,8.88747 4.07117,8.88747 3,11.5C 2.50258,8.85397 2.33591,6.1873 2.5,3.5C 3.39105,2.89022 4.39105,2.55688 5.5,2.5 Z"/></g>
<g><path style="opacity:0.249" fill="#100800" d="M 17.5,2.5 C 18.1667,2.5 18.8333,2.5 19.5,2.5C 19.5,8.16667 19.5,13.8333 19.5,19.5C 18.8333,19.5 18.1667,19.5 17.5,19.5C 17.5,19.1667 17.5,18.8333 17.5,18.5C 17.5,17.1667 17.5,15.8333 17.5,14.5C 17.5,10.8333 17.5,7.16667 17.5,3.5C 17.5,3.16667 17.5,2.83333 17.5,2.5 Z"/></g>
<g><path style="opacity:1" fill="#fefcf9" d="M 11.5,3.5 C 11.5,3.83333 11.5,4.16667 11.5,4.5C 11.5,6.83333 11.5,9.16667 11.5,11.5C 10.1667,11.5 8.83333,11.5 7.5,11.5C 7.5,9.16667 7.5,6.83333 7.5,4.5C 7.5,4.16667 7.5,3.83333 7.5,3.5C 8.83333,2.16667 10.1667,2.16667 11.5,3.5 Z"/></g>
<g><path style="opacity:1" fill="#a9670f" d="M 14.5,2.5 C 15.391,3.10978 16.391,3.44312 17.5,3.5C 17.5,7.16667 17.5,10.8333 17.5,14.5C 16.7784,14.9175 16.2784,15.5842 16,16.5C 14.2933,15.8617 12.46,15.8617 10.5,16.5C 10.5,15.5 10.5,14.5 10.5,13.5C 11.791,13.7373 12.791,13.404 13.5,12.5C 14.1499,12.8039 14.8165,13.1373 15.5,13.5C 16.8213,9.6369 16.488,5.97024 14.5,2.5 Z"/></g>
<g><path style="opacity:1" fill="#cd7807" d="M 13.5,2.5 C 13.8333,2.5 14.1667,2.5 14.5,2.5C 16.488,5.97024 16.8213,9.6369 15.5,13.5C 14.8165,13.1373 14.1499,12.8039 13.5,12.5C 12.9216,9.71956 12.2549,7.0529 11.5,4.5C 11.5,4.16667 11.5,3.83333 11.5,3.5C 11.8417,2.66175 12.5084,2.32842 13.5,2.5 Z"/></g>
<g><path style="opacity:1" fill="#e9d0b0" d="M 7.5,4.5 C 7.5,6.83333 7.5,9.16667 7.5,11.5C 8.83333,11.5 10.1667,11.5 11.5,11.5C 11.5,9.16667 11.5,6.83333 11.5,4.5C 12.2549,7.0529 12.9216,9.71956 13.5,12.5C 12.791,13.404 11.791,13.7373 10.5,13.5C 10.5,14.5 10.5,15.5 10.5,16.5C 10.5,17.1667 10.5,17.8333 10.5,18.5C 9.50838,18.6716 8.84171,18.3382 8.5,17.5C 8.5,17.1667 8.5,16.8333 8.5,16.5C 8.5,15.5 8.5,14.5 8.5,13.5C 6.82124,13.7148 5.82124,13.0481 5.5,11.5C 6.16667,9.16667 6.83333,6.83333 7.5,4.5 Z"/></g>
<g><path style="opacity:1" fill="#a7660e" d="M 2.5,3.5 C 2.33591,6.1873 2.50258,8.85397 3,11.5C 4.07117,8.88747 4.90451,8.88747 5.5,11.5C 5.82124,13.0481 6.82124,13.7148 8.5,13.5C 8.5,14.5 8.5,15.5 8.5,16.5C 6.5,16.1667 4.5,15.8333 2.5,15.5C 2.73731,14.209 2.40397,13.209 1.5,12.5C 1.19,9.2869 1.52333,6.2869 2.5,3.5 Z"/></g>
<g><path style="opacity:1" fill="#7c4c0f" d="M 1.5,12.5 C 2.40397,13.209 2.73731,14.209 2.5,15.5C 4.5,15.8333 6.5,16.1667 8.5,16.5C 8.5,16.8333 8.5,17.1667 8.5,17.5C 6.28298,18.3686 3.94965,18.702 1.5,18.5C 1.5,16.5 1.5,14.5 1.5,12.5 Z"/></g>
<g><path style="opacity:1" fill="#845311" d="M 17.5,14.5 C 17.5,15.8333 17.5,17.1667 17.5,18.5C 15.1667,18.5 12.8333,18.5 10.5,18.5C 10.5,17.8333 10.5,17.1667 10.5,16.5C 12.46,15.8617 14.2933,15.8617 16,16.5C 16.2784,15.5842 16.7784,14.9175 17.5,14.5 Z"/></g>
<g><path style="opacity:0.961" fill="#352313" d="M 8.5,17.5 C 8.84171,18.3382 9.50838,18.6716 10.5,18.5C 12.8333,18.5 15.1667,18.5 17.5,18.5C 17.5,18.8333 17.5,19.1667 17.5,19.5C 12.1667,19.5 6.83333,19.5 1.5,19.5C 1.5,19.1667 1.5,18.8333 1.5,18.5C 3.94965,18.702 6.28298,18.3686 8.5,17.5 Z"/></g>
</svg>
