<?xml version="1.0" encoding="UTF-8"?>
<!DOCTYPE svg PUBLIC "-//W3C//DTD SVG 1.1//EN" "http://www.w3.org/Graphics/SVG/1.1/DTD/svg11.dtd">
<svg xmlns="http://www.w3.org/2000/svg" version="1.1" width="48px" height="42px" style="shape-rendering:geometricPrecision; text-rendering:geometricPrecision; image-rendering:optimizeQuality; fill-rule:evenodd; clip-rule:evenodd" xmlns:xlink="http://www.w3.org/1999/xlink">
<g><path style="opacity:0.15" fill="#080100" d="M 1.5,-0.5 C 13.8333,-0.5 26.1667,-0.5 38.5,-0.5C 39.6463,12.4247 39.813,25.4247 39,38.5C 37.5913,39.7811 36.0913,40.7811 34.5,41.5C 24.8333,41.5 15.1667,41.5 5.5,41.5C 3.41228,40.7992 1.41228,39.7992 -0.5,38.5C -0.5,26.1667 -0.5,13.8333 -0.5,1.5C 0.5,1.16667 1.16667,0.5 1.5,-0.5 Z"/></g>
<g><path style="opacity:0.941" fill="#7f5029" d="M 3.5,2.5 C 14.5,2.5 25.5,2.5 36.5,2.5C 36.6665,13.1719 36.4998,23.8385 36,34.5C 25.2483,35.487 14.415,35.8203 3.5,35.5C 3.5,24.5 3.5,13.5 3.5,2.5 Z"/></g>
<g><path style="opacity:1" fill="#e5bb83" d="M 34.5,33.5 C 34.5,33.1667 34.5,32.8333 34.5,32.5C 34.5,23.1667 34.5,13.8333 34.5,4.5C 27.1667,4.5 19.8333,4.5 12.5,4.5C 10.1667,4.5 7.83333,4.5 5.5,4.5C 5.17311,14.015 5.50644,23.3483 6.5,32.5C 6.5,32.8333 6.5,33.1667 6.5,33.5C 4.52565,23.8893 3.85899,13.8893 4.5,3.5C 14.8333,3.5 25.1667,3.5 35.5,3.5C 35.8274,13.6806 35.494,23.6806 34.5,33.5 Z"/></g>
<g><path style="opacity:1" fill="#e8dba5" d="M 31.5,28.5 C 31.1667,28.5 30.8333,28.5 30.5,28.5C 23.5762,30.4633 16.2428,31.1299 8.5,30.5C 8.5,30.1667 8.5,29.8333 8.5,29.5C 8.5,22.1667 8.5,14.8333 8.5,7.5C 16.4792,6.77581 24.4792,6.44248 32.5,6.5C 31.8822,13.8174 31.5488,21.1507 31.5,28.5 Z"/></g>
<g><path style="opacity:1" fill="#fbf9dd" d="M 12.5,4.5 C 19.8333,4.5 27.1667,4.5 34.5,4.5C 34.5,13.8333 34.5,23.1667 34.5,32.5C 32.0882,32.3059 31.0882,30.9726 31.5,28.5C 31.5488,21.1507 31.8822,13.8174 32.5,6.5C 24.4792,6.44248 16.4792,6.77581 8.5,7.5C 8.5,14.8333 8.5,22.1667 8.5,29.5C 7.50797,22.0182 7.17464,14.3516 7.5,6.5C 9.78121,6.92271 11.4479,6.25605 12.5,4.5 Z"/></g>
<g><path style="opacity:1" fill="#db720b" d="M 29.5,13.5 C 28.4157,12.0262 27.0824,11.1929 25.5,11C 22.9302,13.114 20.5968,15.4473 18.5,18C 19.624,18.2492 20.624,18.7492 21.5,19.5C 20.0451,21.2199 19.2117,23.2199 19,25.5C 17.7496,26.5733 16.4162,26.5733 15,25.5C 13.699,25.6387 12.8656,26.3054 12.5,27.5C 11.7784,27.0825 11.2784,26.4158 11,25.5C 10.5006,20.1771 10.334,14.8437 10.5,9.5C 16.8333,9.5 23.1667,9.5 29.5,9.5C 29.5,10.8333 29.5,12.1667 29.5,13.5 Z"/></g>
<g><path style="opacity:1" fill="#dc9f49" d="M 30.5,15.5 C 30.1667,15.5 29.8333,15.5 29.5,15.5C 29.5,14.8333 29.5,14.1667 29.5,13.5C 29.5,12.1667 29.5,10.8333 29.5,9.5C 23.1667,9.5 16.8333,9.5 10.5,9.5C 10.334,14.8437 10.5006,20.1771 11,25.5C 11.2784,26.4158 11.7784,27.0825 12.5,27.5C 12.5,27.8333 12.5,28.1667 12.5,28.5C 11.5041,28.5858 10.6708,28.2524 10,27.5C 9.50046,21.1754 9.33379,14.8421 9.5,8.5C 16.5,8.5 23.5,8.5 30.5,8.5C 30.5,10.8333 30.5,13.1667 30.5,15.5 Z"/></g>
<g><path style="opacity:1" fill="#b15807" d="M 29.5,13.5 C 29.5,14.1667 29.5,14.8333 29.5,15.5C 29.8242,19.5546 29.4909,23.5546 28.5,27.5C 23.2302,28.4512 17.8968,28.7846 12.5,28.5C 12.5,28.1667 12.5,27.8333 12.5,27.5C 12.8656,26.3054 13.699,25.6387 15,25.5C 16.4162,26.5733 17.7496,26.5733 19,25.5C 19.2117,23.2199 20.0451,21.2199 21.5,19.5C 20.624,18.7492 19.624,18.2492 18.5,18C 20.5968,15.4473 22.9302,13.114 25.5,11C 27.0824,11.1929 28.4157,12.0262 29.5,13.5 Z"/></g>
<g><path style="opacity:0.016" fill="#000000" d="M 47.5,23.5 C 47.5,23.8333 47.5,24.1667 47.5,24.5C 46.8299,24.0187 46.8299,23.6853 47.5,23.5 Z"/></g>
<g><path style="opacity:1" fill="#fbfced" d="M 12.5,4.5 C 11.4479,6.25605 9.78121,6.92271 7.5,6.5C 7.17464,14.3516 7.50797,22.0182 8.5,29.5C 8.5,29.8333 8.5,30.1667 8.5,30.5C 9.66015,32.2027 8.99349,32.8693 6.5,32.5C 5.50644,23.3483 5.17311,14.015 5.5,4.5C 7.83333,4.5 10.1667,4.5 12.5,4.5 Z"/></g>
<g><path style="opacity:1" fill="#c89b5d" d="M 29.5,15.5 C 29.8333,15.5 30.1667,15.5 30.5,15.5C 30.5,19.8333 30.5,24.1667 30.5,28.5C 24.4008,29.8057 18.4008,29.8057 12.5,28.5C 17.8968,28.7846 23.2302,28.4512 28.5,27.5C 29.4909,23.5546 29.8242,19.5546 29.5,15.5 Z"/></g>
<g><path style="opacity:1" fill="#dedbbd" d="M 30.5,28.5 C 30.8333,28.5 31.1667,28.5 31.5,28.5C 31.0882,30.9726 32.0882,32.3059 34.5,32.5C 34.5,32.8333 34.5,33.1667 34.5,33.5C 25.1667,33.5 15.8333,33.5 6.5,33.5C 6.5,33.1667 6.5,32.8333 6.5,32.5C 8.99349,32.8693 9.66015,32.2027 8.5,30.5C 16.2428,31.1299 23.5762,30.4633 30.5,28.5 Z"/></g>
</svg>
