<?xml version="1.0" encoding="UTF-8"?>
<!DOCTYPE svg PUBLIC "-//W3C//DTD SVG 1.1//EN" "http://www.w3.org/Graphics/SVG/1.1/DTD/svg11.dtd">
<svg xmlns="http://www.w3.org/2000/svg" version="1.1" width="20px" height="20px" style="shape-rendering:geometricPrecision; text-rendering:geometricPrecision; image-rendering:optimizeQuality; fill-rule:evenodd; clip-rule:evenodd" xmlns:xlink="http://www.w3.org/1999/xlink">
<g><path style="opacity:0.004" fill="#120302" d="M -0.5,-0.5 C 0.166667,-0.5 0.833333,-0.5 1.5,-0.5C 1.5,-0.166667 1.5,0.166667 1.5,0.5C 1.5,4.5 1.5,8.5 1.5,12.5C 1.26269,13.791 1.59603,14.791 2.5,15.5C 2.5,15.8333 2.5,16.1667 2.5,16.5C 2.16667,16.5 1.83333,16.5 1.5,16.5C 0.833333,16.1667 0.166667,15.8333 -0.5,15.5C -0.5,10.1667 -0.5,4.83333 -0.5,-0.5 Z"/></g>
<g><path style="opacity:0.264" fill="#130202" d="M 17.5,-0.5 C 18.1667,-0.5 18.8333,-0.5 19.5,-0.5C 19.5,5.16667 19.5,10.8333 19.5,16.5C 18.8333,16.5 18.1667,16.5 17.5,16.5C 17.5,16.1667 17.5,15.8333 17.5,15.5C 17.5,13.8333 17.5,12.1667 17.5,10.5C 17.5,8.5 17.5,6.5 17.5,4.5C 17.5,3.16667 17.5,1.83333 17.5,0.5C 17.5,0.166667 17.5,-0.166667 17.5,-0.5 Z"/></g>
<g><path style="opacity:1" fill="#4d1911" d="M 1.5,0.5 C 1.5,0.166667 1.5,-0.166667 1.5,-0.5C 6.83333,-0.5 12.1667,-0.5 17.5,-0.5C 17.5,-0.166667 17.5,0.166667 17.5,0.5C 15.2646,0.205283 13.2646,0.538616 11.5,1.5C 10.1667,1.5 8.83333,1.5 7.5,1.5C 5.73535,0.538616 3.73535,0.205283 1.5,0.5 Z"/></g>
<g><path style="opacity:1" fill="#9e2d25" d="M 11.5,1.5 C 13.2646,0.538616 15.2646,0.205283 17.5,0.5C 17.5,1.83333 17.5,3.16667 17.5,4.5C 16.6043,3.49367 15.9377,3.49367 15.5,4.5C 15.1667,4.5 14.8333,4.5 14.5,4.5C 13.8333,3.16667 12.8333,2.16667 11.5,1.5 Z"/></g>
<g><path style="opacity:1" fill="#171b05" d="M 6.5,2.5 C 7.30071,4.04181 7.63404,5.70848 7.5,7.5C 6.83333,7.5 6.16667,7.5 5.5,7.5C 4.83333,7.83333 4.16667,8.16667 3.5,8.5C 3.33982,6.80081 3.50649,5.13414 4,3.5C 4.67076,2.74756 5.5041,2.41423 6.5,2.5 Z"/></g>
<g><path style="opacity:1" fill="#0b2004" d="M 7.5,1.5 C 8.83333,1.5 10.1667,1.5 11.5,1.5C 12.8333,2.16667 13.8333,3.16667 14.5,4.5C 14.5,5.5 14.5,6.5 14.5,7.5C 13.5,7.5 12.5,7.5 11.5,7.5C 10.7784,7.91753 10.2784,8.5842 10,9.5C 9.61742,8.94404 9.11742,8.61071 8.5,8.5C 8.5,7.83333 8.16667,7.5 7.5,7.5C 7.63404,5.70848 7.30071,4.04181 6.5,2.5C 6.5,1.83333 6.83333,1.5 7.5,1.5 Z"/></g>
<g><path style="opacity:1" fill="#a2231d" d="M 1.5,0.5 C 3.73535,0.205283 5.73535,0.538616 7.5,1.5C 6.83333,1.5 6.5,1.83333 6.5,2.5C 5.5041,2.41423 4.67076,2.74756 4,3.5C 3.50649,5.13414 3.33982,6.80081 3.5,8.5C 3.16667,9.83333 2.83333,11.1667 2.5,12.5C 2.16667,12.5 1.83333,12.5 1.5,12.5C 1.5,8.5 1.5,4.5 1.5,0.5 Z"/></g>
<g><path style="opacity:1" fill="#3b220e" d="M 14.5,4.5 C 14.8333,4.5 15.1667,4.5 15.5,4.5C 15.2053,6.73535 15.5386,8.73535 16.5,10.5C 16.0269,11.9063 15.0269,12.573 13.5,12.5C 13.5,12.1667 13.5,11.8333 13.5,11.5C 13.5,11.1667 13.5,10.8333 13.5,10.5C 14.404,9.79105 14.7373,8.79105 14.5,7.5C 14.5,6.5 14.5,5.5 14.5,4.5 Z"/></g>
<g><path style="opacity:1" fill="#c02525" d="M 17.5,4.5 C 17.5,6.5 17.5,8.5 17.5,10.5C 17.1667,10.5 16.8333,10.5 16.5,10.5C 15.5386,8.73535 15.2053,6.73535 15.5,4.5C 15.9377,3.49367 16.6043,3.49367 17.5,4.5 Z"/></g>
<g><path style="opacity:1" fill="#cc3d3d" d="M 5.5,7.5 C 6.16667,7.5 6.83333,7.5 7.5,7.5C 8.16667,7.5 8.5,7.83333 8.5,8.5C 8.5,9.16667 8.5,9.83333 8.5,10.5C 8.16667,10.5 7.83333,10.5 7.5,10.5C 5.95186,10.1788 5.28519,9.17876 5.5,7.5 Z"/></g>
<g><path style="opacity:1" fill="#5a3d1e" d="M 11.5,7.5 C 11.2852,9.17876 11.9519,10.1788 13.5,10.5C 13.5,10.8333 13.5,11.1667 13.5,11.5C 12.3052,11.6775 11.1385,12.0109 10,12.5C 8.97008,12.1639 8.47008,11.4972 8.5,10.5C 8.5,9.83333 8.5,9.16667 8.5,8.5C 9.11742,8.61071 9.61742,8.94404 10,9.5C 10.2784,8.5842 10.7784,7.91753 11.5,7.5 Z"/></g>
<g><path style="opacity:1" fill="#dc3735" d="M 11.5,7.5 C 12.5,7.5 13.5,7.5 14.5,7.5C 14.7373,8.79105 14.404,9.79105 13.5,10.5C 11.9519,10.1788 11.2852,9.17876 11.5,7.5 Z"/></g>
<g><path style="opacity:1" fill="#3c2c11" d="M 5.5,7.5 C 5.28519,9.17876 5.95186,10.1788 7.5,10.5C 6.83333,11.1667 6.16667,11.8333 5.5,12.5C 4.5,12.5 3.5,12.5 2.5,12.5C 2.83333,11.1667 3.16667,9.83333 3.5,8.5C 4.16667,8.16667 4.83333,7.83333 5.5,7.5 Z"/></g>
<g><path style="opacity:1" fill="#ae2723" d="M 16.5,10.5 C 16.8333,10.5 17.1667,10.5 17.5,10.5C 17.5,12.1667 17.5,13.8333 17.5,15.5C 16.1667,15.8333 14.8333,16.1667 13.5,16.5C 12.596,15.791 12.2627,14.791 12.5,13.5C 12.5,12.8333 12.8333,12.5 13.5,12.5C 15.0269,12.573 16.0269,11.9063 16.5,10.5 Z"/></g>
<g><path style="opacity:1" fill="#16450c" d="M 7.5,10.5 C 7.83333,10.5 8.16667,10.5 8.5,10.5C 8.47008,11.4972 8.97008,12.1639 10,12.5C 11.1385,12.0109 12.3052,11.6775 13.5,11.5C 13.5,11.8333 13.5,12.1667 13.5,12.5C 12.8333,12.5 12.5,12.8333 12.5,13.5C 11.8999,14.9002 10.8999,15.9002 9.5,16.5C 8.5,15.8333 7.5,15.1667 6.5,14.5C 6.67158,13.5084 6.33825,12.8417 5.5,12.5C 6.16667,11.8333 6.83333,11.1667 7.5,10.5 Z"/></g>
<g><path style="opacity:1" fill="#a52a28" d="M 1.5,12.5 C 1.83333,12.5 2.16667,12.5 2.5,12.5C 3.5,12.5 4.5,12.5 5.5,12.5C 6.33825,12.8417 6.67158,13.5084 6.5,14.5C 5.43236,15.4345 4.09903,15.7678 2.5,15.5C 1.59603,14.791 1.26269,13.791 1.5,12.5 Z"/></g>
<g><path style="opacity:1" fill="#892720" d="M 6.5,14.5 C 7.5,15.1667 8.5,15.8333 9.5,16.5C 9.15829,17.3382 8.49162,17.6716 7.5,17.5C 5.88277,16.962 4.2161,16.6287 2.5,16.5C 2.5,16.1667 2.5,15.8333 2.5,15.5C 4.09903,15.7678 5.43236,15.4345 6.5,14.5 Z"/></g>
<g><path style="opacity:1" fill="#7b281d" d="M 12.5,13.5 C 12.2627,14.791 12.596,15.791 13.5,16.5C 12.7095,17.4013 11.7095,18.0679 10.5,18.5C 9.20895,18.7373 8.20895,18.404 7.5,17.5C 8.49162,17.6716 9.15829,17.3382 9.5,16.5C 10.8999,15.9002 11.8999,14.9002 12.5,13.5 Z"/></g>
<g><path style="opacity:0.078" fill="#110402" d="M 1.5,16.5 C 1.83333,16.5 2.16667,16.5 2.5,16.5C 4.2161,16.6287 5.88277,16.962 7.5,17.5C 8.20895,18.404 9.20895,18.7373 10.5,18.5C 10.5,18.8333 10.5,19.1667 10.5,19.5C 9.16667,19.5 7.83333,19.5 6.5,19.5C 4.73915,18.6873 3.07249,17.6873 1.5,16.5 Z"/></g>
<g><path style="opacity:0.243" fill="#0e0301" d="M 17.5,15.5 C 17.5,15.8333 17.5,16.1667 17.5,16.5C 15.9275,17.6873 14.2608,18.6873 12.5,19.5C 11.8333,19.5 11.1667,19.5 10.5,19.5C 10.5,19.1667 10.5,18.8333 10.5,18.5C 11.7095,18.0679 12.7095,17.4013 13.5,16.5C 14.8333,16.1667 16.1667,15.8333 17.5,15.5 Z"/></g>
</svg>
