<?xml version="1.0" encoding="UTF-8"?>
<!DOCTYPE svg PUBLIC "-//W3C//DTD SVG 1.1//EN" "http://www.w3.org/Graphics/SVG/1.1/DTD/svg11.dtd">
<svg xmlns="http://www.w3.org/2000/svg" version="1.1" width="18px" height="18px" style="shape-rendering:geometricPrecision; text-rendering:geometricPrecision; image-rendering:optimizeQuality; fill-rule:evenodd; clip-rule:evenodd" xmlns:xlink="http://www.w3.org/1999/xlink">
<g><path style="opacity:1" fill="#d5d5d5" d="M 8.5,11.5 C 8.5,12.1667 8.16667,12.5 7.5,12.5C 5.97306,12.573 4.97306,11.9063 4.5,10.5C 7.81338,7.52215 11.1467,4.52215 14.5,1.5C 15.521,2.00161 15.6877,2.66828 15,3.5C 12.2179,5.77051 10.0512,8.43718 8.5,11.5 Z"/></g>
<g><path style="opacity:0.653" fill="#5b5b5b" d="M 4.5,9.5 C 4.5,9.83333 4.5,10.1667 4.5,10.5C 4.97306,11.9063 5.97306,12.573 7.5,12.5C 9.93566,15.5041 9.10233,16.1708 5,14.5C 3.95501,15.3734 3.12167,16.3734 2.5,17.5C 1.5,17.5 0.5,17.5 -0.5,17.5C -0.5,16.5 -0.5,15.5 -0.5,14.5C 2.32736,13.0293 3.1607,10.6959 2,7.5C 2.7083,8.38053 3.54163,9.0472 4.5,9.5 Z"/></g>
<g><path style="opacity:0.471" fill="#707070" d="M 14.5,-0.5 C 15.5,-0.5 16.5,-0.5 17.5,-0.5C 17.5,0.5 17.5,1.5 17.5,2.5C 14.8605,5.80621 11.8605,8.80621 8.5,11.5C 10.0512,8.43718 12.2179,5.77051 15,3.5C 15.6877,2.66828 15.521,2.00161 14.5,1.5C 11.1467,4.52215 7.81338,7.52215 4.5,10.5C 4.5,10.1667 4.5,9.83333 4.5,9.5C 7.52711,5.80621 10.8604,2.47288 14.5,-0.5 Z"/></g>
</svg>
