<?xml version="1.0" encoding="UTF-8"?>
<!DOCTYPE svg PUBLIC "-//W3C//DTD SVG 1.1//EN" "http://www.w3.org/Graphics/SVG/1.1/DTD/svg11.dtd">
<svg xmlns="http://www.w3.org/2000/svg" version="1.1" width="18px" height="18px" style="shape-rendering:geometricPrecision; text-rendering:geometricPrecision; image-rendering:optimizeQuality; fill-rule:evenodd; clip-rule:evenodd" xmlns:xlink="http://www.w3.org/1999/xlink">
<g><path style="opacity:0.984" fill="#818181" d="M 7.5,-0.5 C 8.5,-0.5 9.5,-0.5 10.5,-0.5C 11.8333,1.16667 13.1667,2.83333 14.5,4.5C 14.5912,6.69772 13.9245,7.03105 12.5,5.5C 10.5879,5.51229 8.58792,5.17896 6.5,4.5C 8.03105,3.07546 7.69772,2.40879 5.5,2.5C 6.55114,1.77765 7.21781,0.777652 7.5,-0.5 Z"/></g>
<g><path style="opacity:0.603" fill="#989898" d="M 5.5,2.5 C 7.69772,2.40879 8.03105,3.07546 6.5,4.5C 6.16667,5.16667 5.83333,5.83333 5.5,6.5C 4.16667,6.5 3.5,5.83333 3.5,4.5C 3.5,3.16667 4.16667,2.5 5.5,2.5 Z"/></g>
<g><path style="opacity:0.598" fill="#6d6d6d" d="M 3.5,4.5 C 3.5,5.83333 4.16667,6.5 5.5,6.5C 6.79109,7.54166 6.79109,8.70833 5.5,10C 6,10.5 6.5,11 7,11.5C 8.33333,10.1667 9.66667,10.1667 11,11.5C 11.5,11 12,10.5 12.5,10C 11.2721,8.50978 11.2721,7.00978 12.5,5.5C 13.9245,7.03105 14.5912,6.69772 14.5,4.5C 15.2223,5.55114 16.2223,6.21781 17.5,6.5C 17.5,7.5 17.5,8.5 17.5,9.5C 16.8333,9.5 16.1667,9.5 15.5,9.5C 14.4748,12.7896 12.3082,15.123 9,16.5C 5.16667,14.6667 2.33333,11.8333 0.5,8C 1.37067,6.63622 2.37067,5.46955 3.5,4.5 Z M 6.5,4.5 C 8.58792,5.17896 10.5879,5.51229 12.5,5.5C 11.2721,7.00978 11.2721,8.50978 12.5,10C 12,10.5 11.5,11 11,11.5C 9.66667,10.1667 8.33333,10.1667 7,11.5C 6.5,11 6,10.5 5.5,10C 6.79109,8.70833 6.79109,7.54166 5.5,6.5C 5.83333,5.83333 6.16667,5.16667 6.5,4.5 Z"/></g>
<g><path style="opacity:1" fill="#b5b5b5" d="M 15.5,9.5 C 11.627,7.8461 11.9603,7.3461 16.5,8C 15.944,8.38258 15.6107,8.88258 15.5,9.5 Z"/></g>
</svg>
