<?xml version="1.0" encoding="UTF-8"?>
<!DOCTYPE svg PUBLIC "-//W3C//DTD SVG 1.1//EN" "http://www.w3.org/Graphics/SVG/1.1/DTD/svg11.dtd">
<svg xmlns="http://www.w3.org/2000/svg" version="1.1" width="20px" height="20px" style="shape-rendering:geometricPrecision; text-rendering:geometricPrecision; image-rendering:optimizeQuality; fill-rule:evenodd; clip-rule:evenodd" xmlns:xlink="http://www.w3.org/1999/xlink">
<g><path style="opacity:0.047" fill="#170d00" d="M 6.5,-0.5 C 8.5,-0.5 10.5,-0.5 12.5,-0.5C 14.2608,0.312714 15.9275,1.31271 17.5,2.5C 17.5,2.83333 17.5,3.16667 17.5,3.5C 16.391,3.44312 15.391,3.10978 14.5,2.5C 10.5709,-0.270037 6.90427,0.0632959 3.5,3.5C 1.58635,6.68431 0.919686,10.351 1.5,14.5C 1.5,15.5 1.5,16.5 1.5,17.5C 0.515112,13.3656 0.181778,9.03225 0.5,4.5C 0.414228,3.5041 0.747561,2.67076 1.5,2C 3.31456,1.24316 4.98123,0.409824 6.5,-0.5 Z"/></g>
<g><path style="opacity:1" fill="#a6660d" d="M 14.5,2.5 C 11.9407,2.19845 9.60737,2.53178 7.5,3.5C 5.98261,3.51056 4.81595,4.17723 4,5.5C 3.50335,7.80982 3.33669,10.1432 3.5,12.5C 2.22482,9.60375 2.22482,6.60375 3.5,3.5C 6.90427,0.0632959 10.5709,-0.270037 14.5,2.5 Z"/></g>
<g><path style="opacity:0.249" fill="#191002" d="M 17.5,2.5 C 18.1667,2.5 18.8333,2.5 19.5,2.5C 19.5,8.16667 19.5,13.8333 19.5,19.5C 13.5,19.5 7.5,19.5 1.5,19.5C 1.5,19.1667 1.5,18.8333 1.5,18.5C 7.02621,18.8214 12.3595,18.4881 17.5,17.5C 17.5,12.8333 17.5,8.16667 17.5,3.5C 17.5,3.16667 17.5,2.83333 17.5,2.5 Z"/></g>
<g><path style="opacity:0.004" fill="#010000" d="M -0.5,4.5 C -0.166667,4.5 0.166667,4.5 0.5,4.5C 0.181778,9.03225 0.515112,13.3656 1.5,17.5C 1.5,17.8333 1.5,18.1667 1.5,18.5C 1.5,18.8333 1.5,19.1667 1.5,19.5C 0.833333,19.5 0.166667,19.5 -0.5,19.5C -0.5,14.5 -0.5,9.5 -0.5,4.5 Z"/></g>
<g><path style="opacity:1" fill="#f9f2ea" d="M 7.5,3.5 C 9.5273,3.33788 11.5273,3.50454 13.5,4C 14.056,4.38258 14.3893,4.88258 14.5,5.5C 11.7967,7.10999 8.79669,8.10999 5.5,8.5C 5.5,8.83333 5.5,9.16667 5.5,9.5C 4.53862,11.2646 4.20528,13.2646 4.5,15.5C 3.59603,14.791 3.26269,13.791 3.5,12.5C 3.33669,10.1432 3.50335,7.80982 4,5.5C 4.81595,4.17723 5.98261,3.51056 7.5,3.5 Z"/></g>
<g><path style="opacity:1" fill="#976007" d="M 3.5,3.5 C 2.22482,6.60375 2.22482,9.60375 3.5,12.5C 3.26269,13.791 3.59603,14.791 4.5,15.5C 4.5,15.8333 4.5,16.1667 4.5,16.5C 3.22235,16.2178 2.22235,15.5511 1.5,14.5C 0.919686,10.351 1.58635,6.68431 3.5,3.5 Z"/></g>
<g><path style="opacity:1" fill="#ad6e1a" d="M 7.5,3.5 C 9.60737,2.53178 11.9407,2.19845 14.5,2.5C 15.391,3.10978 16.391,3.44312 17.5,3.5C 17.5,8.16667 17.5,12.8333 17.5,17.5C 15.8333,17.5 14.1667,17.5 12.5,17.5C 13.1667,16.8333 13.8333,16.1667 14.5,15.5C 15.8333,12.1667 15.8333,8.83333 14.5,5.5C 14.3893,4.88258 14.056,4.38258 13.5,4C 11.5273,3.50454 9.5273,3.33788 7.5,3.5 Z"/></g>
<g><path style="opacity:1" fill="#d19547" d="M 5.5,8.5 C 8.51838,8.33537 11.5184,8.50204 14.5,9C 13.5842,9.27842 12.9175,9.77842 12.5,10.5C 10.6921,11.9179 10.0254,13.9179 10.5,16.5C 10.1667,16.5 9.83333,16.5 9.5,16.5C 9.78448,14.5853 9.45115,12.9187 8.5,11.5C 7.5,10.8333 6.5,10.1667 5.5,9.5C 5.5,9.16667 5.5,8.83333 5.5,8.5 Z"/></g>
<g><path style="opacity:1" fill="#fbf9f6" d="M 5.5,9.5 C 6.5,10.1667 7.5,10.8333 8.5,11.5C 8.92271,13.7812 8.25605,15.4479 6.5,16.5C 5.83333,16.5 5.16667,16.5 4.5,16.5C 4.5,16.1667 4.5,15.8333 4.5,15.5C 4.20528,13.2646 4.53862,11.2646 5.5,9.5 Z"/></g>
<g><path style="opacity:1" fill="#f9f4ee" d="M 12.5,10.5 C 14.256,11.5521 14.9227,13.2188 14.5,15.5C 13.8333,16.1667 13.1667,16.8333 12.5,17.5C 11.5084,17.6716 10.8417,17.3382 10.5,16.5C 10.0254,13.9179 10.6921,11.9179 12.5,10.5 Z"/></g>
<g><path style="opacity:1" fill="#f4e6d3" d="M 14.5,5.5 C 15.8333,8.83333 15.8333,12.1667 14.5,15.5C 14.9227,13.2188 14.256,11.5521 12.5,10.5C 12.9175,9.77842 13.5842,9.27842 14.5,9C 11.5184,8.50204 8.51838,8.33537 5.5,8.5C 8.79669,8.10999 11.7967,7.10999 14.5,5.5 Z"/></g>
<g><path style="opacity:1" fill="#d3af81" d="M 8.5,11.5 C 9.45115,12.9187 9.78448,14.5853 9.5,16.5C 8.5,17.8333 7.5,17.8333 6.5,16.5C 8.25605,15.4479 8.92271,13.7812 8.5,11.5 Z"/></g>
<g><path style="opacity:1" fill="#724a13" d="M 1.5,14.5 C 2.22235,15.5511 3.22235,16.2178 4.5,16.5C 5.16667,16.5 5.83333,16.5 6.5,16.5C 7.5,17.8333 8.5,17.8333 9.5,16.5C 9.83333,16.5 10.1667,16.5 10.5,16.5C 10.8417,17.3382 11.5084,17.6716 12.5,17.5C 14.1667,17.5 15.8333,17.5 17.5,17.5C 12.3595,18.4881 7.02621,18.8214 1.5,18.5C 1.5,18.1667 1.5,17.8333 1.5,17.5C 1.5,16.5 1.5,15.5 1.5,14.5 Z"/></g>
</svg>
