<?xml version="1.0" encoding="UTF-8"?>
<!DOCTYPE svg PUBLIC "-//W3C//DTD SVG 1.1//EN" "http://www.w3.org/Graphics/SVG/1.1/DTD/svg11.dtd">
<svg xmlns="http://www.w3.org/2000/svg" version="1.1" width="20px" height="20px" style="shape-rendering:geometricPrecision; text-rendering:geometricPrecision; image-rendering:optimizeQuality; fill-rule:evenodd; clip-rule:evenodd" xmlns:xlink="http://www.w3.org/1999/xlink">
<g><path style="opacity:0.573" fill="#3b2f2a" d="M 9.5,0.5 C 9.5,0.166667 9.5,-0.166667 9.5,-0.5C 12.1667,-0.5 14.8333,-0.5 17.5,-0.5C 18.1098,0.391047 18.4431,1.39105 18.5,2.5C 15.7543,0.873612 12.7543,0.206946 9.5,0.5 Z"/></g>
<g><path style="opacity:1" fill="#68564f" d="M 4.5,1.5 C 4.5,1.16667 4.5,0.833333 4.5,0.5C 6.16667,0.5 7.83333,0.5 9.5,0.5C 12.7543,0.206946 15.7543,0.873612 18.5,2.5C 18.5,4.83333 18.5,7.16667 18.5,9.5C 18.1667,9.5 17.8333,9.5 17.5,9.5C 17.7845,7.58533 17.4511,5.91866 16.5,4.5C 14.9639,1.90781 12.6305,0.907808 9.5,1.5C 7.83333,1.5 6.16667,1.5 4.5,1.5 Z"/></g>
<g><path style="opacity:1" fill="#87726d" d="M 4.5,1.5 C 6.16667,1.5 7.83333,1.5 9.5,1.5C 9.5,1.83333 9.5,2.16667 9.5,2.5C 8.20895,2.26269 7.20895,2.59603 6.5,3.5C 5.5,4.16667 4.5,4.83333 3.5,5.5C 3.43255,4.04125 3.76589,2.70792 4.5,1.5 Z"/></g>
<g><path style="opacity:1" fill="#e2d9d4" d="M 6.5,3.5 C 7.20895,2.59603 8.20895,2.26269 9.5,2.5C 12.6996,3.04354 15.0329,4.71021 16.5,7.5C 16.7845,9.41467 16.4511,11.0813 15.5,12.5C 15.1667,12.5 14.8333,12.5 14.5,12.5C 15.328,8.13815 13.6613,5.47148 9.5,4.5C 8.79105,3.59603 7.79105,3.26269 6.5,3.5 Z"/></g>
<g><path style="opacity:0.573" fill="#2a1f1d" d="M -0.5,-0.5 C 2.83333,-0.5 6.16667,-0.5 9.5,-0.5C 9.5,-0.166667 9.5,0.166667 9.5,0.5C 7.83333,0.5 6.16667,0.5 4.5,0.5C 3.16667,0.5 1.83333,0.5 0.5,0.5C 0.5,4.83333 0.5,9.16667 0.5,13.5C 0.5,15.1667 0.5,16.8333 0.5,18.5C 6.5,18.5 12.5,18.5 18.5,18.5C 18.8333,18.5 19.1667,18.5 19.5,18.5C 19.5,18.8333 19.5,19.1667 19.5,19.5C 12.8333,19.5 6.16667,19.5 -0.5,19.5C -0.5,12.8333 -0.5,6.16667 -0.5,-0.5 Z"/></g>
<g><path style="opacity:1" fill="#f0e9e2" d="M 6.5,3.5 C 7.79105,3.26269 8.79105,3.59603 9.5,4.5C 6.5,4.83333 4.83333,6.5 4.5,9.5C 3.59603,8.79105 3.26269,7.79105 3.5,6.5C 3.5,6.16667 3.5,5.83333 3.5,5.5C 4.5,4.83333 5.5,4.16667 6.5,3.5 Z"/></g>
<g><path style="opacity:1" fill="#8f7d76" d="M 9.5,2.5 C 9.5,2.16667 9.5,1.83333 9.5,1.5C 12.6305,0.907808 14.9639,1.90781 16.5,4.5C 16.5,5.5 16.5,6.5 16.5,7.5C 15.0329,4.71021 12.6996,3.04354 9.5,2.5 Z"/></g>
<g><path style="opacity:1" fill="#c1b3ac" d="M 9.5,4.5 C 13.6613,5.47148 15.328,8.13815 14.5,12.5C 12.5214,14.1675 10.188,14.8342 7.5,14.5C 6.44886,13.7777 5.78219,12.7777 5.5,11.5C 4.66175,11.1583 4.32842,10.4916 4.5,9.5C 4.83333,6.5 6.5,4.83333 9.5,4.5 Z"/></g>
<g><path style="opacity:1" fill="#e5e0dd" d="M 11.5,12.5 C 10.8333,12.5 10.5,12.1667 10.5,11.5C 11.4345,10.4324 11.7678,9.09903 11.5,7.5C 9.90097,7.23219 8.56764,7.56552 7.5,8.5C 7.16667,8.5 6.83333,8.5 6.5,8.5C 9.33706,4.53513 11.6704,5.03513 13.5,10C 13.3613,11.301 12.6946,12.1344 11.5,12.5 Z"/></g>
<g><path style="opacity:0.643" fill="#2f2520" d="M 17.5,-0.5 C 18.1667,-0.5 18.8333,-0.5 19.5,-0.5C 19.5,5.83333 19.5,12.1667 19.5,18.5C 19.1667,18.5 18.8333,18.5 18.5,18.5C 18.5,15.5 18.5,12.5 18.5,9.5C 18.5,7.16667 18.5,4.83333 18.5,2.5C 18.4431,1.39105 18.1098,0.391047 17.5,-0.5 Z"/></g>
<g><path style="opacity:1" fill="#ded6d1" d="M 6.5,8.5 C 6.83333,8.5 7.16667,8.5 7.5,8.5C 7.5,9.5 7.5,10.5 7.5,11.5C 8.5,11.5 9.5,11.5 10.5,11.5C 10.5,12.1667 10.8333,12.5 11.5,12.5C 9.47672,13.5214 7.47672,13.1881 5.5,11.5C 5.26269,10.209 5.59603,9.20895 6.5,8.5 Z"/></g>
<g><path style="opacity:1" fill="#c1b6b1" d="M 10.5,11.5 C 9.5,11.5 8.5,11.5 7.5,11.5C 7.5,10.5 7.5,9.5 7.5,8.5C 8.56764,7.56552 9.90097,7.23219 11.5,7.5C 11.7678,9.09903 11.4345,10.4324 10.5,11.5 Z"/></g>
<g><path style="opacity:1" fill="#f2f1f1" d="M 8.5,8.5 C 10.337,8.63945 10.6704,9.30612 9.5,10.5C 8.70245,10.0431 8.36912,9.37644 8.5,8.5 Z"/></g>
<g><path style="opacity:1" fill="#54413c" d="M 4.5,0.5 C 4.5,0.833333 4.5,1.16667 4.5,1.5C 3.5,1.5 2.5,1.5 1.5,1.5C 1.5,5.5 1.5,9.5 1.5,13.5C 1.16667,13.5 0.833333,13.5 0.5,13.5C 0.5,9.16667 0.5,4.83333 0.5,0.5C 1.83333,0.5 3.16667,0.5 4.5,0.5 Z"/></g>
<g><path style="opacity:1" fill="#765f59" d="M 4.5,1.5 C 3.76589,2.70792 3.43255,4.04125 3.5,5.5C 3.5,5.83333 3.5,6.16667 3.5,6.5C 2.09584,9.8034 2.7625,12.8034 5.5,15.5C 3.80072,15.4729 2.46739,14.8062 1.5,13.5C 1.5,9.5 1.5,5.5 1.5,1.5C 2.5,1.5 3.5,1.5 4.5,1.5 Z"/></g>
<g><path style="opacity:1" fill="#ddc1b4" d="M 3.5,6.5 C 3.26269,7.79105 3.59603,8.79105 4.5,9.5C 4.32842,10.4916 4.66175,11.1583 5.5,11.5C 5.78219,12.7777 6.44886,13.7777 7.5,14.5C 6.83333,14.5 6.5,14.8333 6.5,15.5C 6.16667,15.5 5.83333,15.5 5.5,15.5C 2.7625,12.8034 2.09584,9.8034 3.5,6.5 Z"/></g>
<g><path style="opacity:1" fill="#7c655d" d="M 16.5,4.5 C 17.4511,5.91866 17.7845,7.58533 17.5,9.5C 17.5,11.1667 17.5,12.8333 17.5,14.5C 16.2209,15.968 14.5542,16.6347 12.5,16.5C 13.5,15.1667 14.5,13.8333 15.5,12.5C 16.4511,11.0813 16.7845,9.41467 16.5,7.5C 16.5,6.5 16.5,5.5 16.5,4.5 Z"/></g>
<g><path style="opacity:1" fill="#e2c8bb" d="M 14.5,12.5 C 14.8333,12.5 15.1667,12.5 15.5,12.5C 14.5,13.8333 13.5,15.1667 12.5,16.5C 10.2646,16.7947 8.26465,16.4614 6.5,15.5C 6.5,14.8333 6.83333,14.5 7.5,14.5C 10.188,14.8342 12.5214,14.1675 14.5,12.5 Z"/></g>
<g><path style="opacity:1" fill="#523f38" d="M 17.5,9.5 C 17.8333,9.5 18.1667,9.5 18.5,9.5C 18.5,12.5 18.5,15.5 18.5,18.5C 12.5,18.5 6.5,18.5 0.5,18.5C 0.5,16.8333 0.5,15.1667 0.5,13.5C 0.833333,13.5 1.16667,13.5 1.5,13.5C 1.5,14.8333 1.5,16.1667 1.5,17.5C 6.83333,17.5 12.1667,17.5 17.5,17.5C 17.5,16.5 17.5,15.5 17.5,14.5C 17.5,12.8333 17.5,11.1667 17.5,9.5 Z"/></g>
<g><path style="opacity:1" fill="#6a534c" d="M 1.5,13.5 C 2.46739,14.8062 3.80072,15.4729 5.5,15.5C 5.83333,15.5 6.16667,15.5 6.5,15.5C 8.26465,16.4614 10.2646,16.7947 12.5,16.5C 14.5542,16.6347 16.2209,15.968 17.5,14.5C 17.5,15.5 17.5,16.5 17.5,17.5C 12.1667,17.5 6.83333,17.5 1.5,17.5C 1.5,16.1667 1.5,14.8333 1.5,13.5 Z"/></g>
</svg>
