<?xml version="1.0" encoding="UTF-8"?>
<!DOCTYPE svg PUBLIC "-//W3C//DTD SVG 1.1//EN" "http://www.w3.org/Graphics/SVG/1.1/DTD/svg11.dtd">
<svg xmlns="http://www.w3.org/2000/svg" version="1.1" width="20px" height="20px" style="shape-rendering:geometricPrecision; text-rendering:geometricPrecision; image-rendering:optimizeQuality; fill-rule:evenodd; clip-rule:evenodd" xmlns:xlink="http://www.w3.org/1999/xlink">
<g><path style="opacity:1" fill="#d09040" d="M 12.5,3.5 C 12.5,3.83333 12.5,4.16667 12.5,4.5C 9.20269,4.3287 8.86935,4.99536 11.5,6.5C 11.3764,7.10667 11.0431,7.44001 10.5,7.5C 8.22091,6.3485 5.88758,5.3485 3.5,4.5C 3.83333,3.83333 4.16667,3.16667 4.5,2.5C 5.93047,2.57918 7.26381,2.24585 8.5,1.5C 9.5237,2.85318 10.857,3.51985 12.5,3.5 Z"/></g>
<g><path style="opacity:1" fill="#85510c" d="M 6.5,-0.5 C 8.5,-0.5 10.5,-0.5 12.5,-0.5C 13.5,0.166667 14.5,0.833333 15.5,1.5C 15.8333,2.16667 16.1667,2.83333 16.5,3.5C 14.965,2.6457 13.6316,2.6457 12.5,3.5C 10.857,3.51985 9.5237,2.85318 8.5,1.5C 7.26381,2.24585 5.93047,2.57918 4.5,2.5C 5.16667,1.83333 5.83333,1.16667 6.5,0.5C 6.5,0.166667 6.5,-0.166667 6.5,-0.5 Z"/></g>
<g><path style="opacity:1" fill="#c67a16" d="M 3.5,4.5 C 5.88758,5.3485 8.22091,6.3485 10.5,7.5C 9.69354,8.72813 8.69354,9.72813 7.5,10.5C 7.16667,10.5 6.83333,10.5 6.5,10.5C 6.5,9.83333 6.16667,9.5 5.5,9.5C 5.17876,7.95186 4.17876,7.28519 2.5,7.5C 2.26269,6.20895 2.59603,5.20895 3.5,4.5 Z"/></g>
<g><path style="opacity:0.643" fill="#382506" d="M 6.5,0.5 C 5.83333,1.16667 5.16667,1.83333 4.5,2.5C 3.5041,2.41423 2.67076,2.74756 2,3.5C 1.50137,7.15159 1.3347,10.8183 1.5,14.5C 1.5,15.1667 1.5,15.8333 1.5,16.5C 4.33732,18.4023 7.67065,19.069 11.5,18.5C 11.5,18.8333 11.5,19.1667 11.5,19.5C 7.5,19.5 3.5,19.5 -0.5,19.5C -0.5,14.5 -0.5,9.5 -0.5,4.5C 1.01439,1.90461 3.34772,0.571273 6.5,0.5 Z"/></g>
<g><path style="opacity:1" fill="#f9f0e3" d="M 12.5,4.5 C 12.369,5.23891 12.5357,5.90558 13,6.5C 13.8928,5.28882 14.7261,5.28882 15.5,6.5C 15.3764,7.10667 15.0431,7.44001 14.5,7.5C 13.5,8.5 12.5,9.5 11.5,10.5C 12.2341,11.7079 12.5674,13.0413 12.5,14.5C 12.1667,14.5 11.8333,14.5 11.5,14.5C 10.8333,14.5 10.5,14.1667 10.5,13.5C 10.5,13.1667 10.5,12.8333 10.5,12.5C 9.5,11.8333 8.5,11.1667 7.5,10.5C 8.69354,9.72813 9.69354,8.72813 10.5,7.5C 11.0431,7.44001 11.3764,7.10667 11.5,6.5C 8.86935,4.99536 9.20269,4.3287 12.5,4.5 Z"/></g>
<g><path style="opacity:1" fill="#b97516" d="M 16.5,3.5 C 17.4816,6.96192 17.815,10.6286 17.5,14.5C 15.8333,14.5 14.1667,14.5 12.5,14.5C 12.5674,13.0413 12.2341,11.7079 11.5,10.5C 13.0174,10.5106 14.1841,11.1772 15,12.5C 15.5,12 16,11.5 16.5,11C 15.0267,10.2904 14.3601,9.12377 14.5,7.5C 15.0431,7.44001 15.3764,7.10667 15.5,6.5C 14.7261,5.28882 13.8928,5.28882 13,6.5C 12.5357,5.90558 12.369,5.23891 12.5,4.5C 12.5,4.16667 12.5,3.83333 12.5,3.5C 13.6316,2.6457 14.965,2.6457 16.5,3.5 Z"/></g>
<g><path style="opacity:1" fill="#d4a45f" d="M 2.5,7.5 C 4.17876,7.28519 5.17876,7.95186 5.5,9.5C 3.33401,12.0401 2.33401,11.3734 2.5,7.5 Z"/></g>
<g><path style="opacity:1" fill="#dbb070" d="M 14.5,7.5 C 14.3601,9.12377 15.0267,10.2904 16.5,11C 16,11.5 15.5,12 15,12.5C 14.1841,11.1772 13.0174,10.5106 11.5,10.5C 12.5,9.5 13.5,8.5 14.5,7.5 Z"/></g>
<g><path style="opacity:1" fill="#ad6f13" d="M 4.5,2.5 C 4.16667,3.16667 3.83333,3.83333 3.5,4.5C 2.59603,5.20895 2.26269,6.20895 2.5,7.5C 2.33401,11.3734 3.33401,12.0401 5.5,9.5C 6.16667,9.5 6.5,9.83333 6.5,10.5C 5.5,12.1667 4.16667,13.5 2.5,14.5C 2.16667,14.5 1.83333,14.5 1.5,14.5C 1.3347,10.8183 1.50137,7.15159 2,3.5C 2.67076,2.74756 3.5041,2.41423 4.5,2.5 Z"/></g>
<g><path style="opacity:1" fill="#cea36f" d="M 6.5,10.5 C 6.83333,10.5 7.16667,10.5 7.5,10.5C 8.5,11.1667 9.5,11.8333 10.5,12.5C 7.82054,12.6726 5.48721,13.6726 3.5,15.5C 2.89333,15.3764 2.55999,15.0431 2.5,14.5C 4.16667,13.5 5.5,12.1667 6.5,10.5 Z"/></g>
<g><path style="opacity:1" fill="#cba778" d="M 10.5,13.5 C 10.5,14.1667 10.8333,14.5 11.5,14.5C 10.828,15.2674 9.9947,15.9341 9,16.5C 8.4153,15.0024 8.9153,14.0024 10.5,13.5 Z"/></g>
<g><path style="opacity:1" fill="#965b0e" d="M 10.5,12.5 C 10.5,12.8333 10.5,13.1667 10.5,13.5C 8.9153,14.0024 8.4153,15.0024 9,16.5C 9.9947,15.9341 10.828,15.2674 11.5,14.5C 11.8333,14.5 12.1667,14.5 12.5,14.5C 14.1667,14.5 15.8333,14.5 17.5,14.5C 17.5,15.5 17.5,16.5 17.5,17.5C 12.0735,17.7825 6.74012,17.4491 1.5,16.5C 1.5,15.8333 1.5,15.1667 1.5,14.5C 1.83333,14.5 2.16667,14.5 2.5,14.5C 2.55999,15.0431 2.89333,15.3764 3.5,15.5C 5.48721,13.6726 7.82054,12.6726 10.5,12.5 Z"/></g>
<g><path style="opacity:1" fill="#71450a" d="M 1.5,16.5 C 6.74012,17.4491 12.0735,17.7825 17.5,17.5C 15.7354,18.4614 13.7354,18.7947 11.5,18.5C 7.67065,19.069 4.33732,18.4023 1.5,16.5 Z"/></g>
<g><path style="opacity:0.965" fill="#392508" d="M 15.5,1.5 C 17.0618,1.73286 18.3951,2.39952 19.5,3.5C 19.5,8.83333 19.5,14.1667 19.5,19.5C 16.8333,19.5 14.1667,19.5 11.5,19.5C 11.5,19.1667 11.5,18.8333 11.5,18.5C 13.7354,18.7947 15.7354,18.4614 17.5,17.5C 17.5,16.5 17.5,15.5 17.5,14.5C 17.815,10.6286 17.4816,6.96192 16.5,3.5C 16.1667,2.83333 15.8333,2.16667 15.5,1.5 Z"/></g>
</svg>
