<?xml version="1.0" encoding="UTF-8"?>
<!DOCTYPE svg PUBLIC "-//W3C//DTD SVG 1.1//EN" "http://www.w3.org/Graphics/SVG/1.1/DTD/svg11.dtd">
<svg xmlns="http://www.w3.org/2000/svg" version="1.1" width="20px" height="20px" style="shape-rendering:geometricPrecision; text-rendering:geometricPrecision; image-rendering:optimizeQuality; fill-rule:evenodd; clip-rule:evenodd" xmlns:xlink="http://www.w3.org/1999/xlink">
<g><path style="opacity:0.047" fill="#180e00" d="M 6.5,-0.5 C 8.5,-0.5 10.5,-0.5 12.5,-0.5C 14.2608,0.312714 15.9275,1.31271 17.5,2.5C 17.5,2.83333 17.5,3.16667 17.5,3.5C 15.0403,2.12213 12.3736,1.12213 9.5,0.5C 7.82946,0.668206 6.49612,1.33487 5.5,2.5C 4.50838,2.32842 3.84171,2.66175 3.5,3.5C 1.59771,6.33732 0.931042,9.67065 1.5,13.5C 1.5,14.8333 1.5,16.1667 1.5,17.5C 0.515112,13.3656 0.181778,9.03225 0.5,4.5C 0.414228,3.5041 0.747561,2.67076 1.5,2C 3.31456,1.24316 4.98123,0.409824 6.5,-0.5 Z"/></g>
<g><path style="opacity:1" fill="#aa6c1d" d="M 17.5,3.5 C 17.5,7.83333 17.5,12.1667 17.5,16.5C 16.391,16.5569 15.391,16.8902 14.5,17.5C 15.5025,15.9891 16.1692,14.3224 16.5,12.5C 16.8134,9.75312 16.48,7.08645 15.5,4.5C 14.8933,4.62358 14.56,4.95691 14.5,5.5C 12.9519,5.17876 12.2852,4.17876 12.5,2.5C 11.209,2.26269 10.209,2.59603 9.5,3.5C 8.29208,2.76589 6.95875,2.43255 5.5,2.5C 6.49612,1.33487 7.82946,0.668206 9.5,0.5C 12.3736,1.12213 15.0403,2.12213 17.5,3.5 Z"/></g>
<g><path style="opacity:1" fill="#c16c02" d="M 5.5,2.5 C 6.95875,2.43255 8.29208,2.76589 9.5,3.5C 9.5,3.83333 9.5,4.16667 9.5,4.5C 7.5,4.5 5.5,4.5 3.5,4.5C 3.5,4.16667 3.5,3.83333 3.5,3.5C 3.84171,2.66175 4.50838,2.32842 5.5,2.5 Z"/></g>
<g><path style="opacity:0.249" fill="#190f02" d="M 17.5,2.5 C 18.1667,2.5 18.8333,2.5 19.5,2.5C 19.5,8.16667 19.5,13.8333 19.5,19.5C 13.5,19.5 7.5,19.5 1.5,19.5C 1.5,19.1667 1.5,18.8333 1.5,18.5C 7.27087,19.1128 12.6042,18.4461 17.5,16.5C 17.5,12.1667 17.5,7.83333 17.5,3.5C 17.5,3.16667 17.5,2.83333 17.5,2.5 Z"/></g>
<g><path style="opacity:1" fill="#fbf1e6" d="M 14.5,5.5 C 13.8333,6.83333 13.1667,8.16667 12.5,9.5C 10.7839,9.37133 9.11723,9.038 7.5,8.5C 7.52709,6.80072 8.19376,5.46739 9.5,4.5C 9.5,4.16667 9.5,3.83333 9.5,3.5C 10.209,2.59603 11.209,2.26269 12.5,2.5C 12.2852,4.17876 12.9519,5.17876 14.5,5.5 Z"/></g>
<g><path style="opacity:0.004" fill="#010000" d="M -0.5,4.5 C -0.166667,4.5 0.166667,4.5 0.5,4.5C 0.181778,9.03225 0.515112,13.3656 1.5,17.5C 1.5,17.8333 1.5,18.1667 1.5,18.5C 1.5,18.8333 1.5,19.1667 1.5,19.5C 0.833333,19.5 0.166667,19.5 -0.5,19.5C -0.5,14.5 -0.5,9.5 -0.5,4.5 Z"/></g>
<g><path style="opacity:1" fill="#ad7219" d="M 3.5,3.5 C 3.5,3.83333 3.5,4.16667 3.5,4.5C 3.43255,5.95875 3.76589,7.29208 4.5,8.5C 3.49751,10.0109 2.83084,11.6776 2.5,13.5C 2.16667,13.5 1.83333,13.5 1.5,13.5C 0.931042,9.67065 1.59771,6.33732 3.5,3.5 Z"/></g>
<g><path style="opacity:1" fill="#ca7b1a" d="M 3.5,4.5 C 5.5,4.5 7.5,4.5 9.5,4.5C 8.19376,5.46739 7.52709,6.80072 7.5,8.5C 6.5,8.5 5.5,8.5 4.5,8.5C 3.76589,7.29208 3.43255,5.95875 3.5,4.5 Z"/></g>
<g><path style="opacity:1" fill="#cc7c18" d="M 16.5,12.5 C 16.1667,12.5 15.8333,12.5 15.5,12.5C 14.9002,11.1001 13.9002,10.1001 12.5,9.5C 13.1667,8.16667 13.8333,6.83333 14.5,5.5C 14.56,4.95691 14.8933,4.62358 15.5,4.5C 16.48,7.08645 16.8134,9.75312 16.5,12.5 Z"/></g>
<g><path style="opacity:1" fill="#f9f3ea" d="M 4.5,8.5 C 5.5,8.5 6.5,8.5 7.5,8.5C 8.038,10.1172 8.37133,11.7839 8.5,13.5C 8.16667,13.5 7.83333,13.5 7.5,13.5C 6.16667,14.8333 4.83333,14.8333 3.5,13.5C 3.16667,13.5 2.83333,13.5 2.5,13.5C 2.83084,11.6776 3.49751,10.0109 4.5,8.5 Z"/></g>
<g><path style="opacity:1" fill="#f8f2e9" d="M 15.5,12.5 C 15.8333,12.5 16.1667,12.5 16.5,12.5C 16.1692,14.3224 15.5025,15.9891 14.5,17.5C 13.5,17.5 12.5,17.5 11.5,17.5C 11.6716,16.5084 11.3382,15.8417 10.5,15.5C 10.8731,12.1506 12.5398,11.1506 15.5,12.5 Z"/></g>
<g><path style="opacity:1" fill="#d5a05e" d="M 7.5,8.5 C 9.11723,9.038 10.7839,9.37133 12.5,9.5C 13.9002,10.1001 14.9002,11.1001 15.5,12.5C 12.5398,11.1506 10.8731,12.1506 10.5,15.5C 9.83333,14.8333 9.16667,14.1667 8.5,13.5C 8.37133,11.7839 8.038,10.1172 7.5,8.5 Z"/></g>
<g><path style="opacity:1" fill="#965b0e" d="M 2.5,13.5 C 2.83333,13.5 3.16667,13.5 3.5,13.5C 3.61998,14.5862 4.28665,15.2528 5.5,15.5C 6.71335,15.2528 7.38002,14.5862 7.5,13.5C 7.83333,13.5 8.16667,13.5 8.5,13.5C 9.16667,14.1667 9.83333,14.8333 10.5,15.5C 11.3382,15.8417 11.6716,16.5084 11.5,17.5C 9.14316,17.6633 6.80982,17.4966 4.5,17C 3.02674,16.2904 2.36007,15.1238 2.5,13.5 Z"/></g>
<g><path style="opacity:1" fill="#d5b891" d="M 3.5,13.5 C 4.83333,14.8333 6.16667,14.8333 7.5,13.5C 7.38002,14.5862 6.71335,15.2528 5.5,15.5C 4.28665,15.2528 3.61998,14.5862 3.5,13.5 Z"/></g>
<g><path style="opacity:1" fill="#754c15" d="M 1.5,13.5 C 1.83333,13.5 2.16667,13.5 2.5,13.5C 2.36007,15.1238 3.02674,16.2904 4.5,17C 6.80982,17.4966 9.14316,17.6633 11.5,17.5C 12.5,17.5 13.5,17.5 14.5,17.5C 15.391,16.8902 16.391,16.5569 17.5,16.5C 12.6042,18.4461 7.27087,19.1128 1.5,18.5C 1.5,18.1667 1.5,17.8333 1.5,17.5C 1.5,16.1667 1.5,14.8333 1.5,13.5 Z"/></g>
</svg>
