<?xml version="1.0" encoding="UTF-8"?>
<!DOCTYPE svg PUBLIC "-//W3C//DTD SVG 1.1//EN" "http://www.w3.org/Graphics/SVG/1.1/DTD/svg11.dtd">
<svg xmlns="http://www.w3.org/2000/svg" version="1.1" width="20px" height="20px" style="shape-rendering:geometricPrecision; text-rendering:geometricPrecision; image-rendering:optimizeQuality; fill-rule:evenodd; clip-rule:evenodd" xmlns:xlink="http://www.w3.org/1999/xlink">
<g><path style="opacity:0.176" fill="#221603" d="M 12.5,1.5 C 12.5,1.16667 12.5,0.833333 12.5,0.5C 15.089,0.460951 17.089,1.46095 18.5,3.5C 18.1667,3.5 17.8333,3.5 17.5,3.5C 16.8333,3.16667 16.1667,2.83333 15.5,2.5C 14.391,2.44312 13.391,2.10978 12.5,1.5 Z"/></g>
<g><path style="opacity:1" fill="#cd7e1c" d="M 10.5,1.5 C 11.1667,1.5 11.8333,1.5 12.5,1.5C 13.391,2.10978 14.391,2.44312 15.5,2.5C 15.5394,3.58317 15.8728,4.58317 16.5,5.5C 16.0431,6.29755 15.3764,6.63088 14.5,6.5C 14.1667,6.5 13.8333,6.5 13.5,6.5C 11.31,5.62554 10.31,3.95888 10.5,1.5 Z"/></g>
<g><path style="opacity:1" fill="#ab6e20" d="M 6.5,-0.5 C 8.5,-0.5 10.5,-0.5 12.5,-0.5C 12.5,-0.166667 12.5,0.166667 12.5,0.5C 12.5,0.833333 12.5,1.16667 12.5,1.5C 11.8333,1.5 11.1667,1.5 10.5,1.5C 9.00006,3.26998 7.3334,4.93664 5.5,6.5C 4.76109,6.36899 4.09442,6.53566 3.5,7C 5.4944,9.15752 6.82774,11.6575 7.5,14.5C 6.60895,13.8902 5.60895,13.5569 4.5,13.5C 4.71901,12.325 4.38568,11.325 3.5,10.5C 2.57131,11.6888 2.23798,13.0222 2.5,14.5C 2.16667,14.5 1.83333,14.5 1.5,14.5C 1.3347,10.8183 1.50137,7.15159 2,3.5C 3.65161,2.60064 5.15161,1.60064 6.5,0.5C 6.5,0.166667 6.5,-0.166667 6.5,-0.5 Z"/></g>
<g><path style="opacity:0.062" fill="#030100" d="M 18.5,3.5 C 18.8333,3.5 19.1667,3.5 19.5,3.5C 19.5,8.83333 19.5,14.1667 19.5,19.5C 18.8333,19.5 18.1667,19.5 17.5,19.5C 17.5,19.1667 17.5,18.8333 17.5,18.5C 18.4872,13.6946 18.8205,8.69463 18.5,3.5 Z"/></g>
<g><path style="opacity:1" fill="#faedde" d="M 10.5,1.5 C 10.31,3.95888 11.31,5.62554 13.5,6.5C 12.8333,6.83333 12.1667,7.16667 11.5,7.5C 10.4324,6.56552 9.09903,6.23219 7.5,6.5C 6.83333,6.5 6.16667,6.5 5.5,6.5C 7.3334,4.93664 9.00006,3.26998 10.5,1.5 Z"/></g>
<g><path style="opacity:0.643" fill="#392505" d="M 6.5,0.5 C 5.15161,1.60064 3.65161,2.60064 2,3.5C 1.50137,7.15159 1.3347,10.8183 1.5,14.5C 1.5,15.8333 1.5,17.1667 1.5,18.5C 6.83333,18.5 12.1667,18.5 17.5,18.5C 17.5,18.8333 17.5,19.1667 17.5,19.5C 11.5,19.5 5.5,19.5 -0.5,19.5C -0.5,14.5 -0.5,9.5 -0.5,4.5C 1.01439,1.90461 3.34772,0.571273 6.5,0.5 Z"/></g>
<g><path style="opacity:1" fill="#f8f0e6" d="M 5.5,6.5 C 6.16667,6.5 6.83333,6.5 7.5,6.5C 7.5,7.5 7.5,8.5 7.5,9.5C 9.48324,9.84316 10.8166,9.17649 11.5,7.5C 12.1667,7.16667 12.8333,6.83333 13.5,6.5C 13.8333,6.5 14.1667,6.5 14.5,6.5C 13.5,9.16667 12.5,11.8333 11.5,14.5C 10.8485,15.0906 10.1818,15.7573 9.5,16.5C 8.81815,15.7573 8.15149,15.0906 7.5,14.5C 6.82774,11.6575 5.4944,9.15752 3.5,7C 4.09442,6.53566 4.76109,6.36899 5.5,6.5 Z"/></g>
<g><path style="opacity:1" fill="#d98e30" d="M 7.5,6.5 C 9.09903,6.23219 10.4324,6.56552 11.5,7.5C 10.8166,9.17649 9.48324,9.84316 7.5,9.5C 7.5,8.5 7.5,7.5 7.5,6.5 Z"/></g>
<g><path style="opacity:1" fill="#c37f25" d="M 15.5,2.5 C 16.1667,2.83333 16.8333,3.16667 17.5,3.5C 17.5,7.16667 17.5,10.8333 17.5,14.5C 17.1667,14.5 16.8333,14.5 16.5,14.5C 15.8333,9.16667 15.1667,9.16667 14.5,14.5C 13.5,14.5 12.5,14.5 11.5,14.5C 12.5,11.8333 13.5,9.16667 14.5,6.5C 15.3764,6.63088 16.0431,6.29755 16.5,5.5C 15.8728,4.58317 15.5394,3.58317 15.5,2.5 Z"/></g>
<g><path style="opacity:1" fill="#ddc5a3" d="M 4.5,13.5 C 4.15829,14.3382 3.49162,14.6716 2.5,14.5C 2.23798,13.0222 2.57131,11.6888 3.5,10.5C 4.38568,11.325 4.71901,12.325 4.5,13.5 Z"/></g>
<g><path style="opacity:1" fill="#ebdcc4" d="M 16.5,14.5 C 15.8333,15.8333 15.1667,15.8333 14.5,14.5C 15.1667,9.16667 15.8333,9.16667 16.5,14.5 Z"/></g>
<g><path style="opacity:1" fill="#9b6012" d="M 4.5,13.5 C 5.60895,13.5569 6.60895,13.8902 7.5,14.5C 8.15149,15.0906 8.81815,15.7573 9.5,16.5C 10.1818,15.7573 10.8485,15.0906 11.5,14.5C 12.5,14.5 13.5,14.5 14.5,14.5C 15.1667,15.8333 15.8333,15.8333 16.5,14.5C 16.8333,14.5 17.1667,14.5 17.5,14.5C 17.5,15.5 17.5,16.5 17.5,17.5C 12.0299,18.0932 7.02985,17.0932 2.5,14.5C 3.49162,14.6716 4.15829,14.3382 4.5,13.5 Z"/></g>
<g><path style="opacity:1" fill="#6f4507" d="M 17.5,3.5 C 17.8333,3.5 18.1667,3.5 18.5,3.5C 18.8205,8.69463 18.4872,13.6946 17.5,18.5C 12.1667,18.5 6.83333,18.5 1.5,18.5C 1.5,17.1667 1.5,15.8333 1.5,14.5C 1.83333,14.5 2.16667,14.5 2.5,14.5C 7.02985,17.0932 12.0299,18.0932 17.5,17.5C 17.5,16.5 17.5,15.5 17.5,14.5C 17.5,10.8333 17.5,7.16667 17.5,3.5 Z"/></g>
</svg>
