<?xml version="1.0" encoding="UTF-8"?>
<!DOCTYPE svg PUBLIC "-//W3C//DTD SVG 1.1//EN" "http://www.w3.org/Graphics/SVG/1.1/DTD/svg11.dtd">
<svg xmlns="http://www.w3.org/2000/svg" version="1.1" width="20px" height="20px" style="shape-rendering:geometricPrecision; text-rendering:geometricPrecision; image-rendering:optimizeQuality; fill-rule:evenodd; clip-rule:evenodd" xmlns:xlink="http://www.w3.org/1999/xlink">
<g><path style="opacity:0.91" fill="#1c1100" d="M 6.5,-0.5 C 8.5,-0.5 10.5,-0.5 12.5,-0.5C 14.2608,0.312714 15.9275,1.31271 17.5,2.5C 17.5,2.83333 17.5,3.16667 17.5,3.5C 16.391,3.44312 15.391,3.10978 14.5,2.5C 11.1667,-0.166667 7.83333,-0.166667 4.5,2.5C 4.16667,2.5 3.83333,2.5 3.5,2.5C 3.5,2.16667 3.5,1.83333 3.5,1.5C 4.5,0.833333 5.5,0.166667 6.5,-0.5 Z"/></g>
<g><path style="opacity:1" fill="#b46708" d="M 14.5,2.5 C 14.5,3.16667 14.1667,3.5 13.5,3.5C 10.6146,3.1936 7.9479,3.52693 5.5,4.5C 4.83333,4.5 4.16667,4.5 3.5,4.5C 3.83333,3.83333 4.16667,3.16667 4.5,2.5C 7.83333,-0.166667 11.1667,-0.166667 14.5,2.5 Z"/></g>
<g><path style="opacity:0.061" fill="#130c00" d="M 3.5,1.5 C 3.5,1.83333 3.5,2.16667 3.5,2.5C 2.88258,2.61071 2.38258,2.94404 2,3.5C 1.50137,7.15159 1.3347,10.8183 1.5,14.5C 1.5,15.8333 1.5,17.1667 1.5,18.5C 1.5,18.8333 1.5,19.1667 1.5,19.5C 0.833333,19.5 0.166667,19.5 -0.5,19.5C -0.5,14.1667 -0.5,8.83333 -0.5,3.5C 0.60486,2.39952 1.93819,1.73286 3.5,1.5 Z"/></g>
<g><path style="opacity:1" fill="#dbac74" d="M 5.5,4.5 C 7.9479,3.52693 10.6146,3.1936 13.5,3.5C 13.5,3.83333 13.5,4.16667 13.5,4.5C 12.209,4.26269 11.209,4.59603 10.5,5.5C 9.83333,5.5 9.16667,5.5 8.5,5.5C 7.79105,4.59603 6.79105,4.26269 5.5,4.5 Z"/></g>
<g><path style="opacity:0.068" fill="#120a00" d="M 17.5,2.5 C 18.1667,2.83333 18.8333,3.16667 19.5,3.5C 19.5,8.83333 19.5,14.1667 19.5,19.5C 18.8333,19.5 18.1667,19.5 17.5,19.5C 17.5,19.1667 17.5,18.8333 17.5,18.5C 17.5,17.1667 17.5,15.8333 17.5,14.5C 17.5,10.8333 17.5,7.16667 17.5,3.5C 17.5,3.16667 17.5,2.83333 17.5,2.5 Z"/></g>
<g><path style="opacity:1" fill="#faf0e6" d="M 10.5,5.5 C 11.209,4.59603 12.209,4.26269 13.5,4.5C 14.1667,4.5 14.8333,4.5 15.5,4.5C 15.6602,6.19919 15.4935,7.86586 15,9.5C 14.6174,8.94404 14.1174,8.61071 13.5,8.5C 13.1667,7.5 12.5,6.83333 11.5,6.5C 11.5,5.83333 11.1667,5.5 10.5,5.5 Z"/></g>
<g><path style="opacity:1" fill="#a86711" d="M 14.5,2.5 C 15.391,3.10978 16.391,3.44312 17.5,3.5C 17.5,7.16667 17.5,10.8333 17.5,14.5C 16.1667,14.8333 14.8333,15.1667 13.5,15.5C 14.1667,14.5 14.8333,13.5 15.5,12.5C 16.8333,9.83333 16.8333,7.16667 15.5,4.5C 14.8333,4.5 14.1667,4.5 13.5,4.5C 13.5,4.16667 13.5,3.83333 13.5,3.5C 14.1667,3.5 14.5,3.16667 14.5,2.5 Z"/></g>
<g><path style="opacity:1" fill="#f5ece1" d="M 3.5,4.5 C 4.16667,4.5 4.83333,4.5 5.5,4.5C 6.79105,4.26269 7.79105,4.59603 8.5,5.5C 7.5,5.83333 6.83333,6.5 6.5,7.5C 5.54163,7.9528 4.7083,8.61947 4,9.5C 3.50649,7.86586 3.33982,6.19919 3.5,4.5 Z"/></g>
<g><path style="opacity:1" fill="#945b10" d="M 3.5,2.5 C 3.83333,2.5 4.16667,2.5 4.5,2.5C 4.16667,3.16667 3.83333,3.83333 3.5,4.5C 2.16667,7.16667 2.16667,9.83333 3.5,12.5C 4.5,13.8333 5.5,15.1667 6.5,16.5C 4.4458,16.6347 2.77914,15.968 1.5,14.5C 1.3347,10.8183 1.50137,7.15159 2,3.5C 2.38258,2.94404 2.88258,2.61071 3.5,2.5 Z"/></g>
<g><path style="opacity:1" fill="#a76112" d="M 8.5,5.5 C 9.16667,5.5 9.83333,5.5 10.5,5.5C 11.1667,5.5 11.5,5.83333 11.5,6.5C 10.3226,8.78433 8.65589,9.11766 6.5,7.5C 6.83333,6.5 7.5,5.83333 8.5,5.5 Z"/></g>
<g><path style="opacity:1" fill="#b9782f" d="M 15.5,4.5 C 16.8333,7.16667 16.8333,9.83333 15.5,12.5C 14.2022,12.7196 12.8688,12.0529 11.5,10.5C 11.8555,9.4777 12.5222,8.81103 13.5,8.5C 14.1174,8.61071 14.6174,8.94404 15,9.5C 15.4935,7.86586 15.6602,6.19919 15.5,4.5 Z"/></g>
<g><path style="opacity:1" fill="#b5792e" d="M 3.5,4.5 C 3.33982,6.19919 3.50649,7.86586 4,9.5C 4.7083,8.61947 5.54163,7.9528 6.5,7.5C 6.53944,8.58317 6.87277,9.58317 7.5,10.5C 6.13115,12.0529 4.79782,12.7196 3.5,12.5C 2.16667,9.83333 2.16667,7.16667 3.5,4.5 Z"/></g>
<g><path style="opacity:1" fill="#dbbd9b" d="M 11.5,6.5 C 12.5,6.83333 13.1667,7.5 13.5,8.5C 12.5222,8.81103 11.8555,9.4777 11.5,10.5C 12.8688,12.0529 14.2022,12.7196 15.5,12.5C 14.8333,13.5 14.1667,14.5 13.5,15.5C 12.5,15.8333 11.8333,16.5 11.5,17.5C 11.1667,17.5 10.8333,17.5 10.5,17.5C 9.04125,17.5674 7.70792,17.2341 6.5,16.5C 5.5,15.1667 4.5,13.8333 3.5,12.5C 4.79782,12.7196 6.13115,12.0529 7.5,10.5C 6.87277,9.58317 6.53944,8.58317 6.5,7.5C 8.65589,9.11766 10.3226,8.78433 11.5,6.5 Z"/></g>
<g><path style="opacity:1" fill="#b0712a" d="M 8.5,12.5 C 11.3881,13.5395 11.7214,14.8729 9.5,16.5C 7.29967,15.6754 6.96634,14.3421 8.5,12.5 Z"/></g>
<g><path style="opacity:1" fill="#8c560b" d="M 17.5,14.5 C 17.5,15.8333 17.5,17.1667 17.5,18.5C 15.2646,18.7947 13.2646,18.4614 11.5,17.5C 11.8333,16.5 12.5,15.8333 13.5,15.5C 14.8333,15.1667 16.1667,14.8333 17.5,14.5 Z"/></g>
<g><path style="opacity:1" fill="#7a4c1a" d="M 1.5,14.5 C 2.77914,15.968 4.4458,16.6347 6.5,16.5C 7.70792,17.2341 9.04125,17.5674 10.5,17.5C 7.7131,18.4767 4.7131,18.81 1.5,18.5C 1.5,17.1667 1.5,15.8333 1.5,14.5 Z"/></g>
<g><path style="opacity:0.933" fill="#321d0b" d="M 10.5,17.5 C 10.8333,17.5 11.1667,17.5 11.5,17.5C 13.2646,18.4614 15.2646,18.7947 17.5,18.5C 17.5,18.8333 17.5,19.1667 17.5,19.5C 12.1667,19.5 6.83333,19.5 1.5,19.5C 1.5,19.1667 1.5,18.8333 1.5,18.5C 4.7131,18.81 7.7131,18.4767 10.5,17.5 Z"/></g>
</svg>
