<?xml version="1.0" encoding="UTF-8"?>
<!DOCTYPE svg PUBLIC "-//W3C//DTD SVG 1.1//EN" "http://www.w3.org/Graphics/SVG/1.1/DTD/svg11.dtd">
<svg xmlns="http://www.w3.org/2000/svg" version="1.1" width="20px" height="20px" style="shape-rendering:geometricPrecision; text-rendering:geometricPrecision; image-rendering:optimizeQuality; fill-rule:evenodd; clip-rule:evenodd" xmlns:xlink="http://www.w3.org/1999/xlink">
<g><path style="opacity:0.047" fill="#1b1101" d="M 6.5,-0.5 C 8.5,-0.5 10.5,-0.5 12.5,-0.5C 12.5,0.166667 12.8333,0.5 13.5,0.5C 13.8333,1.16667 14.1667,1.83333 14.5,2.5C 13.8333,2.5 13.1667,2.5 12.5,2.5C 12.0377,1.12011 11.0377,0.453443 9.5,0.5C 7.01282,0.758661 5.01282,1.75866 3.5,3.5C 3.16667,3.5 2.83333,3.5 2.5,3.5C 1.51511,7.63441 1.18178,11.9677 1.5,16.5C 1.5,16.8333 1.5,17.1667 1.5,17.5C 0.515112,13.3656 0.181778,9.03225 0.5,4.5C 0.414228,3.5041 0.747561,2.67076 1.5,2C 3.31456,1.24316 4.98123,0.409824 6.5,-0.5 Z"/></g>
<g><path style="opacity:1" fill="#a26008" d="M 12.5,2.5 C 10.8333,2.5 9.16667,2.5 7.5,2.5C 6.16667,2.83333 4.83333,3.16667 3.5,3.5C 5.01282,1.75866 7.01282,0.758661 9.5,0.5C 11.0377,0.453443 12.0377,1.12011 12.5,2.5 Z"/></g>
<g><path style="opacity:1" fill="#d2882d" d="M 7.5,3.5 C 7.5,3.16667 7.5,2.83333 7.5,2.5C 9.16667,2.5 10.8333,2.5 12.5,2.5C 13.1667,2.5 13.8333,2.5 14.5,2.5C 14.5,3.16667 14.5,3.83333 14.5,4.5C 14.5,4.83333 14.5,5.16667 14.5,5.5C 12.2986,4.43363 9.96527,3.76697 7.5,3.5 Z"/></g>
<g><path style="opacity:0.249" fill="#180f01" d="M 13.5,0.5 C 15.5,1.16667 17.5,1.83333 19.5,2.5C 19.5,8.16667 19.5,13.8333 19.5,19.5C 13.5,19.5 7.5,19.5 1.5,19.5C 1.5,19.1667 1.5,18.8333 1.5,18.5C 7.02621,18.8214 12.3595,18.4881 17.5,17.5C 17.5,16.5 17.5,15.5 17.5,14.5C 17.8226,10.774 17.4892,7.10728 16.5,3.5C 15.8165,3.13727 15.1499,2.80393 14.5,2.5C 14.1667,1.83333 13.8333,1.16667 13.5,0.5 Z"/></g>
<g><path style="opacity:0.004" fill="#010000" d="M -0.5,4.5 C -0.166667,4.5 0.166667,4.5 0.5,4.5C 0.181778,9.03225 0.515112,13.3656 1.5,17.5C 1.5,17.8333 1.5,18.1667 1.5,18.5C 1.5,18.8333 1.5,19.1667 1.5,19.5C 0.833333,19.5 0.166667,19.5 -0.5,19.5C -0.5,14.5 -0.5,9.5 -0.5,4.5 Z"/></g>
<g><path style="opacity:1" fill="#be7411" d="M 7.5,2.5 C 7.5,2.83333 7.5,3.16667 7.5,3.5C 6.83333,3.5 6.5,3.83333 6.5,4.5C 4.82351,5.18342 4.15684,6.51676 4.5,8.5C 3.66175,8.84171 3.32842,9.50838 3.5,10.5C 2.53178,8.39263 2.19845,6.0593 2.5,3.5C 2.83333,3.5 3.16667,3.5 3.5,3.5C 4.83333,3.16667 6.16667,2.83333 7.5,2.5 Z"/></g>
<g><path style="opacity:1" fill="#f7e4cd" d="M 7.5,3.5 C 9.96527,3.76697 12.2986,4.43363 14.5,5.5C 14.762,6.97782 14.4287,8.31116 13.5,9.5C 12.1395,9.78764 10.8062,10.121 9.5,10.5C 8.40191,9.60305 8.40191,8.76971 9.5,8C 7.94425,7.27985 6.94425,6.11318 6.5,4.5C 6.5,3.83333 6.83333,3.5 7.5,3.5 Z"/></g>
<g><path style="opacity:1" fill="#f1dbbf" d="M 6.5,4.5 C 6.94425,6.11318 7.94425,7.27985 9.5,8C 8.40191,8.76971 8.40191,9.60305 9.5,10.5C 7.83333,9.83333 6.16667,9.16667 4.5,8.5C 4.15684,6.51676 4.82351,5.18342 6.5,4.5 Z"/></g>
<g><path style="opacity:1" fill="#c17912" d="M 14.5,5.5 C 14.5,5.16667 14.5,4.83333 14.5,4.5C 16.4023,7.33732 17.069,10.6707 16.5,14.5C 15.8333,14.5 15.5,14.1667 15.5,13.5C 15.8064,10.6146 15.4731,7.9479 14.5,5.5 Z"/></g>
<g><path style="opacity:1" fill="#a56404" d="M 14.5,2.5 C 15.1499,2.80393 15.8165,3.13727 16.5,3.5C 17.4892,7.10728 17.8226,10.774 17.5,14.5C 17.1667,14.5 16.8333,14.5 16.5,14.5C 17.069,10.6707 16.4023,7.33732 14.5,4.5C 14.5,3.83333 14.5,3.16667 14.5,2.5 Z"/></g>
<g><path style="opacity:1" fill="#f9f2e9" d="M 4.5,8.5 C 6.16667,9.16667 7.83333,9.83333 9.5,10.5C 9.5,10.8333 9.5,11.1667 9.5,11.5C 7.58533,11.2155 5.91866,11.5489 4.5,12.5C 3.66175,12.1583 3.32842,11.4916 3.5,10.5C 3.32842,9.50838 3.66175,8.84171 4.5,8.5 Z"/></g>
<g><path style="opacity:1" fill="#eacda6" d="M 14.5,5.5 C 15.4731,7.9479 15.8064,10.6146 15.5,13.5C 15.1667,13.5 14.8333,13.5 14.5,13.5C 14.1788,11.9519 13.1788,11.2852 11.5,11.5C 11.7535,13.4008 11.4202,14.0674 10.5,13.5C 10.6716,12.5084 10.3382,11.8417 9.5,11.5C 9.5,11.1667 9.5,10.8333 9.5,10.5C 10.8062,10.121 12.1395,9.78764 13.5,9.5C 14.4287,8.31116 14.762,6.97782 14.5,5.5 Z"/></g>
<g><path style="opacity:1" fill="#fdfaf9" d="M 9.5,11.5 C 10.3382,11.8417 10.6716,12.5084 10.5,13.5C 9.53261,14.8062 8.19928,15.4729 6.5,15.5C 5.83333,14.5 5.16667,13.5 4.5,12.5C 5.91866,11.5489 7.58533,11.2155 9.5,11.5 Z"/></g>
<g><path style="opacity:1" fill="#f9f5ef" d="M 14.5,13.5 C 14.573,15.0269 13.9063,16.0269 12.5,16.5C 10.2646,16.7947 8.26465,16.4614 6.5,15.5C 8.19928,15.4729 9.53261,14.8062 10.5,13.5C 11.4202,14.0674 11.7535,13.4008 11.5,11.5C 13.1788,11.2852 14.1788,11.9519 14.5,13.5 Z"/></g>
<g><path style="opacity:1" fill="#99641e" d="M 2.5,3.5 C 2.19845,6.0593 2.53178,8.39263 3.5,10.5C 3.32842,11.4916 3.66175,12.1583 4.5,12.5C 5.16667,13.5 5.83333,14.5 6.5,15.5C 8.26465,16.4614 10.2646,16.7947 12.5,16.5C 12.5,16.8333 12.5,17.1667 12.5,17.5C 8.78519,17.577 5.11853,17.2436 1.5,16.5C 1.18178,11.9677 1.51511,7.63441 2.5,3.5 Z"/></g>
<g><path style="opacity:1" fill="#955e13" d="M 14.5,13.5 C 14.8333,13.5 15.1667,13.5 15.5,13.5C 15.5,14.1667 15.8333,14.5 16.5,14.5C 16.8333,14.5 17.1667,14.5 17.5,14.5C 17.5,15.5 17.5,16.5 17.5,17.5C 15.8333,17.5 14.1667,17.5 12.5,17.5C 12.5,17.1667 12.5,16.8333 12.5,16.5C 13.9063,16.0269 14.573,15.0269 14.5,13.5 Z"/></g>
<g><path style="opacity:1" fill="#734707" d="M 1.5,16.5 C 5.11853,17.2436 8.78519,17.577 12.5,17.5C 14.1667,17.5 15.8333,17.5 17.5,17.5C 12.3595,18.4881 7.02621,18.8214 1.5,18.5C 1.5,18.1667 1.5,17.8333 1.5,17.5C 1.5,17.1667 1.5,16.8333 1.5,16.5 Z"/></g>
</svg>
