<?xml version="1.0" encoding="UTF-8"?>
<!DOCTYPE svg PUBLIC "-//W3C//DTD SVG 1.1//EN" "http://www.w3.org/Graphics/SVG/1.1/DTD/svg11.dtd">
<svg xmlns="http://www.w3.org/2000/svg" version="1.1" width="20px" height="20px" style="shape-rendering:geometricPrecision; text-rendering:geometricPrecision; image-rendering:optimizeQuality; fill-rule:evenodd; clip-rule:evenodd" xmlns:xlink="http://www.w3.org/1999/xlink">
<g><path style="opacity:1" fill="#86403a" d="M 1.5,-0.5 C 6.83333,-0.5 12.1667,-0.5 17.5,-0.5C 17.5,-0.166667 17.5,0.166667 17.5,0.5C 12.5,0.5 7.5,0.5 2.5,0.5C 2.5,2.16667 2.5,3.83333 2.5,5.5C 2.5,6.16667 2.5,6.83333 2.5,7.5C 2.5,8.83333 2.5,10.1667 2.5,11.5C 2.5,11.8333 2.5,12.1667 2.5,12.5C 1.51511,8.36559 1.18178,4.03225 1.5,-0.5 Z"/></g>
<g><path style="opacity:1" fill="#e39a90" d="M 17.5,0.5 C 17.5,2.16667 17.5,3.83333 17.5,5.5C 16.5655,4.43236 16.2322,3.09903 16.5,1.5C 15.5,1.5 14.5,1.5 13.5,1.5C 12.1667,1.5 10.8333,1.5 9.5,1.5C 7.5,1.5 5.5,1.5 3.5,1.5C 3.5,2.5 3.5,3.5 3.5,4.5C 3.5,5.16667 3.16667,5.5 2.5,5.5C 2.5,3.83333 2.5,2.16667 2.5,0.5C 7.5,0.5 12.5,0.5 17.5,0.5 Z"/></g>
<g><path style="opacity:1" fill="#e48c7e" d="M 9.5,1.5 C 8.5,2.5 7.5,3.5 6.5,4.5C 5.5,4.5 4.5,4.5 3.5,4.5C 3.5,3.5 3.5,2.5 3.5,1.5C 5.5,1.5 7.5,1.5 9.5,1.5 Z"/></g>
<g><path style="opacity:1" fill="#d65945" d="M 13.5,1.5 C 14.5,1.5 15.5,1.5 16.5,1.5C 16.2322,3.09903 16.5655,4.43236 17.5,5.5C 17.7678,7.09903 17.4345,8.43236 16.5,9.5C 16.5979,7.44708 15.9313,5.78041 14.5,4.5C 13.8333,4.5 13.5,4.16667 13.5,3.5C 13.5,2.83333 13.5,2.16667 13.5,1.5 Z"/></g>
<g><path style="opacity:1" fill="#c56d59" d="M 9.5,1.5 C 10.8333,1.5 12.1667,1.5 13.5,1.5C 13.5,2.16667 13.5,2.83333 13.5,3.5C 9.6509,3.01934 7.6509,4.686 7.5,8.5C 6.56552,7.43236 6.23219,6.09903 6.5,4.5C 7.5,3.5 8.5,2.5 9.5,1.5 Z"/></g>
<g><path style="opacity:0.122" fill="#500805" d="M 17.5,0.5 C 17.5,0.166667 17.5,-0.166667 17.5,-0.5C 18.1667,-0.5 18.8333,-0.5 19.5,-0.5C 19.5,4.83333 19.5,10.1667 19.5,15.5C 19.1667,15.5 18.8333,15.5 18.5,15.5C 18.5,14.8333 18.5,14.1667 18.5,13.5C 18.8182,8.96775 18.4849,4.63441 17.5,0.5 Z"/></g>
<g><path style="opacity:1" fill="#2f3417" d="M 3.5,4.5 C 4.5,4.5 5.5,4.5 6.5,4.5C 6.23219,6.09903 6.56552,7.43236 7.5,8.5C 6.83333,9.16667 6.16667,9.83333 5.5,10.5C 4.89992,9.09982 3.89992,8.09982 2.5,7.5C 2.5,6.83333 2.5,6.16667 2.5,5.5C 3.16667,5.5 3.5,5.16667 3.5,4.5 Z"/></g>
<g><path style="opacity:0.886" fill="#70221c" d="M 17.5,0.5 C 18.4849,4.63441 18.8182,8.96775 18.5,13.5C 18.1667,13.5 17.8333,13.5 17.5,13.5C 17.7373,12.209 17.404,11.209 16.5,10.5C 16.5,10.1667 16.5,9.83333 16.5,9.5C 17.4345,8.43236 17.7678,7.09903 17.5,5.5C 17.5,3.83333 17.5,2.16667 17.5,0.5 Z"/></g>
<g><path style="opacity:1" fill="#1f3207" d="M 13.5,3.5 C 13.5,4.16667 13.8333,4.5 14.5,4.5C 14.6716,5.49162 14.3382,6.15829 13.5,6.5C 12.2918,5.21798 10.9584,5.21798 9.5,6.5C 8.62578,8.7466 8.29245,11.0799 8.5,13.5C 8.16667,13.5 7.83333,13.5 7.5,13.5C 7.5,12.1667 6.83333,11.5 5.5,11.5C 5.5,11.1667 5.5,10.8333 5.5,10.5C 6.16667,9.83333 6.83333,9.16667 7.5,8.5C 7.6509,4.686 9.6509,3.01934 13.5,3.5 Z"/></g>
<g><path style="opacity:1" fill="#2b4a0a" d="M 13.5,6.5 C 13.5,8.16667 13.5,9.83333 13.5,11.5C 12.209,11.2627 11.209,11.596 10.5,12.5C 9.77842,12.9175 9.27842,13.5842 9,14.5C 8.60123,14.2716 8.43456,13.9382 8.5,13.5C 8.29245,11.0799 8.62578,8.7466 9.5,6.5C 10.9584,5.21798 12.2918,5.21798 13.5,6.5 Z"/></g>
<g><path style="opacity:1" fill="#2d3108" d="M 14.5,4.5 C 15.9313,5.78041 16.5979,7.44708 16.5,9.5C 16.5,9.83333 16.5,10.1667 16.5,10.5C 15.9779,12.2191 14.9779,13.5525 13.5,14.5C 13.1788,12.9519 12.1788,12.2852 10.5,12.5C 11.209,11.596 12.209,11.2627 13.5,11.5C 13.5,9.83333 13.5,8.16667 13.5,6.5C 14.3382,6.15829 14.6716,5.49162 14.5,4.5 Z"/></g>
<g><path style="opacity:1" fill="#df8b7c" d="M 2.5,7.5 C 3.89992,8.09982 4.89992,9.09982 5.5,10.5C 5.5,10.8333 5.5,11.1667 5.5,11.5C 4.5,11.5 3.5,11.5 2.5,11.5C 2.5,10.1667 2.5,8.83333 2.5,7.5 Z"/></g>
<g><path style="opacity:1" fill="#d64028" d="M 2.5,11.5 C 3.5,11.5 4.5,11.5 5.5,11.5C 6.83333,11.5 7.5,12.1667 7.5,13.5C 7.5,14.8333 6.83333,15.5 5.5,15.5C 4.83333,15.5 4.16667,15.5 3.5,15.5C 2.89022,14.609 2.55688,13.609 2.5,12.5C 2.5,12.1667 2.5,11.8333 2.5,11.5 Z"/></g>
<g><path style="opacity:0.482" fill="#601410" d="M 0.5,-0.5 C 0.833333,-0.5 1.16667,-0.5 1.5,-0.5C 1.18178,4.03225 1.51511,8.36559 2.5,12.5C 2.55688,13.609 2.89022,14.609 3.5,15.5C 2.83333,15.5 2.16667,15.5 1.5,15.5C 0.511923,10.3595 0.178589,5.02621 0.5,-0.5 Z"/></g>
<g><path style="opacity:1" fill="#cb3e26" d="M 10.5,12.5 C 12.1788,12.2852 13.1788,12.9519 13.5,14.5C 12.8333,15.5 12.1667,16.5 11.5,17.5C 11.5,18.1667 11.1667,18.5 10.5,18.5C 8.32604,18.2503 6.65938,17.2503 5.5,15.5C 6.83333,15.5 7.5,14.8333 7.5,13.5C 7.83333,13.5 8.16667,13.5 8.5,13.5C 8.43456,13.9382 8.60123,14.2716 9,14.5C 9.27842,13.5842 9.77842,12.9175 10.5,12.5 Z"/></g>
<g><path style="opacity:1" fill="#ae4a38" d="M 16.5,10.5 C 17.404,11.209 17.7373,12.209 17.5,13.5C 15.8525,15.3264 13.8525,16.6597 11.5,17.5C 12.1667,16.5 12.8333,15.5 13.5,14.5C 14.9779,13.5525 15.9779,12.2191 16.5,10.5 Z"/></g>
<g><path style="opacity:0.196" fill="#570e0b" d="M 17.5,13.5 C 17.8333,13.5 18.1667,13.5 18.5,13.5C 18.5,14.1667 18.5,14.8333 18.5,15.5C 16.4632,16.8465 14.4632,18.1798 12.5,19.5C 11.8333,19.5 11.1667,19.5 10.5,19.5C 10.5,19.1667 10.5,18.8333 10.5,18.5C 11.1667,18.5 11.5,18.1667 11.5,17.5C 13.8525,16.6597 15.8525,15.3264 17.5,13.5 Z"/></g>
<g><path style="opacity:0.51" fill="#5e130f" d="M 1.5,15.5 C 2.16667,15.5 2.83333,15.5 3.5,15.5C 4.16667,15.5 4.83333,15.5 5.5,15.5C 6.65938,17.2503 8.32604,18.2503 10.5,18.5C 10.5,18.8333 10.5,19.1667 10.5,19.5C 9.16667,19.5 7.83333,19.5 6.5,19.5C 5.01583,17.9263 3.34916,16.593 1.5,15.5 Z"/></g>
</svg>
