<?xml version="1.0" encoding="UTF-8"?>
<!DOCTYPE svg PUBLIC "-//W3C//DTD SVG 1.1//EN" "http://www.w3.org/Graphics/SVG/1.1/DTD/svg11.dtd">
<svg xmlns="http://www.w3.org/2000/svg" version="1.1" width="20px" height="20px" style="shape-rendering:geometricPrecision; text-rendering:geometricPrecision; image-rendering:optimizeQuality; fill-rule:evenodd; clip-rule:evenodd" xmlns:xlink="http://www.w3.org/1999/xlink">
<g><path style="opacity:1" fill="#b06406" d="M 6.5,0.5 C 10.081,0.137636 13.081,1.13764 15.5,3.5C 15.1667,3.5 14.8333,3.5 14.5,3.5C 10.9581,3.18723 7.62482,3.52056 4.5,4.5C 4.16667,4.5 3.83333,4.5 3.5,4.5C 3.16667,4.5 2.83333,4.5 2.5,4.5C 2.5,4.16667 2.5,3.83333 2.5,3.5C 3.87165,2.48837 5.20498,1.48837 6.5,0.5 Z"/></g>
<g><path style="opacity:0.076" fill="#180e01" d="M 6.5,0.5 C 6.5,0.166667 6.5,-0.166667 6.5,-0.5C 8.5,-0.5 10.5,-0.5 12.5,-0.5C 14.2608,0.312714 15.9275,1.31271 17.5,2.5C 17.5,2.83333 17.5,3.16667 17.5,3.5C 17.1667,3.5 16.8333,3.5 16.5,3.5C 16.1667,3.5 15.8333,3.5 15.5,3.5C 13.081,1.13764 10.081,0.137636 6.5,0.5 Z"/></g>
<g><path style="opacity:0.064" fill="#1a1002" d="M 17.5,2.5 C 18.1667,2.5 18.8333,2.5 19.5,2.5C 19.5,8.16667 19.5,13.8333 19.5,19.5C 13.5,19.5 7.5,19.5 1.5,19.5C 1.5,19.1667 1.5,18.8333 1.5,18.5C 7.02621,18.8214 12.3595,18.4881 17.5,17.5C 17.5,12.8333 17.5,8.16667 17.5,3.5C 17.5,3.16667 17.5,2.83333 17.5,2.5 Z"/></g>
<g><path style="opacity:0.004" fill="#110900" d="M 6.5,0.5 C 5.20498,1.48837 3.87165,2.48837 2.5,3.5C 1.52333,6.2869 1.19,9.2869 1.5,12.5C 1.5,14.5 1.5,16.5 1.5,18.5C 1.5,18.8333 1.5,19.1667 1.5,19.5C 0.833333,19.5 0.166667,19.5 -0.5,19.5C -0.5,14.1667 -0.5,8.83333 -0.5,3.5C 1.46052,1.6878 3.79385,0.687796 6.5,0.5 Z"/></g>
<g><path style="opacity:1" fill="#f2dec5" d="M 3.5,4.5 C 3.83333,4.5 4.16667,4.5 4.5,4.5C 5.5,4.5 6.5,4.5 7.5,4.5C 7.5,5.5 7.5,6.5 7.5,7.5C 7.66212,9.5273 7.49546,11.5273 7,13.5C 6.80912,11.2922 6.30912,9.29221 5.5,7.5C 3.95186,7.17876 3.28519,6.17876 3.5,4.5 Z"/></g>
<g><path style="opacity:1" fill="#f7e9d8" d="M 7.5,4.5 C 8.97782,4.23798 10.3112,4.57131 11.5,5.5C 9.77111,7.85111 9.10445,10.5178 9.5,13.5C 10.5511,14.2223 11.2178,15.2223 11.5,16.5C 10.0222,16.762 8.68884,16.4287 7.5,15.5C 8.77574,12.6969 8.77574,10.0303 7.5,7.5C 7.5,6.5 7.5,5.5 7.5,4.5 Z"/></g>
<g><path style="opacity:1" fill="#efcfa9" d="M 4.5,4.5 C 7.62482,3.52056 10.9581,3.18723 14.5,3.5C 14.9234,4.26456 15.2568,5.09789 15.5,6C 14.5705,7.0769 13.9038,8.24356 13.5,9.5C 13.3653,11.5542 14.032,13.2209 15.5,14.5C 14.5,14.5 13.5,14.5 12.5,14.5C 12.3059,10.9952 11.3059,10.6618 9.5,13.5C 9.10445,10.5178 9.77111,7.85111 11.5,5.5C 10.3112,4.57131 8.97782,4.23798 7.5,4.5C 6.5,4.5 5.5,4.5 4.5,4.5 Z"/></g>
<g><path style="opacity:1" fill="#a2610c" d="M 16.5,3.5 C 16.8333,3.5 17.1667,3.5 17.5,3.5C 17.5,8.16667 17.5,12.8333 17.5,17.5C 16.5,17.5 15.5,17.5 14.5,17.5C 14.5,17.1667 14.5,16.8333 14.5,16.5C 15.3382,16.1583 15.6716,15.4916 15.5,14.5C 16.4511,13.0813 16.7845,11.4147 16.5,9.5C 16.5,7.5 16.5,5.5 16.5,3.5 Z"/></g>
<g><path style="opacity:1" fill="#bc770c" d="M 2.5,4.5 C 2.83333,4.5 3.16667,4.5 3.5,4.5C 3.28519,6.17876 3.95186,7.17876 5.5,7.5C 5.5,7.83333 5.5,8.16667 5.5,8.5C 4.84233,9.39836 4.17566,10.3984 3.5,11.5C 2.52577,9.25731 2.19244,6.92397 2.5,4.5 Z"/></g>
<g><path style="opacity:1" fill="#cf7610" d="M 14.5,3.5 C 14.8333,3.5 15.1667,3.5 15.5,3.5C 15.8333,3.5 16.1667,3.5 16.5,3.5C 16.5,5.5 16.5,7.5 16.5,9.5C 15.5,9.5 14.5,9.5 13.5,9.5C 13.9038,8.24356 14.5705,7.0769 15.5,6C 15.2568,5.09789 14.9234,4.26456 14.5,3.5 Z"/></g>
<g><path style="opacity:1" fill="#a56809" d="M 2.5,3.5 C 2.5,3.83333 2.5,4.16667 2.5,4.5C 2.19244,6.92397 2.52577,9.25731 3.5,11.5C 4.17566,10.3984 4.84233,9.39836 5.5,8.5C 5.94649,11.0101 5.27983,13.0101 3.5,14.5C 2.83333,13.8333 2.16667,13.1667 1.5,12.5C 1.19,9.2869 1.52333,6.2869 2.5,3.5 Z"/></g>
<g><path style="opacity:1" fill="#c27103" d="M 13.5,9.5 C 14.5,9.5 15.5,9.5 16.5,9.5C 16.7845,11.4147 16.4511,13.0813 15.5,14.5C 14.032,13.2209 13.3653,11.5542 13.5,9.5 Z"/></g>
<g><path style="opacity:1" fill="#dec3a2" d="M 5.5,7.5 C 6.30912,9.29221 6.80912,11.2922 7,13.5C 7.49546,11.5273 7.66212,9.5273 7.5,7.5C 8.77574,10.0303 8.77574,12.6969 7.5,15.5C 8.68884,16.4287 10.0222,16.762 11.5,16.5C 12.5,16.5 13.5,16.5 14.5,16.5C 14.5,16.8333 14.5,17.1667 14.5,17.5C 11.1501,17.665 7.81677,17.4983 4.5,17C 3.74756,16.3292 3.41423,15.4959 3.5,14.5C 5.27983,13.0101 5.94649,11.0101 5.5,8.5C 5.5,8.16667 5.5,7.83333 5.5,7.5 Z"/></g>
<g><path style="opacity:1" fill="#efdec8" d="M 15.5,14.5 C 15.6716,15.4916 15.3382,16.1583 14.5,16.5C 13.5,16.5 12.5,16.5 11.5,16.5C 11.2178,15.2223 10.5511,14.2223 9.5,13.5C 11.3059,10.6618 12.3059,10.9952 12.5,14.5C 13.5,14.5 14.5,14.5 15.5,14.5 Z"/></g>
<g><path style="opacity:1" fill="#734813" d="M 1.5,12.5 C 2.16667,13.1667 2.83333,13.8333 3.5,14.5C 3.41423,15.4959 3.74756,16.3292 4.5,17C 7.81677,17.4983 11.1501,17.665 14.5,17.5C 15.5,17.5 16.5,17.5 17.5,17.5C 12.3595,18.4881 7.02621,18.8214 1.5,18.5C 1.5,16.5 1.5,14.5 1.5,12.5 Z"/></g>
</svg>
