<?xml version="1.0" encoding="UTF-8"?>
<!DOCTYPE svg PUBLIC "-//W3C//DTD SVG 1.1//EN" "http://www.w3.org/Graphics/SVG/1.1/DTD/svg11.dtd">
<svg xmlns="http://www.w3.org/2000/svg" version="1.1" width="20px" height="20px" style="shape-rendering:geometricPrecision; text-rendering:geometricPrecision; image-rendering:optimizeQuality; fill-rule:evenodd; clip-rule:evenodd" xmlns:xlink="http://www.w3.org/1999/xlink">
<g><path style="opacity:1" fill="#5a4640" d="M 14.5,0.5 C 15.5,0.5 16.5,0.5 17.5,0.5C 18.4345,1.56764 18.7678,2.90097 18.5,4.5C 18.5,6.83333 18.5,9.16667 18.5,11.5C 18.1667,11.5 17.8333,11.5 17.5,11.5C 17.5,9.16667 17.5,6.83333 17.5,4.5C 17.7148,2.82124 17.0481,1.82124 15.5,1.5C 14.8333,1.5 14.5,1.16667 14.5,0.5 Z"/></g>
<g><path style="opacity:1" fill="#4d3a34" d="M 4.5,0.5 C 4.5,0.833333 4.5,1.16667 4.5,1.5C 4.16667,1.5 3.83333,1.5 3.5,1.5C 2.06873,2.78041 1.40206,4.44708 1.5,6.5C 1.16667,6.5 0.833333,6.5 0.5,6.5C 0.5,4.5 0.5,2.5 0.5,0.5C 1.83333,0.5 3.16667,0.5 4.5,0.5 Z"/></g>
<g><path style="opacity:1" fill="#7a645f" d="M 4.5,1.5 C 4.5,1.16667 4.5,0.833333 4.5,0.5C 7.83333,0.5 11.1667,0.5 14.5,0.5C 14.5,1.16667 14.8333,1.5 15.5,1.5C 15.5569,2.60895 15.8902,3.60895 16.5,4.5C 16.1667,4.5 15.8333,4.5 15.5,4.5C 14.8333,4.5 14.5,4.16667 14.5,3.5C 13.7095,2.59872 12.7095,1.93205 11.5,1.5C 11.1667,1.5 10.8333,1.5 10.5,1.5C 9.5,1.5 8.5,1.5 7.5,1.5C 6.5,1.5 5.5,1.5 4.5,1.5 Z"/></g>
<g><path style="opacity:0.573" fill="#2e231e" d="M -0.5,-0.5 C 5.5,-0.5 11.5,-0.5 17.5,-0.5C 17.5,-0.166667 17.5,0.166667 17.5,0.5C 16.5,0.5 15.5,0.5 14.5,0.5C 11.1667,0.5 7.83333,0.5 4.5,0.5C 3.16667,0.5 1.83333,0.5 0.5,0.5C 0.5,2.5 0.5,4.5 0.5,6.5C 0.5,8.16667 0.5,9.83333 0.5,11.5C 0.166667,11.5 -0.166667,11.5 -0.5,11.5C -0.5,7.5 -0.5,3.5 -0.5,-0.5 Z"/></g>
<g><path style="opacity:1" fill="#836b63" d="M 3.5,1.5 C 3.83333,1.5 4.16667,1.5 4.5,1.5C 5.5,1.5 6.5,1.5 7.5,1.5C 7.5,1.83333 7.5,2.16667 7.5,2.5C 5.82124,2.28519 4.82124,2.95186 4.5,4.5C 4.16667,4.5 3.83333,4.5 3.5,4.5C 3.5,3.5 3.5,2.5 3.5,1.5 Z"/></g>
<g><path style="opacity:1" fill="#9a8882" d="M 11.5,1.5 C 12.7095,1.93205 13.7095,2.59872 14.5,3.5C 13.5084,3.32842 12.8417,3.66175 12.5,4.5C 11.596,3.79105 11.2627,2.79105 11.5,1.5 Z"/></g>
<g><path style="opacity:1" fill="#715851" d="M 15.5,1.5 C 17.0481,1.82124 17.7148,2.82124 17.5,4.5C 17.1667,4.5 16.8333,4.5 16.5,4.5C 15.8902,3.60895 15.5569,2.60895 15.5,1.5 Z"/></g>
<g><path style="opacity:0.643" fill="#241d15" d="M 17.5,0.5 C 17.5,0.166667 17.5,-0.166667 17.5,-0.5C 18.1667,-0.5 18.8333,-0.5 19.5,-0.5C 19.5,1.16667 19.5,2.83333 19.5,4.5C 19.1667,4.5 18.8333,4.5 18.5,4.5C 18.7678,2.90097 18.4345,1.56764 17.5,0.5 Z"/></g>
<g><path style="opacity:1" fill="#9c8a7e" d="M 7.5,2.5 C 7.67158,3.49162 7.33825,4.15829 6.5,4.5C 5.83333,4.5 5.16667,4.5 4.5,4.5C 4.82124,2.95186 5.82124,2.28519 7.5,2.5 Z"/></g>
<g><path style="opacity:1" fill="#eeeae7" d="M 10.5,2.5 C 10.5,3.83333 10.5,5.16667 10.5,6.5C 9.83333,6.5 9.16667,6.5 8.5,6.5C 8.15684,4.51676 8.82351,3.18342 10.5,2.5 Z"/></g>
<g><path style="opacity:1" fill="#715b52" d="M 3.5,1.5 C 3.5,2.5 3.5,3.5 3.5,4.5C 3.73731,5.79105 3.40397,6.79105 2.5,7.5C 2.16667,7.5 1.83333,7.5 1.5,7.5C 1.5,7.16667 1.5,6.83333 1.5,6.5C 1.40206,4.44708 2.06873,2.78041 3.5,1.5 Z"/></g>
<g><path style="opacity:1" fill="#a3938b" d="M 7.5,1.5 C 8.5,1.5 9.5,1.5 10.5,1.5C 10.5,1.83333 10.5,2.16667 10.5,2.5C 8.82351,3.18342 8.15684,4.51676 8.5,6.5C 8.16667,6.5 7.83333,6.5 7.5,6.5C 7.16667,5.83333 6.83333,5.16667 6.5,4.5C 7.33825,4.15829 7.67158,3.49162 7.5,2.5C 7.5,2.16667 7.5,1.83333 7.5,1.5 Z"/></g>
<g><path style="opacity:1" fill="#b4a59f" d="M 10.5,1.5 C 10.8333,1.5 11.1667,1.5 11.5,1.5C 11.2627,2.79105 11.596,3.79105 12.5,4.5C 11.8902,5.39105 11.5569,6.39105 11.5,7.5C 11.1667,7.5 10.8333,7.5 10.5,7.5C 10.5,7.16667 10.5,6.83333 10.5,6.5C 10.5,5.16667 10.5,3.83333 10.5,2.5C 10.5,2.16667 10.5,1.83333 10.5,1.5 Z"/></g>
<g><path style="opacity:1" fill="#dcd4d3" d="M 12.5,4.5 C 12.8417,3.66175 13.5084,3.32842 14.5,3.5C 14.5,4.16667 14.8333,4.5 15.5,4.5C 15.5,5.83333 14.8333,6.5 13.5,6.5C 13.6716,5.50838 13.3382,4.84171 12.5,4.5 Z"/></g>
<g><path style="opacity:1" fill="#af9e93" d="M 3.5,4.5 C 3.83333,4.5 4.16667,4.5 4.5,4.5C 4.42702,6.02694 5.09368,7.02694 6.5,7.5C 6.5,7.83333 6.5,8.16667 6.5,8.5C 5.16667,8.5 3.83333,8.5 2.5,8.5C 2.5,8.16667 2.5,7.83333 2.5,7.5C 3.40397,6.79105 3.73731,5.79105 3.5,4.5 Z"/></g>
<g><path style="opacity:1" fill="#eae5df" d="M 4.5,4.5 C 5.16667,4.5 5.83333,4.5 6.5,4.5C 6.83333,5.16667 7.16667,5.83333 7.5,6.5C 7.5,7.16667 7.16667,7.5 6.5,7.5C 5.09368,7.02694 4.42702,6.02694 4.5,4.5 Z"/></g>
<g><path style="opacity:1" fill="#ece8e7" d="M 12.5,4.5 C 13.3382,4.84171 13.6716,5.50838 13.5,6.5C 13.5,7.16667 13.1667,7.5 12.5,7.5C 12.1667,7.5 11.8333,7.5 11.5,7.5C 11.5569,6.39105 11.8902,5.39105 12.5,4.5 Z"/></g>
<g><path style="opacity:1" fill="#a9988c" d="M 15.5,4.5 C 15.8333,4.5 16.1667,4.5 16.5,4.5C 16.5,5.83333 16.5,7.16667 16.5,8.5C 15.1667,8.5 13.8333,8.5 12.5,8.5C 12.5,8.16667 12.5,7.83333 12.5,7.5C 13.1667,7.5 13.5,7.16667 13.5,6.5C 14.8333,6.5 15.5,5.83333 15.5,4.5 Z"/></g>
<g><path style="opacity:1" fill="#c5b7b3" d="M 7.5,6.5 C 7.83333,6.5 8.16667,6.5 8.5,6.5C 9.16667,6.5 9.83333,6.5 10.5,6.5C 10.5,6.83333 10.5,7.16667 10.5,7.5C 9.50838,7.32842 8.84171,7.66175 8.5,8.5C 7.66175,8.84171 7.32842,9.50838 7.5,10.5C 7.16667,10.5 6.83333,10.5 6.5,10.5C 6.5,9.83333 6.5,9.16667 6.5,8.5C 6.5,8.16667 6.5,7.83333 6.5,7.5C 7.16667,7.5 7.5,7.16667 7.5,6.5 Z"/></g>
<g><path style="opacity:1" fill="#beb2ac" d="M 8.5,8.5 C 8.84171,7.66175 9.50838,7.32842 10.5,7.5C 10.8333,7.5 11.1667,7.5 11.5,7.5C 11.8333,7.5 12.1667,7.5 12.5,7.5C 12.5,7.83333 12.5,8.16667 12.5,8.5C 12.5,9.16667 12.5,9.83333 12.5,10.5C 11.8333,10.1667 11.1667,9.83333 10.5,9.5C 10.1583,8.66175 9.49162,8.32842 8.5,8.5 Z"/></g>
<g><path style="opacity:1" fill="#e9dfdc" d="M 12.5,8.5 C 13.8333,8.5 15.1667,8.5 16.5,8.5C 16.5,8.83333 16.5,9.16667 16.5,9.5C 15.2921,10.2341 13.9587,10.5674 12.5,10.5C 12.5,9.83333 12.5,9.16667 12.5,8.5 Z"/></g>
<g><path style="opacity:1" fill="#e7dacf" d="M 2.5,8.5 C 3.83333,8.5 5.16667,8.5 6.5,8.5C 6.5,9.16667 6.5,9.83333 6.5,10.5C 4.51676,10.8432 3.18342,10.1765 2.5,8.5 Z"/></g>
<g><path style="opacity:1" fill="#a08f84" d="M 8.5,8.5 C 9.49162,8.32842 10.1583,8.66175 10.5,9.5C 9.79105,10.404 8.79105,10.7373 7.5,10.5C 7.32842,9.50838 7.66175,8.84171 8.5,8.5 Z"/></g>
<g><path style="opacity:1" fill="#9e867d" d="M 1.5,7.5 C 1.83333,7.5 2.16667,7.5 2.5,7.5C 2.5,7.83333 2.5,8.16667 2.5,8.5C 3.18342,10.1765 4.51676,10.8432 6.5,10.5C 6.83333,10.5 7.16667,10.5 7.5,10.5C 7.5,10.8333 7.5,11.1667 7.5,11.5C 6.39105,11.5569 5.39105,11.8902 4.5,12.5C 4.15829,11.6618 3.49162,11.3284 2.5,11.5C 1.56552,10.4324 1.23219,9.09903 1.5,7.5 Z"/></g>
<g><path style="opacity:1" fill="#b7aaa0" d="M 10.5,9.5 C 11.1667,9.83333 11.8333,10.1667 12.5,10.5C 12.5,10.8333 12.5,11.1667 12.5,11.5C 11.8333,11.5 11.5,11.8333 11.5,12.5C 11.1667,12.5 10.8333,12.5 10.5,12.5C 9.83333,12.5 9.16667,12.5 8.5,12.5C 8.16667,12.5 7.83333,12.5 7.5,12.5C 7.5,12.1667 7.5,11.8333 7.5,11.5C 7.5,11.1667 7.5,10.8333 7.5,10.5C 8.79105,10.7373 9.79105,10.404 10.5,9.5 Z"/></g>
<g><path style="opacity:1" fill="#e3d4c8" d="M 7.5,11.5 C 7.5,11.8333 7.5,12.1667 7.5,12.5C 7.02694,13.9063 6.02694,14.573 4.5,14.5C 4.5,13.8333 4.5,13.1667 4.5,12.5C 5.39105,11.8902 6.39105,11.5569 7.5,11.5 Z"/></g>
<g><path style="opacity:1" fill="#aa948e" d="M 16.5,9.5 C 16.5,11.1667 16.5,12.8333 16.5,14.5C 15.8333,14.5 15.1667,14.5 14.5,14.5C 14.573,12.9731 13.9063,11.9731 12.5,11.5C 12.5,11.1667 12.5,10.8333 12.5,10.5C 13.9587,10.5674 15.2921,10.2341 16.5,9.5 Z"/></g>
<g><path style="opacity:0.573" fill="#261d17" d="M -0.5,11.5 C -0.166667,11.5 0.166667,11.5 0.5,11.5C 0.5,12.1667 0.5,12.8333 0.5,13.5C 0.0772868,15.7812 0.743953,17.4479 2.5,18.5C 2.83333,18.5 3.16667,18.5 3.5,18.5C 3.5,18.8333 3.5,19.1667 3.5,19.5C 2.16667,19.5 0.833333,19.5 -0.5,19.5C -0.5,16.8333 -0.5,14.1667 -0.5,11.5 Z"/></g>
<g><path style="opacity:1" fill="#957974" d="M 2.5,11.5 C 3.49162,11.3284 4.15829,11.6618 4.5,12.5C 4.5,13.1667 4.5,13.8333 4.5,14.5C 2.95186,14.1788 2.28519,13.1788 2.5,11.5 Z"/></g>
<g><path style="opacity:1" fill="#483530" d="M 0.5,13.5 C 1.40397,14.209 1.73731,15.209 1.5,16.5C 1.5,17.1667 1.83333,17.5 2.5,17.5C 2.5,17.8333 2.5,18.1667 2.5,18.5C 0.743953,17.4479 0.0772868,15.7812 0.5,13.5 Z"/></g>
<g><path style="opacity:1" fill="#a68c84" d="M 7.5,12.5 C 7.83333,12.5 8.16667,12.5 8.5,12.5C 8.5,13.5 8.5,14.5 8.5,15.5C 8.5,15.8333 8.5,16.1667 8.5,16.5C 7.29208,15.7659 5.95875,15.4326 4.5,15.5C 4.5,15.1667 4.5,14.8333 4.5,14.5C 6.02694,14.573 7.02694,13.9063 7.5,12.5 Z"/></g>
<g><path style="opacity:1" fill="#e9ded9" d="M 8.5,12.5 C 9.16667,12.5 9.83333,12.5 10.5,12.5C 10.7148,14.1788 10.0481,15.1788 8.5,15.5C 8.5,14.5 8.5,13.5 8.5,12.5 Z"/></g>
<g><path style="opacity:1" fill="#aa938a" d="M 10.5,12.5 C 10.8333,12.5 11.1667,12.5 11.5,12.5C 11.9731,13.9063 12.9731,14.573 14.5,14.5C 14.1583,15.3382 13.4916,15.6716 12.5,15.5C 11.2921,16.2341 9.95875,16.5674 8.5,16.5C 8.5,16.1667 8.5,15.8333 8.5,15.5C 10.0481,15.1788 10.7148,14.1788 10.5,12.5 Z"/></g>
<g><path style="opacity:1" fill="#eae4dd" d="M 12.5,11.5 C 13.9063,11.9731 14.573,12.9731 14.5,14.5C 12.9731,14.573 11.9731,13.9063 11.5,12.5C 11.5,11.8333 11.8333,11.5 12.5,11.5 Z"/></g>
<g><path style="opacity:1" fill="#796159" d="M 16.5,4.5 C 16.8333,4.5 17.1667,4.5 17.5,4.5C 17.5,6.83333 17.5,9.16667 17.5,11.5C 17.5,13.5 17.5,15.5 17.5,17.5C 16.5,17.5 15.5,17.5 14.5,17.5C 14.5,17.1667 14.5,16.8333 14.5,16.5C 15.8333,16.5 16.5,15.8333 16.5,14.5C 16.5,12.8333 16.5,11.1667 16.5,9.5C 16.5,9.16667 16.5,8.83333 16.5,8.5C 16.5,7.16667 16.5,5.83333 16.5,4.5 Z"/></g>
<g><path style="opacity:1" fill="#66514c" d="M 0.5,6.5 C 0.833333,6.5 1.16667,6.5 1.5,6.5C 1.5,6.83333 1.5,7.16667 1.5,7.5C 1.23219,9.09903 1.56552,10.4324 2.5,11.5C 2.28519,13.1788 2.95186,14.1788 4.5,14.5C 4.5,14.8333 4.5,15.1667 4.5,15.5C 3.60895,16.1098 2.60895,16.4431 1.5,16.5C 1.73731,15.209 1.40397,14.209 0.5,13.5C 0.5,12.8333 0.5,12.1667 0.5,11.5C 0.5,9.83333 0.5,8.16667 0.5,6.5 Z"/></g>
<g><path style="opacity:1" fill="#7d645f" d="M 14.5,14.5 C 15.1667,14.5 15.8333,14.5 16.5,14.5C 16.5,15.8333 15.8333,16.5 14.5,16.5C 13.5084,16.6716 12.8417,16.3382 12.5,15.5C 13.4916,15.6716 14.1583,15.3382 14.5,14.5 Z"/></g>
<g><path style="opacity:1" fill="#6d544e" d="M 4.5,15.5 C 5.95875,15.4326 7.29208,15.7659 8.5,16.5C 9.95875,16.5674 11.2921,16.2341 12.5,15.5C 12.8417,16.3382 13.5084,16.6716 14.5,16.5C 14.5,16.8333 14.5,17.1667 14.5,17.5C 10.5,17.5 6.5,17.5 2.5,17.5C 1.83333,17.5 1.5,17.1667 1.5,16.5C 2.60895,16.4431 3.60895,16.1098 4.5,15.5 Z"/></g>
<g><path style="opacity:1" fill="#523f37" d="M 17.5,11.5 C 17.8333,11.5 18.1667,11.5 18.5,11.5C 18.5,13.8333 18.5,16.1667 18.5,18.5C 13.5,18.5 8.5,18.5 3.5,18.5C 3.16667,18.5 2.83333,18.5 2.5,18.5C 2.5,18.1667 2.5,17.8333 2.5,17.5C 6.5,17.5 10.5,17.5 14.5,17.5C 15.5,17.5 16.5,17.5 17.5,17.5C 17.5,15.5 17.5,13.5 17.5,11.5 Z"/></g>
<g><path style="opacity:0.645" fill="#2e231d" d="M 18.5,4.5 C 18.8333,4.5 19.1667,4.5 19.5,4.5C 19.5,9.5 19.5,14.5 19.5,19.5C 14.1667,19.5 8.83333,19.5 3.5,19.5C 3.5,19.1667 3.5,18.8333 3.5,18.5C 8.5,18.5 13.5,18.5 18.5,18.5C 18.5,16.1667 18.5,13.8333 18.5,11.5C 18.5,9.16667 18.5,6.83333 18.5,4.5 Z"/></g>
</svg>
