<?xml version="1.0" encoding="UTF-8"?>
<!DOCTYPE svg PUBLIC "-//W3C//DTD SVG 1.1//EN" "http://www.w3.org/Graphics/SVG/1.1/DTD/svg11.dtd">
<svg xmlns="http://www.w3.org/2000/svg" version="1.1" width="20px" height="20px" style="shape-rendering:geometricPrecision; text-rendering:geometricPrecision; image-rendering:optimizeQuality; fill-rule:evenodd; clip-rule:evenodd" xmlns:xlink="http://www.w3.org/1999/xlink">
<g><path style="opacity:0.047" fill="#191001" d="M 6.5,-0.5 C 8.5,-0.5 10.5,-0.5 12.5,-0.5C 14.2608,0.312714 15.9275,1.31271 17.5,2.5C 17.5,2.83333 17.5,3.16667 17.5,3.5C 16.1667,3.16667 14.8333,2.83333 13.5,2.5C 9.9775,-0.13121 6.64417,0.202123 3.5,3.5C 1.55833,8.05572 0.891664,13.0557 1.5,18.5C 6.83333,18.5 12.1667,18.5 17.5,18.5C 17.5,18.8333 17.5,19.1667 17.5,19.5C 11.5,19.5 5.5,19.5 -0.5,19.5C -0.5,14.5 -0.5,9.5 -0.5,4.5C 1.30157,2.0983 3.6349,0.431637 6.5,-0.5 Z"/></g>
<g><path style="opacity:0.249" fill="#100800" d="M 17.5,2.5 C 18.1667,2.5 18.8333,2.5 19.5,2.5C 19.5,8.16667 19.5,13.8333 19.5,19.5C 18.8333,19.5 18.1667,19.5 17.5,19.5C 17.5,19.1667 17.5,18.8333 17.5,18.5C 17.5,17.1667 17.5,15.8333 17.5,14.5C 17.5,10.8333 17.5,7.16667 17.5,3.5C 17.5,3.16667 17.5,2.83333 17.5,2.5 Z"/></g>
<g><path style="opacity:1" fill="#cd7d18" d="M 13.5,2.5 C 14.8333,2.83333 16.1667,3.16667 17.5,3.5C 17.5,7.16667 17.5,10.8333 17.5,14.5C 16.8333,14.5 16.1667,14.5 15.5,14.5C 14.5041,14.5858 13.6708,14.2524 13,13.5C 12.7922,11.141 12.6256,8.97429 12.5,7C 10.5372,6.15579 9.20389,6.65579 8.5,8.5C 7.65882,7.07363 6.65882,5.74029 5.5,4.5C 7.8002,2.79818 10.4669,2.13152 13.5,2.5 Z"/></g>
<g><path style="opacity:1" fill="#faf3eb" d="M 15.5,14.5 C 14.0121,16.8454 12.0121,17.1788 9.5,15.5C 8.79105,14.596 7.79105,14.2627 6.5,14.5C 6.5,13.5 6.5,12.5 6.5,11.5C 7.90632,11.0269 8.57298,10.0269 8.5,8.5C 9.20389,6.65579 10.5372,6.15579 12.5,7C 12.6256,8.97429 12.7922,11.141 13,13.5C 13.6708,14.2524 14.5041,14.5858 15.5,14.5 Z"/></g>
<g><path style="opacity:1" fill="#e1b987" d="M 5.5,4.5 C 6.65882,5.74029 7.65882,7.07363 8.5,8.5C 8.57298,10.0269 7.90632,11.0269 6.5,11.5C 5.79105,10.596 4.79105,10.2627 3.5,10.5C 3.05351,7.98989 3.72017,5.98989 5.5,4.5 Z"/></g>
<g><path style="opacity:1" fill="#b47016" d="M 13.5,2.5 C 10.4669,2.13152 7.8002,2.79818 5.5,4.5C 3.72017,5.98989 3.05351,7.98989 3.5,10.5C 4.79105,10.2627 5.79105,10.596 6.5,11.5C 6.5,12.5 6.5,13.5 6.5,14.5C 7.79105,14.2627 8.79105,14.596 9.5,15.5C 9.08305,16.1239 8.41638,16.4573 7.5,16.5C 2.72171,13.3718 1.38837,9.03844 3.5,3.5C 6.64417,0.202123 9.9775,-0.13121 13.5,2.5 Z"/></g>
<g><path style="opacity:1" fill="#8a5710" d="M 3.5,3.5 C 1.38837,9.03844 2.72171,13.3718 7.5,16.5C 8.41638,16.4573 9.08305,16.1239 9.5,15.5C 12.0121,17.1788 14.0121,16.8454 15.5,14.5C 16.1667,14.5 16.8333,14.5 17.5,14.5C 17.5,15.8333 17.5,17.1667 17.5,18.5C 12.1667,18.5 6.83333,18.5 1.5,18.5C 0.891664,13.0557 1.55833,8.05572 3.5,3.5 Z"/></g>
</svg>
