<?xml version="1.0" encoding="UTF-8"?>
<!DOCTYPE svg PUBLIC "-//W3C//DTD SVG 1.1//EN" "http://www.w3.org/Graphics/SVG/1.1/DTD/svg11.dtd">
<svg xmlns="http://www.w3.org/2000/svg" version="1.1" width="20px" height="20px" style="shape-rendering:geometricPrecision; text-rendering:geometricPrecision; image-rendering:optimizeQuality; fill-rule:evenodd; clip-rule:evenodd" xmlns:xlink="http://www.w3.org/1999/xlink">
<g><path style="opacity:0.004" fill="#040000" d="M -0.5,-0.5 C 0.166667,-0.5 0.833333,-0.5 1.5,-0.5C 1.5,-0.166667 1.5,0.166667 1.5,0.5C 0.513877,4.97005 0.180544,9.63671 0.5,14.5C 0.166667,14.5 -0.166667,14.5 -0.5,14.5C -0.5,9.5 -0.5,4.5 -0.5,-0.5 Z"/></g>
<g><path style="opacity:0.961" fill="#7c441a" d="M 1.5,0.5 C 1.5,0.166667 1.5,-0.166667 1.5,-0.5C 6.83333,-0.5 12.1667,-0.5 17.5,-0.5C 17.5,-0.166667 17.5,0.166667 17.5,0.5C 17.5,1.83333 17.5,3.16667 17.5,4.5C 17.1667,4.5 16.8333,4.5 16.5,4.5C 16.5,3.16667 16.5,1.83333 16.5,0.5C 14.901,0.232191 13.5676,0.565525 12.5,1.5C 10.5487,0.358582 8.54868,0.358582 6.5,1.5C 5.79105,0.596028 4.79105,0.262695 3.5,0.5C 2.83333,0.5 2.16667,0.5 1.5,0.5 Z"/></g>
<g><path style="opacity:0.063" fill="#030000" d="M 17.5,0.5 C 17.5,0.166667 17.5,-0.166667 17.5,-0.5C 18.1667,-0.5 18.8333,-0.5 19.5,-0.5C 19.5,5.16667 19.5,10.8333 19.5,16.5C 19.1667,16.5 18.8333,16.5 18.5,16.5C 18.5,16.1667 18.5,15.8333 18.5,15.5C 18.8205,10.3054 18.4872,5.30537 17.5,0.5 Z"/></g>
<g><path style="opacity:1" fill="#221708" d="M 12.5,1.5 C 13.5,1.83333 14.1667,2.5 14.5,3.5C 14.7373,4.79105 14.404,5.79105 13.5,6.5C 11.2504,7.13022 9.2504,8.13022 7.5,9.5C 6.71087,9.21719 6.0442,8.71719 5.5,8C 6.73747,7.76791 7.73747,7.26791 8.5,6.5C 7.83333,2.5 7.16667,2.5 6.5,6.5C 5.59603,5.79105 5.26269,4.79105 5.5,3.5C 5.83333,2.83333 6.16667,2.16667 6.5,1.5C 8.54868,0.358582 10.5487,0.358582 12.5,1.5 Z"/></g>
<g><path style="opacity:1" fill="#917424" d="M 10.5,2.5 C 12.4646,2.94835 12.7979,3.94835 11.5,5.5C 10.6143,4.67504 10.281,3.67504 10.5,2.5 Z"/></g>
<g><path style="opacity:1" fill="#c8682e" d="M 12.5,1.5 C 13.5676,0.565525 14.901,0.232191 16.5,0.5C 16.5,1.83333 16.5,3.16667 16.5,4.5C 16.1667,4.5 15.8333,4.5 15.5,4.5C 15.5,3.83333 15.1667,3.5 14.5,3.5C 14.1667,2.5 13.5,1.83333 12.5,1.5 Z"/></g>
<g><path style="opacity:1" fill="#b64b21" d="M 3.5,0.5 C 4.79105,0.262695 5.79105,0.596028 6.5,1.5C 6.16667,2.16667 5.83333,2.83333 5.5,3.5C 4.54885,4.91866 4.21552,6.58533 4.5,8.5C 3.83333,7.16667 3.16667,5.83333 2.5,4.5C 2.43255,3.04125 2.76589,1.70792 3.5,0.5 Z"/></g>
<g><path style="opacity:1" fill="#c79831" d="M 8.5,6.5 C 7.83333,6.5 7.16667,6.5 6.5,6.5C 7.16667,2.5 7.83333,2.5 8.5,6.5 Z"/></g>
<g><path style="opacity:1" fill="#120701" d="M 5.5,3.5 C 5.26269,4.79105 5.59603,5.79105 6.5,6.5C 7.16667,6.5 7.83333,6.5 8.5,6.5C 7.73747,7.26791 6.73747,7.76791 5.5,8C 6.0442,8.71719 6.71087,9.21719 7.5,9.5C 7.5,10.1667 7.5,10.8333 7.5,11.5C 6.5,10.8333 5.5,10.1667 4.5,9.5C 4.5,9.16667 4.5,8.83333 4.5,8.5C 4.21552,6.58533 4.54885,4.91866 5.5,3.5 Z"/></g>
<g><path style="opacity:0.643" fill="#54160f" d="M 1.5,0.5 C 1.5,4.16667 1.5,7.83333 1.5,11.5C 2.5,11.5 3.5,11.5 4.5,11.5C 5.16667,12.1667 5.83333,12.8333 6.5,13.5C 4.5,14.1667 2.5,14.8333 0.5,15.5C 0.5,15.1667 0.5,14.8333 0.5,14.5C 0.180544,9.63671 0.513877,4.97005 1.5,0.5 Z"/></g>
<g><path style="opacity:1" fill="#de5527" d="M 2.5,4.5 C 3.16667,5.83333 3.83333,7.16667 4.5,8.5C 4.5,8.83333 4.5,9.16667 4.5,9.5C 4.5,9.83333 4.5,10.1667 4.5,10.5C 2.69206,9.08209 2.02539,7.08209 2.5,4.5 Z"/></g>
<g><path style="opacity:1" fill="#cd4226" d="M 15.5,4.5 C 15.8333,4.5 16.1667,4.5 16.5,4.5C 16.8333,4.5 17.1667,4.5 17.5,4.5C 17.5,6.16667 17.5,7.83333 17.5,9.5C 16.0755,11.0311 15.4088,10.6977 15.5,8.5C 15.5,7.16667 15.5,5.83333 15.5,4.5 Z"/></g>
<g><path style="opacity:0.761" fill="#511212" d="M 17.5,0.5 C 18.4872,5.30537 18.8205,10.3054 18.5,15.5C 17.1667,15.5 16.5,14.8333 16.5,13.5C 17.3382,13.1583 17.6716,12.4916 17.5,11.5C 17.5,10.8333 17.5,10.1667 17.5,9.5C 17.5,7.83333 17.5,6.16667 17.5,4.5C 17.5,3.16667 17.5,1.83333 17.5,0.5 Z"/></g>
<g><path style="opacity:1" fill="#b0371d" d="M 1.5,0.5 C 2.16667,0.5 2.83333,0.5 3.5,0.5C 2.76589,1.70792 2.43255,3.04125 2.5,4.5C 2.02539,7.08209 2.69206,9.08209 4.5,10.5C 4.5,10.8333 4.5,11.1667 4.5,11.5C 3.5,11.5 2.5,11.5 1.5,11.5C 1.5,7.83333 1.5,4.16667 1.5,0.5 Z"/></g>
<g><path style="opacity:1" fill="#2e170c" d="M 14.5,3.5 C 15.1667,3.5 15.5,3.83333 15.5,4.5C 15.5,5.83333 15.5,7.16667 15.5,8.5C 14.5116,9.79502 13.5116,11.1283 12.5,12.5C 10.5853,12.7845 8.91866,12.4511 7.5,11.5C 7.5,10.8333 7.5,10.1667 7.5,9.5C 10.7,11.9614 12.7,10.9614 13.5,6.5C 14.404,5.79105 14.7373,4.79105 14.5,3.5 Z"/></g>
<g><path style="opacity:1" fill="#ca8835" d="M 13.5,6.5 C 12.7,10.9614 10.7,11.9614 7.5,9.5C 9.2504,8.13022 11.2504,7.13022 13.5,6.5 Z"/></g>
<g><path style="opacity:1" fill="#c24224" d="M 15.5,8.5 C 15.4088,10.6977 16.0755,11.0311 17.5,9.5C 17.5,10.1667 17.5,10.8333 17.5,11.5C 15.7839,11.6287 14.1172,11.962 12.5,12.5C 13.5116,11.1283 14.5116,9.79502 15.5,8.5 Z"/></g>
<g><path style="opacity:1" fill="#bd5432" d="M 4.5,9.5 C 5.5,10.1667 6.5,10.8333 7.5,11.5C 8.91866,12.4511 10.5853,12.7845 12.5,12.5C 12.5,12.8333 12.5,13.1667 12.5,13.5C 12.5,13.8333 12.5,14.1667 12.5,14.5C 11.8333,14.5 11.1667,14.5 10.5,14.5C 10.1667,14.5 9.83333,14.5 9.5,14.5C 8.5,15.8333 7.5,15.8333 6.5,14.5C 6.5,14.1667 6.5,13.8333 6.5,13.5C 5.83333,12.8333 5.16667,12.1667 4.5,11.5C 4.5,11.1667 4.5,10.8333 4.5,10.5C 4.5,10.1667 4.5,9.83333 4.5,9.5 Z"/></g>
<g><path style="opacity:1" fill="#5d1b11" d="M 17.5,11.5 C 17.6716,12.4916 17.3382,13.1583 16.5,13.5C 15.1667,13.5 13.8333,13.5 12.5,13.5C 12.5,13.1667 12.5,12.8333 12.5,12.5C 14.1172,11.962 15.7839,11.6287 17.5,11.5 Z"/></g>
<g><path style="opacity:0.984" fill="#170503" d="M 6.5,13.5 C 6.5,13.8333 6.5,14.1667 6.5,14.5C 6.0472,15.4584 5.38053,16.2917 4.5,17C 4.72845,17.3988 5.06178,17.5654 5.5,17.5C 5.5,17.8333 5.5,18.1667 5.5,18.5C 3.32604,18.2503 1.65938,17.2503 0.5,15.5C 2.5,14.8333 4.5,14.1667 6.5,13.5 Z"/></g>
<g><path style="opacity:1" fill="#8d2823" d="M 6.5,14.5 C 7.5,15.8333 8.5,15.8333 9.5,14.5C 9.30592,16.9118 7.97259,17.9118 5.5,17.5C 5.06178,17.5654 4.72845,17.3988 4.5,17C 5.38053,16.2917 6.0472,15.4584 6.5,14.5 Z"/></g>
<g><path style="opacity:0.922" fill="#1d0705" d="M 12.5,13.5 C 13.8333,13.5 15.1667,13.5 16.5,13.5C 16.5,14.8333 17.1667,15.5 18.5,15.5C 18.5,15.8333 18.5,16.1667 18.5,16.5C 16.9505,17.4408 15.2838,18.1075 13.5,18.5C 13.5,18.1667 13.5,17.8333 13.5,17.5C 13.9382,17.5654 14.2716,17.3988 14.5,17C 13.6195,16.2917 12.9528,15.4584 12.5,14.5C 12.5,14.1667 12.5,13.8333 12.5,13.5 Z"/></g>
<g><path style="opacity:1" fill="#8f2822" d="M 10.5,14.5 C 11.1667,14.5 11.8333,14.5 12.5,14.5C 12.9528,15.4584 13.6195,16.2917 14.5,17C 14.2716,17.3988 13.9382,17.5654 13.5,17.5C 12.5,17.5 11.5,17.5 10.5,17.5C 10.5,16.5 10.5,15.5 10.5,14.5 Z"/></g>
<g><path style="opacity:1" fill="#481411" d="M 9.5,14.5 C 9.83333,14.5 10.1667,14.5 10.5,14.5C 10.5,15.5 10.5,16.5 10.5,17.5C 11.5,17.5 12.5,17.5 13.5,17.5C 13.5,17.8333 13.5,18.1667 13.5,18.5C 12.8333,18.5 12.5,18.8333 12.5,19.5C 10.5,19.5 8.5,19.5 6.5,19.5C 6.5,18.8333 6.16667,18.5 5.5,18.5C 5.5,18.1667 5.5,17.8333 5.5,17.5C 7.97259,17.9118 9.30592,16.9118 9.5,14.5 Z"/></g>
</svg>
