<?xml version="1.0" encoding="UTF-8"?>
<!DOCTYPE svg PUBLIC "-//W3C//DTD SVG 1.1//EN" "http://www.w3.org/Graphics/SVG/1.1/DTD/svg11.dtd">
<svg xmlns="http://www.w3.org/2000/svg" version="1.1" width="20px" height="20px" style="shape-rendering:geometricPrecision; text-rendering:geometricPrecision; image-rendering:optimizeQuality; fill-rule:evenodd; clip-rule:evenodd" xmlns:xlink="http://www.w3.org/1999/xlink">
<g><path style="opacity:0.004" fill="#010000" d="M -0.5,-0.5 C 0.166667,-0.5 0.833333,-0.5 1.5,-0.5C 0.607617,4.43758 0.274284,9.43758 0.5,14.5C 0.166667,14.5 -0.166667,14.5 -0.5,14.5C -0.5,9.5 -0.5,4.5 -0.5,-0.5 Z"/></g>
<g><path style="opacity:0.961" fill="#3d140f" d="M 1.5,-0.5 C 6.83333,-0.5 12.1667,-0.5 17.5,-0.5C 17.5,-0.166667 17.5,0.166667 17.5,0.5C 12.8215,0.334181 8.1548,0.500847 3.5,1C 4.05596,1.38258 4.38929,1.88258 4.5,2.5C 3.66175,2.84171 3.32842,3.50838 3.5,4.5C 2.77842,4.08247 2.27842,3.4158 2,2.5C 1.50166,5.81677 1.33499,9.1501 1.5,12.5C 1.5,13.1667 1.5,13.8333 1.5,14.5C 1.16667,14.5 0.833333,14.5 0.5,14.5C 0.274284,9.43758 0.607617,4.43758 1.5,-0.5 Z"/></g>
<g><path style="opacity:0.067" fill="#170402" d="M 17.5,-0.5 C 18.1667,-0.5 18.8333,-0.5 19.5,-0.5C 19.5,5.16667 19.5,10.8333 19.5,16.5C 18.8333,16.5 18.1667,16.5 17.5,16.5C 17.5,16.1667 17.5,15.8333 17.5,15.5C 17.5,11.8333 17.5,8.16667 17.5,4.5C 17.5,3.16667 17.5,1.83333 17.5,0.5C 17.5,0.166667 17.5,-0.166667 17.5,-0.5 Z"/></g>
<g><path style="opacity:1" fill="#ac2d23" d="M 17.5,0.5 C 17.5,1.83333 17.5,3.16667 17.5,4.5C 16.8333,4.83333 16.1667,5.16667 15.5,5.5C 15.5,5.16667 15.5,4.83333 15.5,4.5C 16.5624,3.42463 16.5624,2.42463 15.5,1.5C 14.5832,2.12723 13.5832,2.46056 12.5,2.5C 10.1667,1.16667 7.83333,1.16667 5.5,2.5C 5.16667,2.5 4.83333,2.5 4.5,2.5C 4.38929,1.88258 4.05596,1.38258 3.5,1C 8.1548,0.500847 12.8215,0.334181 17.5,0.5 Z"/></g>
<g><path style="opacity:1" fill="#d85533" d="M 5.5,2.5 C 7.83333,1.16667 10.1667,1.16667 12.5,2.5C 12.5,3.16667 12.1667,3.5 11.5,3.5C 9.40209,4.48448 7.40209,4.15115 5.5,2.5 Z"/></g>
<g><path style="opacity:1" fill="#403b23" d="M 15.5,4.5 C 14.8333,5.16667 14.1667,5.83333 13.5,6.5C 13.6716,5.50838 13.3382,4.84171 12.5,4.5C 11.8333,4.5 11.5,4.16667 11.5,3.5C 12.1667,3.5 12.5,3.16667 12.5,2.5C 13.5832,2.46056 14.5832,2.12723 15.5,1.5C 16.5624,2.42463 16.5624,3.42463 15.5,4.5 Z"/></g>
<g><path style="opacity:1" fill="#505131" d="M 4.5,2.5 C 4.83333,2.5 5.16667,2.5 5.5,2.5C 7.40209,4.15115 9.40209,4.48448 11.5,3.5C 11.5,4.16667 11.8333,4.5 12.5,4.5C 11.8333,5.5 11.1667,6.5 10.5,7.5C 9.83333,7.5 9.16667,7.5 8.5,7.5C 6.71748,3.94047 5.71748,3.94047 5.5,7.5C 4.66175,7.84171 4.32842,8.50838 4.5,9.5C 3.83333,9.5 3.16667,9.5 2.5,9.5C 3.30071,7.95819 3.63404,6.29152 3.5,4.5C 3.32842,3.50838 3.66175,2.84171 4.5,2.5 Z"/></g>
<g><path style="opacity:1" fill="#e69b51" d="M 8.5,7.5 C 7.65225,8.62495 6.65225,8.62495 5.5,7.5C 5.71748,3.94047 6.71748,3.94047 8.5,7.5 Z"/></g>
<g><path style="opacity:1" fill="#ee9946" d="M 12.5,4.5 C 13.3382,4.84171 13.6716,5.50838 13.5,6.5C 13.5,6.83333 13.5,7.16667 13.5,7.5C 12.3478,8.62495 11.3478,8.62495 10.5,7.5C 11.1667,6.5 11.8333,5.5 12.5,4.5 Z"/></g>
<g><path style="opacity:1" fill="#345c4b" d="M 5.5,7.5 C 6.65225,8.62495 7.65225,8.62495 8.5,7.5C 9.16667,7.5 9.83333,7.5 10.5,7.5C 11.3478,8.62495 12.3478,8.62495 13.5,7.5C 13.5,8.5 13.5,9.5 13.5,10.5C 11.4251,10.7765 9.42507,11.1099 7.5,11.5C 6.5,10.8333 5.5,10.1667 4.5,9.5C 4.32842,8.50838 4.66175,7.84171 5.5,7.5 Z"/></g>
<g><path style="opacity:1" fill="#b72e1b" d="M 3.5,4.5 C 3.63404,6.29152 3.30071,7.95819 2.5,9.5C 3.10978,10.391 3.44312,11.391 3.5,12.5C 3.06233,13.5063 2.39567,13.5063 1.5,12.5C 1.33499,9.1501 1.50166,5.81677 2,2.5C 2.27842,3.4158 2.77842,4.08247 3.5,4.5 Z"/></g>
<g><path style="opacity:1" fill="#bb2f20" d="M 17.5,4.5 C 17.5,8.16667 17.5,11.8333 17.5,15.5C 15.8828,16.038 14.2161,16.3713 12.5,16.5C 11.4937,16.0623 11.4937,15.3957 12.5,14.5C 16.0866,12.3332 17.0866,9.3332 15.5,5.5C 16.1667,5.16667 16.8333,4.83333 17.5,4.5 Z"/></g>
<g><path style="opacity:1" fill="#6a3f21" d="M 2.5,9.5 C 3.16667,9.5 3.83333,9.5 4.5,9.5C 5.5,10.1667 6.5,10.8333 7.5,11.5C 7.16667,12.1667 6.83333,12.8333 6.5,13.5C 6.5,13.8333 6.5,14.1667 6.5,14.5C 5.22235,14.2178 4.22235,13.5511 3.5,12.5C 3.44312,11.391 3.10978,10.391 2.5,9.5 Z"/></g>
<g><path style="opacity:1" fill="#303b1f" d="M 15.5,4.5 C 15.5,4.83333 15.5,5.16667 15.5,5.5C 17.0866,9.3332 16.0866,12.3332 12.5,14.5C 10.4513,15.6414 8.45132,15.6414 6.5,14.5C 6.5,14.1667 6.5,13.8333 6.5,13.5C 8.39009,12.8201 10.3901,12.6534 12.5,13C 13.999,12.1618 14.3324,11.3285 13.5,10.5C 13.5,9.5 13.5,8.5 13.5,7.5C 13.5,7.16667 13.5,6.83333 13.5,6.5C 14.1667,5.83333 14.8333,5.16667 15.5,4.5 Z"/></g>
<g><path style="opacity:1" fill="#ba7035" d="M 13.5,10.5 C 14.3324,11.3285 13.999,12.1618 12.5,13C 10.3901,12.6534 8.39009,12.8201 6.5,13.5C 6.83333,12.8333 7.16667,12.1667 7.5,11.5C 9.42507,11.1099 11.4251,10.7765 13.5,10.5 Z"/></g>
<g><path style="opacity:1" fill="#982922" d="M 1.5,12.5 C 2.39567,13.5063 3.06233,13.5063 3.5,12.5C 4.22235,13.5511 5.22235,14.2178 6.5,14.5C 8.45132,15.6414 10.4513,15.6414 12.5,14.5C 11.4937,15.3957 11.4937,16.0623 12.5,16.5C 12.1667,17.1667 11.8333,17.8333 11.5,18.5C 7.52518,18.5141 4.19185,17.1807 1.5,14.5C 1.5,13.8333 1.5,13.1667 1.5,12.5 Z"/></g>
<g><path style="opacity:0.096" fill="#1a0604" d="M 17.5,15.5 C 17.5,15.8333 17.5,16.1667 17.5,16.5C 16.2196,17.9313 14.5529,18.5979 12.5,18.5C 12.1667,18.5 11.8333,18.5 11.5,18.5C 11.8333,17.8333 12.1667,17.1667 12.5,16.5C 14.2161,16.3713 15.8828,16.038 17.5,15.5 Z"/></g>
<g><path style="opacity:0.073" fill="#0d0201" d="M 0.5,14.5 C 0.833333,14.5 1.16667,14.5 1.5,14.5C 4.19185,17.1807 7.52518,18.5141 11.5,18.5C 11.8333,18.5 12.1667,18.5 12.5,18.5C 12.5,18.8333 12.5,19.1667 12.5,19.5C 10.5,19.5 8.5,19.5 6.5,19.5C 4.98123,18.5902 3.31456,17.7568 1.5,17C 0.747561,16.3292 0.414228,15.4959 0.5,14.5 Z"/></g>
</svg>
