<?xml version="1.0" encoding="UTF-8"?>
<!DOCTYPE svg PUBLIC "-//W3C//DTD SVG 1.1//EN" "http://www.w3.org/Graphics/SVG/1.1/DTD/svg11.dtd">
<svg xmlns="http://www.w3.org/2000/svg" version="1.1" width="18px" height="18px" style="shape-rendering:geometricPrecision; text-rendering:geometricPrecision; image-rendering:optimizeQuality; fill-rule:evenodd; clip-rule:evenodd" xmlns:xlink="http://www.w3.org/1999/xlink">
<g><path style="opacity:0.767" fill="#5a5b5a" d="M 3.5,-0.5 C 7.16667,-0.5 10.8333,-0.5 14.5,-0.5C 14.5,0.166667 14.5,0.833333 14.5,1.5C 13.8333,1.16667 13.1667,0.833333 12.5,0.5C 9.39147,0.264145 6.39147,0.597478 3.5,1.5C 3.5,0.833333 3.5,0.166667 3.5,-0.5 Z"/></g>
<g><path style="opacity:1" fill="#e6e6e6" d="M 12.5,0.5 C 13.1667,0.833333 13.8333,1.16667 14.5,1.5C 15.3686,3.71702 15.702,6.05035 15.5,8.5C 14.5655,7.43236 14.2322,6.09903 14.5,4.5C 13.7387,3.60908 12.7387,2.94242 11.5,2.5C 9.13243,3.88889 6.7991,5.22223 4.5,6.5C 6.3718,3.27657 9.03847,1.27657 12.5,0.5 Z"/></g>
<g><path style="opacity:0.623" fill="#5b5b5b" d="M 14.5,1.5 C 18.1878,8.07116 16.5211,13.0712 9.5,16.5C 9.5,16.1667 9.5,15.8333 9.5,15.5C 10.8333,14.8333 11.8333,13.8333 12.5,12.5C 13.1667,12.5 13.5,12.1667 13.5,11.5C 14.4013,10.7095 15.0679,9.70951 15.5,8.5C 15.702,6.05035 15.3686,3.71702 14.5,1.5 Z"/></g>
<g><path style="opacity:1" fill="#e1e1e1" d="M 14.5,4.5 C 11.1485,4.52997 8.48181,5.86331 6.5,8.5C 5.83333,8.5 5.16667,8.5 4.5,8.5C 3.49367,8.06233 3.49367,7.39567 4.5,6.5C 6.7991,5.22223 9.13243,3.88889 11.5,2.5C 12.7387,2.94242 13.7387,3.60908 14.5,4.5 Z"/></g>
<g><path style="opacity:0.85" fill="#5b5b5b" d="M 3.5,1.5 C 2.16667,4.5 2.16667,7.5 3.5,10.5C 3.16667,10.5 2.83333,10.5 2.5,10.5C 1.74629,7.97726 1.07963,5.31059 0.5,2.5C 1.32496,1.61432 2.32496,1.28099 3.5,1.5 Z"/></g>
<g><path style="opacity:1" fill="#f2f2f2" d="M 12.5,0.5 C 9.03847,1.27657 6.3718,3.27657 4.5,6.5C 3.49367,7.39567 3.49367,8.06233 4.5,8.5C 4.5,9.16667 4.5,9.83333 4.5,10.5C 4.16667,10.5 3.83333,10.5 3.5,10.5C 2.16667,7.5 2.16667,4.5 3.5,1.5C 6.39147,0.597478 9.39147,0.264145 12.5,0.5 Z"/></g>
<g><path style="opacity:1" fill="#cacaca" d="M 14.5,4.5 C 14.2322,6.09903 14.5655,7.43236 15.5,8.5C 15.0679,9.70951 14.4013,10.7095 13.5,11.5C 12.2264,10.8106 12.2264,9.97722 13.5,9C 11.1902,8.50335 8.85684,8.33669 6.5,8.5C 8.48181,5.86331 11.1485,4.52997 14.5,4.5 Z"/></g>
<g><path style="opacity:1" fill="#c4c4c4" d="M 4.5,8.5 C 5.16667,8.5 5.83333,8.5 6.5,8.5C 8.85684,8.33669 11.1902,8.50335 13.5,9C 12.2264,9.97722 12.2264,10.8106 13.5,11.5C 13.5,12.1667 13.1667,12.5 12.5,12.5C 10.8063,10.5624 8.80629,10.2291 6.5,11.5C 7.52435,12.8518 8.52435,14.1851 9.5,15.5C 6.83333,14.8333 5.16667,13.1667 4.5,10.5C 4.5,9.83333 4.5,9.16667 4.5,8.5 Z"/></g>
<g><path style="opacity:0.437" fill="#616161" d="M 2.5,10.5 C 2.83333,10.5 3.16667,10.5 3.5,10.5C 3.83333,10.5 4.16667,10.5 4.5,10.5C 5.16667,13.1667 6.83333,14.8333 9.5,15.5C 9.5,15.8333 9.5,16.1667 9.5,16.5C 9.5,16.8333 9.5,17.1667 9.5,17.5C 8.83333,17.5 8.16667,17.5 7.5,17.5C 5.42022,15.4268 3.75355,13.0934 2.5,10.5 Z"/></g>
<g><path style="opacity:1" fill="#bcbcbc" d="M 12.5,12.5 C 11.8333,13.8333 10.8333,14.8333 9.5,15.5C 8.52435,14.1851 7.52435,12.8518 6.5,11.5C 8.80629,10.2291 10.8063,10.5624 12.5,12.5 Z"/></g>
</svg>
