<?xml version="1.0" encoding="UTF-8"?>
<!DOCTYPE svg PUBLIC "-//W3C//DTD SVG 1.1//EN" "http://www.w3.org/Graphics/SVG/1.1/DTD/svg11.dtd">
<svg xmlns="http://www.w3.org/2000/svg" version="1.1" width="46px" height="41px" style="shape-rendering:geometricPrecision; text-rendering:geometricPrecision; image-rendering:optimizeQuality; fill-rule:evenodd; clip-rule:evenodd" xmlns:xlink="http://www.w3.org/1999/xlink">
<g><path style="opacity:0.195" fill="#100c07" d="M 10.5,-0.5 C 13.5,-0.5 16.5,-0.5 19.5,-0.5C 22.5,0.833333 25.5,0.833333 28.5,-0.5C 30.8333,-0.5 33.1667,-0.5 35.5,-0.5C 37.5563,0.216112 39.723,0.882779 42,1.5C 42.6667,13.8333 42.6667,26.1667 42,38.5C 35.0768,39.1581 28.0768,39.4914 21,39.5C 13.5975,39.4638 6.43085,38.7971 -0.5,37.5C -0.5,25.8333 -0.5,14.1667 -0.5,2.5C 3.0634,0.997963 6.73006,-0.00203689 10.5,-0.5 Z"/></g>
<g><path style="opacity:1" fill="#fffdc5" d="M 6.5,4.5 C 15.1922,4.16863 23.8589,4.50196 32.5,5.5C 24.5277,6.4977 16.5277,6.83103 8.5,6.5C 7.83333,6.5 7.16667,6.5 6.5,6.5C 6.5,5.83333 6.5,5.16667 6.5,4.5 Z"/></g>
<g><path style="opacity:1" fill="#e0c997" d="M 5.5,4.5 C 5.5,4.16667 5.5,3.83333 5.5,3.5C 15.1667,3.5 24.8333,3.5 34.5,3.5C 35.5511,4.22235 36.2178,5.22235 36.5,6.5C 35.209,6.26269 34.209,6.59603 33.5,7.5C 32.8333,7.5 32.1667,7.5 31.5,7.5C 24.1667,7.5 16.8333,7.5 9.5,7.5C 8.83333,7.5 8.5,7.16667 8.5,6.5C 16.5277,6.83103 24.5277,6.4977 32.5,5.5C 23.8589,4.50196 15.1922,4.16863 6.5,4.5C 6.16667,4.5 5.83333,4.5 5.5,4.5 Z"/></g>
<g><path style="opacity:1" fill="#b69875" d="M 9.5,7.5 C 16.8333,7.5 24.1667,7.5 31.5,7.5C 31.5,7.83333 31.5,8.16667 31.5,8.5C 24.3134,8.17547 17.3134,8.50881 10.5,9.5C 10.1667,9.5 9.83333,9.5 9.5,9.5C 9.5,9.16667 9.5,8.83333 9.5,8.5C 9.5,8.16667 9.5,7.83333 9.5,7.5 Z"/></g>
<g><path style="opacity:1" fill="#201c1a" d="M 10.5,9.5 C 17.8333,9.5 25.1667,9.5 32.5,9.5C 32.5,10.5 32.5,11.5 32.5,12.5C 26.8546,11.6129 21.188,11.4462 15.5,12C 13.005,14.2187 12.005,17.052 12.5,20.5C 12.3196,23.5795 12.9862,26.4129 14.5,29C 19.5,29.6667 24.5,29.6667 29.5,29C 30.3523,27.2716 31.3523,27.105 32.5,28.5C 32.5,29.5 32.5,30.5 32.5,31.5C 25.1667,31.5 17.8333,31.5 10.5,31.5C 10.5,24.1667 10.5,16.8333 10.5,9.5 Z"/></g>
<g><path style="opacity:1" fill="#3b3835" d="M 32.5,12.5 C 32.5,17.8333 32.5,23.1667 32.5,28.5C 31.3523,27.105 30.3523,27.2716 29.5,29C 24.5,29.6667 19.5,29.6667 14.5,29C 12.9862,26.4129 12.3196,23.5795 12.5,20.5C 12.005,17.052 13.005,14.2187 15.5,12C 21.188,11.4462 26.8546,11.6129 32.5,12.5 Z"/></g>
<g><path style="opacity:0.996" fill="#a56a2d" d="M 34.5,3.5 C 35.8333,3.5 37.1667,3.5 38.5,3.5C 38.8278,14.3464 38.4944,25.0131 37.5,35.5C 36.5,35.5 35.5,35.5 34.5,35.5C 34.5,35.1667 34.5,34.8333 34.5,34.5C 36.4722,25.5599 37.1389,16.2266 36.5,6.5C 36.2178,5.22235 35.5511,4.22235 34.5,3.5 Z"/></g>
<g><path style="opacity:1" fill="#f29b40" d="M 33.5,7.5 C 34.209,6.59603 35.209,6.26269 36.5,6.5C 37.1389,16.2266 36.4722,25.5599 34.5,34.5C 34.8266,25.3178 34.4933,16.3178 33.5,7.5 Z"/></g>
<g><path style="opacity:0.804" fill="#1d1308" d="M 38.5,3.5 C 39.1661,8.82289 39.4994,14.3229 39.5,20C 39.4952,25.8762 38.8286,31.3762 37.5,36.5C 37.5,36.1667 37.5,35.8333 37.5,35.5C 38.4944,25.0131 38.8278,14.3464 38.5,3.5 Z"/></g>
<g><path style="opacity:1" fill="#fed479" d="M 6.5,6.5 C 7.16667,6.5 7.83333,6.5 8.5,6.5C 8.5,7.16667 8.83333,7.5 9.5,7.5C 9.5,7.83333 9.5,8.16667 9.5,8.5C 8.96744,16.1538 8.13411,23.8205 7,31.5C 6.50027,23.1733 6.3336,14.84 6.5,6.5 Z"/></g>
<g><path style="opacity:1" fill="#754f2b" d="M 10.5,9.5 C 17.3134,8.50881 24.3134,8.17547 31.5,8.5C 33.4668,16.0968 34.1335,24.0968 33.5,32.5C 26.1667,32.5 18.8333,32.5 11.5,32.5C 10.8333,32.5 10.5,32.1667 10.5,31.5C 17.8333,31.5 25.1667,31.5 32.5,31.5C 32.5,30.5 32.5,29.5 32.5,28.5C 32.5,23.1667 32.5,17.8333 32.5,12.5C 32.5,11.5 32.5,10.5 32.5,9.5C 25.1667,9.5 17.8333,9.5 10.5,9.5 Z"/></g>
<g><path style="opacity:1" fill="#c67a31" d="M 31.5,8.5 C 31.5,8.16667 31.5,7.83333 31.5,7.5C 32.1667,7.5 32.8333,7.5 33.5,7.5C 34.4933,16.3178 34.8266,25.3178 34.5,34.5C 26.4931,34.6664 18.4931,34.4997 10.5,34C 11.056,33.6174 11.3893,33.1174 11.5,32.5C 18.8333,32.5 26.1667,32.5 33.5,32.5C 34.1335,24.0968 33.4668,16.0968 31.5,8.5 Z"/></g>
<g><path style="opacity:1" fill="#e9a759" d="M 5.5,4.5 C 5.83333,4.5 6.16667,4.5 6.5,4.5C 6.5,5.16667 6.5,5.83333 6.5,6.5C 6.3336,14.84 6.50027,23.1733 7,31.5C 8.13411,23.8205 8.96744,16.1538 9.5,8.5C 9.5,8.83333 9.5,9.16667 9.5,9.5C 9.5,17.8333 9.5,26.1667 9.5,34.5C 8.16667,34.5 6.83333,34.5 5.5,34.5C 5.5,24.5 5.5,14.5 5.5,4.5 Z"/></g>
<g><path style="opacity:1" fill="#9a632d" d="M 9.5,9.5 C 9.83333,9.5 10.1667,9.5 10.5,9.5C 10.5,16.8333 10.5,24.1667 10.5,31.5C 10.5,32.1667 10.8333,32.5 11.5,32.5C 11.3893,33.1174 11.056,33.6174 10.5,34C 18.4931,34.4997 26.4931,34.6664 34.5,34.5C 34.5,34.8333 34.5,35.1667 34.5,35.5C 24.6522,35.8271 14.9856,35.4938 5.5,34.5C 6.83333,34.5 8.16667,34.5 9.5,34.5C 9.5,26.1667 9.5,17.8333 9.5,9.5 Z"/></g>
<g><path style="opacity:0.996" fill="#704823" d="M 5.5,3.5 C 5.5,3.83333 5.5,4.16667 5.5,4.5C 5.5,14.5 5.5,24.5 5.5,34.5C 14.9856,35.4938 24.6522,35.8271 34.5,35.5C 35.5,35.5 36.5,35.5 37.5,35.5C 37.5,35.8333 37.5,36.1667 37.5,36.5C 26.5,36.5 15.5,36.5 4.5,36.5C 4.17207,25.3206 4.5054,14.3206 5.5,3.5 Z"/></g>
</svg>
