<?xml version="1.0" encoding="UTF-8"?>
<!DOCTYPE svg PUBLIC "-//W3C//DTD SVG 1.1//EN" "http://www.w3.org/Graphics/SVG/1.1/DTD/svg11.dtd">
<svg xmlns="http://www.w3.org/2000/svg" version="1.1" width="51px" height="51px" style="shape-rendering:geometricPrecision; text-rendering:geometricPrecision; image-rendering:optimizeQuality; fill-rule:evenodd; clip-rule:evenodd" xmlns:xlink="http://www.w3.org/1999/xlink">
<g><path style="opacity:0.271" fill="#301d18" d="M 16.5,-0.5 C 17.8333,-0.5 19.1667,-0.5 20.5,-0.5C 20.4226,0.749754 19.756,1.58309 18.5,2C 22.3048,1.97423 24.3048,3.80756 24.5,7.5C 23.7281,6.30646 22.7281,5.30646 21.5,4.5C 21.2648,3.90326 20.7648,3.56993 20,3.5C 18.3157,5.01674 16.8157,6.6834 15.5,8.5C 13.8333,8.5 12.1667,8.5 10.5,8.5C 11.7454,5.0127 13.7454,2.0127 16.5,-0.5 Z"/></g>
<g><path style="opacity:0.078" fill="#291c18" d="M 20.5,-0.5 C 21.8333,-0.5 23.1667,-0.5 24.5,-0.5C 27.3258,2.48351 29.6591,5.81685 31.5,9.5C 30.5,9.5 29.5,9.5 28.5,9.5C 28.0786,5.0163 27.0786,4.68297 25.5,8.5C 24.8333,8.5 24.5,8.16667 24.5,7.5C 24.3048,3.80756 22.3048,1.97423 18.5,2C 19.756,1.58309 20.4226,0.749754 20.5,-0.5 Z"/></g>
<g><path style="opacity:0.996" fill="#b86646" d="M 21.5,4.5 C 19.5441,6.1139 17.5441,7.78057 15.5,9.5C 15.5,9.16667 15.5,8.83333 15.5,8.5C 16.8157,6.6834 18.3157,5.01674 20,3.5C 20.7648,3.56993 21.2648,3.90326 21.5,4.5 Z"/></g>
<g><path style="opacity:1" fill="#5f3023" d="M 19.5,8.5 C 20.4916,8.32842 21.1583,8.66175 21.5,9.5C 19.8564,9.81018 18.8564,10.8102 18.5,12.5C 17.8333,12.8333 17.1667,13.1667 16.5,13.5C 17.1103,11.5659 18.1103,9.89928 19.5,8.5 Z"/></g>
<g><path style="opacity:1" fill="#572619" d="M 21.5,9.5 C 23.2624,10.2623 24.2624,11.5956 24.5,13.5C 22.7376,12.7377 21.7376,11.4044 21.5,9.5 Z"/></g>
<g><path style="opacity:1" fill="#e68258" d="M 21.5,4.5 C 21.4729,6.19928 20.8062,7.53261 19.5,8.5C 18.1103,9.89928 17.1103,11.5659 16.5,13.5C 15.8333,13.5 15.5,13.8333 15.5,14.5C 13.7376,15.2623 12.7376,16.5956 12.5,18.5C 11.0937,18.9731 10.427,19.9731 10.5,21.5C 9.09368,21.9731 8.42702,22.9731 8.5,24.5C 7.5,24.8333 6.83333,25.5 6.5,26.5C 5.60895,27.1098 4.60895,27.4431 3.5,27.5C 3.5,26.8333 3.5,26.1667 3.5,25.5C 5.26242,24.7377 6.26242,23.4044 6.5,21.5C 7.78588,18.883 9.45255,16.5496 11.5,14.5C 12.9063,14.0269 13.573,13.0269 13.5,11.5C 13.8333,10.5 14.5,9.83333 15.5,9.5C 17.5441,7.78057 19.5441,6.1139 21.5,4.5 Z"/></g>
<g><path style="opacity:0.624" fill="#221714" d="M 31.5,9.5 C 32.1667,10.5 32.8333,11.5 33.5,12.5C 32.0048,12.9887 30.6715,13.6554 29.5,14.5C 27.1782,13.1979 25.8449,11.1979 25.5,8.5C 27.0786,4.68297 28.0786,5.0163 28.5,9.5C 29.5,9.5 30.5,9.5 31.5,9.5 Z"/></g>
<g><path style="opacity:1" fill="#974d34" d="M 13.5,11.5 C 13.573,13.0269 12.9063,14.0269 11.5,14.5C 11.427,12.9731 12.0937,11.9731 13.5,11.5 Z"/></g>
<g><path style="opacity:1" fill="#663425" d="M 15.5,14.5 C 15.2624,16.4044 14.2624,17.7377 12.5,18.5C 12.7376,16.5956 13.7376,15.2623 15.5,14.5 Z"/></g>
<g><path style="opacity:1" fill="#1c1613" d="M 21.5,9.5 C 21.7376,11.4044 22.7376,12.7377 24.5,13.5C 27.2066,15.2833 27.8733,17.6166 26.5,20.5C 25.1779,20.33 24.0113,20.6634 23,21.5C 22.5172,20.552 22.3505,19.552 22.5,18.5C 20.4727,18.6621 18.4727,18.4955 16.5,18C 16.9817,16.9916 17.1484,15.825 17,14.5C 18.1827,15.731 19.3493,15.731 20.5,14.5C 19.7573,13.8182 19.0906,13.1515 18.5,12.5C 18.8564,10.8102 19.8564,9.81018 21.5,9.5 Z"/></g>
<g><path style="opacity:1" fill="#a15138" d="M 21.5,4.5 C 22.7281,5.30646 23.7281,6.30646 24.5,7.5C 24.5,8.16667 24.8333,8.5 25.5,8.5C 25.8449,11.1979 27.1782,13.1979 29.5,14.5C 30.9131,17.6612 32.5797,20.6612 34.5,23.5C 35.3543,25.035 35.3543,26.3684 34.5,27.5C 34.5,26.8333 34.1667,26.5 33.5,26.5C 33.1667,24.1667 31.8333,22.8333 29.5,22.5C 30.6099,17.9358 29.9432,17.6024 27.5,21.5C 27.1667,21.5 26.8333,21.5 26.5,21.5C 26.5,21.1667 26.5,20.8333 26.5,20.5C 27.8733,17.6166 27.2066,15.2833 24.5,13.5C 24.2624,11.5956 23.2624,10.2623 21.5,9.5C 21.1583,8.66175 20.4916,8.32842 19.5,8.5C 20.8062,7.53261 21.4729,6.19928 21.5,4.5 Z"/></g>
<g><path style="opacity:0.149" fill="#201613" d="M 33.5,12.5 C 35.7451,15.3197 37.7451,18.3197 39.5,21.5C 39.5654,21.9382 39.3988,22.2716 39,22.5C 35.2851,18.4537 34.1184,18.787 35.5,23.5C 35.1667,23.5 34.8333,23.5 34.5,23.5C 32.5797,20.6612 30.9131,17.6612 29.5,14.5C 30.6715,13.6554 32.0048,12.9887 33.5,12.5 Z"/></g>
<g><path style="opacity:0.337" fill="#321c17" d="M 10.5,8.5 C 12.1667,8.5 13.8333,8.5 15.5,8.5C 15.5,8.83333 15.5,9.16667 15.5,9.5C 14.5,9.83333 13.8333,10.5 13.5,11.5C 12.0937,11.9731 11.427,12.9731 11.5,14.5C 9.45255,16.5496 7.78588,18.883 6.5,21.5C 4.73758,22.2623 3.73758,23.5956 3.5,25.5C 2.54885,26.9187 2.21552,28.5853 2.5,30.5C 4.26465,31.4614 6.26465,31.7947 8.5,31.5C 6.28542,32.2679 3.95209,32.9346 1.5,33.5C 1.97461,30.9179 1.30794,28.9179 -0.5,27.5C -0.5,25.8333 -0.5,24.1667 -0.5,22.5C 3.11226,17.8764 6.77893,13.2097 10.5,8.5 Z"/></g>
<g><path style="opacity:1" fill="#261e1a" d="M 18.5,12.5 C 19.0906,13.1515 19.7573,13.8182 20.5,14.5C 19.3493,15.731 18.1827,15.731 17,14.5C 17.1484,15.825 16.9817,16.9916 16.5,18C 18.4727,18.4955 20.4727,18.6621 22.5,18.5C 22.3505,19.552 22.5172,20.552 23,21.5C 24.0113,20.6634 25.1779,20.33 26.5,20.5C 26.5,20.8333 26.5,21.1667 26.5,21.5C 25.1667,21.5 24.5,22.1667 24.5,23.5C 24.1667,24.1667 23.8333,24.8333 23.5,25.5C 23.1667,25.5 22.8333,25.5 22.5,25.5C 22.1667,25.5 21.8333,25.5 21.5,25.5C 21.5,23.5 21.5,21.5 21.5,19.5C 18.4915,20.6289 15.4915,21.6289 12.5,22.5C 11.8333,22.5 11.5,22.1667 11.5,21.5C 12.1098,20.609 12.4431,19.609 12.5,18.5C 14.2624,17.7377 15.2624,16.4044 15.5,14.5C 15.5,13.8333 15.8333,13.5 16.5,13.5C 17.1667,13.1667 17.8333,12.8333 18.5,12.5 Z"/></g>
<g><path style="opacity:1" fill="#713827" d="M 12.5,18.5 C 12.4431,19.609 12.1098,20.609 11.5,21.5C 11.1667,21.5 10.8333,21.5 10.5,21.5C 10.427,19.9731 11.0937,18.9731 12.5,18.5 Z"/></g>
<g><path style="opacity:1" fill="#2d2520" d="M 21.5,25.5 C 18.1181,25.2737 15.1181,24.2737 12.5,22.5C 15.4915,21.6289 18.4915,20.6289 21.5,19.5C 21.5,21.5 21.5,23.5 21.5,25.5 Z"/></g>
<g><path style="opacity:1" fill="#d16543" d="M 29.5,22.5 C 29.5,23.1667 29.1667,23.5 28.5,23.5C 28.6716,22.5084 28.3382,21.8417 27.5,21.5C 29.9432,17.6024 30.6099,17.9358 29.5,22.5 Z"/></g>
<g><path style="opacity:0.996" fill="#ac583b" d="M 6.5,21.5 C 6.26242,23.4044 5.26242,24.7377 3.5,25.5C 3.73758,23.5956 4.73758,22.2623 6.5,21.5 Z"/></g>
<g><path style="opacity:0.996" fill="#7d432f" d="M 26.5,21.5 C 26.1667,22.5 25.5,23.1667 24.5,23.5C 24.5,22.1667 25.1667,21.5 26.5,21.5 Z"/></g>
<g><path style="opacity:1" fill="#372721" d="M 10.5,21.5 C 10.8333,21.5 11.1667,21.5 11.5,21.5C 11.5,22.1667 11.8333,22.5 12.5,22.5C 15.1181,24.2737 18.1181,25.2737 21.5,25.5C 21.8333,25.5 22.1667,25.5 22.5,25.5C 22.5,26.1667 22.1667,26.5 21.5,26.5C 18.5,26.5 15.5,26.5 12.5,26.5C 11.6016,25.8423 10.6016,25.1757 9.5,24.5C 10.1272,23.5832 10.4606,22.5832 10.5,21.5 Z"/></g>
<g><path style="opacity:1" fill="#5a2216" d="M 29.5,22.5 C 31.8333,22.8333 33.1667,24.1667 33.5,26.5C 32.5178,25.8592 31.5178,25.1925 30.5,24.5C 29.1482,25.5244 27.8149,26.5244 26.5,27.5C 26.7329,25.9382 27.3995,24.6049 28.5,23.5C 29.1667,23.5 29.5,23.1667 29.5,22.5 Z"/></g>
<g><path style="opacity:1" fill="#532015" d="M 10.5,21.5 C 10.4606,22.5832 10.1272,23.5832 9.5,24.5C 10.6016,25.1757 11.6016,25.8423 12.5,26.5C 10.5168,26.8432 9.18342,26.1765 8.5,24.5C 8.42702,22.9731 9.09368,21.9731 10.5,21.5 Z"/></g>
<g><path style="opacity:1" fill="#681d11" d="M 8.5,24.5 C 9.18342,26.1765 10.5168,26.8432 12.5,26.5C 15.5,26.5 18.5,26.5 21.5,26.5C 21.5,26.8333 21.5,27.1667 21.5,27.5C 16.3054,27.8205 11.3054,27.4872 6.5,26.5C 6.83333,25.5 7.5,24.8333 8.5,24.5 Z"/></g>
<g><path style="opacity:0.996" fill="#b76646" d="M 22.5,25.5 C 22.8333,25.5 23.1667,25.5 23.5,25.5C 23.573,27.0269 22.9063,28.0269 21.5,28.5C 21.5,28.1667 21.5,27.8333 21.5,27.5C 21.5,27.1667 21.5,26.8333 21.5,26.5C 22.1667,26.5 22.5,26.1667 22.5,25.5 Z"/></g>
<g><path style="opacity:0.557" fill="#1d1411" d="M 39.5,21.5 C 41.8532,23.8599 43.8532,26.5265 45.5,29.5C 43.9826,29.4894 42.8159,28.8228 42,27.5C 42.1349,29.4247 42.3016,31.4247 42.5,33.5C 40.1792,30.2041 37.8458,26.8708 35.5,23.5C 34.1184,18.787 35.2851,18.4537 39,22.5C 39.3988,22.2716 39.5654,21.9382 39.5,21.5 Z"/></g>
<g><path style="opacity:1" fill="#c03f24" d="M 6.5,26.5 C 11.3054,27.4872 16.3054,27.8205 21.5,27.5C 21.5,27.8333 21.5,28.1667 21.5,28.5C 20.8333,29.1667 20.1667,29.8333 19.5,30.5C 13.923,30.1437 8.58963,29.1437 3.5,27.5C 4.60895,27.4431 5.60895,27.1098 6.5,26.5 Z"/></g>
<g><path style="opacity:1" fill="#f0855a" d="M 26.5,21.5 C 26.8333,21.5 27.1667,21.5 27.5,21.5C 28.3382,21.8417 28.6716,22.5084 28.5,23.5C 27.3995,24.6049 26.7329,25.9382 26.5,27.5C 23.7997,29.2344 21.7997,31.5677 20.5,34.5C 18.6736,36.1475 17.3403,38.1475 16.5,40.5C 15.8333,40.5 15.5,40.8333 15.5,41.5C 14.596,42.209 14.2627,43.209 14.5,44.5C 13.5,44.5 12.5,44.5 11.5,44.5C 12.1667,42.8333 12.8333,41.1667 13.5,39.5C 15.2624,38.7377 16.2624,37.4044 16.5,35.5C 16.3284,34.5084 16.6618,33.8417 17.5,33.5C 18.3382,33.1583 18.6716,32.4916 18.5,31.5C 19.1667,31.5 19.5,31.1667 19.5,30.5C 20.1667,29.8333 20.8333,29.1667 21.5,28.5C 22.9063,28.0269 23.573,27.0269 23.5,25.5C 23.8333,24.8333 24.1667,24.1667 24.5,23.5C 25.5,23.1667 26.1667,22.5 26.5,21.5 Z"/></g>
<g><path style="opacity:1" fill="#20120e" d="M 33.5,26.5 C 33.3469,29.5353 34.6803,31.5353 37.5,32.5C 39.2624,33.2623 40.2624,34.5956 40.5,36.5C 38.9991,35.2485 37.3325,34.2485 35.5,33.5C 33.8554,31.2263 32.3554,31.2263 31,33.5C 30.1368,31.2511 30.6368,29.4178 32.5,28C 31.9747,27.3076 31.3081,26.8076 30.5,26.5C 29.4305,27.9095 28.0972,28.9095 26.5,29.5C 26.5,28.8333 26.5,28.1667 26.5,27.5C 27.8149,26.5244 29.1482,25.5244 30.5,24.5C 31.5178,25.1925 32.5178,25.8592 33.5,26.5 Z"/></g>
<g><path style="opacity:1" fill="#9f2f19" d="M 3.5,25.5 C 3.5,26.1667 3.5,26.8333 3.5,27.5C 8.58963,29.1437 13.923,30.1437 19.5,30.5C 19.5,31.1667 19.1667,31.5 18.5,31.5C 13.3595,30.5119 8.02621,30.1786 2.5,30.5C 2.21552,28.5853 2.54885,26.9187 3.5,25.5 Z"/></g>
<g><path style="opacity:1" fill="#571a10" d="M 2.5,30.5 C 8.02621,30.1786 13.3595,30.5119 18.5,31.5C 18.6716,32.4916 18.3382,33.1583 17.5,33.5C 15.0122,31.6122 12.0122,30.9455 8.5,31.5C 6.26465,31.7947 4.26465,31.4614 2.5,30.5 Z"/></g>
<g><path style="opacity:0.384" fill="#584b44" d="M -0.5,27.5 C 1.30794,28.9179 1.97461,30.9179 1.5,33.5C 1.16667,33.5 0.833333,33.5 0.5,33.5C 0.166667,33.5 -0.166667,33.5 -0.5,33.5C -0.5,31.5 -0.5,29.5 -0.5,27.5 Z"/></g>
<g><path style="opacity:1" fill="#9a3b25" d="M 26.5,27.5 C 26.5,28.1667 26.5,28.8333 26.5,29.5C 25.8333,29.5 25.5,29.8333 25.5,30.5C 24.0937,30.9731 23.427,31.9731 23.5,33.5C 22.8333,33.5 22.5,33.8333 22.5,34.5C 21.8333,34.8333 21.1667,35.1667 20.5,35.5C 20.5,35.1667 20.5,34.8333 20.5,34.5C 21.7997,31.5677 23.7997,29.2344 26.5,27.5 Z"/></g>
<g><path style="opacity:1" fill="#3e130b" d="M 33.5,26.5 C 34.1667,26.5 34.5,26.8333 34.5,27.5C 35.5272,29.184 36.5272,30.8506 37.5,32.5C 34.6803,31.5353 33.3469,29.5353 33.5,26.5 Z"/></g>
<g><path style="opacity:1" fill="#51271c" d="M 25.5,30.5 C 25.573,32.0269 24.9063,33.0269 23.5,33.5C 23.427,31.9731 24.0937,30.9731 25.5,30.5 Z"/></g>
<g><path style="opacity:0.609" fill="#18110e" d="M 45.5,29.5 C 46.4013,30.2905 47.0679,31.2905 47.5,32.5C 46.4711,33.1257 45.4711,33.959 44.5,35C 45.2524,35.6708 45.5858,36.5041 45.5,37.5C 45.1667,37.5 44.8333,37.5 44.5,37.5C 43.8333,36.1667 43.1667,34.8333 42.5,33.5C 42.3016,31.4247 42.1349,29.4247 42,27.5C 42.8159,28.8228 43.9826,29.4894 45.5,29.5 Z"/></g>
<g><path style="opacity:1" fill="#231e1b" d="M 26.5,29.5 C 28.0755,31.8859 29.0755,34.5525 29.5,37.5C 25.1621,39.6646 23.1621,38.3313 23.5,33.5C 24.9063,33.0269 25.573,32.0269 25.5,30.5C 25.5,29.8333 25.8333,29.5 26.5,29.5 Z"/></g>
<g><path style="opacity:1" fill="#7f301f" d="M 34.5,23.5 C 34.8333,23.5 35.1667,23.5 35.5,23.5C 37.8458,26.8708 40.1792,30.2041 42.5,33.5C 43.1667,34.8333 43.8333,36.1667 44.5,37.5C 44.1583,38.3382 43.4916,38.6716 42.5,38.5C 42.1667,37.5 41.5,36.8333 40.5,36.5C 40.2624,34.5956 39.2624,33.2623 37.5,32.5C 36.5272,30.8506 35.5272,29.184 34.5,27.5C 35.3543,26.3684 35.3543,25.035 34.5,23.5 Z"/></g>
<g><path style="opacity:0.031" fill="#281b17" d="M -0.5,35.5 C 1.66485,35.1159 3.33152,35.7826 4.5,37.5C 2.68116,38.3199 1.0145,39.3199 -0.5,40.5C -0.5,38.8333 -0.5,37.1667 -0.5,35.5 Z"/></g>
<g><path style="opacity:0.608" fill="#291612" d="M 8.5,31.5 C 12.0122,30.9455 15.0122,31.6122 17.5,33.5C 16.6618,33.8417 16.3284,34.5084 16.5,35.5C 14.7376,36.2623 13.7376,37.5956 13.5,39.5C 11.7376,40.2623 10.7376,41.5956 10.5,43.5C 10.1667,43.5 9.83333,43.5 9.5,43.5C 8.63476,43.4361 7.63476,43.1027 6.5,42.5C 7.53911,39.5904 9.20578,37.0904 11.5,35C 7.6437,34.8227 3.97703,34.3227 0.5,33.5C 0.833333,33.5 1.16667,33.5 1.5,33.5C 3.95209,32.9346 6.28542,32.2679 8.5,31.5 Z"/></g>
<g><path style="opacity:1" fill="#13100e" d="M 35.5,33.5 C 35.4178,39.0156 38.0844,41.3489 43.5,40.5C 39.3656,41.4849 35.0323,41.8182 30.5,41.5C 31.4427,39.9988 31.1094,38.6654 29.5,37.5C 29.0755,34.5525 28.0755,31.8859 26.5,29.5C 28.0972,28.9095 29.4305,27.9095 30.5,26.5C 31.3081,26.8076 31.9747,27.3076 32.5,28C 30.6368,29.4178 30.1368,31.2511 31,33.5C 32.3554,31.2263 33.8554,31.2263 35.5,33.5 Z"/></g>
<g><path style="opacity:1" fill="#190f0d" d="M 35.5,33.5 C 37.3325,34.2485 38.9991,35.2485 40.5,36.5C 41.5,36.8333 42.1667,37.5 42.5,38.5C 42.8333,39.1667 43.1667,39.8333 43.5,40.5C 38.0844,41.3489 35.4178,39.0156 35.5,33.5 Z"/></g>
<g><path style="opacity:0.996" fill="#b06445" d="M 16.5,35.5 C 16.2624,37.4044 15.2624,38.7377 13.5,39.5C 13.7376,37.5956 14.7376,36.2623 16.5,35.5 Z"/></g>
<g><path style="opacity:1" fill="#be4328" d="M 20.5,34.5 C 20.5,34.8333 20.5,35.1667 20.5,35.5C 19.8902,36.391 19.5569,37.391 19.5,38.5C 18.5,39.1667 17.5,39.8333 16.5,40.5C 17.3403,38.1475 18.6736,36.1475 20.5,34.5 Z"/></g>
<g><path style="opacity:1" fill="#43170f" d="M 22.5,34.5 C 21.3702,36.3146 20.7036,38.3146 20.5,40.5C 23.9023,40.3424 27.2356,40.6758 30.5,41.5C 30.5,41.8333 30.5,42.1667 30.5,42.5C 26.5101,42.0013 22.5101,41.5013 18.5,41C 19.2524,40.3292 19.5858,39.4959 19.5,38.5C 19.5569,37.391 19.8902,36.391 20.5,35.5C 21.1667,35.1667 21.8333,34.8333 22.5,34.5 Z"/></g>
<g><path style="opacity:1" fill="#2f1b15" d="M 23.5,33.5 C 23.1621,38.3313 25.1621,39.6646 29.5,37.5C 31.1094,38.6654 31.4427,39.9988 30.5,41.5C 27.2356,40.6758 23.9023,40.3424 20.5,40.5C 20.7036,38.3146 21.3702,36.3146 22.5,34.5C 22.5,33.8333 22.8333,33.5 23.5,33.5 Z"/></g>
<g><path style="opacity:1" fill="#611a10" d="M 44.5,37.5 C 44.8333,37.5 45.1667,37.5 45.5,37.5C 46.1667,38.8333 46.8333,40.1667 47.5,41.5C 45.7179,42.7196 43.7179,43.3862 41.5,43.5C 34.6435,43.6444 27.8102,43.3111 21,42.5C 19.0145,42.4313 17.5145,41.7647 16.5,40.5C 17.5,39.8333 18.5,39.1667 19.5,38.5C 19.5858,39.4959 19.2524,40.3292 18.5,41C 22.5101,41.5013 26.5101,42.0013 30.5,42.5C 35.2137,42.8266 39.8804,42.4933 44.5,41.5C 44.3764,40.8933 44.0431,40.56 43.5,40.5C 43.1667,39.8333 42.8333,39.1667 42.5,38.5C 43.4916,38.6716 44.1583,38.3382 44.5,37.5 Z"/></g>
<g><path style="opacity:1" fill="#2a110c" d="M 43.5,40.5 C 44.0431,40.56 44.3764,40.8933 44.5,41.5C 39.8804,42.4933 35.2137,42.8266 30.5,42.5C 30.5,42.1667 30.5,41.8333 30.5,41.5C 35.0323,41.8182 39.3656,41.4849 43.5,40.5 Z"/></g>
<g><path style="opacity:1" fill="#941f11" d="M 16.5,40.5 C 17.5145,41.7647 19.0145,42.4313 21,42.5C 27.8102,43.3111 34.6435,43.6444 41.5,43.5C 39.1667,44.1667 36.8333,44.8333 34.5,45.5C 30.8333,45.5 27.1667,45.5 23.5,45.5C 23.6107,44.8826 23.944,44.3826 24.5,44C 21.008,44.0704 18.008,43.2371 15.5,41.5C 15.5,40.8333 15.8333,40.5 16.5,40.5 Z"/></g>
<g><path style="opacity:0.996" fill="#94402a" d="M 13.5,39.5 C 12.8333,41.1667 12.1667,42.8333 11.5,44.5C 11.5,44.8333 11.5,45.1667 11.5,45.5C 10.6618,45.1583 10.3284,44.4916 10.5,43.5C 10.7376,41.5956 11.7376,40.2623 13.5,39.5 Z"/></g>
<g><path style="opacity:1" fill="#b12c18" d="M 15.5,41.5 C 18.008,43.2371 21.008,44.0704 24.5,44C 23.944,44.3826 23.6107,44.8826 23.5,45.5C 19.5,45.5 15.5,45.5 11.5,45.5C 11.5,45.1667 11.5,44.8333 11.5,44.5C 12.5,44.5 13.5,44.5 14.5,44.5C 14.2627,43.209 14.596,42.209 15.5,41.5 Z"/></g>
<g><path style="opacity:1" fill="#7a1d11" d="M 47.5,41.5 C 48.8333,42.8333 48.8333,44.1667 47.5,45.5C 43.1667,45.5 38.8333,45.5 34.5,45.5C 36.8333,44.8333 39.1667,44.1667 41.5,43.5C 43.7179,43.3862 45.7179,42.7196 47.5,41.5 Z"/></g>
<g><path style="opacity:0.752" fill="#160f0c" d="M 47.5,32.5 C 48.1667,33.8333 49.1667,34.8333 50.5,35.5C 50.5,39.5 50.5,43.5 50.5,47.5C 49.8333,47.8333 49.1667,48.1667 48.5,48.5C 48.6716,47.5084 48.3382,46.8417 47.5,46.5C 47.5,46.1667 47.5,45.8333 47.5,45.5C 48.8333,44.1667 48.8333,42.8333 47.5,41.5C 46.8333,40.1667 46.1667,38.8333 45.5,37.5C 45.5858,36.5041 45.2524,35.6708 44.5,35C 45.4711,33.959 46.4711,33.1257 47.5,32.5 Z"/></g>
<g><path style="opacity:1" fill="#4f140b" d="M 9.5,43.5 C 9.83333,43.5 10.1667,43.5 10.5,43.5C 10.3284,44.4916 10.6618,45.1583 11.5,45.5C 15.5,45.5 19.5,45.5 23.5,45.5C 27.1667,45.5 30.8333,45.5 34.5,45.5C 38.8333,45.5 43.1667,45.5 47.5,45.5C 47.5,45.8333 47.5,46.1667 47.5,46.5C 42.8333,46.5 38.1667,46.5 33.5,46.5C 26.8333,46.5 20.1667,46.5 13.5,46.5C 12.1667,46.5 10.8333,46.5 9.5,46.5C 9.5,45.5 9.5,44.5 9.5,43.5 Z"/></g>
<g><path style="opacity:0.701" fill="#120a08" d="M 13.5,46.5 C 20.1667,46.5 26.8333,46.5 33.5,46.5C 35.6353,48.369 38.3019,49.0356 41.5,48.5C 33.2192,48.4117 24.8859,48.7451 16.5,49.5C 15.5,49.5 14.5,49.5 13.5,49.5C 13.5,48.5 13.5,47.5 13.5,46.5 Z"/></g>
<g><path style="opacity:0.839" fill="#0a0806" d="M 33.5,46.5 C 38.1667,46.5 42.8333,46.5 47.5,46.5C 48.3382,46.8417 48.6716,47.5084 48.5,48.5C 46.1667,48.5 43.8333,48.5 41.5,48.5C 38.3019,49.0356 35.6353,48.369 33.5,46.5 Z"/></g>
<g><path style="opacity:0.024" fill="#221512" d="M 6.5,42.5 C 7.63476,43.1027 8.63476,43.4361 9.5,43.5C 9.5,44.5 9.5,45.5 9.5,46.5C 10.8333,46.5 12.1667,46.5 13.5,46.5C 13.5,47.5 13.5,48.5 13.5,49.5C 14.5,49.5 15.5,49.5 16.5,49.5C 16.5,49.8333 16.5,50.1667 16.5,50.5C 13.8333,50.5 11.1667,50.5 8.5,50.5C 6.77386,48.1799 6.1072,45.5133 6.5,42.5 Z"/></g>
<g><path style="opacity:0.043" fill="#19100d" d="M 50.5,47.5 C 50.5,48.1667 50.5,48.8333 50.5,49.5C 49.5084,49.3284 48.8417,49.6618 48.5,50.5C 37.8333,50.5 27.1667,50.5 16.5,50.5C 16.5,50.1667 16.5,49.8333 16.5,49.5C 24.8859,48.7451 33.2192,48.4117 41.5,48.5C 43.8333,48.5 46.1667,48.5 48.5,48.5C 49.1667,48.1667 49.8333,47.8333 50.5,47.5 Z"/></g>
</svg>
