<?xml version="1.0" encoding="UTF-8"?>
<!DOCTYPE svg PUBLIC "-//W3C//DTD SVG 1.1//EN" "http://www.w3.org/Graphics/SVG/1.1/DTD/svg11.dtd">
<svg xmlns="http://www.w3.org/2000/svg" version="1.1" width="20px" height="20px" style="shape-rendering:geometricPrecision; text-rendering:geometricPrecision; image-rendering:optimizeQuality; fill-rule:evenodd; clip-rule:evenodd" xmlns:xlink="http://www.w3.org/1999/xlink">
<g><path style="opacity:0.047" fill="#191000" d="M 6.5,-0.5 C 8.5,-0.5 10.5,-0.5 12.5,-0.5C 14.2608,0.312714 15.9275,1.31271 17.5,2.5C 17.5,2.83333 17.5,3.16667 17.5,3.5C 16.391,3.44312 15.391,3.10978 14.5,2.5C 14.1667,2.5 13.8333,2.5 13.5,2.5C 9.9775,-0.13121 6.64417,0.202123 3.5,3.5C 1.61216,5.98785 0.945498,8.98785 1.5,12.5C 1.5,14.1667 1.5,15.8333 1.5,17.5C 0.515112,13.3656 0.181778,9.03225 0.5,4.5C 0.414228,3.5041 0.747561,2.67076 1.5,2C 3.31456,1.24316 4.98123,0.409824 6.5,-0.5 Z"/></g>
<g><path style="opacity:1" fill="#bc7418" d="M 13.5,2.5 C 12.5084,2.32842 11.8417,2.66175 11.5,3.5C 9.17068,1.99763 7.83734,2.6643 7.5,5.5C 6.16667,6.16667 5.16667,7.16667 4.5,8.5C 3.59603,9.20895 3.26269,10.209 3.5,11.5C 2.34333,8.97406 2.34333,6.30739 3.5,3.5C 6.64417,0.202123 9.9775,-0.13121 13.5,2.5 Z"/></g>
<g><path style="opacity:1" fill="#d27e1a" d="M 13.5,2.5 C 13.8333,2.5 14.1667,2.5 14.5,2.5C 14.3284,3.49162 14.6618,4.15829 15.5,4.5C 15.5,5.83333 14.8333,6.5 13.5,6.5C 13.1667,6.5 12.8333,6.5 12.5,6.5C 11.8902,5.60895 11.5569,4.60895 11.5,3.5C 11.8417,2.66175 12.5084,2.32842 13.5,2.5 Z"/></g>
<g><path style="opacity:0.249" fill="#171002" d="M 17.5,2.5 C 18.1667,2.5 18.8333,2.5 19.5,2.5C 19.5,8.16667 19.5,13.8333 19.5,19.5C 13.5,19.5 7.5,19.5 1.5,19.5C 1.5,19.1667 1.5,18.8333 1.5,18.5C 7.02621,18.8214 12.3595,18.4881 17.5,17.5C 17.5,16.5 17.5,15.5 17.5,14.5C 17.5,10.8333 17.5,7.16667 17.5,3.5C 17.5,3.16667 17.5,2.83333 17.5,2.5 Z"/></g>
<g><path style="opacity:1" fill="#f5e4cd" d="M 11.5,3.5 C 11.5569,4.60895 11.8902,5.60895 12.5,6.5C 11.8333,6.5 11.1667,6.5 10.5,6.5C 10.1583,5.66175 9.49162,5.32842 8.5,5.5C 8.16667,5.5 7.83333,5.5 7.5,5.5C 7.83734,2.6643 9.17068,1.99763 11.5,3.5 Z"/></g>
<g><path style="opacity:0.004" fill="#010000" d="M -0.5,4.5 C -0.166667,4.5 0.166667,4.5 0.5,4.5C 0.181778,9.03225 0.515112,13.3656 1.5,17.5C 1.5,17.8333 1.5,18.1667 1.5,18.5C 1.5,18.8333 1.5,19.1667 1.5,19.5C 0.833333,19.5 0.166667,19.5 -0.5,19.5C -0.5,14.5 -0.5,9.5 -0.5,4.5 Z"/></g>
<g><path style="opacity:1" fill="#ca7f1e" d="M 15.5,4.5 C 16.1582,5.79328 16.4915,7.29328 16.5,9C 16.4313,10.9855 15.7647,12.4855 14.5,13.5C 15.7199,11.7163 15.7199,10.0496 14.5,8.5C 14.1667,7.83333 13.8333,7.16667 13.5,6.5C 14.8333,6.5 15.5,5.83333 15.5,4.5 Z"/></g>
<g><path style="opacity:1" fill="#f4ddbe" d="M 8.5,5.5 C 9.49162,5.32842 10.1583,5.66175 10.5,6.5C 13.0983,7.47215 13.0983,8.47215 10.5,9.5C 9.83333,8.16667 9.16667,8.16667 8.5,9.5C 7.62356,9.63088 6.95689,9.29755 6.5,8.5C 7.61191,7.73485 8.27858,6.73485 8.5,5.5 Z"/></g>
<g><path style="opacity:1" fill="#fcf4eb" d="M 10.5,6.5 C 11.1667,6.5 11.8333,6.5 12.5,6.5C 12.8333,6.5 13.1667,6.5 13.5,6.5C 13.8333,7.16667 14.1667,7.83333 14.5,8.5C 14.38,9.58617 13.7133,10.2528 12.5,10.5C 11.5836,10.4573 10.9169,10.1239 10.5,9.5C 13.0983,8.47215 13.0983,7.47215 10.5,6.5 Z"/></g>
<g><path style="opacity:1" fill="#a76505" d="M 14.5,2.5 C 15.391,3.10978 16.391,3.44312 17.5,3.5C 17.5,7.16667 17.5,10.8333 17.5,14.5C 16.1663,16.4606 14.4997,16.4606 12.5,14.5C 13.1667,14.1667 13.8333,13.8333 14.5,13.5C 15.7647,12.4855 16.4313,10.9855 16.5,9C 16.4915,7.29328 16.1582,5.79328 15.5,4.5C 14.6618,4.15829 14.3284,3.49162 14.5,2.5 Z"/></g>
<g><path style="opacity:1" fill="#fcf5ee" d="M 7.5,5.5 C 7.83333,5.5 8.16667,5.5 8.5,5.5C 8.27858,6.73485 7.61191,7.73485 6.5,8.5C 6.95689,9.29755 7.62356,9.63088 8.5,9.5C 8.08305,10.1239 7.41638,10.4573 6.5,10.5C 5.28665,10.2528 4.61998,9.58617 4.5,8.5C 5.16667,7.16667 6.16667,6.16667 7.5,5.5 Z"/></g>
<g><path style="opacity:1" fill="#9b6705" d="M 3.5,3.5 C 2.34333,6.30739 2.34333,8.97406 3.5,11.5C 3.5,11.8333 3.5,12.1667 3.5,12.5C 3.16667,12.5 2.83333,12.5 2.5,12.5C 2.16667,12.5 1.83333,12.5 1.5,12.5C 0.945498,8.98785 1.61216,5.98785 3.5,3.5 Z"/></g>
<g><path style="opacity:1" fill="#a56616" d="M 2.5,12.5 C 2.83333,12.5 3.16667,12.5 3.5,12.5C 5.38855,13.604 7.05522,14.9373 8.5,16.5C 5.66268,16.3155 3.66268,14.9822 2.5,12.5 Z"/></g>
<g><path style="opacity:1" fill="#ecdac1" d="M 4.5,8.5 C 4.61998,9.58617 5.28665,10.2528 6.5,10.5C 7.41638,10.4573 8.08305,10.1239 8.5,9.5C 9.16667,8.16667 9.83333,8.16667 10.5,9.5C 10.9169,10.1239 11.5836,10.4573 12.5,10.5C 13.7133,10.2528 14.38,9.58617 14.5,8.5C 15.7199,10.0496 15.7199,11.7163 14.5,13.5C 13.8333,13.8333 13.1667,14.1667 12.5,14.5C 11.5,14.8333 10.8333,15.5 10.5,16.5C 10.1583,17.3382 9.49162,17.6716 8.5,17.5C 8.5,17.1667 8.5,16.8333 8.5,16.5C 7.05522,14.9373 5.38855,13.604 3.5,12.5C 3.5,12.1667 3.5,11.8333 3.5,11.5C 3.26269,10.209 3.59603,9.20895 4.5,8.5 Z"/></g>
<g><path style="opacity:1" fill="#7d4e09" d="M 1.5,12.5 C 1.83333,12.5 2.16667,12.5 2.5,12.5C 3.66268,14.9822 5.66268,16.3155 8.5,16.5C 8.5,16.8333 8.5,17.1667 8.5,17.5C 6.16667,17.5 3.83333,17.5 1.5,17.5C 1.5,15.8333 1.5,14.1667 1.5,12.5 Z"/></g>
<g><path style="opacity:1" fill="#8e5c0b" d="M 12.5,14.5 C 14.4997,16.4606 16.1663,16.4606 17.5,14.5C 17.5,15.5 17.5,16.5 17.5,17.5C 15.1944,17.0074 12.861,16.6741 10.5,16.5C 10.8333,15.5 11.5,14.8333 12.5,14.5 Z"/></g>
<g><path style="opacity:1" fill="#645014" d="M 10.5,16.5 C 12.861,16.6741 15.1944,17.0074 17.5,17.5C 12.3595,18.4881 7.02621,18.8214 1.5,18.5C 1.5,18.1667 1.5,17.8333 1.5,17.5C 3.83333,17.5 6.16667,17.5 8.5,17.5C 9.49162,17.6716 10.1583,17.3382 10.5,16.5 Z"/></g>
</svg>
