<?xml version="1.0" encoding="UTF-8"?>
<!DOCTYPE svg PUBLIC "-//W3C//DTD SVG 1.1//EN" "http://www.w3.org/Graphics/SVG/1.1/DTD/svg11.dtd">
<svg xmlns="http://www.w3.org/2000/svg" version="1.1" width="52px" height="52px" style="shape-rendering:geometricPrecision; text-rendering:geometricPrecision; image-rendering:optimizeQuality; fill-rule:evenodd; clip-rule:evenodd" xmlns:xlink="http://www.w3.org/1999/xlink">
<g><path style="opacity:0.369" fill="#090201" d="M 17.5,-0.5 C 20.1667,-0.5 22.8333,-0.5 25.5,-0.5C 33.4408,12.4246 42.1074,24.758 51.5,36.5C 51.5,41.1667 51.5,45.8333 51.5,50.5C 50.209,50.2627 49.209,50.596 48.5,51.5C 35.5,51.5 22.5,51.5 9.5,51.5C 9.17876,49.9519 8.17876,49.2852 6.5,49.5C 6.33591,46.8127 6.50258,44.146 7,41.5C 8.30764,39.3586 9.80764,37.3586 11.5,35.5C 9.1143,35.3241 6.44763,35.3241 3.5,35.5C 2.43236,34.5655 1.09903,34.2322 -0.5,34.5C -0.5,30.8333 -0.5,27.1667 -0.5,23.5C 1.19266,22.5251 2.69266,21.1918 4,19.5C 7.87017,12.4532 12.3702,5.7865 17.5,-0.5 Z"/></g>
<g><path style="opacity:1" fill="#b66040" d="M 18.5,6.5 C 17.8645,8.79463 16.5311,10.4613 14.5,11.5C 15.1237,9.24602 16.457,7.57935 18.5,6.5 Z"/></g>
<g><path style="opacity:0.996" fill="#c86644" d="M 24.5,8.5 C 24.427,10.0269 25.0937,11.0269 26.5,11.5C 27.038,13.1172 27.3713,14.7839 27.5,16.5C 26.19,14.5654 24.8567,12.5654 23.5,10.5C 22.675,9.61432 21.675,9.28099 20.5,9.5C 20.5394,8.41683 20.8728,7.41683 21.5,6.5C 20.5754,5.43764 19.5754,5.43764 18.5,6.5C 21.2869,3.70385 23.2869,4.37052 24.5,8.5 Z"/></g>
<g><path style="opacity:1" fill="#89503a" d="M 24.5,8.5 C 25.9063,8.97306 26.573,9.97306 26.5,11.5C 25.0937,11.0269 24.427,10.0269 24.5,8.5 Z"/></g>
<g><path style="opacity:1" fill="#9e4f34" d="M 14.5,11.5 C 14.573,13.0269 13.9063,14.0269 12.5,14.5C 12.427,12.9731 13.0937,11.9731 14.5,11.5 Z"/></g>
<g><path style="opacity:1" fill="#9f4f34" d="M 26.5,11.5 C 29.8827,15.5526 32.8827,19.8859 35.5,24.5C 34.6043,23.4937 33.9377,23.4937 33.5,24.5C 32.7777,23.4489 31.7777,22.7822 30.5,22.5C 31.5847,18.9018 30.9181,18.2351 28.5,20.5C 28.5674,19.0413 28.2341,17.7079 27.5,16.5C 27.3713,14.7839 27.038,13.1172 26.5,11.5 Z"/></g>
<g><path style="opacity:0.996" fill="#9d4f35" d="M 7.5,21.5 C 6.92499,23.4113 5.92499,25.078 4.5,26.5C 4.16667,26.5 3.83333,26.5 3.5,26.5C 4.07978,24.2512 5.41311,22.5846 7.5,21.5 Z"/></g>
<g><path style="opacity:1" fill="#6f1d0e" d="M 20.5,9.5 C 21.675,9.28099 22.675,9.61432 23.5,10.5C 24.8567,12.5654 26.19,14.5654 27.5,16.5C 28.2341,17.7079 28.5674,19.0413 28.5,20.5C 26.1667,23.1667 23.8333,25.8333 21.5,28.5C 20.8333,28.5 20.1667,28.5 19.5,28.5C 20.6963,25.4486 22.5296,22.7819 25,20.5C 25.8769,18.3258 25.3769,16.6591 23.5,15.5C 22.0837,13.8207 20.7503,12.1541 19.5,10.5C 19.5,9.83333 19.8333,9.5 20.5,9.5 Z"/></g>
<g><path style="opacity:1" fill="#bb3217" d="M 19.5,10.5 C 20.7503,12.1541 22.0837,13.8207 23.5,15.5C 23.6602,17.1992 23.4935,18.8659 23,20.5C 20.6216,23.3777 17.7883,25.711 14.5,27.5C 16.0453,28.4519 17.712,28.7852 19.5,28.5C 20.1667,28.5 20.8333,28.5 21.5,28.5C 21.0679,29.7095 20.4013,30.7095 19.5,31.5C 14.3595,30.5119 9.02621,30.1786 3.5,30.5C 3.5,29.1667 3.5,27.8333 3.5,26.5C 3.83333,26.5 4.16667,26.5 4.5,26.5C 4.36899,27.2389 4.53566,27.9056 5,28.5C 9.69734,22.3119 14.5307,16.3119 19.5,10.5 Z"/></g>
<g><path style="opacity:1" fill="#5d180c" d="M 30.5,22.5 C 31.7777,22.7822 32.7777,23.4489 33.5,24.5C 34.4706,26.4832 35.4706,28.4832 36.5,30.5C 35.6618,30.8417 35.3284,31.5084 35.5,32.5C 34.7281,31.3065 33.7281,30.3065 32.5,29.5C 31.2055,27.6716 30.2055,25.6716 29.5,23.5C 30.1667,23.5 30.5,23.1667 30.5,22.5 Z"/></g>
<g><path style="opacity:1" fill="#ee855a" d="M 20.5,9.5 C 19.8333,9.5 19.5,9.83333 19.5,10.5C 14.5307,16.3119 9.69734,22.3119 5,28.5C 4.53566,27.9056 4.36899,27.2389 4.5,26.5C 5.92499,25.078 6.92499,23.4113 7.5,21.5C 8.78588,18.883 10.4525,16.5496 12.5,14.5C 13.9063,14.0269 14.573,13.0269 14.5,11.5C 16.5311,10.4613 17.8645,8.79463 18.5,6.5C 19.5754,5.43764 20.5754,5.43764 21.5,6.5C 20.8728,7.41683 20.5394,8.41683 20.5,9.5 Z"/></g>
<g><path style="opacity:1" fill="#8b1f0d" d="M 23.5,15.5 C 25.3769,16.6591 25.8769,18.3258 25,20.5C 22.5296,22.7819 20.6963,25.4486 19.5,28.5C 17.712,28.7852 16.0453,28.4519 14.5,27.5C 17.7883,25.711 20.6216,23.3777 23,20.5C 23.4935,18.8659 23.6602,17.1992 23.5,15.5 Z"/></g>
<g><path style="opacity:1" fill="#852311" d="M 3.5,26.5 C 3.5,27.8333 3.5,29.1667 3.5,30.5C 9.02621,30.1786 14.3595,30.5119 19.5,31.5C 19.6716,32.4916 19.3382,33.1583 18.5,33.5C 13.9443,31.5583 8.94428,30.8917 3.5,31.5C 2.16667,29.8333 2.16667,28.1667 3.5,26.5 Z"/></g>
<g><path style="opacity:1" fill="#310802" d="M 3.5,31.5 C 8.94428,30.8917 13.9443,31.5583 18.5,33.5C 18.1667,33.5 17.8333,33.5 17.5,33.5C 12.8333,32.8333 8.16667,32.1667 3.5,31.5 Z"/></g>
<g><path style="opacity:1" fill="#8d2e1d" d="M 35.5,24.5 C 40.2226,30.253 44.7226,36.253 49,42.5C 49.7401,43.7494 49.5735,44.7494 48.5,45.5C 47.1001,44.9002 46.1001,43.9002 45.5,42.5C 44.1363,40.8089 42.803,39.1423 41.5,37.5C 40.2141,34.883 38.5475,32.5496 36.5,30.5C 35.4706,28.4832 34.4706,26.4832 33.5,24.5C 33.9377,23.4937 34.6043,23.4937 35.5,24.5 Z"/></g>
<g><path style="opacity:1" fill="#ee8559" d="M 30.5,22.5 C 30.5,23.1667 30.1667,23.5 29.5,23.5C 24.2219,30.4575 18.8886,37.4575 13.5,44.5C 12.7025,44.0431 12.3691,43.3764 12.5,42.5C 14.2417,39.3566 16.2417,36.3566 18.5,33.5C 19.3382,33.1583 19.6716,32.4916 19.5,31.5C 20.4013,30.7095 21.0679,29.7095 21.5,28.5C 23.8333,25.8333 26.1667,23.1667 28.5,20.5C 30.9181,18.2351 31.5847,18.9018 30.5,22.5 Z"/></g>
<g><path style="opacity:0.022" fill="#000000" d="M -0.5,35.5 C 0.833333,35.5 2.16667,35.5 3.5,35.5C 3.9528,36.4584 4.61947,37.2917 5.5,38C 3.7834,39.5588 1.7834,40.3921 -0.5,40.5C -0.5,38.8333 -0.5,37.1667 -0.5,35.5 Z"/></g>
<g><path style="opacity:1" fill="#5e2013" d="M 17.5,33.5 C 17.8333,33.5 18.1667,33.5 18.5,33.5C 16.2417,36.3566 14.2417,39.3566 12.5,42.5C 11.5655,43.5676 11.2322,44.901 11.5,46.5C 10.3775,44.7116 10.2109,42.7116 11,40.5C 13.1831,38.0929 15.3497,35.7596 17.5,33.5 Z"/></g>
<g><path style="opacity:1" fill="#7c1c0e" d="M 32.5,29.5 C 33.7281,30.3065 34.7281,31.3065 35.5,32.5C 37.1264,35.2457 37.7931,38.2457 37.5,41.5C 34.1667,41.5 30.8333,41.5 27.5,41.5C 27.5,41.1667 27.5,40.8333 27.5,40.5C 28.1667,40.5 28.8333,40.5 29.5,40.5C 31.5,40.5 33.5,40.5 35.5,40.5C 35.1075,36.6576 34.1075,32.9909 32.5,29.5 Z"/></g>
<g><path style="opacity:1" fill="#270a04" d="M 41.5,37.5 C 42.803,39.1423 44.1363,40.8089 45.5,42.5C 44.4479,44.256 42.7812,44.9227 40.5,44.5C 40.3318,42.2244 39.9985,39.891 39.5,37.5C 39.9698,36.537 40.6365,36.537 41.5,37.5 Z"/></g>
<g><path style="opacity:1" fill="#791608" d="M 25.5,41.5 C 25.5,42.1667 25.5,42.8333 25.5,43.5C 13.6968,43.3002 13.6968,42.6335 25.5,41.5 Z"/></g>
<g><path style="opacity:1" fill="#4f1207" d="M 36.5,30.5 C 38.5475,32.5496 40.2141,34.883 41.5,37.5C 40.6365,36.537 39.9698,36.537 39.5,37.5C 39.9985,39.891 40.3318,42.2244 40.5,44.5C 40.1667,44.5 39.8333,44.5 39.5,44.5C 34.9296,43.559 30.263,43.2256 25.5,43.5C 25.5,42.8333 25.5,42.1667 25.5,41.5C 26.1667,41.5 26.8333,41.5 27.5,41.5C 30.8333,41.5 34.1667,41.5 37.5,41.5C 37.7931,38.2457 37.1264,35.2457 35.5,32.5C 35.3284,31.5084 35.6618,30.8417 36.5,30.5 Z"/></g>
<g><path style="opacity:1" fill="#9c2713" d="M 29.5,23.5 C 30.2055,25.6716 31.2055,27.6716 32.5,29.5C 34.1075,32.9909 35.1075,36.6576 35.5,40.5C 33.5,40.5 31.5,40.5 29.5,40.5C 29.8212,38.9519 30.8212,38.2852 32.5,38.5C 32.5,37.1667 32.5,35.8333 32.5,34.5C 30.3618,34.297 28.6951,33.297 27.5,31.5C 24.5801,33.8333 22.2468,36.6666 20.5,40C 22.8098,40.4966 25.1432,40.6633 27.5,40.5C 27.5,40.8333 27.5,41.1667 27.5,41.5C 26.8333,41.5 26.1667,41.5 25.5,41.5C 13.6968,42.6335 13.6968,43.3002 25.5,43.5C 30.263,43.2256 34.9296,43.559 39.5,44.5C 36.8333,45.1667 34.1667,45.8333 31.5,46.5C 24.8333,46.5 18.1667,46.5 11.5,46.5C 11.2322,44.901 11.5655,43.5676 12.5,42.5C 12.3691,43.3764 12.7025,44.0431 13.5,44.5C 18.8886,37.4575 24.2219,30.4575 29.5,23.5 Z"/></g>
<g><path style="opacity:1" fill="#b92c15" d="M 29.5,40.5 C 28.8333,40.5 28.1667,40.5 27.5,40.5C 25.1432,40.6633 22.8098,40.4966 20.5,40C 22.2468,36.6666 24.5801,33.8333 27.5,31.5C 28.6951,33.297 30.3618,34.297 32.5,34.5C 32.5,35.8333 32.5,37.1667 32.5,38.5C 30.8212,38.2852 29.8212,38.9519 29.5,40.5 Z"/></g>
<g><path style="opacity:1" fill="#6e1a0d" d="M 45.5,42.5 C 46.1001,43.9002 47.1001,44.9002 48.5,45.5C 43.0247,46.4889 37.358,46.8222 31.5,46.5C 34.1667,45.8333 36.8333,45.1667 39.5,44.5C 39.8333,44.5 40.1667,44.5 40.5,44.5C 42.7812,44.9227 44.4479,44.256 45.5,42.5 Z"/></g>
</svg>
