<?xml version="1.0" encoding="UTF-8"?>
<!DOCTYPE svg PUBLIC "-//W3C//DTD SVG 1.1//EN" "http://www.w3.org/Graphics/SVG/1.1/DTD/svg11.dtd">
<svg xmlns="http://www.w3.org/2000/svg" version="1.1" width="18px" height="18px" style="shape-rendering:geometricPrecision; text-rendering:geometricPrecision; image-rendering:optimizeQuality; fill-rule:evenodd; clip-rule:evenodd" xmlns:xlink="http://www.w3.org/1999/xlink">
<g><path style="opacity:0.49" fill="#5f5f5f" d="M 1.5,1.5 C 5.06354,1.01553 8.7302,0.682196 12.5,0.5C 14.5139,0.436545 16.1806,1.10321 17.5,2.5C 17.5,4.83333 17.5,7.16667 17.5,9.5C 15.663,12.1053 13.3297,14.272 10.5,16C 7.7058,16.9724 5.7058,16.1391 4.5,13.5C 4.83333,13.5 5.16667,13.5 5.5,13.5C 6.48224,14.1408 7.48224,14.8075 8.5,15.5C 9.85181,14.4756 11.1851,13.4756 12.5,12.5C 13.8333,11.8333 14.8333,10.8333 15.5,9.5C 16.7416,7.38879 16.7416,5.38879 15.5,3.5C 14.1214,1.40309 12.4547,1.06975 10.5,2.5C 9.85013,2.80393 9.18346,3.13727 8.5,3.5C 6.82733,1.91374 4.82733,1.24707 2.5,1.5C 2.16667,1.5 1.83333,1.5 1.5,1.5 Z"/></g>
<g><path style="opacity:1" fill="#f0f0f0" d="M 2.5,1.5 C 4.82733,1.24707 6.82733,1.91374 8.5,3.5C 9.18346,3.13727 9.85013,2.80393 10.5,2.5C 11.2389,2.36899 11.9056,2.53566 12.5,3C 9.248,4.56611 6.248,6.39945 3.5,8.5C 3.15829,9.33825 2.49162,9.67158 1.5,9.5C 0.0165155,6.58915 0.349849,3.92248 2.5,1.5 Z"/></g>
<g><path style="opacity:1" fill="#d8d8d8" d="M 15.5,3.5 C 16.7416,5.38879 16.7416,7.38879 15.5,9.5C 14.596,8.79105 14.2627,7.79105 14.5,6.5C 13.5,6.5 12.5,6.5 11.5,6.5C 12.5903,5.14294 13.9236,4.14294 15.5,3.5 Z"/></g>
<g><path style="opacity:1" fill="#dfdfdf" d="M 10.5,2.5 C 12.4547,1.06975 14.1214,1.40309 15.5,3.5C 13.9236,4.14294 12.5903,5.14294 11.5,6.5C 9.5,7.16667 7.5,7.83333 5.5,8.5C 4.83333,8.5 4.16667,8.5 3.5,8.5C 6.248,6.39945 9.248,4.56611 12.5,3C 11.9056,2.53566 11.2389,2.36899 10.5,2.5 Z"/></g>
<g><path style="opacity:1" fill="#c5c5c5" d="M 11.5,6.5 C 12.5,6.5 13.5,6.5 14.5,6.5C 14.2627,7.79105 14.596,8.79105 15.5,9.5C 14.8333,10.8333 13.8333,11.8333 12.5,12.5C 12.5,12.1667 12.5,11.8333 12.5,11.5C 10.7211,9.65649 8.38779,8.98983 5.5,9.5C 5.5,9.16667 5.5,8.83333 5.5,8.5C 7.5,7.83333 9.5,7.16667 11.5,6.5 Z"/></g>
<g><path style="opacity:0.41" fill="#666666" d="M 1.5,1.5 C 1.83333,1.5 2.16667,1.5 2.5,1.5C 0.349849,3.92248 0.0165155,6.58915 1.5,9.5C 2.83333,10.8333 4.16667,12.1667 5.5,13.5C 5.16667,13.5 4.83333,13.5 4.5,13.5C 2.22543,12.8888 0.558761,11.5554 -0.5,9.5C -0.5,7.16667 -0.5,4.83333 -0.5,2.5C 0.166667,2.16667 0.833333,1.83333 1.5,1.5 Z"/></g>
<g><path style="opacity:1" fill="#bdbdbd" d="M 5.5,9.5 C 8.38779,8.98983 10.7211,9.65649 12.5,11.5C 10.9557,11.7031 9.62235,12.3698 8.5,13.5C 6.71182,12.7174 5.71182,11.3841 5.5,9.5 Z"/></g>
<g><path style="opacity:1" fill="#d6d6d6" d="M 3.5,8.5 C 4.16667,8.5 4.83333,8.5 5.5,8.5C 5.5,8.83333 5.5,9.16667 5.5,9.5C 5.71182,11.3841 6.71182,12.7174 8.5,13.5C 9.62235,12.3698 10.9557,11.7031 12.5,11.5C 12.5,11.8333 12.5,12.1667 12.5,12.5C 11.1851,13.4756 9.85181,14.4756 8.5,15.5C 7.48224,14.8075 6.48224,14.1408 5.5,13.5C 4.16667,12.1667 2.83333,10.8333 1.5,9.5C 2.49162,9.67158 3.15829,9.33825 3.5,8.5 Z"/></g>
</svg>
