<?xml version="1.0" encoding="UTF-8"?>
<!DOCTYPE svg PUBLIC "-//W3C//DTD SVG 1.1//EN" "http://www.w3.org/Graphics/SVG/1.1/DTD/svg11.dtd">
<svg xmlns="http://www.w3.org/2000/svg" version="1.1" width="69px" height="65px" style="shape-rendering:geometricPrecision; text-rendering:geometricPrecision; image-rendering:optimizeQuality; fill-rule:evenodd; clip-rule:evenodd" xmlns:xlink="http://www.w3.org/1999/xlink">
<g><path style="opacity:0.225" fill="#030201" d="M 32.5,-0.5 C 34.5,-0.5 36.5,-0.5 38.5,-0.5C 42.0433,1.20165 45.2099,3.53498 48,6.5C 49.0495,5.48288 50.2161,5.31621 51.5,6C 57.7504,11.0864 63.4171,16.5864 68.5,22.5C 68.5,28.8333 68.5,35.1667 68.5,41.5C 62.6753,46.8245 57.0086,52.3245 51.5,58C 45.1698,60.4981 38.8365,62.6648 32.5,64.5C 32.1667,64.5 31.8333,64.5 31.5,64.5C 28.6032,62.2217 25.2699,60.7217 21.5,60C 15.0166,54.3507 8.68322,48.5174 2.5,42.5C 1.4824,40.4061 0.482403,38.4061 -0.5,36.5C -0.5,33.5 -0.5,30.5 -0.5,27.5C 0.627925,24.5946 2.29459,21.9279 4.5,19.5C 10.8231,14.3361 17.1564,9.16943 23.5,4C 26.324,1.92117 29.324,0.421175 32.5,-0.5 Z"/></g>
<g><path style="opacity:1" fill="#937c60" d="M 40.5,11.5 C 36.5155,10.4136 32.8489,10.4136 29.5,11.5C 31.1455,9.1878 33.1455,7.1878 35.5,5.5C 37.1897,7.51927 38.8564,9.51927 40.5,11.5 Z"/></g>
<g><path style="opacity:1" fill="#af9676" d="M 40.5,11.5 C 42.8333,13.1667 44.8333,15.1667 46.5,17.5C 46.87,21.1859 45.5367,22.1859 42.5,20.5C 43.0906,19.8485 43.7573,19.1818 44.5,18.5C 40.4508,13.9301 38.1174,14.5968 37.5,20.5C 36.2921,19.7659 34.9587,19.4326 33.5,19.5C 32.3886,18.3403 31.3886,17.007 30.5,15.5C 28.8333,16.6667 27.1667,17.8333 25.5,19C 26.4158,19.2784 27.0825,19.7784 27.5,20.5C 25.9582,21.3007 24.2915,21.634 22.5,21.5C 22.5,20.5 22.5,19.5 22.5,18.5C 24.5,15.8333 26.8333,13.5 29.5,11.5C 32.8489,10.4136 36.5155,10.4136 40.5,11.5 Z"/></g>
<g><path style="opacity:1" fill="#c6ab86" d="M 33.5,19.5 C 32.8333,20.8333 31.8333,21.8333 30.5,22.5C 29.2223,22.2178 28.2223,21.5511 27.5,20.5C 27.0825,19.7784 26.4158,19.2784 25.5,19C 27.1667,17.8333 28.8333,16.6667 30.5,15.5C 31.3886,17.007 32.3886,18.3403 33.5,19.5 Z"/></g>
<g><path style="opacity:1" fill="#c5ab85" d="M 42.5,20.5 C 41.8333,21.5 41.1667,22.5 40.5,23.5C 39.1667,22.8333 38.1667,21.8333 37.5,20.5C 38.1174,14.5968 40.4508,13.9301 44.5,18.5C 43.7573,19.1818 43.0906,19.8485 42.5,20.5 Z"/></g>
<g><path style="opacity:1" fill="#a88460" d="M 46.5,17.5 C 51.6759,21.8425 56.3426,26.6759 60.5,32C 59.8699,33.3102 58.8699,34.1435 57.5,34.5C 57.0886,32.228 55.922,31.8947 54,33.5C 51.1324,30.6836 50.2991,31.0169 51.5,34.5C 50.5,34.1667 49.8333,33.5 49.5,32.5C 46.1938,29.8605 43.1938,26.8605 40.5,23.5C 41.1667,22.5 41.8333,21.5 42.5,20.5C 45.5367,22.1859 46.87,21.1859 46.5,17.5 Z"/></g>
<g><path style="opacity:1" fill="#aa8662" d="M 22.5,18.5 C 22.5,19.5 22.5,20.5 22.5,21.5C 24.2915,21.634 25.9582,21.3007 27.5,20.5C 28.2223,21.5511 29.2223,22.2178 30.5,22.5C 28.5,24.8333 26.5,27.1667 24.5,29.5C 21.5,31.8333 18.8333,34.5 16.5,37.5C 13.7547,36.2619 11.4214,34.4286 9.5,32C 13.3238,27.0095 17.6571,22.5095 22.5,18.5 Z"/></g>
<g><path style="opacity:1" fill="#211e19" d="M 33.5,19.5 C 34.9587,19.4326 36.2921,19.7659 37.5,20.5C 38.1667,21.8333 39.1667,22.8333 40.5,23.5C 43.1938,26.8605 46.1938,29.8605 49.5,32.5C 48.1667,33.8333 46.8333,35.1667 45.5,36.5C 46.7706,33.5475 45.7706,31.5475 42.5,30.5C 40.8333,28.1667 38.8333,26.1667 36.5,24.5C 35.7494,23.4265 34.7494,23.2599 33.5,24C 30.6286,26.7028 27.9619,29.5361 25.5,32.5C 25.1667,32.5 24.8333,32.5 24.5,32.5C 24.5,31.5 24.5,30.5 24.5,29.5C 26.5,27.1667 28.5,24.8333 30.5,22.5C 31.8333,21.8333 32.8333,20.8333 33.5,19.5 Z"/></g>
<g><path style="opacity:1" fill="#10b1c2" d="M 36.5,24.5 C 32.8333,27.1667 29.1667,29.8333 25.5,32.5C 27.9619,29.5361 30.6286,26.7028 33.5,24C 34.7494,23.2599 35.7494,23.4265 36.5,24.5 Z"/></g>
<g><path style="opacity:1" fill="#c8a67d" d="M 57.5,34.5 C 57.5,35.1667 57.1667,35.5 56.5,35.5C 54.7839,35.3713 53.1172,35.038 51.5,34.5C 50.2991,31.0169 51.1324,30.6836 54,33.5C 55.922,31.8947 57.0886,32.228 57.5,34.5 Z"/></g>
<g><path style="opacity:1" fill="#13b5c6" d="M 42.5,30.5 C 45.7706,31.5475 46.7706,33.5475 45.5,36.5C 44.8333,36.8333 44.1667,37.1667 43.5,37.5C 43.552,35.0971 43.2186,32.7638 42.5,30.5 Z"/></g>
<g><path style="opacity:1" fill="#987758" d="M 51.5,34.5 C 53.1172,35.038 54.7839,35.3713 56.5,35.5C 56.6716,36.4916 56.3382,37.1583 55.5,37.5C 53.5956,37.2624 52.2623,36.2624 51.5,34.5 Z"/></g>
<g><path style="opacity:1" fill="#39dced" d="M 36.5,24.5 C 38.8333,26.1667 40.8333,28.1667 42.5,30.5C 43.2186,32.7638 43.552,35.0971 43.5,37.5C 41.8333,38.8333 40.1667,40.1667 38.5,41.5C 35.7628,41.5987 33.0961,41.2653 30.5,40.5C 29.0892,38.086 27.0892,36.4194 24.5,35.5C 24.5569,34.391 24.8902,33.391 25.5,32.5C 29.1667,29.8333 32.8333,27.1667 36.5,24.5 Z"/></g>
<g><path style="opacity:1" fill="#d7fefe" d="M 34.5,27.5 C 37.7441,29.0713 40.4108,31.4046 42.5,34.5C 37.5,42.5 32.5,42.5 27.5,34.5C 30.0602,32.3879 32.3936,30.0546 34.5,27.5 Z"/></g>
<g><path style="opacity:1" fill="#a4815f" d="M 52.5,40.5 C 50.8333,41.5 49.5,42.8333 48.5,44.5C 44.8998,46.4302 41.8998,49.0969 39.5,52.5C 38.3734,53.1217 37.3734,53.955 36.5,55C 35.5,55.6667 34.5,55.6667 33.5,55C 28.595,49.5901 23.2617,44.7568 17.5,40.5C 17.1762,37.3198 18.5096,36.1531 21.5,37C 26.0114,40.8467 30.5114,44.68 35,48.5C 39.9464,45.2642 44.4464,41.4308 48.5,37C 51.4904,36.1531 52.8238,37.3198 52.5,40.5 Z"/></g>
<g><path style="opacity:1" fill="#221510" d="M 24.5,29.5 C 24.5,30.5 24.5,31.5 24.5,32.5C 23.1667,33.5 23.1667,34.5 24.5,35.5C 25.9108,37.914 27.9108,39.5806 30.5,40.5C 32.8444,45.1914 35.5111,45.5248 38.5,41.5C 40.1667,40.1667 41.8333,38.8333 43.5,37.5C 44.1667,37.1667 44.8333,36.8333 45.5,36.5C 46.8333,35.1667 48.1667,33.8333 49.5,32.5C 49.8333,33.5 50.5,34.1667 51.5,34.5C 52.2623,36.2624 53.5956,37.2624 55.5,37.5C 54.8333,38.8333 53.8333,39.8333 52.5,40.5C 52.8238,37.3198 51.4904,36.1531 48.5,37C 44.4464,41.4308 39.9464,45.2642 35,48.5C 30.5114,44.68 26.0114,40.8467 21.5,37C 18.5096,36.1531 17.1762,37.3198 17.5,40.5C 16.596,39.791 16.2627,38.791 16.5,37.5C 18.8333,34.5 21.5,31.8333 24.5,29.5 Z"/></g>
<g><path style="opacity:1" fill="#188691" d="M 24.5,35.5 C 27.0892,36.4194 29.0892,38.086 30.5,40.5C 27.9108,39.5806 25.9108,37.914 24.5,35.5 Z"/></g>
<g><path style="opacity:1" fill="#158792" d="M 24.5,32.5 C 24.8333,32.5 25.1667,32.5 25.5,32.5C 24.8902,33.391 24.5569,34.391 24.5,35.5C 23.1667,34.5 23.1667,33.5 24.5,32.5 Z"/></g>
<g><path style="opacity:1" fill="#17bacb" d="M 30.5,40.5 C 33.0961,41.2653 35.7628,41.5987 38.5,41.5C 35.5111,45.5248 32.8444,45.1914 30.5,40.5 Z"/></g>
<g><path style="opacity:0.906" fill="#221b15" d="M 48.5,44.5 C 46.1002,47.9031 43.1002,50.5698 39.5,52.5C 41.8998,49.0969 44.8998,46.4302 48.5,44.5 Z"/></g>
</svg>
