<?xml version="1.0" encoding="UTF-8"?>
<!DOCTYPE svg PUBLIC "-//W3C//DTD SVG 1.1//EN" "http://www.w3.org/Graphics/SVG/1.1/DTD/svg11.dtd">
<svg xmlns="http://www.w3.org/2000/svg" version="1.1" width="20px" height="20px" style="shape-rendering:geometricPrecision; text-rendering:geometricPrecision; image-rendering:optimizeQuality; fill-rule:evenodd; clip-rule:evenodd" xmlns:xlink="http://www.w3.org/1999/xlink">
<g><path style="opacity:0.004" fill="#1f0a05" d="M -0.5,-0.5 C 5.5,-0.5 11.5,-0.5 17.5,-0.5C 17.5,-0.166667 17.5,0.166667 17.5,0.5C 12.1667,0.5 6.83333,0.5 1.5,0.5C 1.21754,5.92655 1.55087,11.2599 2.5,16.5C 2.16667,16.5 1.83333,16.5 1.5,16.5C 0.833333,16.1667 0.166667,15.8333 -0.5,15.5C -0.5,10.1667 -0.5,4.83333 -0.5,-0.5 Z"/></g>
<g><path style="opacity:0.264" fill="#120202" d="M 17.5,-0.5 C 18.1667,-0.5 18.8333,-0.5 19.5,-0.5C 19.5,5.16667 19.5,10.8333 19.5,16.5C 18.8333,16.5 18.1667,16.5 17.5,16.5C 17.5,16.1667 17.5,15.8333 17.5,15.5C 17.5,15.1667 17.5,14.8333 17.5,14.5C 17.5,11.1667 17.5,7.83333 17.5,4.5C 17.5,3.16667 17.5,1.83333 17.5,0.5C 17.5,0.166667 17.5,-0.166667 17.5,-0.5 Z"/></g>
<g><path style="opacity:1" fill="#a52922" d="M 17.5,0.5 C 17.5,1.83333 17.5,3.16667 17.5,4.5C 17.1667,4.5 16.8333,4.5 16.5,4.5C 16.1164,2.70743 14.9497,1.70743 13,1.5C 11.9701,1.83611 11.4701,2.50278 11.5,3.5C 10.8485,2.90935 10.1818,2.24269 9.5,1.5C 8.81815,2.24269 8.15149,2.90935 7.5,3.5C 7.08305,2.87605 6.41638,2.54272 5.5,2.5C 4.28665,2.74716 3.61998,3.41383 3.5,4.5C 2.52693,6.9479 2.1936,9.61456 2.5,12.5C 3.16667,13.8333 3.83333,15.1667 4.5,16.5C 3.83333,16.5 3.16667,16.5 2.5,16.5C 1.55087,11.2599 1.21754,5.92655 1.5,0.5C 6.83333,0.5 12.1667,0.5 17.5,0.5 Z"/></g>
<g><path style="opacity:1" fill="#37281b" d="M 11.5,3.5 C 11.5,3.83333 11.5,4.16667 11.5,4.5C 11.5,5.5 11.5,6.5 11.5,7.5C 10.5,7.5 9.5,7.5 8.5,7.5C 7.76589,6.29208 7.43255,4.95875 7.5,3.5C 8.15149,2.90935 8.81815,2.24269 9.5,1.5C 10.1818,2.24269 10.8485,2.90935 11.5,3.5 Z"/></g>
<g><path style="opacity:1" fill="#f54d2a" d="M 12.5,4.5 C 14.3079,5.91791 14.9746,7.91791 14.5,10.5C 13.391,10.4431 12.391,10.1098 11.5,9.5C 12.3007,7.95819 12.634,6.29152 12.5,4.5 Z"/></g>
<g><path style="opacity:1" fill="#e1382b" d="M 7.5,3.5 C 6.11028,4.89928 5.11028,6.56594 4.5,8.5C 3.56552,7.43236 3.23219,6.09903 3.5,4.5C 3.61998,3.41383 4.28665,2.74716 5.5,2.5C 6.41638,2.54272 7.08305,2.87605 7.5,3.5 Z"/></g>
<g><path style="opacity:1" fill="#e03428" d="M 16.5,4.5 C 16.8174,7.57186 16.4841,10.5719 15.5,13.5C 14.6143,12.675 14.281,11.675 14.5,10.5C 14.9746,7.91791 14.3079,5.91791 12.5,4.5C 12.1667,4.5 11.8333,4.5 11.5,4.5C 11.5,4.16667 11.5,3.83333 11.5,3.5C 11.4701,2.50278 11.9701,1.83611 13,1.5C 14.9497,1.70743 16.1164,2.70743 16.5,4.5 Z"/></g>
<g><path style="opacity:1" fill="#d33624" d="M 3.5,4.5 C 3.23219,6.09903 3.56552,7.43236 4.5,8.5C 4.5,9.5 4.5,10.5 4.5,11.5C 4.15829,12.3382 3.49162,12.6716 2.5,12.5C 2.1936,9.61456 2.52693,6.9479 3.5,4.5 Z"/></g>
<g><path style="opacity:1" fill="#944b1f" d="M 11.5,4.5 C 11.8333,4.5 12.1667,4.5 12.5,4.5C 12.634,6.29152 12.3007,7.95819 11.5,9.5C 10.1779,9.66997 9.01127,9.33663 8,8.5C 7.51722,9.44802 7.35055,10.448 7.5,11.5C 7.16667,11.5 6.83333,11.5 6.5,11.5C 6.15684,9.51676 6.82351,8.18342 8.5,7.5C 9.5,7.5 10.5,7.5 11.5,7.5C 11.5,6.5 11.5,5.5 11.5,4.5 Z"/></g>
<g><path style="opacity:1" fill="#d9542d" d="M 7.5,3.5 C 7.43255,4.95875 7.76589,6.29208 8.5,7.5C 6.82351,8.18342 6.15684,9.51676 6.5,11.5C 6.16667,11.5 5.83333,11.5 5.5,11.5C 5.16667,11.5 4.83333,11.5 4.5,11.5C 4.5,10.5 4.5,9.5 4.5,8.5C 5.11028,6.56594 6.11028,4.89928 7.5,3.5 Z"/></g>
<g><path style="opacity:1" fill="#291c12" d="M 11.5,9.5 C 11.5,10.1667 11.5,10.8333 11.5,11.5C 10.1667,11.5 8.83333,11.5 7.5,11.5C 7.35055,10.448 7.51722,9.44802 8,8.5C 9.01127,9.33663 10.1779,9.66997 11.5,9.5 Z"/></g>
<g><path style="opacity:1" fill="#5b2416" d="M 5.5,11.5 C 5.83333,11.5 6.16667,11.5 6.5,11.5C 6.83333,11.5 7.16667,11.5 7.5,11.5C 8.83333,11.5 10.1667,11.5 11.5,11.5C 14.1667,12.1667 14.1667,12.8333 11.5,13.5C 11.1667,13.5 10.8333,13.5 10.5,13.5C 9.83333,12.1667 9.16667,12.1667 8.5,13.5C 6.82124,13.7148 5.82124,13.0481 5.5,11.5 Z"/></g>
<g><path style="opacity:1" fill="#ac2c28" d="M 4.5,11.5 C 4.83333,11.5 5.16667,11.5 5.5,11.5C 5.82124,13.0481 6.82124,13.7148 8.5,13.5C 8.76781,15.099 8.43448,16.4324 7.5,17.5C 6.39105,17.4431 5.39105,17.1098 4.5,16.5C 3.83333,15.1667 3.16667,13.8333 2.5,12.5C 3.49162,12.6716 4.15829,12.3382 4.5,11.5 Z"/></g>
<g><path style="opacity:1" fill="#c73428" d="M 16.5,4.5 C 16.8333,4.5 17.1667,4.5 17.5,4.5C 17.5,7.83333 17.5,11.1667 17.5,14.5C 15.9397,14.5191 14.4397,14.8524 13,15.5C 11.9701,15.1639 11.4701,14.4972 11.5,13.5C 14.1667,12.8333 14.1667,12.1667 11.5,11.5C 11.5,10.8333 11.5,10.1667 11.5,9.5C 12.391,10.1098 13.391,10.4431 14.5,10.5C 14.281,11.675 14.6143,12.675 15.5,13.5C 16.4841,10.5719 16.8174,7.57186 16.5,4.5 Z"/></g>
<g><path style="opacity:1" fill="#962522" d="M 10.5,13.5 C 10.8333,13.5 11.1667,13.5 11.5,13.5C 11.4701,14.4972 11.9701,15.1639 13,15.5C 14.4397,14.8524 15.9397,14.5191 17.5,14.5C 17.5,14.8333 17.5,15.1667 17.5,15.5C 15.5,16.1667 13.5,16.8333 11.5,17.5C 10.5655,16.4324 10.2322,15.099 10.5,13.5 Z"/></g>
<g><path style="opacity:0.078" fill="#110302" d="M 1.5,16.5 C 1.83333,16.5 2.16667,16.5 2.5,16.5C 3.16667,16.5 3.83333,16.5 4.5,16.5C 5.39105,17.1098 6.39105,17.4431 7.5,17.5C 8.20895,18.404 9.20895,18.7373 10.5,18.5C 10.5,18.8333 10.5,19.1667 10.5,19.5C 9.16667,19.5 7.83333,19.5 6.5,19.5C 4.73915,18.6873 3.07249,17.6873 1.5,16.5 Z"/></g>
<g><path style="opacity:1" fill="#30100b" d="M 10.5,13.5 C 10.2322,15.099 10.5655,16.4324 11.5,17.5C 11.5,18.1667 11.1667,18.5 10.5,18.5C 9.20895,18.7373 8.20895,18.404 7.5,17.5C 8.43448,16.4324 8.76781,15.099 8.5,13.5C 9.16667,12.1667 9.83333,12.1667 10.5,13.5 Z"/></g>
<g><path style="opacity:0.243" fill="#0f0201" d="M 17.5,15.5 C 17.5,15.8333 17.5,16.1667 17.5,16.5C 15.9275,17.6873 14.2608,18.6873 12.5,19.5C 11.8333,19.5 11.1667,19.5 10.5,19.5C 10.5,19.1667 10.5,18.8333 10.5,18.5C 11.1667,18.5 11.5,18.1667 11.5,17.5C 13.5,16.8333 15.5,16.1667 17.5,15.5 Z"/></g>
</svg>
