<?xml version="1.0" encoding="UTF-8"?>
<!DOCTYPE svg PUBLIC "-//W3C//DTD SVG 1.1//EN" "http://www.w3.org/Graphics/SVG/1.1/DTD/svg11.dtd">
<svg xmlns="http://www.w3.org/2000/svg" version="1.1" width="20px" height="17px" style="shape-rendering:geometricPrecision; text-rendering:geometricPrecision; image-rendering:optimizeQuality; fill-rule:evenodd; clip-rule:evenodd" xmlns:xlink="http://www.w3.org/1999/xlink">
<g><path style="opacity:0.294" fill="#171817" d="M 18.5,3.5 C 17.8333,3.5 17.5,3.83333 17.5,4.5C 16.8333,4.16667 16.1667,3.83333 15.5,3.5C 12.8333,2.16667 10.1667,2.16667 7.5,3.5C 6.77842,3.91753 6.27842,4.5842 6,5.5C 5.16274,3.99256 3.99608,3.49256 2.5,4C 5.08012,6.54444 5.08012,9.04444 2.5,11.5C 2.95689,12.2975 3.62356,12.6309 4.5,12.5C 3.79105,13.404 2.79105,13.7373 1.5,13.5C 1.5,12.5 1.5,11.5 1.5,10.5C 1.29619,7.48237 0.962858,4.48237 0.5,1.5C 4.10636,1.78917 7.60636,1.45584 11,0.5C 13.7555,1.07017 16.2555,2.07017 18.5,3.5 Z"/></g>
<g><path style="opacity:1" fill="#5f5f5f" d="M 7.5,3.5 C 10.1667,2.16667 12.8333,2.16667 15.5,3.5C 13.8333,3.5 12.1667,3.5 10.5,3.5C 10.8134,6.24688 10.48,8.91355 9.5,11.5C 8.89333,11.3764 8.55999,11.0431 8.5,10.5C 9.83333,8.83333 9.83333,7.16667 8.5,5.5C 10.0311,4.07546 9.69772,3.40879 7.5,3.5 Z"/></g>
<g><path style="opacity:1" fill="#d8d8d8" d="M 15.5,3.5 C 16.1667,3.83333 16.8333,4.16667 17.5,4.5C 17.6162,7.91032 15.9496,9.24365 12.5,8.5C 12.5,9.83333 12.5,11.1667 12.5,12.5C 9.98989,12.9465 7.98989,12.2798 6.5,10.5C 5.58761,9.2618 5.42094,7.92847 6,6.5C 6.27842,7.4158 6.77842,8.08247 7.5,8.5C 7.83333,9.16667 8.16667,9.83333 8.5,10.5C 8.55999,11.0431 8.89333,11.3764 9.5,11.5C 10.48,8.91355 10.8134,6.24688 10.5,3.5C 12.1667,3.5 13.8333,3.5 15.5,3.5 Z"/></g>
<g><path style="opacity:1" fill="#d3d4d3" d="M 7.5,3.5 C 9.69772,3.40879 10.0311,4.07546 8.5,5.5C 7.89022,6.39105 7.55688,7.39105 7.5,8.5C 6.77842,8.08247 6.27842,7.4158 6,6.5C 5.42094,7.92847 5.58761,9.2618 6.5,10.5C 5.5,10.8333 4.83333,11.5 4.5,12.5C 3.62356,12.6309 2.95689,12.2975 2.5,11.5C 5.08012,9.04444 5.08012,6.54444 2.5,4C 3.99608,3.49256 5.16274,3.99256 6,5.5C 6.27842,4.5842 6.77842,3.91753 7.5,3.5 Z"/></g>
<g><path style="opacity:0.712" fill="#1c1c1c" d="M 8.5,5.5 C 9.83333,7.16667 9.83333,8.83333 8.5,10.5C 8.16667,9.83333 7.83333,9.16667 7.5,8.5C 7.55688,7.39105 7.89022,6.39105 8.5,5.5 Z"/></g>
<g><path style="opacity:0.929" fill="#363636" d="M 12.5,5.5 C 14.337,5.63945 14.6704,6.30612 13.5,7.5C 12.7025,7.04311 12.3691,6.37644 12.5,5.5 Z"/></g>
<g><path style="opacity:0.319" fill="#131213" d="M 18.5,3.5 C 18.8333,3.5 19.1667,3.5 19.5,3.5C 19.5,5.5 19.5,7.5 19.5,9.5C 16.0673,9.76588 14.0673,11.5992 13.5,15C 9.96057,14.7346 6.46057,14.9012 3,15.5C 1.69736,15.0217 0.530694,14.355 -0.5,13.5C -0.5,12.8333 -0.5,12.1667 -0.5,11.5C 0.166667,11.1667 0.833333,10.8333 1.5,10.5C 1.5,11.5 1.5,12.5 1.5,13.5C 2.79105,13.7373 3.79105,13.404 4.5,12.5C 4.83333,11.5 5.5,10.8333 6.5,10.5C 7.98989,12.2798 9.98989,12.9465 12.5,12.5C 12.5,11.1667 12.5,9.83333 12.5,8.5C 15.9496,9.24365 17.6162,7.91032 17.5,4.5C 17.5,3.83333 17.8333,3.5 18.5,3.5 Z"/></g>
</svg>
